<?xml version="1.0" standalone="no"?>
<!DOCTYPE svg PUBLIC "-//W3C//DTD SVG 1.1//EN" "http://www.w3.org/Graphics/SVG/1.1/DTD/svg11.dtd" >
<svg xmlns="http://www.w3.org/2000/svg" xmlns:xlink="http://www.w3.org/1999/xlink" version="1.1">
<metadata>
Created by FontForge 20170731 at Fri Jun  1 16:28:58 2007
 By Aleksey,,,
Copyright (c) 2007 by Ian Party, distributed by B&#38;P Foundry Srl, Switzerland, http://www.bpfoundry.com. All rights reserved.
</metadata>
<defs>
<font id="RomainBPTextBold" horiz-adv-x="348" >
  <font-face 
    font-family="avenir next bold"
    font-weight="700"
    font-stretch="normal"
    units-per-em="1000"
    panose-1="2 0 0 0 0 0 0 0 0 0"
    ascent="750"
    descent="-250"
    x-height="480"
    cap-height="773"
    bbox="-249 -349 2266 1248"
    underline-thickness="50"
    underline-position="-200"
    unicode-range="U+0020-FB06"
  />
<missing-glyph horiz-adv-x="190" 
 />
    <glyph glyph-name="f_f" unicode="ff" horiz-adv-x="749" 
d="M607 89q0 -28 11.5 -38.5t51.5 -16.5l42 -6v-28h-335v28l42 6q26 4 34 15.5t8 39.5q0 10 1 71t1 94v179h-211v-179l1 -165q0 -28 10 -39.5t43 -15.5l42 -6v-28h-325v28l42 6q26 4 34 15.5t8 39.5q0 10 1 71t1 94v181q-11 1 -40.5 8t-38.5 8v29h79v19q0 66 19.5 117.5
t47.5 81.5t64 49.5t64.5 26t52.5 6.5q58 0 102 -16.5t62 -43.5q34 42 78.5 61t81.5 19q73 0 118.5 -26t45.5 -64q0 -27 -16 -42.5t-38 -15.5q-45 0 -63 47q-2 4 -6.5 17t-7.5 18t-8 13t-12.5 11t-16.5 3q-35 0 -53 -50t-18 -170v-61h154v-47h-154v-179zM252 521v-41h211v39
q0 63 14 113q-45 0 -63 47q-8 18 -14 29.5t-19 22t-28 10.5q-40 0 -70.5 -53t-30.5 -167z" />
    <glyph glyph-name="fi" unicode="fi" horiz-adv-x="686" 
d="M445 234q0 25 -0.5 107.5t-0.5 91.5h-192v-179l1 -165q0 -22 3.5 -31.5t21 -18t54.5 -11.5v-28h-309v28l42 6q26 4 34 15.5t8 39.5q0 10 1 71t1 94v181q-11 1 -40.5 8t-38.5 8v29h79v39q0 66 19 117.5t47 81.5t65 49.5t69 26t63 6.5q22 0 52 -4.5t66.5 -14.5t61 -31.5
t24.5 -50.5q0 -26 -18 -44.5t-49 -18.5q-30 0 -47 13t-23.5 31l-13 36t-22 31t-42.5 13q-60 0 -84.5 -54t-24.5 -194v-32h336v-246l1 -145q0 -28 8.5 -39.5t34.5 -15.5l42 -6v-28h-306v28q43 4 58.5 18t16.5 43q0 10 1 64t1 81z" />
    <glyph glyph-name="fl" unicode="fl" horiz-adv-x="692" 
d="M253 89q0 -26 7.5 -37t37.5 -17l40 -7v-28h-315v28l42 6q26 4 34 15.5t8 39.5q0 10 1 71t1 94v181q-11 1 -40.5 8t-38.5 8v29h79v39q0 66 16.5 117.5t40.5 81.5t55 49.5t56.5 26t49.5 6.5q42 0 87 -10l190 10q-2 -141 -2 -244v-302l2 -167q0 -27 8 -37t35 -15l42 -7v-28
h-315v28l42 7q27 5 34.5 15t7.5 37q1 64 1 167v302q0 73 -1 99q-17 6 -33.5 24t-28 35.5t-31 32t-42.5 14.5q-35 0 -53 -50t-18 -170v-61h154v-47h-154v-179z" />
    <glyph glyph-name="f_f_i" unicode="ffi" horiz-adv-x="1040" 
d="M799 234q0 25 -0.5 107.5t-0.5 91.5h-192v-179l1 -165q0 -22 3.5 -31.5t21 -18t54.5 -11.5v-28h-309v28l42 6q26 4 34 15.5t8 39.5q0 10 1 71t1 94v179h-211v-179l1 -165q0 -28 10 -39.5t43 -15.5l42 -6v-28h-325v28l42 6q26 4 34 15.5t8 39.5q0 10 1 71t1 94v181
q-11 1 -40.5 8t-38.5 8v29h79v19q0 66 19.5 117.5t47.5 81.5t64 49.5t64.5 26t52.5 6.5q62 0 107.5 -19t60.5 -48q40 46 95 66.5t106 20.5q22 0 52 -4.5t66.5 -14.5t61 -31.5t24.5 -50.5q0 -26 -18 -44.5t-49 -18.5q-30 0 -47 13t-23.5 31l-13 36t-22 31t-42.5 13
q-60 0 -84.5 -54t-24.5 -194v-32h336v-246l1 -145q0 -28 8.5 -39.5t34.5 -15.5l42 -6v-28h-306v28q43 4 58.5 18t16.5 43q0 10 1 64t1 81zM252 521v-41h211v39q0 64 17 113h-3q-45 0 -63 47q-8 18 -14 29.5t-19 22t-28 10.5q-40 0 -70.5 -53t-30.5 -167z" />
    <glyph glyph-name="f_f_l" unicode="ffl" horiz-adv-x="1056" 
d="M607 89q0 -26 7.5 -37t37.5 -17l40 -7v-28h-315v28l42 6q26 4 34 15.5t8 39.5q0 10 1 71t1 94v179h-211v-179l1 -165q0 -28 10 -39.5t43 -15.5l42 -6v-28h-325v28l42 6q26 4 34 15.5t8 39.5q0 10 1 71t1 94v181q-11 1 -40.5 8t-38.5 8v29h79v19q0 66 19.5 117.5
t47.5 81.5t64 49.5t64.5 26t52.5 6.5q58 0 102 -16.5t62 -43.5q34 42 78.5 61t81.5 19q42 0 87 -10l190 10q-2 -141 -2 -244v-302l2 -167q0 -27 8 -37t35 -15l42 -7v-28h-315v28l42 7q27 5 34.5 15t7.5 37q1 64 1 167v302q0 73 -1 99q-17 6 -33.5 24t-28 35.5t-31 32
t-42.5 14.5q-35 0 -53 -50t-18 -170v-61h154v-47h-154v-179zM252 521v-41h211v39q0 63 14 113q-45 0 -63 47q-8 18 -14 29.5t-19 22t-28 10.5q-40 0 -70.5 -53t-30.5 -167z" />
    <glyph glyph-name="f_b" unicode="fb" horiz-adv-x="978" 
d="M458 89q0 15 0.5 84t0.5 100v283q0 73 -1 99q-17 6 -33.5 24t-28 35.5t-31 32t-42.5 14.5q-35 0 -53 -50t-18 -170v-61h154v-47h-154v-179l1 -165q0 -26 7.5 -37t37.5 -17l40 -7v-28h-315v28l42 6q26 4 34 15.5t8 39.5q0 10 1 71t1 94v181q-11 1 -40.5 8t-38.5 8v29h79
v39q0 66 16.5 117.5t40.5 81.5t55 49.5t56.5 26t49.5 6.5q42 0 87 -10l190 10q-2 -141 -2 -244v-109q49 61 131 61q106 0 162.5 -73.5t56.5 -186.5q0 -59 -22.5 -113.5t-76.5 -94.5t-129 -40q-80 0 -125 48l-2 -48h-223v28l42 6q26 4 34 15.5t8 39.5zM602 415v-161l1 -175
q27 -16 59 -16q67 0 102.5 53.5t35.5 131.5q0 83 -28.5 138t-86.5 55q-49 0 -83 -26z" />
    <glyph glyph-name="f_h" unicode="fh" horiz-adv-x="1010" 
d="M253 89q0 -26 7.5 -37t37.5 -17l40 -7v-28h-315v28l42 6q26 4 34 15.5t8 39.5q0 10 1 71t1 94v181q-11 1 -40.5 8t-38.5 8v29h79v39q0 66 16.5 117.5t40.5 81.5t55 49.5t56.5 26t49.5 6.5q42 0 87 -10l190 10q-2 -141 -2 -244v-155q54 107 159 107q155 0 155 -198v-96
l2 -125q1 -29 8.5 -40t33.5 -15l42 -6v-28h-305v28l42 6q33 4 33 55q0 13 0.5 55.5t0.5 69.5v81q0 29 -1.5 47t-8.5 40.5t-23.5 34t-43.5 11.5q-26 0 -52 -18.5t-42 -54.5v-101l2 -167q0 -27 7 -38t26 -14l42 -7v-28h-305v28l42 7q27 5 34.5 15t7.5 37q1 64 1 167v302
q0 73 -1 99q-17 6 -33.5 24t-28 35.5t-31 32t-42.5 14.5q-35 0 -53 -50t-18 -170v-61h154v-47h-154v-179z" />
    <glyph glyph-name="f_k" unicode="fk" horiz-adv-x="1020" 
d="M253 89q0 -26 7.5 -37t37.5 -17l40 -7v-28h-315v28l42 6q26 4 34 15.5t8 39.5q0 10 1 71t1 94v181q-11 1 -40.5 8t-38.5 8v29h79v39q0 66 16.5 117.5t40.5 81.5t55 49.5t56.5 26t49.5 6.5q42 0 87 -10l190 10q-2 -141 -2 -244v-283l112 94q82 67 42 81q-12 4 -37 4v28
h250v-28q-54 0 -94 -18t-100 -69l-52 -44l181 -234q23 -29 43.5 -40.5t72.5 -18.5v-28h-307v28q2 0 14.5 1t17.5 3t11 7t2 16t-16 28l-140 186v-15l2 -167q0 -27 8 -37t35 -15l42 -7v-28h-315v28l42 7q27 5 34.5 15t7.5 37q1 64 1 167v302q0 73 -1 99q-17 6 -33.5 24
t-28 35.5t-31 32t-42.5 14.5q-35 0 -53 -50t-18 -170v-61h154v-47h-154v-179z" />
    <glyph glyph-name=".notdef" horiz-adv-x="190" 
 />
    <glyph glyph-name=".null" horiz-adv-x="500" 
 />
    <glyph glyph-name=".null" horiz-adv-x="500" 
 />
    <glyph glyph-name="nonmarkingreturn" horiz-adv-x="333" 
 />
    <glyph glyph-name="space" unicode=" " horiz-adv-x="190" 
 />
    <glyph glyph-name="exclam" unicode="!" horiz-adv-x="211" 
d="M22 786q80 30 161 0q0 -37 -16 -199q-2 -21 -23.5 -146.5t-23.5 -213.5h-35q-2 81 -24 214t-24 155q-15 150 -15 190zM12 82q0 39 27 66t66 27q41 0 68.5 -27t27.5 -66q0 -41 -27.5 -68.5t-68.5 -27.5q-39 0 -66 27.5t-27 68.5z" />
    <glyph glyph-name="quotedbl" unicode="&#x22;" horiz-adv-x="359" 
d="M65 560l-35 220h133l-35 -220h-63zM231 560l-35 220h133l-35 -220h-63z" />
    <glyph glyph-name="numbersign" unicode="#" horiz-adv-x="846" 
d="M122 488l20 55h175l97 241h59l-97 -241h211l97 241h59l-97 -241h170l-20 -55h-172l-89 -220h189l-20 -55h-191l-85 -213h-59l85 213h-211l-85 -213h-59l85 213h-154l20 55h156l89 220h-173zM354 488l-89 -220h211l89 220h-211z" />
    <glyph glyph-name="dollar" unicode="$" horiz-adv-x="650" 
d="M290 783v79h58v-78q96 -4 190 -48l11 -152h-35q-44 141 -166 148v-258l46 -16q43 -15 74.5 -32t62.5 -44.5t47 -68.5t16 -94q0 -93 -67 -156t-179 -74v-76h-58v73q-138 3 -234 63v162h28q32 -94 83.5 -131.5t122.5 -38.5v290l-33 12q-104 37 -148.5 96t-44.5 141
q0 84 63.5 139.5t162.5 63.5zM461 167q0 51 -25.5 85t-87.5 58v-264q55 11 84 44t29 77zM192 623q0 -91 98 -128v234q-48 -9 -73 -38.5t-25 -67.5z" />
    <glyph glyph-name="percent" unicode="%" horiz-adv-x="897" 
d="M758 790l-525 -790h-62l523 790h64zM230 698q-56 0 -89 -36t-33 -95q0 -57 31 -93.5t91 -36.5t91 36.5t31 93.5q0 59 -33 95t-89 36zM230 386q-77 0 -128.5 52.5t-51.5 128.5q0 78 49.5 129.5t130.5 51.5t130.5 -51.5t49.5 -129.5q0 -76 -51.5 -128.5t-128.5 -52.5z
M667 298q-56 0 -89 -36t-33 -95q0 -57 31 -93.5t91 -36.5t91 36.5t31 93.5q0 59 -33 95t-89 36zM667 -14q-77 0 -128.5 52.5t-51.5 128.5q0 78 49.5 129.5t130.5 51.5t130.5 -51.5t49.5 -129.5q0 -76 -51.5 -128.5t-128.5 -52.5z" />
    <glyph glyph-name="ampersand" unicode="&#x26;" horiz-adv-x="913" 
d="M681 299l-39 -56l131 -146q32 -37 61.5 -50t78.5 -18v-29h-351v29q21 0 32.5 3t15.5 6.5t-1 13t-11 16.5t-20 23l-24 27q-106 -132 -270 -132q-126 0 -190 63t-64 152q0 83 61 146t179 89l-5 6q-95 106 -95 202q0 72 57.5 114t162.5 42q85 0 140 -34.5t55 -98.5
q0 -46 -46.5 -94t-123.5 -76l196 -219l25 39q23 37 30.5 63.5t2.5 40t-19.5 21t-28 9t-30.5 1.5v28h272v-28q-25 -1 -35.5 -3.5t-32.5 -15.5t-48.5 -45.5t-65.5 -88.5zM347 58q96 0 177 93l-235 263q-93 -71 -93 -192q0 -74 43 -119t108 -45zM327 670q0 -73 70 -152
q67 73 67 149q0 46 -18.5 80.5t-48.5 34.5q-33 0 -51.5 -33t-18.5 -79z" />
    <glyph glyph-name="quotesingle" unicode="'" horiz-adv-x="193" 
d="M65 560l-35 220h133l-35 -220h-63z" />
    <glyph glyph-name="parenleft" unicode="(" horiz-adv-x="340" 
d="M272 783h63q-101 -97 -154.5 -244t-53.5 -291q0 -150 58 -297t163 -244h-64q-100 92 -157 238.5t-57 301.5t53 298.5t149 237.5z" />
    <glyph glyph-name="parenright" unicode=")" horiz-adv-x="344" 
d="M8 783h64q96 -94 149 -237.5t53 -298.5t-57 -301.5t-157 -238.5h-65q105 97 163 244t58 297q0 144 -53.5 291t-154.5 244z" />
    <glyph glyph-name="asterisk" unicode="*" horiz-adv-x="368" 
d="M215 784v-104l92 53l34 -58l-89 -50l91 -51l-33 -59l-90 51v-106h-67v103l-92 -52l-34 58l89 50l-91 51l33 59l90 -51v106h67z" />
    <glyph glyph-name="plus" unicode="+" horiz-adv-x="554" 
d="M40 227v55h207v198h58v-198h209v-55h-209v-210h-58v210h-207z" />
    <glyph glyph-name="comma" unicode="," horiz-adv-x="283" 
d="M70 -140l-15 27q23 17 47 44t24 51q0 16 -19 34.5t-38 40t-19 45.5q0 35 22 59t60 24q44 0 72.5 -35.5t28.5 -82.5q0 -61 -50.5 -121t-112.5 -86z" />
    <glyph glyph-name="hyphen" unicode="-" horiz-adv-x="406" 
d="M56 227v55h294v-55h-294z" />
    <glyph glyph-name="period" unicode="." horiz-adv-x="289" 
d="M50 82q0 39 27 66t66 27q41 0 68.5 -27t27.5 -66q0 -41 -27.5 -68.5t-68.5 -27.5q-39 0 -66 27.5t-27 68.5z" />
    <glyph glyph-name="slash" unicode="/" horiz-adv-x="394" 
d="M394 815l-336 -848h-58l336 848h58z" />
    <glyph glyph-name="zero" unicode="0" horiz-adv-x="573" 
d="M290 503q115 0 179.5 -73t64.5 -185q0 -110 -70 -184.5t-180 -74.5q-111 0 -177.5 72.5t-66.5 186.5q0 111 67.5 184.5t182.5 73.5zM287 55q78 0 121.5 51.5t43.5 138.5q0 81 -43 136t-122 55q-75 0 -119.5 -53.5t-44.5 -137.5q0 -82 41 -136t123 -54z" />
    <glyph glyph-name="one" unicode="1" horiz-adv-x="359" 
d="M250 393q-1 -12 -1 -200l1 -106q0 -27 8 -37t35 -15l41 -7v-28h-314v28l42 7q25 4 33 14.5t8 37.5q1 41 1 106v106l-1 94q0 27 -8 37t-35 15l-41 7v28h314v-28l-42 -7q-25 -4 -33 -14.5t-8 -37.5z" />
    <glyph glyph-name="two" unicode="2" horiz-adv-x="524" 
d="M486 196l5 -196h-152.5t-179.5 -0.5t-154 -2.5l-4 21q30 22 33 24q41 30 66.5 49.5t70 59t71.5 71.5t48 73.5t21 77.5q0 37 -23.5 56.5t-61.5 19.5q-66 0 -126 -62l-24 23q84 97 212 97q94 0 137.5 -35t43.5 -95q0 -34 -19 -66.5t-59.5 -64t-71 -51.5t-88.5 -52t-77 -44
h165q60 0 94 19t49 78h24z" />
    <glyph glyph-name="three" unicode="3" horiz-adv-x="441" 
d="M39 380l-33 19q29 58 84 84t117 24q80 -3 129 -40.5t48 -101.5q-3 -64 -67.5 -111.5t-135.5 -65.5q97 -6 161 -61t61 -131q-2 -59 -45 -112t-109.5 -88.5t-137.5 -59.5t-140 -34l-7 33q52 15 97.5 35t89.5 49t71 70.5t28 88.5q2 65 -39 106t-130 53l-3 20q68 34 113 87
t45 119q0 39 -16.5 62.5t-63.5 25.5q-71 0 -117 -71z" />
    <glyph glyph-name="four" unicode="4" horiz-adv-x="648" 
d="M450 -205q0 -27 8 -37.5t35 -15.5l42 -7v-28h-322v28l49 7q25 4 33 14.5t8 38.5v205h-281l-12 20l405 500h35v-423h71q34 0 56 16t30 64h24l4 -177h-186v-95zM129 95h180v220z" />
    <glyph glyph-name="five" unicode="5" horiz-adv-x="477" 
d="M120 366l-10 -81q160 -11 231.5 -66t71.5 -140q0 -82 -64 -162.5t-152 -136t-185 -90.5l-16 34q121 53 191 135.5t70 175.5q0 140 -144 201q-36 15 -45.5 33.5t-5.5 57.5l15 153h258q45 0 60 32h25l-19 -146h-281z" />
    <glyph glyph-name="six" unicode="6" horiz-adv-x="672" 
d="M558 832l13 -35q-133 -56 -224.5 -158t-125.5 -224q53 91 162 91q38 0 76 -14t74 -42.5t58 -81.5t22 -123q0 -107 -82 -183t-203 -76q-127 0 -198 83t-71 213q0 100 45 192.5t118.5 161.5t159.5 119t176 77zM343 451q-64 0 -100 -61t-36 -149q0 -93 29.5 -152.5
t88.5 -59.5q66 0 100.5 60t34.5 161q0 92 -29 146.5t-88 54.5z" />
    <glyph glyph-name="seven" unicode="7" horiz-adv-x="571" 
d="M20 -250l446 629h-206q-75 0 -119.5 -23t-55.5 -81h-30l14 205h488l14 -14q-132 -226 -244.5 -420.5t-158.5 -275.5l-46 -82z" />
    <glyph glyph-name="eight" unicode="8" horiz-adv-x="573" 
d="M190 645q0 -97 123 -169q70 60 70 148q0 57 -24 94.5t-71 37.5q-43 0 -70.5 -28.5t-27.5 -82.5zM323 309l-91 63q-74 -62 -74 -167q0 -79 32 -127t98 -48q51 0 81.5 39.5t30.5 93.5q0 93 -77 146zM345 458l38 -22q156 -91 156 -225q0 -85 -69.5 -155t-192.5 -70
q-103 0 -177 57t-74 145q0 62 43.5 115.5t129.5 88.5q-68 40 -104.5 100t-36.5 119q0 77 62 133t168 56q108 0 166.5 -42.5t58.5 -108.5q0 -53 -43.5 -104.5t-124.5 -86.5z" />
    <glyph glyph-name="nine" unicode="9" horiz-adv-x="624" 
d="M80 -349l-12 30q131 55 222.5 163.5t126.5 233.5q-53 -91 -162 -91q-38 0 -76 14t-73.5 42.5t-57.5 81.5t-22 123q0 107 81.5 183t202.5 76q127 0 197.5 -83t70.5 -212q0 -100 -44.5 -194.5t-117.5 -165t-159.5 -122.5t-176.5 -79zM295 38q64 0 100 63t36 151
q0 92 -29.5 150.5t-88.5 58.5q-66 0 -100.5 -58.5t-34.5 -159.5q0 -92 29 -148.5t88 -56.5z" />
    <glyph glyph-name="colon" unicode=":" horiz-adv-x="289" 
d="M50 82q0 39 27 66t66 27q41 0 68.5 -27t27.5 -66q0 -41 -27.5 -68.5t-68.5 -27.5q-39 0 -66 27.5t-27 68.5zM50 415q0 39 27 66t66 27q41 0 68.5 -27t27.5 -66q0 -41 -27.5 -68.5t-68.5 -27.5q-39 0 -66 27.5t-27 68.5z" />
    <glyph glyph-name="semicolon" unicode=";" horiz-adv-x="292" 
d="M70 -140l-15 27q23 17 47 44t24 51q0 16 -19 34.5t-38 40t-19 45.5q0 35 22 59t60 24q44 0 72.5 -35.5t28.5 -82.5q0 -61 -50.5 -121t-112.5 -86zM53 415q0 39 27 66t66 27q41 0 68.5 -27t27.5 -66q0 -41 -27.5 -68.5t-68.5 -27.5q-39 0 -66 27.5t-27 68.5z" />
    <glyph glyph-name="less" unicode="&#x3c;" horiz-adv-x="555" 
d="M50 227v55l505 221v-63l-440 -186l440 -202v-65z" />
    <glyph glyph-name="equal" unicode="=" horiz-adv-x="554" 
d="M50 132v55h454v-55h-454zM50 315v55h454v-55h-454z" />
    <glyph glyph-name="greater" unicode="&#x3e;" horiz-adv-x="555" 
d="M505 282v-55l-505 -240v65l440 202l-440 186v63z" />
    <glyph glyph-name="question" unicode="?" horiz-adv-x="397" 
d="M177 207l-21 -13q-28 24 -54 71t-26 98q0 43 17.5 79.5t42 63t49 51.5t42 55.5t17.5 65.5q0 34 -12 61.5t-37 27.5q-27 0 -42 -18.5t-20 -40.5t-22.5 -40.5t-48.5 -18.5q-24 0 -38.5 17t-14.5 43q0 41 57.5 66t124.5 25q40 0 72.5 -7t61 -23t44.5 -46t16 -71
q0 -43 -22.5 -84.5t-54.5 -75t-63.5 -66.5t-54 -71.5t-22.5 -78.5q0 -43 9 -70zM76 82q0 39 27 66t66 27q41 0 68.5 -27t27.5 -66q0 -41 -27.5 -68.5t-68.5 -27.5q-39 0 -66 27.5t-27 68.5z" />
    <glyph glyph-name="at" unicode="@" horiz-adv-x="953" 
d="M671 125q-84 0 -128.5 39t-46.5 97q-60 -93 -162 -93q-57 0 -86.5 40.5t-29.5 93.5q0 128 80 217.5t184 89.5q40 0 78 -19l7 26h120l-49 -264q-9 -49 -11.5 -79.5t2 -55.5t20.5 -36t45 -11q64 0 109.5 67.5t45.5 176.5q0 156 -98.5 247.5t-263.5 91.5q-157 0 -268 -113.5
t-111 -276.5q0 -139 81 -234q102 -118 290 -118q55 0 113 13l8 -45q-62 -15 -132 -15q-97 0 -183 34t-141 98q-93 107 -93 266q0 185 127 311t316 126q81 0 153 -23.5t130 -69t92 -121t34 -171.5q0 -125 -65.5 -207t-166.5 -82zM395 225q22 0 53.5 23t55.5 70l35 185
q-4 67 -54 67q-34 0 -65 -42t-49 -101.5t-18 -113.5q0 -49 7.5 -68.5t34.5 -19.5z" />
    <glyph glyph-name="A" unicode="A" horiz-adv-x="827" 
d="M550 103l-51 131h-263l-38 -105q-9 -25 -9.5 -42.5t4 -27t17.5 -16t22.5 -8t28 -4t25.5 -3.5v-28h-286v29q61 5 90.5 29.5t54.5 91.5l236 645h49l287 -696q8 -19 17.5 -31.5t23 -19.5t22 -10t25.5 -6t22 -4v-28h-362v28q49 4 71 13.5t22 25t-8 36.5zM363 585l-101 -278
h209z" />
    <glyph glyph-name="B" unicode="B" horiz-adv-x="750" 
d="M295 381v-118l1 -165q0 -32 20 -43t64 -11q76 0 119.5 41.5t43.5 126.5q0 78 -46.5 123.5t-133.5 45.5h-68zM295 728v-310h37q169 0 169 155q0 74 -42.5 116t-115.5 42q-31 0 -48 -3zM30 746v27q100 0 208 1.5t151 1.5q118 0 193 -44.5t75 -132.5q0 -66 -50.5 -119
t-118.5 -66q93 -3 155.5 -59.5t62.5 -134.5q0 -103 -73.5 -161.5t-216.5 -58.5h-386v28l48 6q35 4 51 19.5t16 54.5q0 35 1 87.5t1 73.5v235q0 17 -1 62t-1 100q0 39 -16 54.5t-51 19.5z" />
    <glyph glyph-name="C" unicode="C" horiz-adv-x="800" 
d="M766 241l-26 -172q-43 -39 -123.5 -61t-161.5 -22q-130 0 -226 56t-142.5 145t-46.5 198q0 177 118.5 291t302.5 114q27 0 53.5 -2.5t46 -5t46 -9t41 -10.5t45.5 -13t45 -13l15 -176h-26q-41 90 -107.5 134t-149.5 44q-109 0 -187 -93t-78 -263q0 -160 80 -252t181 -92
q201 0 271 202h29z" />
    <glyph glyph-name="D" unicode="D" horiz-adv-x="885" 
d="M30 0v28l48 6q35 4 51 19.5t16 54.5q0 35 1 86t1 72v242q0 17 -1 59.5t-1 97.5q0 39 -16 54.5t-51 19.5l-48 6v27q66 0 190 1.5t174 1.5q217 0 334 -98.5t117 -281.5q0 -181 -115.5 -288t-318.5 -107h-381zM297 266l1 -139q0 -49 28 -62.5t100 -13.5q52 0 96 17.5
t82 55.5t59.5 107.5t21.5 165.5q0 78 -17.5 137t-46 94.5t-70 57t-84 29.5t-93.5 8q-48 0 -77 -2v-455z" />
    <glyph glyph-name="E" unicode="E" horiz-adv-x="729" 
d="M30 773h621v-204h-30q-6 73 -61 116q-47 36 -167 36h-96v-291h55q84 0 116 30q33 32 39 90h27v-293h-29q-6 66 -43 97q-28 24 -112 24h-53v-133l1 -114q0 -44 18.5 -62.5t68.5 -18.5h71q110 0 152 44q42 45 49 119h28l1 -213h-656v28l48 6q35 4 51 19.5t16 54.5
q0 35 1 86t1 72v244l-2 156q-1 39 -16.5 54.5t-50.5 19.5l-48 6v27z" />
    <glyph glyph-name="F" unicode="F" horiz-adv-x="657" 
d="M430 0h-403v28l48 6q35 4 51 19.5t16 54.5q0 35 1 86t1 72v244q0 17 -1 59t-1 97q0 39 -16 54.5t-51 19.5l-48 6v27h631v-204h-30q-6 74 -60 115q-24 18 -61.5 26.5t-111.5 8.5h-100q-1 -107 -1 -287h60q85 0 115 35q27 30 33 85h29v-293h-29q-6 68 -46 99
q-29 22 -104 22h-58v-135l1 -137q0 -39 18.5 -53.5t68.5 -20.5l48 -6v-28z" />
    <glyph glyph-name="G" unicode="G" horiz-adv-x="848" 
d="M490 333h328v-28q-40 -6 -50 -19.5t-10 -61.5v-149q-46 -43 -129.5 -66t-171.5 -23q-196 0 -306.5 115t-110.5 282q0 175 119.5 291t301.5 116q112 0 275 -53l18 -175h-31q-40 91 -111 134t-143 43q-107 0 -186.5 -92.5t-79.5 -265.5q0 -160 77.5 -251t184.5 -91
q67 0 110 19q19 9 25 18t6 27v121q0 40 -16.5 55.5t-51.5 19.5l-48 6v28z" />
    <glyph glyph-name="H" unicode="H" horiz-adv-x="953" 
d="M806 510v-244l2 -158q1 -39 16.5 -54.5t50.5 -19.5l48 -6v-28h-383v28l48 6q35 4 51 19.5t16 54.5q0 53 1 96.5t1 61.5v116h-361v-116l2 -158q1 -39 16.5 -54.5t50.5 -19.5l48 -6v-28h-383v28l48 6q35 4 51 19.5t16 54.5q0 53 1 96.5t1 61.5v244l-2 155q0 39 -16 54.5
t-51 19.5l-48 6v28h383v-28l-48 -6q-35 -4 -50.5 -19.5t-16.5 -54.5q-2 -54 -2 -155v-75h361v75l-2 155q0 39 -16 54.5t-51 19.5l-48 6v28h383v-28l-48 -6q-35 -4 -50.5 -19.5t-16.5 -54.5q-2 -54 -2 -155z" />
    <glyph glyph-name="I" unicode="I" horiz-adv-x="443" 
d="M296 510v-244l2 -158q1 -39 16.5 -54.5t50.5 -19.5l48 -6v-28h-383v28l48 6q35 4 51 19.5t16 54.5q0 53 1 96.5t1 61.5v244l-2 155q0 39 -16 54.5t-51 19.5l-48 6v28h383v-28l-48 -6q-35 -4 -50.5 -19.5t-16.5 -54.5q-2 -54 -2 -155z" />
    <glyph glyph-name="J" unicode="J" horiz-adv-x="495" 
d="M248 361v133l-1 171q0 38 -19.5 54t-56.5 20l-48 6v28h392v-28l-48 -6q-35 -4 -50.5 -19.5t-16.5 -54.5q-3 -16 -3 -171v-133q0 -69 -5 -121t-19.5 -99t-38 -76.5t-62 -47t-90.5 -17.5q-68 0 -122 25t-54 74q0 26 18 44t49 18q42 0 65 -43l34 -62q12 -20 29 -20
q32 0 39.5 70t7.5 255z" />
    <glyph glyph-name="K" unicode="K" horiz-adv-x="838" 
d="M294 375l207 233q32 36 46.5 62t14 40t-12.5 22.5t-26.5 10.5t-36.5 2l1 28h301v-30q-86 0 -183 -103l-184 -198l262 -314q80 -95 159 -100v-28h-361v28q23 0 37.5 2.5t23 10t4 21t-21.5 34.5zM293 510v-244l2 -158q1 -39 16.5 -54.5t50.5 -19.5l48 -6v-28h-383v28l48 6
q35 4 51 19.5t16 54.5q0 53 1 96.5t1 61.5v244l-2 155q0 39 -16 54.5t-51 19.5l-48 6v28h383v-28l-48 -6q-35 -4 -50.5 -19.5t-16.5 -54.5q-2 -54 -2 -155z" />
    <glyph glyph-name="L" unicode="L" horiz-adv-x="725" 
d="M144 266v244l-2 156q-1 39 -16.5 54t-50.5 19l-48 6v28h393v-28l-48 -6q-43 -6 -60 -20.5t-17 -53.5q-1 -58 -1 -137v-283l1 -112q0 -44 18.5 -63t68.5 -19h86q111 0 154 57q34 44 41 114h29l1 -222h-666v28l48 6q35 4 51 19.5t16 54.5q0 35 1 86t1 72z" />
    <glyph glyph-name="M" unicode="M" horiz-adv-x="1066" 
d="M773 108l-23 501l-223 -609h-63l-232 609l-18 -429q-4 -96 14.5 -124t98.5 -28v-28h-307v28q77 0 102.5 28.5t30.5 120.5l26 499q1 23 -8.5 38t-27 21t-31.5 8t-31 2v28h248l215 -573l206 573h243v-28q-56 0 -77.5 -17t-19.5 -49l21 -416l9 -155q2 -39 17.5 -54.5
t49.5 -19.5l48 -6v-28h-373v28l38 6q36 4 52.5 19.5t14.5 54.5z" />
    <glyph glyph-name="N" unicode="N" horiz-adv-x="880" 
d="M696 228v363q0 94 -22.5 120t-105.5 34v28h312v-28q-42 -5 -62.5 -10.5t-37 -21.5t-21.5 -44t-5 -78v-605h-48l-498 604v-408q0 -94 22.5 -120t105.5 -34v-28h-312v28q42 5 62.5 10.5t37 21.5t21.5 44t5 78v478q-27 32 -40 45.5t-36.5 26.5t-49.5 13v28h224z" />
    <glyph glyph-name="O" unicode="O" horiz-adv-x="899" 
d="M692 387q0 174 -69.5 263.5t-173.5 89.5q-105 0 -174.5 -89.5t-69.5 -263.5q0 -173 69.5 -261t174.5 -88t174 87.5t69 261.5zM859 385q0 -172 -120 -285.5t-290 -113.5t-289.5 115.5t-119.5 289.5q0 172 119 285.5t290 113.5q169 0 289.5 -116t120.5 -289z" />
    <glyph glyph-name="P" unicode="P" horiz-adv-x="672" 
d="M283 722v-338q32 -7 68 -7q79 0 130.5 44t51.5 137q0 168 -178 168q-40 0 -72 -4zM18 745v28q56 0 167.5 1.5t166.5 1.5q51 0 92.5 -4.5t86.5 -18t75 -36.5t50 -63t20 -94q0 -108 -78 -170t-187 -62q-64 0 -128 22v-68l3 -174q1 -40 19 -54t68 -20l48 -6v-28h-403v28
l48 6q35 4 51 19.5t16 54.5q1 59 1 175l-1 382q0 39 -16 54.5t-51 19.5z" />
    <glyph glyph-name="Q" unicode="Q" horiz-adv-x="899" 
d="M859 385q0 -111 -52.5 -200t-141.5 -142l130 -181l-17 -17l-283 143q-30 -2 -46 -2q-170 0 -289.5 115.5t-119.5 289.5q0 172 119 285.5t290 113.5q169 0 289.5 -116t120.5 -289zM692 387q0 174 -69.5 263.5t-173.5 89.5q-105 0 -174.5 -89.5t-69.5 -263.5t69.5 -262.5
t174.5 -88.5t174 88.5t69 262.5z" />
    <glyph glyph-name="R" unicode="R" horiz-adv-x="816" 
d="M427 0h-389v28l48 6q35 4 51 19.5t16 54.5q1 43 1 159l-1 397q0 39 -16 54.5t-51 19.5l-48 6v28q59 0 164 2t164 2q56 0 105 -9t95 -29.5t73 -60.5t27 -96q0 -68 -53 -125t-138 -74q66 -7 113 -47.5t65 -104.5l17 -59q22 -76 56.5 -108t97.5 -25l7 -31q-60 -21 -120 -21
q-155 0 -204 205q-24 99 -64.5 129.5t-139.5 33.5v-246q0 -39 16 -54.5t51 -19.5l57 -6v-28zM303 725v-336q56 -3 96.5 7t63 26t35 42.5t16 50t3.5 55.5q0 82 -51 119.5t-129 37.5q-12 0 -34 -2z" />
    <glyph glyph-name="S" unicode="S" horiz-adv-x="650" 
d="M298 41q79 0 122.5 36t43.5 91q0 54 -28.5 89t-97.5 60l-80 28q-105 38 -149.5 97t-44.5 142q0 92 74.5 149t185.5 57q116 0 217 -49l11 -153h-35q-47 150 -183 150q-68 0 -104.5 -32t-36.5 -79q0 -95 106 -132l97 -34q43 -15 75 -32t63 -45t47 -69.5t16 -94.5
q0 -103 -81.5 -168.5t-212.5 -65.5q-146 0 -247 63v163h28q33 -96 86.5 -133.5t127.5 -37.5z" />
    <glyph glyph-name="T" unicode="T" horiz-adv-x="758" 
d="M13 539v234h737v-234h-34q-9 95 -57 140q-47 45 -155 45h-48v-458l2 -158q1 -39 16.5 -54.5t50.5 -19.5l48 -6v-28h-383v28l48 6q35 4 50.5 19.5t16.5 54.5l2 155v3v458h-44q-102 0 -152 -40q-55 -46 -64 -145h-34z" />
    <glyph glyph-name="U" unicode="U" horiz-adv-x="864" 
d="M116 304l-1 361q0 39 -16 54.5t-51 19.5l-48 6v28h383v-28l-48 -6q-35 -4 -51 -19.5t-16 -54.5q-2 -245 -2 -367q0 -119 47.5 -175.5t161.5 -56.5q101 0 155 66t54 192v175v50.5t-1 43t-3.5 39t-7 31.5t-11 28t-16 20.5t-22.5 17t-30 10t-39 6.5v28h320v-28
q-27 -2 -47.5 -10t-34 -17.5t-22.5 -29.5t-14 -34.5t-7 -45.5t-2.5 -50t-0.5 -59v-184q0 -155 -83.5 -242t-230.5 -87q-136 0 -217 67q-99 84 -99 251z" />
    <glyph glyph-name="V" unicode="V" horiz-adv-x="824" 
d="M464 176l139 408q15 45 18 76.5t-3 47.5t-20.5 24.5t-27 10t-29.5 2.5h-6v28h289v-29q-63 -5 -95 -38.5t-72 -145.5l-209 -584h-70l-268 698q-7 19 -17 31.5t-23 19.5t-22.5 10t-25.5 6t-22 4v28h362v-28q-49 -4 -71 -13.5t-22 -25t8 -36.5z" />
    <glyph glyph-name="W" unicode="W" horiz-adv-x="1141" 
d="M813 194l106 390q15 52 16.5 85.5t-11 49t-29 21t-44.5 5.5v28h290v-29q-66 -5 -100 -39t-67 -145l-171 -584h-71l-174 542l-163 -542h-67l-218 698q-7 19 -17 31.5t-23 19.5t-22.5 10t-25.5 6t-22 4v28h362v-28q-49 -4 -70.5 -13.5t-21 -24.5t6.5 -37l132 -476l122 411
l-22 69q-7 19 -17 31.5t-23 19.5t-22.5 10t-25.5 6t-22 4v28h362v-28q-49 -4 -70.5 -13.5t-21 -24.5t6.5 -37z" />
    <glyph glyph-name="X" unicode="X" horiz-adv-x="823" 
d="M216 202l132 163l-208 309q-7 11 -14.5 20t-13.5 15t-14.5 11t-13 8t-14.5 6t-13 4t-14 3.5t-13 3.5v28h368v-28q-49 -4 -72 -14t-22 -25t13 -34l125 -187l87 112q30 39 43.5 67.5t12.5 43.5t-13 24t-25 11t-30 2v28h282v-29q-57 -4 -93 -35.5t-123 -137.5l-109 -133
l229 -339q9 -14 20.5 -25t19.5 -17.5t21.5 -12t19.5 -7t21 -5t18 -4.5v-28h-378v28q49 4 72 14t22 25t-13 34l-147 217l-109 -142q-30 -39 -44 -67.5t-13.5 -44t12 -24t24.5 -10.5t33 -2v-28h-282v29q57 4 94 36t122 137z" />
    <glyph glyph-name="Y" unicode="Y" horiz-adv-x="736" 
d="M414 407l103 177q25 43 33 74t3.5 47t-20 25.5t-29.5 12t-33 2.5v28h265v-29q-11 0 -20.5 -2t-17 -4t-15.5 -8.5t-14 -10.5t-14.5 -15.5t-14 -18.5t-16 -24.5l-16.5 -27.5t-20 -34t-23 -39l-131 -221l2 -231q1 -39 16.5 -54.5t50.5 -19.5l48 -6v-28h-383v28l48 6
q35 4 50.5 19.5t16.5 54.5l2 229l-175 337q-9 18 -19 30.5t-24 19.5t-21 10t-25 6.5t-21 4.5v28h362v-28q-49 -4 -72 -14t-22.5 -25.5t9.5 -35.5z" />
    <glyph glyph-name="Z" unicode="Z" horiz-adv-x="726" 
d="M30 11l455 708h-86q-142 0 -195 -39q-56 -40 -68 -141h-35l8 234h560l7 -14l-455 -708h176q86 0 131.5 19.5t69.5 55.5q31 46 38 118h34v-244h-633z" />
    <glyph glyph-name="bracketleft" unicode="[" horiz-adv-x="299" 
d="M90 790h204v-53h-145v-977h145v-53h-204v1083z" />
    <glyph glyph-name="backslash" unicode="\" horiz-adv-x="394" 
d="M336 -33l-336 848h58l336 -848h-58z" />
    <glyph glyph-name="bracketright" unicode="]" horiz-adv-x="299" 
d="M0 790h204v-1083h-204v53h145v977h-145v53z" />
    <glyph glyph-name="asciicircum" unicode="^" horiz-adv-x="536" 
d="M226 784h67l193 -415h-63l-164 356l-148 -356h-61z" />
    <glyph glyph-name="underscore" unicode="_" horiz-adv-x="781" 
d="M60 -56v56h661v-56h-661z" />
    <glyph glyph-name="grave" unicode="`" horiz-adv-x="221" 
d="M142 773l81 -209h-29l-218 209h166z" />
    <glyph glyph-name="a" unicode="a" horiz-adv-x="535" 
d="M302 93v145q-140 -12 -140 -112q0 -34 18 -51.5t43 -17.5q51 0 79 36zM30 115q0 73 72 112.5t197 39.5v117q0 49 -13.5 69t-42.5 20q-51 0 -51 -45q0 -17 -0.5 -26t-3.5 -24t-9.5 -23t-19.5 -14.5t-31 -6.5q-23 0 -39 17.5t-16 44.5q0 53 58 82t123 29q82 0 132 -33.5
t49 -114.5l-2 -232q0 -38 8.5 -53.5t26.5 -15.5q24 0 60 23l15 -14q-47 -78 -131 -78q-86 0 -108 73q-57 -76 -138 -76q-63 0 -99.5 35.5t-36.5 93.5z" />
    <glyph glyph-name="b" unicode="b" horiz-adv-x="616" 
d="M240 415v-161l1 -175q27 -16 59 -16q67 0 102.5 53.5t35.5 131.5q0 83 -28.5 138t-86.5 55q-49 0 -83 -26zM96 89q0 15 0.5 84t0.5 100v283l-1 143q0 28 -8 39.5t-34 15.5l-42 6v28l230 12q-2 -141 -2 -244v-109q49 61 131 61q106 0 162.5 -72.5t56.5 -185.5
q0 -59 -22.5 -114t-76.5 -95.5t-129 -40.5q-80 0 -125 48l-2 -48h-223v28l42 6q26 4 34 15.5t8 39.5z" />
    <glyph glyph-name="c" unicode="c" horiz-adv-x="513" 
d="M288 -14q-120 0 -186 74.5t-66 186.5q0 115 75.5 188t193.5 73q74 0 130.5 -30t56.5 -71q0 -28 -17 -45.5t-43 -17.5q-49 0 -72 69q-9 26 -21.5 39.5t-37.5 13.5q-43 0 -79 -52.5t-36 -149.5q0 -89 36.5 -145t106.5 -56q94 0 145 90l28 -11q-61 -156 -214 -156z" />
    <glyph glyph-name="d" unicode="d" horiz-adv-x="637" 
d="M393 449v117l-1 133q0 29 -8 40.5t-34 14.5l-52 6v28l240 12q-2 -141 -2 -244v-234l2 -226q1 -37 7.5 -46.5t35.5 -13.5l36 -5l-1 -28l-213 -14l-4 66q-54 -69 -141 -69q-103 0 -162.5 75t-59.5 190q0 109 68 183t161 74q81 0 128 -59zM394 84l-1 332q-30 23 -72 23
q-61 0 -97 -49.5t-36 -136.5q0 -95 33.5 -145.5t90.5 -50.5q50 0 82 27z" />
    <glyph glyph-name="e" unicode="e" horiz-adv-x="543" 
d="M507 279h-327v-7q-1 -96 40 -152.5t111 -56.5q101 0 152 90l28 -11q-61 -156 -221 -156q-119 0 -186.5 73t-67.5 190q0 114 68 186.5t181 72.5q103 0 159.5 -60t62.5 -169zM285 467q-43 0 -69 -41.5t-32 -104.5h178q-1 146 -77 146z" />
    <glyph glyph-name="f" unicode="f" horiz-adv-x="395" 
d="M253 89q0 -28 11.5 -38.5t51.5 -16.5l42 -6v-28h-335v28l42 6q26 4 34 15.5t8 39.5q0 10 1 71t1 94v181q-11 1 -40.5 8t-38.5 8v29h79v39q0 66 16.5 117.5t40.5 81.5t55 49.5t56.5 26t49.5 6.5q74 0 120.5 -26t46.5 -64q0 -27 -16 -43.5t-38 -16.5q-48 0 -66 47
q-2 5 -6.5 17.5t-7.5 18t-8 13.5t-12.5 11.5t-16.5 3.5q-35 0 -53 -50t-18 -170v-61h154v-47h-154v-179z" />
    <glyph glyph-name="g" unicode="g" horiz-adv-x="565" 
d="M472 317q0 -84 -63.5 -134.5t-163.5 -50.5q-27 0 -52 6q-45 -25 -45 -54q0 -38 57 -36l115 2q114 0 170.5 -34t56.5 -111q0 -92 -87 -146.5t-203 -54.5q-106 0 -176.5 39t-70.5 104q0 31 27 57.5t82 33.5q-43 11 -65.5 40t-22.5 56q0 37 29.5 72.5t99.5 44.5
q-54 17 -91 68.5t-37 107.5q0 84 61.5 132.5t149.5 48.5q68 0 122 -24l201 19q9 -29 9 -45q0 -33 -33 -33q-24 0 -74 16l-60 18q64 -51 64 -142zM318 -68h-101q-42 0 -61 2q-46 -27 -46 -77q0 -111 152 -111q62 0 113 31t51 82q0 43 -28 58t-80 15zM327 320q0 68 -18 110.5
t-55 42.5q-39 0 -58.5 -42t-19.5 -110q0 -67 18 -110t55 -43q29 0 47.5 26.5t24.5 58.5t6 67z" />
    <glyph glyph-name="h" unicode="h" horiz-adv-x="655" 
d="M246 556v-157q54 109 160 109q155 0 155 -198v-96l2 -125q1 -29 8.5 -40t33.5 -15l42 -6v-28h-305v28l42 6q33 4 33 55q0 13 0.5 55.5t0.5 69.5v81q0 29 -1.5 47t-8.5 40.5t-23.5 34t-43.5 11.5q-26 0 -52.5 -19t-42.5 -56v-173l1 -91q0 -28 6.5 -40t26.5 -15l42 -6v-28
h-305v28l42 6q26 4 33.5 15t8.5 40q2 52 2 98v369l-1 143q0 28 -8 39.5t-34 15.5l-42 6v28l230 12q-2 -141 -2 -244z" />
    <glyph glyph-name="i" unicode="i" 
d="M107 234l-1 162q0 28 -8 39.5t-34 15.5l-42 6v28l228 19v-270l1 -145q0 -28 8.5 -39.5t34.5 -15.5l42 -6v-28h-315v28l42 6q26 4 33.5 15t8.5 40q0 10 1 64t1 81zM79 672q0 38 27 65t65 27t65 -27t27 -65t-27 -65t-65 -27t-65 27t-27 65z" />
    <glyph glyph-name="j" unicode="j" horiz-adv-x="291" 
d="M81 29l-1 367q0 29 -7.5 40t-33.5 15l-42 6v28l228 19q-1 -110 -1 -195v-261q0 -53 -6 -92.5t-24.5 -88t-60 -92t-106.5 -82.5l-18 22q26 27 41.5 64t21.5 85t7.5 79t1.5 86zM52 672q0 38 27 65t65 27t65 -27t27 -65t-27 -65t-65 -27t-65 27t-27 65z" />
    <glyph glyph-name="k" unicode="k" horiz-adv-x="667" 
d="M104 699q0 28 -8 39.5t-34 15.5l-42 6v28l230 12q-2 -141 -2 -244v-283l113 94q82 67 42 81q-12 4 -37 4v28h250v-28q-54 0 -94 -18t-100 -69l-52 -44l181 -234q23 -29 43.5 -40.5t72.5 -18.5v-28h-307v28q2 0 14.5 1t17.5 3t11 7t2 16t-16 28l-141 187v-16l2 -165
q0 -28 8.5 -39.5t34.5 -15.5l42 -6v-28h-315v28l42 6q26 4 34 15.5t8 39.5q1 62 1 165v302z" />
    <glyph glyph-name="l" unicode="l" 
d="M104 699q0 28 -8 39.5t-34 15.5l-42 6v28l230 12q-2 -141 -2 -244v-302l2 -167q0 -27 8 -37t35 -15l42 -7v-28h-315v28l42 7q27 5 34.5 15t7.5 37q1 64 1 167v302z" />
    <glyph glyph-name="m" unicode="m" horiz-adv-x="975" 
d="M737 89q0 13 0.5 55.5t0.5 69.5v81q0 29 -1.5 47t-8.5 40.5t-23.5 34t-43.5 11.5q-26 0 -55.5 -20t-41.5 -57q2 -26 2 -41v-96l2 -125q1 -28 7 -40t25 -15l42 -6v-28h-295v28l42 6q33 4 33 55q0 13 0.5 55.5t0.5 69.5v81q0 29 -1.5 47t-8.5 40.5t-23.5 34t-43.5 11.5
q-26 0 -52.5 -19t-42.5 -56v-173l1 -91q0 -28 6.5 -40t26.5 -15l42 -6v-28h-305v28l42 6q26 4 33.5 15t8.5 40q2 52 2 98v131l-2 78q-1 29 -8.5 40t-33.5 15l-42 6v28l223 13l3 -105q53 115 163 115q121 0 147 -121q24 59 69.5 90t98.5 31q155 0 155 -198v-96l2 -125
q1 -29 8.5 -40t33.5 -15l42 -6v-28h-305v28l42 6q33 4 33 55z" />
    <glyph glyph-name="n" unicode="n" horiz-adv-x="660" 
d="M22 485l223 13l3 -105q53 115 163 115q155 0 155 -198v-96l2 -125q1 -29 8.5 -40t33.5 -15l42 -6v-28h-305v28l42 6q33 4 33 55q0 13 0.5 55.5t0.5 69.5v81q0 29 -1.5 47t-8.5 40.5t-23.5 34t-43.5 11.5q-26 0 -52.5 -19t-42.5 -56v-173l1 -91q0 -28 6.5 -40t26.5 -15
l42 -6v-28h-305v28l42 6q26 4 33.5 15t8.5 40q2 52 2 98v90l-2 119q-1 29 -8.5 40t-33.5 15l-42 6v28z" />
    <glyph glyph-name="o" unicode="o" horiz-adv-x="600" 
d="M36 256q0 111 74.5 181.5t189.5 70.5q127 0 195.5 -76t68.5 -192q0 -111 -70.5 -182.5t-196.5 -71.5q-129 0 -195 78t-66 192zM411 245q0 98 -26 159t-83 61q-112 0 -112 -217q0 -95 25 -157t81 -62q115 0 115 216z" />
    <glyph glyph-name="p" unicode="p" horiz-adv-x="610" 
d="M222 415v-348q23 -14 61 -14q75 0 107 55t32 137q0 93 -32 145t-87 52q-49 0 -81 -27zM79 -204q0 14 1 68.5t1 78.5v453q0 28 -8 39.5t-34 15.5l-42 6v28l220 13l1 -56q21 33 58 49.5t75 16.5q107 0 165 -72.5t58 -192.5q0 -106 -60.5 -181.5t-160.5 -75.5q-88 0 -130 49
v-93l2 -146q0 -28 11.5 -38.5t51.5 -16.5l42 -6v-28h-335v28l42 6q26 4 34 15.5t8 39.5z" />
    <glyph glyph-name="q" unicode="q" horiz-adv-x="636" 
d="M394 87l-1 336q-28 16 -63 16q-70 0 -106 -50t-36 -136q0 -95 33.5 -145.5t90.5 -50.5q48 0 82 30zM420 495l208 -10v-28l-42 -6q-26 -4 -34 -15.5t-8 -39.5l-2 -193v-241l2 -166q0 -28 8 -39.5t34 -15.5l42 -6v-28h-335v28l42 6q40 6 51.5 16.5t11.5 38.5q0 14 1 77.5
t1 87.5l-1 97q-59 -72 -142 -72q-103 0 -162 75t-59 190q0 108 69.5 182.5t166.5 74.5q81 0 124 -57z" />
    <glyph glyph-name="r" unicode="r" horiz-adv-x="469" 
d="M240 498l1 -139q19 61 61 105t92 44q38 0 58.5 -19t20.5 -51q0 -26 -20.5 -47.5t-48.5 -21.5q-30 0 -49.5 13.5t-40.5 39.5q-44 -24 -68 -97v-145l1 -91q0 -27 12 -39t41 -16l42 -6v-28h-325v28l42 6q26 4 33.5 15t8.5 40q2 52 2 98v131l-2 78q-1 29 -8.5 40t-33.5 15
l-42 6v28z" />
    <glyph glyph-name="s" unicode="s" horiz-adv-x="494" 
d="M247 -14q-99 0 -146 54l-19 -53h-33v197h43q17 -81 56.5 -114t83.5 -33q88 0 88 74q0 61 -72 78l-48 12q-76 19 -111.5 64t-35.5 99q0 68 53 105.5t136 37.5q30 0 67 -9.5t57 -30.5l20 40h31v-174h-41q-25 128 -118 128q-30 0 -53 -16t-23 -46q0 -61 78 -80l36 -9
q157 -40 157 -159q0 -82 -61.5 -123.5t-144.5 -41.5z" />
    <glyph glyph-name="t" unicode="t" horiz-adv-x="398" 
d="M199 611h35v-130h138v-47h-138l1 -303q0 -45 14 -61.5t39 -16.5q39 0 89 25l17 -27q-76 -65 -165 -65q-57 0 -97.5 31.5t-40.5 93.5v325l-75 6v39h85z" />
    <glyph glyph-name="u" unicode="u" horiz-adv-x="633" 
d="M616 0h-210l-5 103q-53 -115 -163 -115q-82 0 -116.5 51t-34.5 146v68l-2 143q-1 29 -8.5 40t-33.5 15l-42 6v28l233 12q-3 -43 -3 -198l-1 -98q0 -26 0.5 -37.5t4 -34t10.5 -33t21.5 -19.5t36.5 -9q26 0 52.5 19t42.5 56v120l-2 133q-1 29 -8.5 40t-33.5 15l-42 6v28
l233 12q-3 -66 -3 -188l-1 -220q0 -28 6.5 -40t26.5 -15l42 -6v-28z" />
    <glyph glyph-name="v" unicode="v" horiz-adv-x="578" 
d="M271 -19l-186 425q-7 16 -17 26.5t-23 14t-21.5 4.5t-23.5 1v28h288v-28q-36 0 -48 -10t0 -41l96 -254l80 205q10 25 13 43.5t-2.5 29t-10.5 16.5t-18 8t-17 2.5t-16 0.5v28h213v-28q-42 0 -64.5 -22t-54.5 -99l-146 -350h-42z" />
    <glyph glyph-name="w" unicode="w" horiz-adv-x="877" 
d="M562 401l80 -244l72 195q11 29 11.5 49t-4 30t-16.5 15t-19.5 5.5t-19.5 0.5h-3v28h214v-28q-42 0 -65 -22t-54 -99l-139 -350h-39l-143 355l-142 -355h-39l-171 425q-7 17 -16.5 27t-23 14t-21.5 4.5t-24 0.5v28h288v-28q-11 0 -17 -0.5t-14.5 -1.5t-12.5 -4.5t-7 -9
t-2.5 -14.5t4.5 -21l79 -244l95 239l-4 10q-7 17 -16.5 27t-23 14t-21.5 4.5t-24 0.5v28h288v-28q-37 0 -49 -9.5t-1 -41.5z" />
    <glyph glyph-name="x" unicode="x" horiz-adv-x="601" 
d="M165 128l83 95l-137 183q-35 46 -83 46v28h292v-28q-23 0 -38.5 -5t-21 -16t9.5 -30l61 -82l46 53q24 28 31.5 46t-3 24.5t-18.5 8t-24 1.5h-4v28h216v-28q-41 0 -69 -18t-84 -82l-62 -71l156 -207q35 -46 85 -46v-28h-292v28q23 0 38 5t20 16t-10 30l-80 106l-67 -77
q-24 -28 -31.5 -46t3 -24.5t18.5 -8t24 -1.5h4v-28h-228v28q43 0 77 19t88 81z" />
    <glyph glyph-name="y" unicode="y" horiz-adv-x="593" 
d="M122 -253q54 0 107 130l42 104l-186 425q-7 16 -17 26.5t-23 14t-21.5 4.5t-23.5 1v28h288v-28q-36 0 -48 -10t0 -41l98 -259l78 210q11 29 11.5 49t-4 30t-16.5 15t-19.5 5.5t-19.5 0.5h-3v28h225v-28q-42 0 -65 -22t-54 -99l-190 -472q-65 -164 -185 -164
q-59 0 -95 23.5t-36 59.5q0 28 18 43t41 15q25 0 41.5 -14t22 -30.5t14 -30.5t20.5 -14z" />
    <glyph glyph-name="z" unicode="z" horiz-adv-x="513" 
d="M61 480h411l11 -15l-302 -426q124 1 189.5 28.5t77.5 106.5h29l3 -174h-458l-7 14l307 429q-37 -1 -61 -2.5t-52 -5.5t-46 -12.5t-35 -21.5t-28 -33.5t-17 -48.5h-32z" />
    <glyph glyph-name="braceleft" unicode="{" horiz-adv-x="312" 
d="M16 231v28q60 8 88.5 53.5t28.5 112.5q0 53 -16 98q-22 63 -22 113q0 71 44.5 112.5t138.5 41.5h29v-50h-21q-131 0 -131 -103q0 -37 16 -87q22 -69 22 -128q0 -115 -84 -177q84 -62 84 -183q0 -59 -22 -128q-16 -50 -16 -87q0 -103 131 -103h21v-50h-29q-183 0 -183 154
q0 50 22 113q16 45 16 98q0 68 -28.5 116t-88.5 56z" />
    <glyph glyph-name="bar" unicode="|" horiz-adv-x="278" 
d="M110 0v790h58v-790h-58z" />
    <glyph glyph-name="braceright" unicode="}" horiz-adv-x="296" 
d="M296 259v-28q-60 -8 -88.5 -56t-28.5 -116q0 -53 16 -98q22 -63 22 -113q0 -154 -183 -154h-29v50h21q131 0 131 103q0 37 -16 87q-22 69 -22 128q0 121 84 183q-84 62 -84 177q0 59 22 128q16 50 16 87q0 103 -131 103h-21v50h29q94 0 138.5 -41.5t44.5 -112.5
q0 -50 -22 -113q-16 -45 -16 -98q0 -67 28.5 -112.5t88.5 -53.5z" />
    <glyph glyph-name="asciitilde" unicode="~" horiz-adv-x="659" 
d="M183 323q52 0 151 -49.5t141 -49.5q31 0 53.5 17t41.5 60l47 -19q-19 -55 -57 -84t-84 -29q-54 0 -153 49t-139 49q-64 0 -95 -78l-47 21q19 55 57 84t84 29z" />
    <glyph glyph-name="uni00A0" unicode="&#xa0;" horiz-adv-x="500" 
 />
    <glyph glyph-name="exclamdown" unicode="&#xa1;" horiz-adv-x="211" 
d="M192 6q-80 -30 -161 0q0 37 16 199q2 21 23.5 146.5t23.5 213.5h35q2 -81 24 -214t24 -155q15 -150 15 -190zM202 710q0 -39 -27 -66t-66 -27q-41 0 -68.5 27t-27.5 66q0 41 27.5 68.5t68.5 27.5q39 0 66 -27.5t27 -68.5z" />
    <glyph glyph-name="cent" unicode="&#xa2;" horiz-adv-x="513" 
d="M268 -86v73q-110 7 -171 80.5t-61 179.5q0 105 63.5 176t168.5 83v82h58v-81q66 -4 116 -31.5t50 -68.5q0 -29 -16.5 -46t-43.5 -17q-30 0 -46 24t-28.5 54.5t-31.5 39.5v-399h2q95 0 146 90l28 -11q-54 -136 -176 -153v-75h-58zM186 264q0 -145 82 -187v381
q-35 -18 -58.5 -68t-23.5 -126z" />
    <glyph glyph-name="sterling" unicode="&#xa3;" horiz-adv-x="684" 
d="M58 399v52h108q-3 60 -1 113t19 96.5t46 75t80 48.5t121 17q68 0 128 -25.5t60 -73.5q0 -24 -17.5 -42t-45.5 -18q-30 0 -49.5 19.5t-27.5 42.5t-23 42.5t-37 19.5q-78 0 -93.5 -109t4.5 -194q1 -8 1 -12h217v-52h-213v-1q0 -106 -51.5 -201t-135.5 -160q166 125 240 125
q40 0 80.5 -18t64 -33.5t55 -10.5t64.5 44l22 -14q-28 -72 -74.5 -107.5t-92.5 -35.5q-44 0 -98 23.5t-115 23.5q-38 0 -118 -23.5t-146 -12.5l3 31q44 -8 75 13.5t45.5 60t20.5 93.5t4.5 103.5t-7.5 99.5h-113z" />
    <glyph glyph-name="yen" unicode="&#xa5;" horiz-adv-x="736" 
d="M134 315v55h134l-158 304q-9 18 -19 30.5t-24 19.5t-21 10t-25 6.5t-21 4.5v28h362v-28q-49 -4 -72 -14t-22.5 -25.5t9.5 -35.5l137 -263l103 177q25 43 33 74t3.5 47t-20 25.5t-29.5 12t-33 2.5v28h265v-29q-11 0 -20.5 -2t-17 -4t-15.5 -8.5t-14 -10.5t-14.5 -15.5
t-14 -18.5t-16 -24.5l-16.5 -27.5t-20 -34t-23 -39l-113 -190h136v-55h-154l1 -88h153v-55h-153l1 -64q1 -39 16.5 -54.5t50.5 -19.5l48 -6v-28h-383v28l48 6q35 4 50.5 19.5t16.5 54.5v64h-149v55h150l1 88h-151z" />
    <glyph glyph-name="brokenbar" unicode="&#xa6;" horiz-adv-x="218" 
d="M80 790h58v-439h-58v439zM80 146h58v-439h-58v439z" />
    <glyph glyph-name="section" unicode="&#xa7;" horiz-adv-x="661" 
d="M326 800q28 0 63 -5.5t73.5 -17t64.5 -34.5t26 -53q0 -23 -17.5 -39.5t-42.5 -16.5q-30 0 -51 19t-32.5 42t-35 42t-57.5 19q-52 0 -78 -25t-26 -66q0 -39 23 -66t73 -47l103 -42q97 -39 140.5 -86.5t43.5 -109.5q0 -123 -155 -188q154 -73 154 -198q0 -93 -74.5 -157
t-196.5 -64q-91 0 -173 37t-82 94q0 22 15 39t42 17t46.5 -14.5t32.5 -35t27.5 -41.5t40.5 -35.5t63 -14.5q52 0 83 29.5t31 80.5q0 97 -120 144l-87 34q-88 35 -131 82.5t-43 119.5q0 59 40.5 105t120.5 68q-73 31 -112 82t-39 113q0 90 66.5 139.5t180.5 49.5zM197 305
q0 -80 107 -123l104 -41q26 13 42.5 40t16.5 65q0 47 -36.5 76t-95.5 53l-74 29q-64 -34 -64 -99z" />
    <glyph glyph-name="dieresis" unicode="&#xa8;" horiz-adv-x="430" 
d="M20 670q0 35 24.5 59.5t59.5 24.5q37 0 61.5 -24.5t24.5 -59.5q0 -37 -24.5 -61.5t-61.5 -24.5q-35 0 -59.5 24.5t-24.5 61.5zM250 670q0 35 24.5 59.5t59.5 24.5q37 0 61.5 -24.5t24.5 -59.5q0 -37 -24.5 -61.5t-61.5 -24.5q-35 0 -59.5 24.5t-24.5 61.5z" />
    <glyph glyph-name="copyright" unicode="&#xa9;" horiz-adv-x="895" 
d="M50 383q0 165 116.5 281.5t280.5 116.5q165 0 281.5 -116.5t116.5 -281.5q0 -164 -116.5 -280.5t-281.5 -116.5q-164 0 -280.5 116.5t-116.5 280.5zM94 383q0 -148 103 -253t250 -105q148 0 250.5 105t102.5 253q0 149 -102.5 254t-250.5 105q-147 0 -250 -105t-103 -254
zM630 449h-17q-10 44 -28 77t-39.5 50t-42.5 24.5t-41 7.5q-118 0 -118 -219q0 -210 123 -210q20 0 39.5 6.5t41 22.5t39.5 48.5t27 78.5h17v-152q-71 -40 -173 -40q-128 0 -191 71t-63 177q0 115 68 183.5t182 68.5q98 0 177 -39z" />
    <glyph glyph-name="ordfeminine" unicode="&#xaa;" horiz-adv-x="407" 
d="M167 445q24 0 44 27v91q-39 -3 -58 -25t-19 -52q0 -18 8.5 -29.5t24.5 -11.5zM324 649l-2 -168q0 -35 25 -35q14 0 31 12l9 -9q-24 -55 -97 -55q-27 0 -49 14.5t-28 42.5q-31 -58 -99 -58q-44 0 -69 23t-25 59q0 54 50.5 80.5t140.5 26.5v94q0 31 -7.5 41t-29.5 10
q-19 0 -27 -11.5t-8 -38.5q0 -18 -13.5 -30.5t-35.5 -12.5q-17 0 -29.5 11.5t-12.5 29.5q0 37 42.5 56.5t89.5 19.5q71 0 107.5 -23.5t36.5 -78.5z" />
    <glyph glyph-name="guillemotleft" unicode="&#xab;" horiz-adv-x="478" 
d="M253 34l-233 210l232 211h27l-125 -210l125 -211h-26zM437 34l-233 210l232 211h27l-125 -210l125 -211h-26z" />
    <glyph glyph-name="logicalnot" unicode="&#xac;" horiz-adv-x="584" 
d="M40 211v55h474v-265h-58v210h-416z" />
    <glyph glyph-name="registered" unicode="&#xae;" horiz-adv-x="895" 
d="M50 383q0 165 116.5 281.5t280.5 116.5q165 0 281.5 -116.5t116.5 -281.5q0 -164 -116.5 -280.5t-281.5 -116.5q-164 0 -280.5 116.5t-116.5 280.5zM94 383q0 -148 103 -253t250 -105q148 0 250.5 105t102.5 253q0 149 -102.5 254t-250.5 105q-147 0 -250 -105t-103 -254
zM234 624h182q47 0 80.5 -4.5t62.5 -15.5t44 -33t15 -55q0 -50 -42.5 -82t-117.5 -37q121 -3 147 -100l4 -11q8 -33 15.5 -51t20 -28.5t24 -13.5t36.5 -7v-20q-43 -9 -90 -9q-61 0 -93.5 31t-47.5 92l-7 27q-11 41 -21 55.5t-36 15.5v-143q0 -25 9.5 -36t41.5 -13v-21h-227
v21q32 2 41.5 13t9.5 36v320q0 24 -9 33.5t-42 12.5v23zM410 593v-185q39 2 58.5 24t19.5 74q0 47 -18.5 66t-59.5 21z" />
    <glyph glyph-name="macron" unicode="&#xaf;" horiz-adv-x="434" 
d="M30 620v55h374v-55h-374z" />
    <glyph glyph-name="degree" unicode="&#xb0;" horiz-adv-x="346" 
d="M173 500q-62 0 -102.5 39.5t-40.5 102.5q0 59 42 100.5t101 41.5q62 0 102.5 -39.5t40.5 -102.5q0 -59 -42 -100.5t-101 -41.5zM173 732q-37 0 -61 -24t-24 -66q0 -39 22 -64.5t63 -25.5t63 25.5t22 64.5q0 42 -24 66t-61 24z" />
    <glyph glyph-name="plusminus" unicode="&#xb1;" horiz-adv-x="554" 
d="M40 256v55h207v169h58v-169h209v-55h-209v-169h-58v169h-207zM40 0v55h474v-55h-474z" />
    <glyph glyph-name="twosuperior" unicode="&#xb2;" horiz-adv-x="453" 
d="M390 552l3 -156h-386l-2 8q41 27 71 49.5t70 57.5t62.5 71t22.5 68q0 45 -42 45q-43 0 -92 -46l-19 21q30 38 73.5 59t88.5 21q59 0 99 -22t40 -65q0 -19 -10.5 -37.5t-23.5 -31.5t-40 -29.5t-43.5 -25.5t-51 -25.5t-47.5 -23.5h159q21 0 30 12.5t16 49.5h22z" />
    <glyph glyph-name="threesuperior" unicode="&#xb3;" horiz-adv-x="399" 
d="M61 653l-30 15q47 82 148 82q64 0 101 -25.5t37 -64.5q0 -49 -45.5 -82t-114.5 -48q93 -3 137.5 -41.5t44.5 -92.5q0 -45 -32 -83t-85 -63.5t-99 -41t-96 -26.5l-7 27q183 59 183 166q0 49 -28.5 75.5t-93.5 33.5l-3 25q105 57 105 144q0 23 -11.5 38.5t-33.5 15.5
q-46 0 -77 -54z" />
    <glyph glyph-name="acute" unicode="&#xb4;" horiz-adv-x="221" 
d="M-23 564l81 209h166l-218 -209h-29z" />
    <glyph glyph-name="mu" unicode="&#xb5;" horiz-adv-x="568" 
d="M93 480h58v-308q0 -55 35 -91t94 -36q43 0 80 27.5t57 75.5v332h58v-480h-56v78q-48 -92 -137 -92q-91 0 -131 60v-270h-58v704z" />
    <glyph glyph-name="mu" unicode="&#x3bc;" horiz-adv-x="568" 
d="M93 480h58v-308q0 -55 35 -91t94 -36q43 0 80 27.5t57 75.5v332h58v-480h-56v78q-48 -92 -137 -92q-91 0 -131 60v-270h-58v704z" />
    <glyph glyph-name="paragraph" unicode="&#xb6;" horiz-adv-x="560" 
d="M502 729h-73v-846h-58v846h-66v-846h-58v503q-91 0 -154 54.5t-63 143.5q0 38 12 70.5t38.5 63t77.5 48t121 17.5h223v-54z" />
    <glyph glyph-name="periodcentered" unicode="&#xb7;" horiz-adv-x="289" 
d="M50 255q0 39 27 66t66 27q41 0 68.5 -27t27.5 -66q0 -41 -27.5 -68.5t-68.5 -27.5q-39 0 -66 27.5t-27 68.5z" />
    <glyph glyph-name="cedilla" unicode="&#xb8;" horiz-adv-x="280" 
d="M127 0h37l-64 -94q34 26 67 26t53.5 -18.5t20.5 -52.5q0 -51 -60.5 -84.5t-127.5 -38.5l-3 18q44 9 73 41t29 63q0 17 -9.5 26.5t-24.5 9.5q-16 0 -30 -11l-24 19z" />
    <glyph glyph-name="onesuperior" unicode="&#xb9;" horiz-adv-x="342" 
d="M106 486v166q0 27 -8.5 38.5t-35.5 16.5l-32 6v28h280v-28l-32 -6q-26 -5 -34 -16t-8 -39v-166q0 -27 8.5 -38.5t35.5 -16.5l32 -6v-28h-280v28l32 6q26 5 34 16t8 39z" />
    <glyph glyph-name="ordmasculine" unicode="&#xba;" horiz-adv-x="422" 
d="M20 568q0 79 52 130t139 51t139 -51t52 -130t-52 -129.5t-139 -50.5t-139 50.5t-52 129.5zM211 417q68 0 68 151q0 152 -68 152t-68 -152q0 -151 68 -151z" />
    <glyph glyph-name="guillemotright" unicode="&#xbb;" horiz-adv-x="468" 
d="M458 244l-233 -210h-26l125 211l-125 210h27zM274 244l-233 -210h-26l125 211l-125 210h27z" />
    <glyph glyph-name="onequarter" unicode="&#xbc;" horiz-adv-x="847" 
d="M710 141l-1 -52q0 -27 9 -38.5t36 -16.5l32 -6v-28h-280v28l32 6q26 5 33.5 16t7.5 39v52h-207l-6 11l247 352h97v-270h28q30 0 40.5 10.5t17.5 47.5h26v-151h-112zM461 234h123v175zM79 486v166q0 27 -8.5 38.5t-35.5 16.5l-32 6v28h280v-28l-32 -6q-26 -5 -34 -16
t-8 -39v-166q0 -27 8.5 -38.5t35.5 -16.5l32 -6v-28h-280v28l32 6q26 5 34 16t8 39zM674 790l-525 -790h-59l523 790h61z" />
    <glyph glyph-name="onehalf" unicode="&#xbd;" horiz-adv-x="816" 
d="M96 486v166q0 27 -8.5 38.5t-35.5 16.5l-32 6v28h280v-28l-32 -6q-26 -5 -34 -16t-8 -39v-166q0 -27 8.5 -38.5t35.5 -16.5l32 -6v-28h-280v28l32 6q26 5 34 16t8 39zM691 790l-525 -790h-59l523 790h61zM763 156l3 -156h-386l-2 8q41 27 71 49.5t70 57.5t62.5 71
t22.5 68q0 45 -42 45q-43 0 -92 -46l-19 21q30 38 73.5 59t88.5 21q59 0 99 -22t40 -65q0 -19 -10.5 -37.5t-23.5 -31.5t-40 -29.5t-43.5 -25.5t-51 -25.5t-47.5 -23.5h159q21 0 30 12.5t16 49.5h22z" />
    <glyph glyph-name="threequarters" unicode="&#xbe;" horiz-adv-x="963" 
d="M91 653l-30 15q47 82 148 82q64 0 101 -25.5t37 -64.5q0 -49 -45.5 -82t-114.5 -48q93 -3 137.5 -41.5t44.5 -92.5q0 -45 -32 -83t-85 -63.5t-99 -41t-96 -26.5l-7 27q183 59 183 166q0 49 -28.5 75.5t-93.5 33.5l-3 25q105 57 105 144q0 23 -11.5 38.5t-33.5 15.5
q-46 0 -77 -54zM821 141l-1 -52q0 -27 9 -38.5t36 -16.5l32 -6v-28h-280v28l32 6q26 5 33.5 16t7.5 39v52h-207l-6 11l247 352h97v-270h28q30 0 40.5 10.5t17.5 47.5h26v-151h-112zM578 234h117v166zM784 790l-525 -790h-59l523 790h61z" />
    <glyph glyph-name="questiondown" unicode="&#xbf;" horiz-adv-x="397" 
d="M217 579l21 13q28 -24 54 -71t26 -98q0 -43 -17.5 -79.5t-42 -63t-49 -51.5t-42 -55.5t-17.5 -65.5q0 -34 12 -61.5t37 -27.5q27 0 42 18.5t20 40.5t22.5 40.5t48.5 18.5q24 0 38.5 -17t14.5 -43q0 -41 -57.5 -66t-124.5 -25q-40 0 -72.5 7t-61 23t-44.5 46t-16 71
q0 43 22.5 84.5t54.5 75t63.5 66.5t54 71.5t22.5 78.5q0 43 -9 70zM318 704q0 -39 -27 -66t-66 -27q-41 0 -68.5 27t-27.5 66q0 41 27.5 68.5t68.5 27.5q39 0 66 -27.5t27 -68.5z" />
    <glyph glyph-name="Agrave" unicode="&#xc0;" horiz-adv-x="827" 
d="M550 103l-51 131h-263l-38 -105q-9 -25 -9.5 -42.5t4 -27t17.5 -16t22.5 -8t28 -4t25.5 -3.5v-28h-286v29q61 5 90.5 29.5t54.5 91.5l236 645h49l287 -696q8 -19 17.5 -31.5t23 -19.5t22 -10t25.5 -6t22 -4v-28h-362v28q49 4 71 13.5t22 25t-8 36.5zM363 585l-101 -278
h209zM436 1026l81 -209h-29l-218 209h166z" />
    <glyph glyph-name="Aacute" unicode="&#xc1;" horiz-adv-x="827" 
d="M550 103l-51 131h-263l-38 -105q-9 -25 -9.5 -42.5t4 -27t17.5 -16t22.5 -8t28 -4t25.5 -3.5v-28h-286v29q61 5 90.5 29.5t54.5 91.5l236 645h49l287 -696q8 -19 17.5 -31.5t23 -19.5t22 -10t25.5 -6t22 -4v-28h-362v28q49 4 71 13.5t22 25t-8 36.5zM363 585l-101 -278
h209zM290 817l81 209h166l-218 -209h-29z" />
    <glyph glyph-name="Acircumflex" unicode="&#xc2;" horiz-adv-x="827" 
d="M550 103l-51 131h-263l-38 -105q-9 -25 -9.5 -42.5t4 -27t17.5 -16t22.5 -8t28 -4t25.5 -3.5v-28h-286v29q61 5 90.5 29.5t54.5 91.5l236 645h49l287 -696q8 -19 17.5 -31.5t23 -19.5t22 -10t25.5 -6t22 -4v-28h-362v28q49 4 71 13.5t22 25t-8 36.5zM363 585l-101 -278
h209zM239 828l142 197h46l141 -196l-20 -18l-144 101l-145 -102z" />
    <glyph glyph-name="Atilde" unicode="&#xc3;" horiz-adv-x="827" 
d="M203 851q10 29 16.5 46t18 40.5t21.5 35.5t25 21.5t31 9.5q36 0 112.5 -35t111.5 -35q46 0 76 41l22 -10q-14 -37 -22.5 -56.5t-22.5 -44.5t-31 -36.5t-38 -11.5q-42 0 -117 34.5t-106 34.5q-45 0 -76 -45zM550 103l-51 131h-263l-38 -105q-9 -25 -9.5 -42.5t4 -27
t17.5 -16t22.5 -8t28 -4t25.5 -3.5v-28h-286v29q61 5 90.5 29.5t54.5 91.5l236 645h49l287 -696q8 -19 17.5 -31.5t23 -19.5t22 -10t25.5 -6t22 -4v-28h-362v28q49 4 71 13.5t22 25t-8 36.5zM363 585l-101 -278h209z" />
    <glyph glyph-name="Adieresis" unicode="&#xc4;" horiz-adv-x="827" 
d="M195 923q0 35 24.5 59.5t59.5 24.5q37 0 61.5 -24.5t24.5 -59.5q0 -37 -24.5 -61.5t-61.5 -24.5q-35 0 -59.5 24.5t-24.5 61.5zM445 923q0 35 24.5 59.5t59.5 24.5q37 0 61.5 -24.5t24.5 -59.5q0 -37 -24.5 -61.5t-61.5 -24.5q-35 0 -59.5 24.5t-24.5 61.5zM550 103
l-51 131h-263l-38 -105q-9 -25 -9.5 -42.5t4 -27t17.5 -16t22.5 -8t28 -4t25.5 -3.5v-28h-286v29q61 5 90.5 29.5t54.5 91.5l236 645h49l287 -696q8 -19 17.5 -31.5t23 -19.5t22 -10t25.5 -6t22 -4v-28h-362v28q49 4 71 13.5t22 25t-8 36.5zM363 585l-101 -278h209z" />
    <glyph glyph-name="Aring" unicode="&#xc5;" horiz-adv-x="827" 
d="M550 103l-51 131h-263l-38 -105q-9 -25 -9.5 -42.5t4 -27t17.5 -16t22.5 -8t28 -4t25.5 -3.5v-28h-286v29q61 5 90.5 29.5t54.5 91.5l236 645h49l287 -696q8 -19 17.5 -31.5t23 -19.5t22 -10t25.5 -6t22 -4v-28h-362v28q49 4 71 13.5t22 25t-8 36.5zM363 585l-101 -278
h209zM505 910q0 -41 -30 -69.5t-72 -28.5t-72 28.5t-30 69.5t30 69.5t72 28.5t72 -28.5t30 -69.5zM457 910q0 27 -15 41t-39 14t-38.5 -15t-14.5 -40t14 -40t39 -15q54 0 54 55z" />
    <glyph glyph-name="AE" unicode="&#xc6;" horiz-adv-x="1210" 
d="M517 773h621v-194h-34q-6 68 -51.5 105t-119.5 37h-149v-291h99q50 0 74.5 30t30.5 90h33v-293h-35q-6 63 -30.5 92t-72.5 29h-99v-133l1 -114q0 -44 18 -61.5t69 -17.5h114q75 0 111 42.5t43 108.5h32l1 -203h-656v28l48 6q35 4 51 19.5t16 54.5q0 35 1 86t1 72v112
h-204l-215 -282q-25 -38 -13 -54t51 -18l28 -1v-23h-281v23q58 5 91 24.5t66 61.5l466 599q-12 25 -58 32l-48 6v27zM634 510q0 36 -0.5 81t-0.5 53l-164 -214h165v80z" />
    <glyph glyph-name="Ccedilla" unicode="&#xc7;" horiz-adv-x="800" 
d="M766 241l-26 -172q-43 -39 -123.5 -61t-161.5 -22q-3 0 -8.5 0.5t-8.5 0.5l-54 -81q34 26 67 26t53.5 -18.5t20.5 -52.5q0 -51 -60.5 -84.5t-127.5 -38.5l-3 18q44 9 73 41t29 63q0 17 -9.5 26.5t-24.5 9.5q-16 0 -30 -11l-24 19l55 85q-114 10 -198 67.5t-124.5 142.5
t-40.5 186q0 177 118.5 291t302.5 114q27 0 53.5 -2.5t46 -5t46 -9t41 -10.5t45.5 -13t45 -13l15 -176h-26q-41 90 -107.5 134t-149.5 44q-109 0 -187 -93t-78 -263q0 -160 80 -252t181 -92q201 0 271 202h29z" />
    <glyph glyph-name="Egrave" unicode="&#xc8;" horiz-adv-x="729" 
d="M30 773h621v-204h-30q-6 73 -61 116q-47 36 -167 36h-96v-291h55q84 0 116 30q33 32 39 90h27v-293h-29q-6 66 -43 97q-28 24 -112 24h-53v-133l1 -114q0 -44 18.5 -62.5t68.5 -18.5h71q110 0 152 44q42 45 49 119h28l1 -213h-656v28l48 6q35 4 51 19.5t16 54.5
q0 35 1 86t1 72v244l-2 156q-1 39 -16.5 54.5t-50.5 19.5l-48 6v27zM367 1026l81 -209h-29l-218 209h166z" />
    <glyph glyph-name="Eacute" unicode="&#xc9;" horiz-adv-x="729" 
d="M30 773h621v-204h-30q-6 73 -61 116q-47 36 -167 36h-96v-291h55q84 0 116 30q33 32 39 90h27v-293h-29q-6 66 -43 97q-28 24 -112 24h-53v-133l1 -114q0 -44 18.5 -62.5t68.5 -18.5h71q110 0 152 44q42 45 49 119h28l1 -213h-656v28l48 6q35 4 51 19.5t16 54.5
q0 35 1 86t1 72v244l-2 156q-1 39 -16.5 54.5t-50.5 19.5l-48 6v27zM301 817l81 209h166l-218 -209h-29z" />
    <glyph glyph-name="Ecircumflex" unicode="&#xca;" horiz-adv-x="729" 
d="M30 773h621v-204h-30q-6 73 -61 116q-47 36 -167 36h-96v-291h55q84 0 116 30q33 32 39 90h27v-293h-29q-6 66 -43 97q-28 24 -112 24h-53v-133l1 -114q0 -44 18.5 -62.5t68.5 -18.5h71q110 0 152 44q42 45 49 119h28l1 -213h-656v28l48 6q35 4 51 19.5t16 54.5
q0 35 1 86t1 72v244l-2 156q-1 39 -16.5 54.5t-50.5 19.5l-48 6v27zM200 828l142 197h46l141 -196l-20 -18l-144 101l-145 -102z" />
    <glyph glyph-name="Edieresis" unicode="&#xcb;" horiz-adv-x="729" 
d="M164 923q0 35 24.5 59.5t59.5 24.5q37 0 61.5 -24.5t24.5 -59.5q0 -37 -24.5 -61.5t-61.5 -24.5q-35 0 -59.5 24.5t-24.5 61.5zM454 923q0 35 24.5 59.5t59.5 24.5q37 0 61.5 -24.5t24.5 -59.5q0 -37 -24.5 -61.5t-61.5 -24.5q-35 0 -59.5 24.5t-24.5 61.5zM30 773h621
v-204h-30q-6 73 -61 116q-47 36 -167 36h-96v-291h55q84 0 116 30q33 32 39 90h27v-293h-29q-6 66 -43 97q-28 24 -112 24h-53v-133l1 -114q0 -44 18.5 -62.5t68.5 -18.5h71q110 0 152 44q42 45 49 119h28l1 -213h-656v28l48 6q35 4 51 19.5t16 54.5q0 35 1 86t1 72v244
l-2 156q-1 39 -16.5 54.5t-50.5 19.5l-48 6v27z" />
    <glyph glyph-name="Igrave" unicode="&#xcc;" horiz-adv-x="443" 
d="M296 510v-244l2 -158q1 -39 16.5 -54.5t50.5 -19.5l48 -6v-28h-383v28l48 6q35 4 51 19.5t16 54.5q0 53 1 96.5t1 61.5v244l-2 155q0 39 -16 54.5t-51 19.5l-48 6v28h383v-28l-48 -6q-35 -4 -50.5 -19.5t-16.5 -54.5q-2 -54 -2 -155zM264 1026l81 -209h-29l-218 209h166z
" />
    <glyph glyph-name="Iacute" unicode="&#xcd;" horiz-adv-x="443" 
d="M296 510v-244l2 -158q1 -39 16.5 -54.5t50.5 -19.5l48 -6v-28h-383v28l48 6q35 4 51 19.5t16 54.5q0 53 1 96.5t1 61.5v244l-2 155q0 39 -16 54.5t-51 19.5l-48 6v28h383v-28l-48 -6q-35 -4 -50.5 -19.5t-16.5 -54.5q-2 -54 -2 -155zM108 817l81 209h166l-218 -209h-29z
" />
    <glyph glyph-name="Icircumflex" unicode="&#xce;" horiz-adv-x="443" 
d="M296 510v-244l2 -158q1 -39 16.5 -54.5t50.5 -19.5l48 -6v-28h-383v28l48 6q35 4 51 19.5t16 54.5q0 53 1 96.5t1 61.5v244l-2 155q0 39 -16 54.5t-51 19.5l-48 6v28h383v-28l-48 -6q-35 -4 -50.5 -19.5t-16.5 -54.5q-2 -54 -2 -155zM57 828l142 197h46l141 -196l-20 -18
l-144 101l-145 -102z" />
    <glyph glyph-name="Idieresis" unicode="&#xcf;" horiz-adv-x="443" 
d="M296 510v-244l2 -158q1 -39 16.5 -54.5t50.5 -19.5l48 -6v-28h-383v28l48 6q35 4 51 19.5t16 54.5q0 53 1 96.5t1 61.5v244l-2 155q0 39 -16 54.5t-51 19.5l-48 6v28h383v-28l-48 -6q-35 -4 -50.5 -19.5t-16.5 -54.5q-2 -54 -2 -155zM21 923q0 35 24.5 59.5t59.5 24.5
q37 0 61.5 -24.5t24.5 -59.5q0 -37 -24.5 -61.5t-61.5 -24.5q-35 0 -59.5 24.5t-24.5 61.5zM251 923q0 35 24.5 59.5t59.5 24.5q37 0 61.5 -24.5t24.5 -59.5q0 -37 -24.5 -61.5t-61.5 -24.5q-35 0 -59.5 24.5t-24.5 61.5z" />
    <glyph glyph-name="Eth" unicode="&#xd0;" horiz-adv-x="878" 
d="M0 374v55h144v79q0 17 -1 59.5t-1 97.5q0 39 -16 54.5t-51 19.5l-48 6v27q65 0 189 1.5t175 1.5q217 0 334 -98.5t117 -281.5q0 -181 -115.5 -288t-318.5 -107h-381v28l48 6q35 4 51 19.5t16 54.5q0 35 1 86t1 72v108h-144zM294 266l1 -139q0 -49 28.5 -62.5t101.5 -13.5
q52 0 96 17.5t82 55.5t59.5 107.5t21.5 165.5q0 78 -17.5 137t-46 94.5t-70 57t-84 29.5t-93.5 8q-50 0 -79 -2v-292h160v-55h-160v-108z" />
    <glyph glyph-name="Ntilde" unicode="&#xd1;" horiz-adv-x="880" 
d="M243 851q10 29 16.5 46t18 40.5t21.5 35.5t25 21.5t31 9.5q36 0 112.5 -35t111.5 -35q46 0 76 41l22 -10q-14 -37 -22.5 -56.5t-22.5 -44.5t-31 -36.5t-38 -11.5q-42 0 -117 34.5t-106 34.5q-45 0 -76 -45zM696 228v363q0 94 -22.5 120t-105.5 34v28h312v-28
q-42 -5 -62.5 -10.5t-37 -21.5t-21.5 -44t-5 -78v-605h-48l-498 604v-408q0 -94 22.5 -120t105.5 -34v-28h-312v28q42 5 62.5 10.5t37 21.5t21.5 44t5 78v478q-27 32 -40 45.5t-36.5 26.5t-49.5 13v28h224z" />
    <glyph glyph-name="Ograve" unicode="&#xd2;" horiz-adv-x="899" 
d="M692 387q0 174 -69.5 263.5t-173.5 89.5q-105 0 -174.5 -89.5t-69.5 -263.5q0 -173 69.5 -261t174.5 -88t174 87.5t69 261.5zM859 385q0 -172 -120 -285.5t-290 -113.5t-289.5 115.5t-119.5 289.5q0 172 119 285.5t290 113.5q169 0 289.5 -116t120.5 -289zM462 1026
l81 -209h-29l-218 209h166z" />
    <glyph glyph-name="Oacute" unicode="&#xd3;" horiz-adv-x="899" 
d="M692 387q0 174 -69.5 263.5t-173.5 89.5q-105 0 -174.5 -89.5t-69.5 -263.5q0 -173 69.5 -261t174.5 -88t174 87.5t69 261.5zM859 385q0 -172 -120 -285.5t-290 -113.5t-289.5 115.5t-119.5 289.5q0 172 119 285.5t290 113.5q169 0 289.5 -116t120.5 -289zM356 817
l81 209h166l-218 -209h-29z" />
    <glyph glyph-name="Ocircumflex" unicode="&#xd4;" horiz-adv-x="899" 
d="M692 387q0 174 -69.5 263.5t-173.5 89.5q-105 0 -174.5 -89.5t-69.5 -263.5q0 -173 69.5 -261t174.5 -88t174 87.5t69 261.5zM859 385q0 -172 -120 -285.5t-290 -113.5t-289.5 115.5t-119.5 289.5q0 172 119 285.5t290 113.5q169 0 289.5 -116t120.5 -289zM285 828
l142 197h46l141 -196l-20 -18l-144 101l-145 -102z" />
    <glyph glyph-name="Otilde" unicode="&#xd5;" horiz-adv-x="899" 
d="M243 851q10 29 16.5 46t18 40.5t21.5 35.5t25 21.5t31 9.5q36 0 112.5 -35t111.5 -35q46 0 76 41l22 -10q-14 -37 -22.5 -56.5t-22.5 -44.5t-31 -36.5t-38 -11.5q-42 0 -117 34.5t-106 34.5q-45 0 -76 -45zM692 387q0 174 -69.5 263.5t-173.5 89.5q-105 0 -174.5 -89.5
t-69.5 -263.5q0 -173 69.5 -261t174.5 -88t174 87.5t69 261.5zM859 385q0 -172 -120 -285.5t-290 -113.5t-289.5 115.5t-119.5 289.5q0 172 119 285.5t290 113.5q169 0 289.5 -116t120.5 -289z" />
    <glyph glyph-name="Odieresis" unicode="&#xd6;" horiz-adv-x="899" 
d="M217 923q0 35 24.5 59.5t59.5 24.5q37 0 61.5 -24.5t24.5 -59.5q0 -37 -24.5 -61.5t-61.5 -24.5q-35 0 -59.5 24.5t-24.5 61.5zM507 923q0 35 24.5 59.5t59.5 24.5q37 0 61.5 -24.5t24.5 -59.5q0 -37 -24.5 -61.5t-61.5 -24.5q-35 0 -59.5 24.5t-24.5 61.5zM692 387
q0 174 -69.5 263.5t-173.5 89.5q-105 0 -174.5 -89.5t-69.5 -263.5q0 -173 69.5 -261t174.5 -88t174 87.5t69 261.5zM859 385q0 -172 -120 -285.5t-290 -113.5t-289.5 115.5t-119.5 289.5q0 172 119 285.5t290 113.5q169 0 289.5 -116t120.5 -289z" />
    <glyph glyph-name="multiply" unicode="&#xd7;" horiz-adv-x="532" 
d="M483 78l-39 -38l-179 178l-179 -179l-38 39l178 179l-179 179l39 38l179 -179l179 180l38 -39l-179 -179z" />
    <glyph glyph-name="Oslash" unicode="&#xd8;" horiz-adv-x="875" 
d="M234 39l-52 -74h-63l71 102q-72 54 -113 137.5t-41 183.5q0 172 116 284.5t285 112.5q117 0 215 -60l59 84h65l-81 -115q68 -55 106 -135.5t38 -175.5q0 -172 -117 -284.5t-285 -112.5q-111 0 -203 53zM437 733q-107 0 -174.5 -87t-67.5 -261q0 -150 52 -237l356 507
q-63 78 -166 78zM679 385q0 135 -45 223l-354 -504q61 -64 157 -64q107 0 174.5 85.5t67.5 259.5z" />
    <glyph glyph-name="Ugrave" unicode="&#xd9;" horiz-adv-x="864" 
d="M116 304l-1 361q0 39 -16 54.5t-51 19.5l-48 6v28h383v-28l-48 -6q-35 -4 -51 -19.5t-16 -54.5q-2 -245 -2 -367q0 -119 47.5 -175.5t161.5 -56.5q101 0 155 66t54 192v175v50.5t-1 43t-3.5 39t-7 31.5t-11 28t-16 20.5t-22.5 17t-30 10t-39 6.5v28h320v-28
q-27 -2 -47.5 -10t-34 -17.5t-22.5 -29.5t-14 -34.5t-7 -45.5t-2.5 -50t-0.5 -59v-184q0 -155 -83.5 -242t-230.5 -87q-136 0 -217 67q-99 84 -99 251zM454 1026l81 -209h-29l-218 209h166z" />
    <glyph glyph-name="Uacute" unicode="&#xda;" horiz-adv-x="864" 
d="M116 304l-1 361q0 39 -16 54.5t-51 19.5l-48 6v28h383v-28l-48 -6q-35 -4 -51 -19.5t-16 -54.5q-2 -245 -2 -367q0 -119 47.5 -175.5t161.5 -56.5q101 0 155 66t54 192v175v50.5t-1 43t-3.5 39t-7 31.5t-11 28t-16 20.5t-22.5 17t-30 10t-39 6.5v28h320v-28
q-27 -2 -47.5 -10t-34 -17.5t-22.5 -29.5t-14 -34.5t-7 -45.5t-2.5 -50t-0.5 -59v-184q0 -155 -83.5 -242t-230.5 -87q-136 0 -217 67q-99 84 -99 251zM398 817l81 209h166l-218 -209h-29z" />
    <glyph glyph-name="Ucircumflex" unicode="&#xdb;" horiz-adv-x="864" 
d="M116 304l-1 361q0 39 -16 54.5t-51 19.5l-48 6v28h383v-28l-48 -6q-35 -4 -51 -19.5t-16 -54.5q-2 -245 -2 -367q0 -119 47.5 -175.5t161.5 -56.5q101 0 155 66t54 192v175v50.5t-1 43t-3.5 39t-7 31.5t-11 28t-16 20.5t-22.5 17t-30 10t-39 6.5v28h320v-28
q-27 -2 -47.5 -10t-34 -17.5t-22.5 -29.5t-14 -34.5t-7 -45.5t-2.5 -50t-0.5 -59v-184q0 -155 -83.5 -242t-230.5 -87q-136 0 -217 67q-99 84 -99 251zM309 828l142 197h46l141 -196l-20 -18l-144 101l-145 -102z" />
    <glyph glyph-name="Udieresis" unicode="&#xdc;" horiz-adv-x="864" 
d="M239 923q0 35 24.5 59.5t59.5 24.5q37 0 61.5 -24.5t24.5 -59.5q0 -37 -24.5 -61.5t-61.5 -24.5q-35 0 -59.5 24.5t-24.5 61.5zM529 923q0 35 24.5 59.5t59.5 24.5q37 0 61.5 -24.5t24.5 -59.5q0 -37 -24.5 -61.5t-61.5 -24.5q-35 0 -59.5 24.5t-24.5 61.5zM116 304
l-1 361q0 39 -16 54.5t-51 19.5l-48 6v28h383v-28l-48 -6q-35 -4 -51 -19.5t-16 -54.5q-2 -245 -2 -367q0 -119 47.5 -175.5t161.5 -56.5q101 0 155 66t54 192v175v50.5t-1 43t-3.5 39t-7 31.5t-11 28t-16 20.5t-22.5 17t-30 10t-39 6.5v28h320v-28q-27 -2 -47.5 -10
t-34 -17.5t-22.5 -29.5t-14 -34.5t-7 -45.5t-2.5 -50t-0.5 -59v-184q0 -155 -83.5 -242t-230.5 -87q-136 0 -217 67q-99 84 -99 251z" />
    <glyph glyph-name="Yacute" unicode="&#xdd;" horiz-adv-x="736" 
d="M414 407l103 177q25 43 33 74t3.5 47t-20 25.5t-29.5 12t-33 2.5v28h265v-29q-11 0 -20.5 -2t-17 -4t-15.5 -8.5t-14 -10.5t-14.5 -15.5t-14 -18.5t-16 -24.5l-16.5 -27.5t-20 -34t-23 -39l-131 -221l2 -231q1 -39 16.5 -54.5t50.5 -19.5l48 -6v-28h-383v28l48 6
q35 4 50.5 19.5t16.5 54.5l2 229l-175 337q-9 18 -19 30.5t-24 19.5t-21 10t-25 6.5t-21 4.5v28h362v-28q-49 -4 -72 -14t-22.5 -25.5t9.5 -35.5zM294 817l81 209h166l-218 -209h-29z" />
    <glyph glyph-name="Thorn" unicode="&#xde;" horiz-adv-x="672" 
d="M398 773v-28l-48 -6q-35 -4 -51 -19.5t-16 -54.5v-36q42 3 89 3q304 0 304 -212q0 -108 -78 -170t-187 -62q-64 0 -128 22l3 -102q1 -40 19 -54t68 -20l48 -6v-28h-403v28l48 6q35 4 51 19.5t16 54.5q1 59 1 175l-1 382q0 39 -16 54.5t-51 19.5l-48 6v28h380zM533 418
q0 49 -15 83.5t-40.5 51t-58 26t-67.5 7.5t-69 -4v-338q32 -7 68 -7q79 0 130.5 44t51.5 137z" />
    <glyph glyph-name="germandbls" unicode="&#xdf;" horiz-adv-x="729" 
d="M118 254v177l-76 26v23h76v52q0 123 67.5 195.5t177.5 72.5q96 0 154 -29.5t58 -85.5q0 -34 -16.5 -58t-40.5 -37t-48 -24.5t-40.5 -29t-16.5 -41.5q0 -13 6.5 -27t13.5 -24t22 -23t23 -18.5t25 -17t19 -13.5l34 -24q78 -55 109.5 -100t31.5 -98q0 -69 -52.5 -116.5
t-159.5 -47.5q-41 0 -80.5 9.5t-70.5 33.5t-31 57q0 26 17 42t42 16q50 0 71 -66q17 -54 62 -54q29 0 46.5 19.5t17.5 50.5q0 67 -94 132l-40 28q-113 78 -113 171q0 28 12.5 52t30 43t35.5 39.5t30.5 50.5t12.5 66q0 43 -16.5 64.5t-57.5 21.5q-98 0 -98 -210v-298l2 -254
h-230v28l42 8q27 5 34.5 15t7.5 38q1 62 1 165z" />
    <glyph glyph-name="agrave" unicode="&#xe0;" horiz-adv-x="535" 
d="M302 93v145q-140 -12 -140 -112q0 -34 18 -51.5t43 -17.5q51 0 79 36zM30 115q0 73 72 112.5t197 39.5v117q0 49 -13.5 69t-42.5 20q-51 0 -51 -45q0 -17 -0.5 -26t-3.5 -24t-9.5 -23t-19.5 -14.5t-31 -6.5q-23 0 -39 17.5t-16 44.5q0 53 58 82t123 29q82 0 132 -33.5
t49 -114.5l-2 -232q0 -38 8.5 -53.5t26.5 -15.5q24 0 60 23l15 -14q-47 -78 -131 -78q-86 0 -108 73q-57 -76 -138 -76q-63 0 -99.5 35.5t-36.5 93.5zM270 773l81 -209h-29l-218 209h166z" />
    <glyph glyph-name="aacute" unicode="&#xe1;" horiz-adv-x="535" 
d="M302 93v145q-140 -12 -140 -112q0 -34 18 -51.5t43 -17.5q51 0 79 36zM30 115q0 73 72 112.5t197 39.5v117q0 49 -13.5 69t-42.5 20q-51 0 -51 -45q0 -17 -0.5 -26t-3.5 -24t-9.5 -23t-19.5 -14.5t-31 -6.5q-23 0 -39 17.5t-16 44.5q0 53 58 82t123 29q82 0 132 -33.5
t49 -114.5l-2 -232q0 -38 8.5 -53.5t26.5 -15.5q24 0 60 23l15 -14q-47 -78 -131 -78q-86 0 -108 73q-57 -76 -138 -76q-63 0 -99.5 35.5t-36.5 93.5zM199 564l81 209h166l-218 -209h-29z" />
    <glyph glyph-name="acircumflex" unicode="&#xe2;" horiz-adv-x="535" 
d="M302 93v145q-140 -12 -140 -112q0 -34 18 -51.5t43 -17.5q51 0 79 36zM30 115q0 73 72 112.5t197 39.5v117q0 49 -13.5 69t-42.5 20q-51 0 -51 -45q0 -17 -0.5 -26t-3.5 -24t-9.5 -23t-19.5 -14.5t-31 -6.5q-23 0 -39 17.5t-16 44.5q0 53 58 82t123 29q82 0 132 -33.5
t49 -114.5l-2 -232q0 -38 8.5 -53.5t26.5 -15.5q24 0 60 23l15 -14q-47 -78 -131 -78q-86 0 -108 73q-57 -76 -138 -76q-63 0 -99.5 35.5t-36.5 93.5zM93 575l142 197h46l141 -196l-20 -18l-144 101l-145 -102z" />
    <glyph glyph-name="atilde" unicode="&#xe3;" horiz-adv-x="535" 
d="M302 93v145q-140 -12 -140 -112q0 -34 18 -51.5t43 -17.5q51 0 79 36zM30 115q0 73 72 112.5t197 39.5v117q0 49 -13.5 69t-42.5 20q-51 0 -51 -45q0 -17 -0.5 -26t-3.5 -24t-9.5 -23t-19.5 -14.5t-31 -6.5q-23 0 -39 17.5t-16 44.5q0 53 58 82t123 29q82 0 132 -33.5
t49 -114.5l-2 -232q0 -38 8.5 -53.5t26.5 -15.5q24 0 60 23l15 -14q-47 -78 -131 -78q-86 0 -108 73q-57 -76 -138 -76q-63 0 -99.5 35.5t-36.5 93.5zM61 608q25 70 49 106.5t63 36.5q36 0 106.5 -35.5t102.5 -35.5q41 0 71 42l22 -10q-26 -69 -50.5 -104t-63.5 -35
q-41 0 -110 35t-97 35q-41 0 -72 -46z" />
    <glyph glyph-name="adieresis" unicode="&#xe4;" horiz-adv-x="535" 
d="M302 93v145q-140 -12 -140 -112q0 -34 18 -51.5t43 -17.5q51 0 79 36zM30 115q0 73 72 112.5t197 39.5v117q0 49 -13.5 69t-42.5 20q-51 0 -51 -45q0 -17 -0.5 -26t-3.5 -24t-9.5 -23t-19.5 -14.5t-31 -6.5q-23 0 -39 17.5t-16 44.5q0 53 58 82t123 29q82 0 132 -33.5
t49 -114.5l-2 -232q0 -38 8.5 -53.5t26.5 -15.5q24 0 60 23l15 -14q-47 -78 -131 -78q-86 0 -108 73q-57 -76 -138 -76q-63 0 -99.5 35.5t-36.5 93.5zM69 670q0 35 24.5 59.5t59.5 24.5q37 0 61.5 -24.5t24.5 -59.5q0 -37 -24.5 -61.5t-61.5 -24.5q-35 0 -59.5 24.5
t-24.5 61.5zM299 670q0 35 24.5 59.5t59.5 24.5q37 0 61.5 -24.5t24.5 -59.5q0 -37 -24.5 -61.5t-61.5 -24.5q-35 0 -59.5 24.5t-24.5 61.5z" />
    <glyph glyph-name="aring" unicode="&#xe5;" horiz-adv-x="535" 
d="M302 93v145q-140 -12 -140 -112q0 -34 18 -51.5t43 -17.5q51 0 79 36zM30 115q0 73 72 112.5t197 39.5v117q0 49 -13.5 69t-42.5 20q-51 0 -51 -45q0 -17 -0.5 -26t-3.5 -24t-9.5 -23t-19.5 -14.5t-31 -6.5q-23 0 -39 17.5t-16 44.5q0 53 58 82t123 29q82 0 132 -33.5
t49 -114.5l-2 -232q0 -38 8.5 -53.5t26.5 -15.5q24 0 60 23l15 -14q-47 -78 -131 -78q-86 0 -108 73q-57 -76 -138 -76q-63 0 -99.5 35.5t-36.5 93.5zM359 657q0 -41 -30 -69.5t-72 -28.5t-72 28.5t-30 69.5t30 69.5t72 28.5t72 -28.5t30 -69.5zM311 657q0 27 -15 41t-39 14
t-38.5 -15t-14.5 -40t14 -40t39 -15q54 0 54 55z" />
    <glyph glyph-name="ae" unicode="&#xe6;" horiz-adv-x="803" 
d="M767 279h-327v-7q-1 -98 34.5 -153.5t104.5 -55.5q110 0 161 90l28 -11q-61 -156 -224 -156q-139 0 -200 97q-43 -60 -86.5 -78.5t-91.5 -18.5q-63 0 -99.5 35.5t-36.5 93.5q0 73 72 112.5t197 39.5v117q0 49 -13.5 69t-42.5 20q-51 0 -51 -45q0 -17 -0.5 -26t-3.5 -24
t-9.5 -23t-19.5 -14.5t-31 -6.5q-23 0 -39 17.5t-16 44.5q0 36 30.5 62.5t67.5 37.5t72 11q103 0 146 -64q56 65 162 65q99 0 154.5 -60t61.5 -169zM227 57q66 0 103 52q-26 54 -28 129q-140 -12 -140 -112q0 -34 19.5 -51.5t45.5 -17.5zM544 467q-45 0 -69.5 -41
t-30.5 -105h178q-3 146 -78 146z" />
    <glyph glyph-name="ccedilla" unicode="&#xe7;" horiz-adv-x="513" 
d="M502 142q-58 -148 -196 -155l-55 -81q34 26 67 26t53.5 -18.5t20.5 -52.5q0 -51 -60.5 -84.5t-127.5 -38.5l-3 18q44 9 73 41t29 63q0 17 -9.5 26.5t-24.5 9.5q-16 0 -30 -11l-24 19l54 83q-112 6 -172.5 79.5t-60.5 180.5q0 115 75.5 188t193.5 73q74 0 130.5 -30
t56.5 -71q0 -28 -17 -45.5t-43 -17.5q-49 0 -72 69q-9 26 -21.5 39.5t-37.5 13.5q-43 0 -79 -52.5t-36 -149.5q0 -89 36.5 -145t106.5 -56q94 0 145 90z" />
    <glyph glyph-name="egrave" unicode="&#xe8;" horiz-adv-x="543" 
d="M507 279h-327v-7q-1 -96 40 -152.5t111 -56.5q101 0 152 90l28 -11q-61 -156 -221 -156q-119 0 -186.5 73t-67.5 190q0 114 68 186.5t181 72.5q103 0 159.5 -60t62.5 -169zM285 467q-43 0 -69 -41.5t-32 -104.5h178q-1 146 -77 146zM284 773l81 -209h-29l-218 209h166z
" />
    <glyph glyph-name="eacute" unicode="&#xe9;" horiz-adv-x="543" 
d="M507 279h-327v-7q-1 -96 40 -152.5t111 -56.5q101 0 152 90l28 -11q-61 -156 -221 -156q-119 0 -186.5 73t-67.5 190q0 114 68 186.5t181 72.5q103 0 159.5 -60t62.5 -169zM285 467q-43 0 -69 -41.5t-32 -104.5h178q-1 146 -77 146zM228 564l81 209h166l-218 -209h-29z
" />
    <glyph glyph-name="ecircumflex" unicode="&#xea;" horiz-adv-x="543" 
d="M507 279h-327v-7q-1 -96 40 -152.5t111 -56.5q101 0 152 90l28 -11q-61 -156 -221 -156q-119 0 -186.5 73t-67.5 190q0 114 68 186.5t181 72.5q103 0 159.5 -60t62.5 -169zM285 467q-43 0 -69 -41.5t-32 -104.5h178q-1 146 -77 146zM107 575l142 197h46l141 -196l-20 -18
l-144 101l-145 -102z" />
    <glyph glyph-name="edieresis" unicode="&#xeb;" horiz-adv-x="543" 
d="M507 279h-327v-7q-1 -96 40 -152.5t111 -56.5q101 0 152 90l28 -11q-61 -156 -221 -156q-119 0 -186.5 73t-67.5 190q0 114 68 186.5t181 72.5q103 0 159.5 -60t62.5 -169zM285 467q-43 0 -69 -41.5t-32 -104.5h178q-1 146 -77 146zM81 670q0 35 24.5 59.5t59.5 24.5
q37 0 61.5 -24.5t24.5 -59.5q0 -37 -24.5 -61.5t-61.5 -24.5q-35 0 -59.5 24.5t-24.5 61.5zM311 670q0 35 24.5 59.5t59.5 24.5q37 0 61.5 -24.5t24.5 -59.5q0 -37 -24.5 -61.5t-61.5 -24.5q-35 0 -59.5 24.5t-24.5 61.5z" />
    <glyph glyph-name="igrave" unicode="&#xec;" 
d="M107 234l-1 162q0 28 -8 39.5t-34 15.5l-42 6v28l228 19v-270l1 -145q0 -28 8.5 -39.5t34.5 -15.5l42 -6v-28h-315v28l42 6q26 4 33.5 15t8.5 40q0 10 1 64t1 81zM196 773l81 -209h-29l-218 209h166z" />
    <glyph glyph-name="iacute" unicode="&#xed;" 
d="M107 234l-1 162q0 28 -8 39.5t-34 15.5l-42 6v28l228 19v-270l1 -145q0 -28 8.5 -39.5t34.5 -15.5l42 -6v-28h-315v28l42 6q26 4 33.5 15t8.5 40q0 10 1 64t1 81zM60 564l81 209h166l-218 -209h-29z" />
    <glyph glyph-name="icircumflex" unicode="&#xee;" 
d="M107 234l-1 162q0 28 -8 39.5t-34 15.5l-42 6v28l228 19v-270l1 -145q0 -28 8.5 -39.5t34.5 -15.5l42 -6v-28h-315v28l42 6q26 4 33.5 15t8.5 40q0 10 1 64t1 81zM-11 575l142 197h46l141 -196l-20 -18l-144 101l-145 -102z" />
    <glyph glyph-name="idieresis" unicode="&#xef;" 
d="M107 234l-1 162q0 28 -8 39.5t-34 15.5l-42 6v28l228 19v-270l1 -145q0 -28 8.5 -39.5t34.5 -15.5l42 -6v-28h-315v28l42 6q26 4 33.5 15t8.5 40q0 10 1 64t1 81zM-38 670q0 35 24.5 59.5t59.5 24.5q37 0 61.5 -24.5t24.5 -59.5q0 -37 -24.5 -61.5t-61.5 -24.5
q-35 0 -59.5 24.5t-24.5 61.5zM192 670q0 35 24.5 59.5t59.5 24.5q37 0 61.5 -24.5t24.5 -59.5q0 -37 -24.5 -61.5t-61.5 -24.5q-35 0 -59.5 24.5t-24.5 61.5z" />
    <glyph glyph-name="eth" unicode="&#xf0;" horiz-adv-x="624" 
d="M152 582l-38 39l103 104q-66 55 -143 87l12 30q87 -26 171 -76l103 104l39 -39l-94 -95q124 -84 201.5 -201.5t77.5 -252.5q0 -130 -70.5 -213t-197.5 -83q-121 0 -202.5 76t-81.5 183q0 70 22 123t57.5 81.5t73.5 42.5t76 14q109 0 162 -91q-43 155 -165 274zM301 455
q-59 0 -88 -56.5t-29 -148.5q0 -101 34.5 -159.5t100.5 -58.5q59 0 88.5 58.5t29.5 150.5q0 88 -36 151t-100 63z" />
    <glyph glyph-name="ntilde" unicode="&#xf1;" horiz-adv-x="660" 
d="M22 485l223 13l3 -105q53 115 163 115q155 0 155 -198v-96l2 -125q1 -29 8.5 -40t33.5 -15l42 -6v-28h-305v28l42 6q33 4 33 55q0 13 0.5 55.5t0.5 69.5v81q0 29 -1.5 47t-8.5 40.5t-23.5 34t-43.5 11.5q-26 0 -52.5 -19t-42.5 -56v-173l1 -91q0 -28 6.5 -40t26.5 -15
l42 -6v-28h-305v28l42 6q26 4 33.5 15t8.5 40q2 52 2 98v90l-2 119q-1 29 -8.5 40t-33.5 15l-42 6v28zM129 608q25 70 49 106.5t63 36.5q36 0 106.5 -35.5t102.5 -35.5q41 0 71 42l22 -10q-26 -69 -50.5 -104t-63.5 -35q-41 0 -110 35t-97 35q-41 0 -72 -46z" />
    <glyph glyph-name="ograve" unicode="&#xf2;" horiz-adv-x="600" 
d="M36 256q0 111 74.5 181.5t189.5 70.5q127 0 195.5 -76t68.5 -192q0 -111 -70.5 -182.5t-196.5 -71.5q-129 0 -195 78t-66 192zM411 245q0 98 -26 159t-83 61q-112 0 -112 -217q0 -95 25 -157t81 -62q115 0 115 216zM311 773l81 -209h-29l-218 209h166z" />
    <glyph glyph-name="oacute" unicode="&#xf3;" horiz-adv-x="600" 
d="M36 256q0 111 74.5 181.5t189.5 70.5q127 0 195.5 -76t68.5 -192q0 -111 -70.5 -182.5t-196.5 -71.5q-129 0 -195 78t-66 192zM411 245q0 98 -26 159t-83 61q-112 0 -112 -217q0 -95 25 -157t81 -62q115 0 115 216zM236 564l81 209h166l-218 -209h-29z" />
    <glyph glyph-name="ocircumflex" unicode="&#xf4;" horiz-adv-x="600" 
d="M36 256q0 111 74.5 181.5t189.5 70.5q127 0 195.5 -76t68.5 -192q0 -111 -70.5 -182.5t-196.5 -71.5q-129 0 -195 78t-66 192zM411 245q0 98 -26 159t-83 61q-112 0 -112 -217q0 -95 25 -157t81 -62q115 0 115 216zM135 575l142 197h46l141 -196l-20 -18l-144 101
l-145 -102z" />
    <glyph glyph-name="otilde" unicode="&#xf5;" horiz-adv-x="600" 
d="M36 256q0 111 74.5 181.5t189.5 70.5q127 0 195.5 -76t68.5 -192q0 -111 -70.5 -182.5t-196.5 -71.5q-129 0 -195 78t-66 192zM411 245q0 98 -26 159t-83 61q-112 0 -112 -217q0 -95 25 -157t81 -62q115 0 115 216zM93 608q25 70 49 106.5t63 36.5q36 0 106.5 -35.5
t102.5 -35.5q41 0 71 42l22 -10q-26 -69 -50.5 -104t-63.5 -35q-41 0 -110 35t-97 35q-41 0 -72 -46z" />
    <glyph glyph-name="odieresis" unicode="&#xf6;" horiz-adv-x="600" 
d="M36 256q0 111 74.5 181.5t189.5 70.5q127 0 195.5 -76t68.5 -192q0 -111 -70.5 -182.5t-196.5 -71.5q-129 0 -195 78t-66 192zM411 245q0 98 -26 159t-83 61q-112 0 -112 -217q0 -95 25 -157t81 -62q115 0 115 216zM100 670q0 35 24.5 59.5t59.5 24.5q37 0 61.5 -24.5
t24.5 -59.5q0 -37 -24.5 -61.5t-61.5 -24.5q-35 0 -59.5 24.5t-24.5 61.5zM330 670q0 35 24.5 59.5t59.5 24.5q37 0 61.5 -24.5t24.5 -59.5q0 -37 -24.5 -61.5t-61.5 -24.5q-35 0 -59.5 24.5t-24.5 61.5z" />
    <glyph glyph-name="divide" unicode="&#xf7;" horiz-adv-x="554" 
d="M50 227v55h454v-55h-454zM178 82q0 39 27 66t66 27q41 0 68.5 -27t27.5 -66q0 -41 -27.5 -68.5t-68.5 -27.5q-39 0 -66 27.5t-27 68.5zM178 415q0 39 27 66t66 27q41 0 68.5 -27t27.5 -66q0 -41 -27.5 -68.5t-68.5 -27.5q-39 0 -66 27.5t-27 68.5z" />
    <glyph glyph-name="oslash" unicode="&#xf8;" horiz-adv-x="600" 
d="M531 540l-60 -86q93 -74 93 -214q0 -111 -70.5 -182.5t-196.5 -71.5q-75 0 -135 31l-36 -52h-60l56 79q-86 74 -86 212q0 111 74.5 181.5t189.5 70.5q71 0 128 -27l41 59h62zM411 245q0 63 -10 110l-186 -264q27 -62 81 -62q115 0 115 216zM190 248q0 -54 7 -96l183 261
q-28 52 -78 52q-112 0 -112 -217z" />
    <glyph glyph-name="ugrave" unicode="&#xf9;" horiz-adv-x="633" 
d="M616 0h-210l-5 103q-53 -115 -163 -115q-82 0 -116.5 51t-34.5 146v68l-2 143q-1 29 -8.5 40t-33.5 15l-42 6v28l233 12q-3 -43 -3 -198l-1 -98q0 -26 0.5 -37.5t4 -34t10.5 -33t21.5 -19.5t36.5 -9q26 0 52.5 19t42.5 56v120l-2 133q-1 29 -8.5 40t-33.5 15l-42 6v28
l233 12q-3 -66 -3 -188l-1 -220q0 -28 6.5 -40t26.5 -15l42 -6v-28zM308 773l81 -209h-29l-218 209h166z" />
    <glyph glyph-name="uacute" unicode="&#xfa;" horiz-adv-x="633" 
d="M616 0h-210l-5 103q-53 -115 -163 -115q-82 0 -116.5 51t-34.5 146v68l-2 143q-1 29 -8.5 40t-33.5 15l-42 6v28l233 12q-3 -43 -3 -198l-1 -98q0 -26 0.5 -37.5t4 -34t10.5 -33t21.5 -19.5t36.5 -9q26 0 52.5 19t42.5 56v120l-2 133q-1 29 -8.5 40t-33.5 15l-42 6v28
l233 12q-3 -66 -3 -188l-1 -220q0 -28 6.5 -40t26.5 -15l42 -6v-28zM235 564l81 209h166l-218 -209h-29z" />
    <glyph glyph-name="ucircumflex" unicode="&#xfb;" horiz-adv-x="633" 
d="M616 0h-210l-5 103q-53 -115 -163 -115q-82 0 -116.5 51t-34.5 146v68l-2 143q-1 29 -8.5 40t-33.5 15l-42 6v28l233 12q-3 -43 -3 -198l-1 -98q0 -26 0.5 -37.5t4 -34t10.5 -33t21.5 -19.5t36.5 -9q26 0 52.5 19t42.5 56v120l-2 133q-1 29 -8.5 40t-33.5 15l-42 6v28
l233 12q-3 -66 -3 -188l-1 -220q0 -28 6.5 -40t26.5 -15l42 -6v-28zM141 575l142 197h46l141 -196l-20 -18l-144 101l-145 -102z" />
    <glyph glyph-name="udieresis" unicode="&#xfc;" horiz-adv-x="633" 
d="M616 0h-210l-5 103q-53 -115 -163 -115q-82 0 -116.5 51t-34.5 146v68l-2 143q-1 29 -8.5 40t-33.5 15l-42 6v28l233 12q-3 -43 -3 -198l-1 -98q0 -26 0.5 -37.5t4 -34t10.5 -33t21.5 -19.5t36.5 -9q26 0 52.5 19t42.5 56v120l-2 133q-1 29 -8.5 40t-33.5 15l-42 6v28
l233 12q-3 -66 -3 -188l-1 -220q0 -28 6.5 -40t26.5 -15l42 -6v-28zM99 670q0 35 24.5 59.5t59.5 24.5q37 0 61.5 -24.5t24.5 -59.5q0 -37 -24.5 -61.5t-61.5 -24.5q-35 0 -59.5 24.5t-24.5 61.5zM329 670q0 35 24.5 59.5t59.5 24.5q37 0 61.5 -24.5t24.5 -59.5
q0 -37 -24.5 -61.5t-61.5 -24.5q-35 0 -59.5 24.5t-24.5 61.5z" />
    <glyph glyph-name="yacute" unicode="&#xfd;" horiz-adv-x="593" 
d="M122 -253q54 0 107 130l42 104l-186 425q-7 16 -17 26.5t-23 14t-21.5 4.5t-23.5 1v28h288v-28q-36 0 -48 -10t0 -41l98 -259l78 210q11 29 11.5 49t-4 30t-16.5 15t-19.5 5.5t-19.5 0.5h-3v28h225v-28q-42 0 -65 -22t-54 -99l-190 -472q-65 -164 -185 -164
q-59 0 -95 23.5t-36 59.5q0 28 18 43t41 15q25 0 41.5 -14t22 -30.5t14 -30.5t20.5 -14zM253 564l81 209h166l-218 -209h-29z" />
    <glyph glyph-name="thorn" unicode="&#xfe;" horiz-adv-x="610" 
d="M222 415v-348q23 -14 61 -14q75 0 107 55t32 137q0 93 -32 145t-87 52q-49 0 -81 -27zM79 -204q0 14 1 68.5t1 78.5v755q0 28 -8 39.5t-34 15.5l-42 6v28l220 13l1 -358q21 33 58 49.5t75 16.5q107 0 165 -73.5t58 -193.5q0 -106 -60 -180.5t-161 -74.5q-88 0 -130 49
v-93l2 -146q0 -28 11.5 -38.5t51.5 -16.5l42 -6v-28h-335v28l42 6q26 4 34 15.5t8 39.5z" />
    <glyph glyph-name="ydieresis" unicode="&#xff;" horiz-adv-x="593" 
d="M122 -253q54 0 107 130l42 104l-186 425q-7 16 -17 26.5t-23 14t-21.5 4.5t-23.5 1v28h288v-28q-36 0 -48 -10t0 -41l98 -259l78 210q11 29 11.5 49t-4 30t-16.5 15t-19.5 5.5t-19.5 0.5h-3v28h225v-28q-42 0 -65 -22t-54 -99l-190 -472q-65 -164 -185 -164
q-59 0 -95 23.5t-36 59.5q0 28 18 43t41 15q25 0 41.5 -14t22 -30.5t14 -30.5t20.5 -14zM128 670q0 35 24.5 59.5t59.5 24.5q37 0 61.5 -24.5t24.5 -59.5q0 -37 -24.5 -61.5t-61.5 -24.5q-35 0 -59.5 24.5t-24.5 61.5zM358 670q0 35 24.5 59.5t59.5 24.5q37 0 61.5 -24.5
t24.5 -59.5q0 -37 -24.5 -61.5t-61.5 -24.5q-35 0 -59.5 24.5t-24.5 61.5z" />
    <glyph glyph-name="Amacron" unicode="&#x100;" horiz-adv-x="827" 
d="M550 103l-51 131h-263l-38 -105q-9 -25 -9.5 -42.5t4 -27t17.5 -16t22.5 -8t28 -4t25.5 -3.5v-28h-286v29q61 5 90.5 29.5t54.5 91.5l236 645h49l287 -696q8 -19 17.5 -31.5t23 -19.5t22 -10t25.5 -6t22 -4v-28h-362v28q49 4 71 13.5t22 25t-8 36.5zM363 585l-101 -278
h209zM226 863v55h374v-55h-374z" />
    <glyph glyph-name="amacron" unicode="&#x101;" horiz-adv-x="535" 
d="M302 93v145q-140 -12 -140 -112q0 -34 18 -51.5t43 -17.5q51 0 79 36zM30 115q0 73 72 112.5t197 39.5v117q0 49 -13.5 69t-42.5 20q-51 0 -51 -45q0 -17 -0.5 -26t-3.5 -24t-9.5 -23t-19.5 -14.5t-31 -6.5q-23 0 -39 17.5t-16 44.5q0 53 58 82t123 29q82 0 132 -33.5
t49 -114.5l-2 -232q0 -38 8.5 -53.5t26.5 -15.5q24 0 60 23l15 -14q-47 -78 -131 -78q-86 0 -108 73q-57 -76 -138 -76q-63 0 -99.5 35.5t-36.5 93.5zM80 620v55h374v-55h-374z" />
    <glyph glyph-name="Abreve" unicode="&#x102;" horiz-adv-x="827" 
d="M550 103l-51 131h-263l-38 -105q-9 -25 -9.5 -42.5t4 -27t17.5 -16t22.5 -8t28 -4t25.5 -3.5v-28h-286v29q61 5 90.5 29.5t54.5 91.5l236 645h49l287 -696q8 -19 17.5 -31.5t23 -19.5t22 -10t25.5 -6t22 -4v-28h-362v28q49 4 71 13.5t22 25t-8 36.5zM363 585l-101 -278
h209zM413 871q95 0 107 111h56q-5 -48 -24 -82.5t-45.5 -50t-49 -21.5t-44.5 -6t-44.5 6t-49 21t-45.5 49.5t-24 83.5h59q12 -111 104 -111z" />
    <glyph glyph-name="abreve" unicode="&#x103;" horiz-adv-x="535" 
d="M302 93v145q-140 -12 -140 -112q0 -34 18 -51.5t43 -17.5q51 0 79 36zM30 115q0 73 72 112.5t197 39.5v117q0 49 -13.5 69t-42.5 20q-51 0 -51 -45q0 -17 -0.5 -26t-3.5 -24t-9.5 -23t-19.5 -14.5t-31 -6.5q-23 0 -39 17.5t-16 44.5q0 53 58 82t123 29q82 0 132 -33.5
t49 -114.5l-2 -232q0 -38 8.5 -53.5t26.5 -15.5q24 0 60 23l15 -14q-47 -78 -131 -78q-86 0 -108 73q-57 -76 -138 -76q-63 0 -99.5 35.5t-36.5 93.5zM267 618q95 0 107 111h56q-5 -48 -24 -82.5t-45.5 -50t-49 -21.5t-44.5 -6t-44.5 6t-49 21t-45.5 49.5t-24 83.5h59
q12 -111 104 -111z" />
    <glyph glyph-name="Aogonek" unicode="&#x104;" horiz-adv-x="827" 
d="M550 103l-51 131h-263l-38 -105q-9 -25 -9.5 -42.5t4 -27t17.5 -16t22.5 -8t28 -4t25.5 -3.5v-28h-286v29q61 5 90.5 29.5t54.5 91.5l236 645h49l287 -696q8 -19 17.5 -31.5t23 -19.5t22 -10t25.5 -6t22 -4v-28h-40q-67 -64 -67 -140q0 -34 17.5 -49.5t44.5 -15.5
q16 0 39 7l6 -15q-44 -36 -99 -36q-40 0 -70.5 23t-30.5 65q0 79 139 161h-301v28q49 4 71 13.5t22 25t-8 36.5zM363 585l-101 -278h209z" />
    <glyph glyph-name="aogonek" unicode="&#x105;" horiz-adv-x="535" 
d="M500 -199l6 -15q-44 -36 -99 -36q-40 0 -70.5 23t-30.5 65q0 75 125 153q-14 -2 -19 -2q-86 0 -108 73q-57 -76 -138 -76q-63 0 -99.5 35.5t-36.5 93.5q0 73 72 112.5t197 39.5v117q0 49 -13.5 69t-42.5 20q-51 0 -51 -45q0 -17 -0.5 -26t-3.5 -24t-9.5 -23t-19.5 -14.5
t-31 -6.5q-23 0 -39 17.5t-16 44.5q0 53 58 82t123 29q82 0 132 -33.5t49 -114.5l-2 -232q0 -38 8.5 -53.5t26.5 -15.5q24 0 60 23l15 -14q-29 -48 -77 -67q-67 -66 -67 -141q0 -34 17.5 -49.5t44.5 -15.5q16 0 39 7zM302 93v145q-140 -12 -140 -112q0 -34 18 -51.5
t43 -17.5q51 0 79 36z" />
    <glyph glyph-name="Cacute" unicode="&#x106;" horiz-adv-x="800" 
d="M766 241l-26 -172q-43 -39 -123.5 -61t-161.5 -22q-130 0 -226 56t-142.5 145t-46.5 198q0 177 118.5 291t302.5 114q27 0 53.5 -2.5t46 -5t46 -9t41 -10.5t45.5 -13t45 -13l15 -176h-26q-41 90 -107.5 134t-149.5 44q-109 0 -187 -93t-78 -263q0 -160 80 -252t181 -92
q201 0 271 202h29zM407 817l81 209h166l-218 -209h-29z" />
    <glyph glyph-name="cacute" unicode="&#x107;" horiz-adv-x="513" 
d="M288 -14q-120 0 -186 74.5t-66 186.5q0 115 75.5 188t193.5 73q74 0 130.5 -30t56.5 -71q0 -28 -17 -45.5t-43 -17.5q-49 0 -72 69q-9 26 -21.5 39.5t-37.5 13.5q-43 0 -79 -52.5t-36 -149.5q0 -89 36.5 -145t106.5 -56q94 0 145 90l28 -11q-61 -156 -214 -156zM253 564
l81 209h166l-218 -209h-29z" />
    <glyph glyph-name="Ccircumflex" unicode="&#x108;" horiz-adv-x="800" 
d="M766 241l-26 -172q-43 -39 -123.5 -61t-161.5 -22q-130 0 -226 56t-142.5 145t-46.5 198q0 177 118.5 291t302.5 114q27 0 53.5 -2.5t46 -5t46 -9t41 -10.5t45.5 -13t45 -13l15 -176h-26q-41 90 -107.5 134t-149.5 44q-109 0 -187 -93t-78 -263q0 -160 80 -252t181 -92
q201 0 271 202h29zM295 828l142 197h46l141 -196l-20 -18l-144 101l-145 -102z" />
    <glyph glyph-name="ccircumflex" unicode="&#x109;" horiz-adv-x="513" 
d="M288 -14q-120 0 -186 74.5t-66 186.5q0 115 75.5 188t193.5 73q74 0 130.5 -30t56.5 -71q0 -28 -17 -45.5t-43 -17.5q-49 0 -72 69q-9 26 -21.5 39.5t-37.5 13.5q-43 0 -79 -52.5t-36 -149.5q0 -89 36.5 -145t106.5 -56q94 0 145 90l28 -11q-61 -156 -214 -156zM123 575
l142 197h46l141 -196l-20 -18l-144 101l-145 -102z" />
    <glyph glyph-name="Cdotaccent" unicode="&#x10a;" horiz-adv-x="800" 
d="M766 241l-26 -172q-43 -39 -123.5 -61t-161.5 -22q-130 0 -226 56t-142.5 145t-46.5 198q0 177 118.5 291t302.5 114q27 0 53.5 -2.5t46 -5t46 -9t41 -10.5t45.5 -13t45 -13l15 -176h-26q-41 90 -107.5 134t-149.5 44q-109 0 -187 -93t-78 -263q0 -160 80 -252t181 -92
q201 0 271 202h29zM378 925q0 38 27 65t65 27t65 -27t27 -65t-27 -65t-65 -27t-65 27t-27 65z" />
    <glyph glyph-name="cdotaccent" unicode="&#x10b;" horiz-adv-x="513" 
d="M288 -14q-120 0 -186 74.5t-66 186.5q0 115 75.5 188t193.5 73q74 0 130.5 -30t56.5 -71q0 -28 -17 -45.5t-43 -17.5q-49 0 -72 69q-9 26 -21.5 39.5t-37.5 13.5q-43 0 -79 -52.5t-36 -149.5q0 -89 36.5 -145t106.5 -56q94 0 145 90l28 -11q-61 -156 -214 -156zM202 672
q0 38 27 65t65 27t65 -27t27 -65t-27 -65t-65 -27t-65 27t-27 65z" />
    <glyph glyph-name="Ccaron" unicode="&#x10c;" horiz-adv-x="800" 
d="M766 241l-26 -172q-43 -39 -123.5 -61t-161.5 -22q-130 0 -226 56t-142.5 145t-46.5 198q0 177 118.5 291t302.5 114q27 0 53.5 -2.5t46 -5t46 -9t41 -10.5t45.5 -13t45 -13l15 -176h-26q-41 90 -107.5 134t-149.5 44q-109 0 -187 -93t-78 -263q0 -160 80 -252t181 -92
q201 0 271 202h29zM624 1008l-146 -197h-39l-144 196l20 18l144 -105l145 106z" />
    <glyph glyph-name="ccaron" unicode="&#x10d;" horiz-adv-x="513" 
d="M288 -14q-120 0 -186 74.5t-66 186.5q0 115 75.5 188t193.5 73q74 0 130.5 -30t56.5 -71q0 -28 -17 -45.5t-43 -17.5q-49 0 -72 69q-9 26 -21.5 39.5t-37.5 13.5q-43 0 -79 -52.5t-36 -149.5q0 -89 36.5 -145t106.5 -56q94 0 145 90l28 -11q-61 -156 -214 -156zM470 755
l-146 -197h-39l-144 196l20 18l144 -105l145 106z" />
    <glyph glyph-name="Dcaron" unicode="&#x10e;" horiz-adv-x="885" 
d="M30 0v28l48 6q35 4 51 19.5t16 54.5q0 35 1 86t1 72v242q0 17 -1 59.5t-1 97.5q0 39 -16 54.5t-51 19.5l-48 6v27q66 0 190 1.5t174 1.5q217 0 334 -98.5t117 -281.5q0 -181 -115.5 -288t-318.5 -107h-381zM297 266l1 -139q0 -49 28 -62.5t100 -13.5q52 0 96 17.5
t82 55.5t59.5 107.5t21.5 165.5q0 78 -17.5 137t-46 94.5t-70 57t-84 29.5t-93.5 8q-48 0 -77 -2v-455zM577 1008l-146 -197h-39l-144 196l20 18l144 -105l145 106z" />
    <glyph glyph-name="dcaron" unicode="&#x10f;" horiz-adv-x="679" 
d="M393 449v117l-1 133q0 29 -8 40.5t-34 14.5l-52 6v28l240 12q-2 -141 -2 -244v-234l2 -226q1 -37 7.5 -46.5t35.5 -13.5l36 -5l-1 -28l-213 -14l-4 66q-54 -69 -141 -69q-103 0 -162.5 75t-59.5 190q0 109 68 183t161 74q81 0 128 -59zM394 84l-1 332q-30 23 -72 23
q-61 0 -97 -49.5t-36 -136.5q0 -95 33.5 -145.5t90.5 -50.5q50 0 82 27zM594 543l-11 20q17 12 35 32.5t18 38.5q0 13 -32 39.5t-32 52.5q0 23 19.5 41.5t52.5 18.5q39 0 59.5 -25.5t20.5 -62.5q0 -45 -41 -90t-89 -65z" />
    <glyph glyph-name="Dcroat" unicode="&#x110;" horiz-adv-x="878" 
d="M0 374v55h144v79q0 17 -1 59.5t-1 97.5q0 39 -16 54.5t-51 19.5l-48 6v27q65 0 189 1.5t175 1.5q217 0 334 -98.5t117 -281.5q0 -181 -115.5 -288t-318.5 -107h-381v28l48 6q35 4 51 19.5t16 54.5q0 35 1 86t1 72v108h-144zM294 266l1 -139q0 -49 28.5 -62.5t101.5 -13.5
q52 0 96 17.5t82 55.5t59.5 107.5t21.5 165.5q0 78 -17.5 137t-46 94.5t-70 57t-84 29.5t-93.5 8q-50 0 -79 -2v-292h160v-55h-160v-108z" />
    <glyph glyph-name="dcroat" unicode="&#x111;" horiz-adv-x="637" 
d="M215 596v47h178l-1 56q0 29 -8 40.5t-34 14.5l-52 6v28l240 12q-2 -76 -2 -157h75v-47h-75v-274l2 -226q1 -37 7.5 -46.5t35.5 -13.5l36 -5l-1 -28l-213 -14l-4 66q-54 -69 -141 -69q-103 0 -162.5 75t-59.5 190q0 109 68 183t161 74q81 0 128 -59v147h-178zM394 84
l-1 332q-30 23 -72 23q-61 0 -97 -49.5t-36 -136.5q0 -95 33.5 -145.5t90.5 -50.5q50 0 82 27z" />
    <glyph glyph-name="Emacron" unicode="&#x112;" horiz-adv-x="729" 
d="M30 773h621v-204h-30q-6 73 -61 116q-47 36 -167 36h-96v-291h55q84 0 116 30q33 32 39 90h27v-293h-29q-6 66 -43 97q-28 24 -112 24h-53v-133l1 -114q0 -44 18.5 -62.5t68.5 -18.5h71q110 0 152 44q42 45 49 119h28l1 -213h-656v28l48 6q35 4 51 19.5t16 54.5
q0 35 1 86t1 72v244l-2 156q-1 39 -16.5 54.5t-50.5 19.5l-48 6v27zM187 863v55h374v-55h-374z" />
    <glyph glyph-name="emacron" unicode="&#x113;" horiz-adv-x="543" 
d="M507 279h-327v-7q-1 -96 40 -152.5t111 -56.5q101 0 152 90l28 -11q-61 -156 -221 -156q-119 0 -186.5 73t-67.5 190q0 114 68 186.5t181 72.5q103 0 159.5 -60t62.5 -169zM285 467q-43 0 -69 -41.5t-32 -104.5h178q-1 146 -77 146zM96 620v55h374v-55h-374z" />
    <glyph glyph-name="Ebreve" unicode="&#x114;" horiz-adv-x="729" 
d="M30 773h621v-204h-30q-6 73 -61 116q-47 36 -167 36h-96v-291h55q84 0 116 30q33 32 39 90h27v-293h-29q-6 66 -43 97q-28 24 -112 24h-53v-133l1 -114q0 -44 18.5 -62.5t68.5 -18.5h71q110 0 152 44q42 45 49 119h28l1 -213h-656v28l48 6q35 4 51 19.5t16 54.5
q0 35 1 86t1 72v244l-2 156q-1 39 -16.5 54.5t-50.5 19.5l-48 6v27zM374 871q95 0 107 111h56q-5 -48 -24 -82.5t-45.5 -50t-49 -21.5t-44.5 -6t-44.5 6t-49 21t-45.5 49.5t-24 83.5h59q12 -111 104 -111z" />
    <glyph glyph-name="ebreve" unicode="&#x115;" horiz-adv-x="543" 
d="M507 279h-327v-7q-1 -96 40 -152.5t111 -56.5q101 0 152 90l28 -11q-61 -156 -221 -156q-119 0 -186.5 73t-67.5 190q0 114 68 186.5t181 72.5q103 0 159.5 -60t62.5 -169zM285 467q-43 0 -69 -41.5t-32 -104.5h178q-1 146 -77 146zM271 618q95 0 107 111h56
q-5 -48 -24 -82.5t-45.5 -50t-49 -21.5t-44.5 -6t-44.5 6t-49 21t-45.5 49.5t-24 83.5h59q12 -111 104 -111z" />
    <glyph glyph-name="Edotaccent" unicode="&#x116;" horiz-adv-x="729" 
d="M30 773h621v-204h-30q-6 73 -61 116q-47 36 -167 36h-96v-291h55q84 0 116 30q33 32 39 90h27v-293h-29q-6 66 -43 97q-28 24 -112 24h-53v-133l1 -114q0 -44 18.5 -62.5t68.5 -18.5h71q110 0 152 44q42 45 49 119h28l1 -213h-656v28l48 6q35 4 51 19.5t16 54.5
q0 35 1 86t1 72v244l-2 156q-1 39 -16.5 54.5t-50.5 19.5l-48 6v27zM302 925q0 38 27 65t65 27t65 -27t27 -65t-27 -65t-65 -27t-65 27t-27 65z" />
    <glyph glyph-name="edotaccent" unicode="&#x117;" horiz-adv-x="543" 
d="M507 279h-327v-7q-1 -96 40 -152.5t111 -56.5q101 0 152 90l28 -11q-61 -156 -221 -156q-119 0 -186.5 73t-67.5 190q0 114 68 186.5t181 72.5q103 0 159.5 -60t62.5 -169zM285 467q-43 0 -69 -41.5t-32 -104.5h178q-1 146 -77 146zM189 672q0 38 27 65t65 27t65 -27
t27 -65t-27 -65t-65 -27t-65 27t-27 65z" />
    <glyph glyph-name="Eogonek" unicode="&#x118;" horiz-adv-x="729" 
d="M30 773h621v-204h-30q-6 73 -61 116q-47 36 -167 36h-96v-291h55q84 0 116 30q33 32 39 90h27v-293h-29q-6 66 -43 97q-28 24 -112 24h-53v-133l1 -114q0 -44 18.5 -62.5t68.5 -18.5h71q110 0 152 44q42 45 49 119h28l1 -213h-41q-67 -64 -67 -140q0 -34 17.5 -49.5
t44.5 -15.5q16 0 39 7l6 -15q-44 -36 -99 -36q-40 0 -70.5 23t-30.5 65q0 79 139 161h-594v28l48 6q35 4 51 19.5t16 54.5q0 35 1 86t1 72v244l-2 156q-1 39 -16.5 54.5t-50.5 19.5l-48 6v27z" />
    <glyph glyph-name="eogonek" unicode="&#x119;" horiz-adv-x="543" 
d="M409 -199l6 -15q-44 -36 -99 -36q-40 0 -70.5 23t-30.5 65q0 75 125 153q-27 -5 -50 -5q-119 0 -186.5 73t-67.5 190q0 114 68 186.5t181 72.5q103 0 159.5 -60t62.5 -169h-327v-7q-1 -96 40 -152.5t111 -56.5q101 0 152 90l28 -11q-42 -110 -135 -142q-68 -65 -68 -141
q0 -34 17.5 -49.5t44.5 -15.5q16 0 39 7zM285 467q-43 0 -69 -41.5t-32 -104.5h178q-1 146 -77 146z" />
    <glyph glyph-name="Ecaron" unicode="&#x11a;" horiz-adv-x="729" 
d="M30 773h621v-204h-30q-6 73 -61 116q-47 36 -167 36h-96v-291h55q84 0 116 30q33 32 39 90h27v-293h-29q-6 66 -43 97q-28 24 -112 24h-53v-133l1 -114q0 -44 18.5 -62.5t68.5 -18.5h71q110 0 152 44q42 45 49 119h28l1 -213h-656v28l48 6q35 4 51 19.5t16 54.5
q0 35 1 86t1 72v244l-2 156q-1 39 -16.5 54.5t-50.5 19.5l-48 6v27zM539 1008l-146 -197h-39l-144 196l20 18l144 -105l145 106z" />
    <glyph glyph-name="ecaron" unicode="&#x11b;" horiz-adv-x="543" 
d="M507 279h-327v-7q-1 -96 40 -152.5t111 -56.5q101 0 152 90l28 -11q-61 -156 -221 -156q-119 0 -186.5 73t-67.5 190q0 114 68 186.5t181 72.5q103 0 159.5 -60t62.5 -169zM285 467q-43 0 -69 -41.5t-32 -104.5h178q-1 146 -77 146zM448 755l-146 -197h-39l-144 196
l20 18l144 -105l145 106z" />
    <glyph glyph-name="Gcircumflex" unicode="&#x11c;" horiz-adv-x="848" 
d="M490 333h328v-28q-40 -6 -50 -19.5t-10 -61.5v-149q-46 -43 -129.5 -66t-171.5 -23q-196 0 -306.5 115t-110.5 282q0 175 119.5 291t301.5 116q112 0 275 -53l18 -175h-31q-40 91 -111 134t-143 43q-107 0 -186.5 -92.5t-79.5 -265.5q0 -160 77.5 -251t184.5 -91
q67 0 110 19q19 9 25 18t6 27v121q0 40 -16.5 55.5t-51.5 19.5l-48 6v28zM291 828l142 197h46l141 -196l-20 -18l-144 101l-145 -102z" />
    <glyph glyph-name="gcircumflex" unicode="&#x11d;" horiz-adv-x="565" 
d="M472 317q0 -84 -63.5 -134.5t-163.5 -50.5q-27 0 -52 6q-45 -25 -45 -54q0 -38 57 -36l115 2q227 5 227 -145q0 -92 -87 -146.5t-203 -54.5q-106 0 -176.5 39t-70.5 104q0 31 27 57.5t82 33.5q-43 11 -65.5 40t-22.5 56q0 37 29.5 72.5t99.5 44.5q-54 17 -91 68.5
t-37 107.5q0 84 61.5 132.5t149.5 48.5q68 0 122 -24l201 19q9 -29 9 -45q0 -33 -33 -33q-24 0 -74 16l-60 18q64 -51 64 -142zM318 -68h-101q-42 0 -61 2q-46 -27 -46 -77q0 -111 152 -111q62 0 113 31t51 82q0 43 -28 58t-80 15zM327 320q0 68 -18 110.5t-55 42.5
q-39 0 -58.5 -42t-19.5 -110q0 -67 18 -110t55 -43q29 0 47.5 26.5t24.5 58.5t6 67zM94 575l142 197h46l141 -196l-20 -18l-144 101l-145 -102z" />
    <glyph glyph-name="Gbreve" unicode="&#x11e;" horiz-adv-x="848" 
d="M490 333h328v-28q-40 -6 -50 -19.5t-10 -61.5v-149q-46 -43 -129.5 -66t-171.5 -23q-196 0 -306.5 115t-110.5 282q0 175 119.5 291t301.5 116q112 0 275 -53l18 -175h-31q-40 91 -111 134t-143 43q-107 0 -186.5 -92.5t-79.5 -265.5q0 -160 77.5 -251t184.5 -91
q67 0 110 19q19 9 25 18t6 27v121q0 40 -16.5 55.5t-51.5 19.5l-48 6v28zM464 871q95 0 107 111h56q-5 -48 -24 -82.5t-45.5 -50t-49 -21.5t-44.5 -6t-44.5 6t-49 21t-45.5 49.5t-24 83.5h59q12 -111 104 -111z" />
    <glyph glyph-name="gbreve" unicode="&#x11f;" horiz-adv-x="565" 
d="M472 317q0 -84 -63.5 -134.5t-163.5 -50.5q-27 0 -52 6q-45 -25 -45 -54q0 -38 57 -36l115 2q227 5 227 -145q0 -92 -87 -146.5t-203 -54.5q-106 0 -176.5 39t-70.5 104q0 31 27 57.5t82 33.5q-43 11 -65.5 40t-22.5 56q0 37 29.5 72.5t99.5 44.5q-54 17 -91 68.5
t-37 107.5q0 84 61.5 132.5t149.5 48.5q68 0 122 -24l201 19q9 -29 9 -45q0 -33 -33 -33q-24 0 -74 16l-60 18q64 -51 64 -142zM318 -68h-101q-42 0 -61 2q-46 -27 -46 -77q0 -111 152 -111q62 0 113 31t51 82q0 43 -28 58t-80 15zM327 320q0 68 -18 110.5t-55 42.5
q-39 0 -58.5 -42t-19.5 -110q0 -67 18 -110t55 -43q29 0 47.5 26.5t24.5 58.5t6 67zM253 618q95 0 107 111h56q-5 -48 -24 -82.5t-45.5 -50t-49 -21.5t-44.5 -6t-44.5 6t-49 21t-45.5 49.5t-24 83.5h59q12 -111 104 -111z" />
    <glyph glyph-name="Gdotaccent" unicode="&#x120;" horiz-adv-x="848" 
d="M490 333h328v-28q-40 -6 -50 -19.5t-10 -61.5v-149q-46 -43 -129.5 -66t-171.5 -23q-196 0 -306.5 115t-110.5 282q0 175 119.5 291t301.5 116q112 0 275 -53l18 -175h-31q-40 91 -111 134t-143 43q-107 0 -186.5 -92.5t-79.5 -265.5q0 -160 77.5 -251t184.5 -91
q67 0 110 19q19 9 25 18t6 27v121q0 40 -16.5 55.5t-51.5 19.5l-48 6v28zM370 925q0 38 27 65t65 27t65 -27t27 -65t-27 -65t-65 -27t-65 27t-27 65z" />
    <glyph glyph-name="gdotaccent" unicode="&#x121;" horiz-adv-x="565" 
d="M472 317q0 -84 -63.5 -134.5t-163.5 -50.5q-27 0 -52 6q-45 -25 -45 -54q0 -38 57 -36l115 2q227 5 227 -145q0 -92 -87 -146.5t-203 -54.5q-106 0 -176.5 39t-70.5 104q0 31 27 57.5t82 33.5q-43 11 -65.5 40t-22.5 56q0 37 29.5 72.5t99.5 44.5q-54 17 -91 68.5
t-37 107.5q0 84 61.5 132.5t149.5 48.5q68 0 122 -24l201 19q9 -29 9 -45q0 -33 -33 -33q-24 0 -74 16l-60 18q64 -51 64 -142zM318 -68h-101q-42 0 -61 2q-46 -27 -46 -77q0 -111 152 -111q62 0 113 31t51 82q0 43 -28 58t-80 15zM327 320q0 68 -18 110.5t-55 42.5
q-39 0 -58.5 -42t-19.5 -110q0 -67 18 -110t55 -43q29 0 47.5 26.5t24.5 58.5t6 67zM160 672q0 38 27 65t65 27t65 -27t27 -65t-27 -65t-65 -27t-65 27t-27 65z" />
    <glyph glyph-name="Gcommaaccent" unicode="&#x122;" horiz-adv-x="848" 
d="M490 333h328v-28q-40 -6 -50 -19.5t-10 -61.5v-149q-46 -43 -129.5 -66t-171.5 -23q-196 0 -306.5 115t-110.5 282q0 175 119.5 291t301.5 116q112 0 275 -53l18 -175h-31q-40 91 -111 134t-143 43q-107 0 -186.5 -92.5t-79.5 -265.5q0 -160 77.5 -251t184.5 -91
q67 0 110 19q19 9 25 18t6 27v121q0 40 -16.5 55.5t-51.5 19.5l-48 6v28zM418 -283l-11 20q17 12 35 32.5t18 38.5q0 13 -32 39.5t-32 52.5q0 24 19.5 44t52.5 20q39 0 59.5 -27.5t20.5 -64.5q0 -45 -41.5 -90.5t-88.5 -64.5z" />
    <glyph glyph-name="gcommaaccent" unicode="&#x123;" horiz-adv-x="565" 
d="M472 317q0 -84 -63.5 -134.5t-163.5 -50.5q-27 0 -52 6q-45 -25 -45 -54q0 -38 57 -36l115 2q227 5 227 -145q0 -92 -87 -146.5t-203 -54.5q-106 0 -176.5 39t-70.5 104q0 31 27 57.5t82 33.5q-43 11 -65.5 40t-22.5 56q0 37 29.5 72.5t99.5 44.5q-54 17 -91 68.5
t-37 107.5q0 84 61.5 132.5t149.5 48.5q68 0 122 -24l201 19q9 -29 9 -45q0 -33 -33 -33q-24 0 -74 16l-60 18q64 -51 64 -142zM318 -68h-101q-42 0 -61 2q-46 -27 -46 -77q0 -111 152 -111q62 0 113 31t51 82q0 43 -28 58t-80 15zM327 320q0 68 -18 110.5t-55 42.5
q-39 0 -58.5 -42t-19.5 -110q0 -67 18 -110t55 -43q29 0 47.5 26.5t24.5 58.5t6 67zM336 786l11 -20q-17 -12 -35 -32.5t-18 -38.5q0 -13 32 -39.5t32 -52.5q0 -23 -19.5 -41.5t-52.5 -18.5q-39 0 -59.5 25.5t-20.5 62.5q0 45 41 90t89 65z" />
    <glyph glyph-name="Hcircumflex" unicode="&#x124;" horiz-adv-x="953" 
d="M806 510v-244l2 -158q1 -39 16.5 -54.5t50.5 -19.5l48 -6v-28h-383v28l48 6q35 4 51 19.5t16 54.5q0 53 1 96.5t1 61.5v116h-361v-116l2 -158q1 -39 16.5 -54.5t50.5 -19.5l48 -6v-28h-383v28l48 6q35 4 51 19.5t16 54.5q0 53 1 96.5t1 61.5v244l-2 155q0 39 -16 54.5
t-51 19.5l-48 6v28h383v-28l-48 -6q-35 -4 -50.5 -19.5t-16.5 -54.5q-2 -54 -2 -155v-75h361v75l-2 155q0 39 -16 54.5t-51 19.5l-48 6v28h383v-28l-48 -6q-35 -4 -50.5 -19.5t-16.5 -54.5q-2 -54 -2 -155zM312 828l142 197h46l141 -196l-20 -18l-144 101l-145 -102z" />
    <glyph glyph-name="hcircumflex" unicode="&#x125;" horiz-adv-x="655" 
d="M246 556v-157q54 109 160 109q155 0 155 -198v-96l2 -125q1 -29 8.5 -40t33.5 -15l42 -6v-28h-305v28l42 6q33 4 33 55q0 13 0.5 55.5t0.5 69.5v81q0 29 -1.5 47t-8.5 40.5t-23.5 34t-43.5 11.5q-26 0 -52.5 -19t-42.5 -56v-173l1 -91q0 -28 6.5 -40t26.5 -15l42 -6v-28
h-305v28l42 6q26 4 33.5 15t8.5 40q2 52 2 98v369l-1 143q0 28 -8 39.5t-34 15.5l-42 6v28l230 12q-2 -141 -2 -244zM276 575l112 197h46l111 -196l-20 -18l-114 101l-115 -102z" />
    <glyph glyph-name="Hbar" unicode="&#x126;" horiz-adv-x="953" 
d="M29 551v55h117l-1 59q0 39 -16 54.5t-51 19.5l-48 6v28h383v-28l-48 -6q-35 -4 -50.5 -19.5t-16.5 -54.5q-1 -21 -2 -59h360l-1 59q0 39 -16 54.5t-51 19.5l-48 6v28h383v-28l-48 -6q-35 -4 -50.5 -19.5t-16.5 -54.5q-1 -21 -2 -59h115v-55h-115v-285l2 -158
q1 -39 16.5 -54.5t50.5 -19.5l48 -6v-28h-383v28l48 6q35 4 51 19.5t16 54.5q0 53 1 96.5t1 61.5v116h-361v-116l2 -158q1 -39 16.5 -54.5t50.5 -19.5l48 -6v-28h-383v28l48 6q35 4 51 19.5t16 54.5q0 53 1 96.5t1 61.5v285h-118zM296 435h361v116h-361v-116z" />
    <glyph glyph-name="hbar" unicode="&#x127;" horiz-adv-x="655" 
d="M18 596v47h85l-1 56q0 28 -8 39.5t-34 15.5l-42 6v28l230 12q-2 -76 -2 -157h188v-47h-188v-197q54 109 160 109q155 0 155 -198v-96l2 -125q1 -29 8.5 -40t33.5 -15l42 -6v-28h-305v28l42 6q33 4 33 55q0 13 0.5 55.5t0.5 69.5v81q0 29 -1.5 47t-8.5 40.5t-23.5 34
t-43.5 11.5q-26 0 -52.5 -19t-42.5 -56v-173l1 -91q0 -28 6.5 -40t26.5 -15l42 -6v-28h-305v28l42 6q26 4 33.5 15t8.5 40q2 52 2 98v409h-85z" />
    <glyph glyph-name="Itilde" unicode="&#x128;" horiz-adv-x="443" 
d="M13 851q10 29 16.5 46t18 40.5t21.5 35.5t25 21.5t31 9.5q36 0 112.5 -35t111.5 -35q46 0 76 41l22 -10q-14 -37 -22.5 -56.5t-22.5 -44.5t-31 -36.5t-38 -11.5q-42 0 -117 34.5t-106 34.5q-45 0 -76 -45zM296 510v-244l2 -158q1 -39 16.5 -54.5t50.5 -19.5l48 -6v-28
h-383v28l48 6q35 4 51 19.5t16 54.5q0 53 1 96.5t1 61.5v244l-2 155q0 39 -16 54.5t-51 19.5l-48 6v28h383v-28l-48 -6q-35 -4 -50.5 -19.5t-16.5 -54.5q-2 -54 -2 -155z" />
    <glyph glyph-name="itilde" unicode="&#x129;" 
d="M107 234l-1 162q0 28 -8 39.5t-34 15.5l-42 6v28l228 19v-270l1 -145q0 -28 8.5 -39.5t34.5 -15.5l42 -6v-28h-315v28l42 6q26 4 33.5 15t8.5 40q0 10 1 64t1 81zM-20 608q25 70 49 106.5t63 36.5q30 0 81.5 -37t76.5 -37q33 0 62 45l22 -10q-26 -69 -50.5 -104
t-63.5 -35q-35 0 -85 36t-71 36q-32 0 -63 -48z" />
    <glyph glyph-name="Imacron" unicode="&#x12a;" horiz-adv-x="443" 
d="M296 510v-244l2 -158q1 -39 16.5 -54.5t50.5 -19.5l48 -6v-28h-383v28l48 6q35 4 51 19.5t16 54.5q0 53 1 96.5t1 61.5v244l-2 155q0 39 -16 54.5t-51 19.5l-48 6v28h383v-28l-48 -6q-35 -4 -50.5 -19.5t-16.5 -54.5q-2 -54 -2 -155zM34 873v55h374v-55h-374z" />
    <glyph glyph-name="imacron" unicode="&#x12b;" 
d="M107 234l-1 162q0 28 -8 39.5t-34 15.5l-42 6v28l228 19v-270l1 -145q0 -28 8.5 -39.5t34.5 -15.5l42 -6v-28h-315v28l42 6q26 4 33.5 15t8.5 40q0 10 1 64t1 81zM4 620v55h304v-55h-304z" />
    <glyph glyph-name="Ibreve" unicode="&#x12c;" horiz-adv-x="443" 
d="M296 510v-244l2 -158q1 -39 16.5 -54.5t50.5 -19.5l48 -6v-28h-383v28l48 6q35 4 51 19.5t16 54.5q0 53 1 96.5t1 61.5v244l-2 155q0 39 -16 54.5t-51 19.5l-48 6v28h383v-28l-48 -6q-35 -4 -50.5 -19.5t-16.5 -54.5q-2 -54 -2 -155zM222 871q95 0 107 111h56
q-5 -48 -24 -82.5t-45.5 -50t-49 -21.5t-44.5 -6t-44.5 6t-49 21t-45.5 49.5t-24 83.5h59q12 -111 104 -111z" />
    <glyph glyph-name="ibreve" unicode="&#x12d;" 
d="M107 234l-1 162q0 28 -8 39.5t-34 15.5l-42 6v28l228 19v-270l1 -145q0 -28 8.5 -39.5t34.5 -15.5l42 -6v-28h-315v28l42 6q26 4 33.5 15t8.5 40q0 10 1 64t1 81zM164 618q45 0 67.5 25.5t29.5 85.5h56q-5 -49 -22.5 -83t-42 -49.5t-46 -21.5t-42.5 -6q-22 0 -43 6
t-45.5 21t-42 49.5t-22.5 83.5h59q7 -59 29.5 -85t64.5 -26z" />
    <glyph glyph-name="Iogonek" unicode="&#x12e;" horiz-adv-x="443" 
d="M286 -198l6 -15q-44 -36 -99 -36q-40 0 -70.5 23t-30.5 65q0 79 139 161h-201v28l48 6q35 4 51 19.5t16 54.5q0 53 1 96.5t1 61.5v244l-2 155q0 39 -16 54.5t-51 19.5l-48 6v28h383v-28l-48 -6q-35 -4 -50.5 -19.5t-16.5 -54.5q-2 -54 -2 -155v-244l2 -158
q1 -39 16.5 -54.5t50.5 -19.5l48 -6v-28h-161q-67 -64 -67 -140q0 -34 17.5 -49.5t44.5 -15.5q16 0 39 7z" />
    <glyph glyph-name="iogonek" unicode="&#x12f;" 
d="M79 672q0 38 27 65t65 27t65 -27t27 -65t-27 -65t-65 -27t-65 27t-27 65zM258 -198l6 -15q-44 -36 -99 -36q-40 0 -70.5 23t-30.5 65q0 79 139 161h-182v28l42 6q26 4 33.5 15t8.5 40q0 10 1 64t1 81l-1 162q0 28 -8 39.5t-34 15.5l-42 6v28l228 19v-270l1 -145
q0 -28 8.5 -39.5t34.5 -15.5l42 -6v-28h-112q-67 -64 -67 -140q0 -34 17.5 -49.5t44.5 -15.5q16 0 39 7z" />
    <glyph glyph-name="Idotaccent" unicode="&#x130;" horiz-adv-x="443" 
d="M129 925q0 38 27 65t65 27t65 -27t27 -65t-27 -65t-65 -27t-65 27t-27 65zM296 510v-244l2 -158q1 -39 16.5 -54.5t50.5 -19.5l48 -6v-28h-383v28l48 6q35 4 51 19.5t16 54.5q0 53 1 96.5t1 61.5v244l-2 155q0 39 -16 54.5t-51 19.5l-48 6v28h383v-28l-48 -6
q-35 -4 -50.5 -19.5t-16.5 -54.5q-2 -54 -2 -155z" />
    <glyph glyph-name="dotlessi" unicode="&#x131;" 
d="M107 234l-1 162q0 28 -8 39.5t-34 15.5l-42 6v28l228 19v-270l1 -145q0 -28 8.5 -39.5t34.5 -15.5l42 -6v-28h-315v28l42 6q26 4 33.5 15t8.5 40q0 10 1 64t1 81z" />
    <glyph glyph-name="IJ" unicode="&#x132;" horiz-adv-x="921" 
d="M296 510v-244l2 -158q1 -39 16.5 -54.5t50.5 -19.5l48 -6v-28h-383v28l48 6q35 4 51 19.5t16 54.5q0 53 1 96.5t1 61.5v244l-2 155q0 39 -16 54.5t-51 19.5l-48 6v28h383v-28l-48 -6q-35 -4 -50.5 -19.5t-16.5 -54.5q-2 -54 -2 -155zM674 361v133l-1 171q0 38 -19.5 54
t-56.5 20l-48 6v28h392v-28l-48 -6q-35 -4 -50.5 -19.5t-16.5 -54.5q-3 -16 -3 -171v-133q0 -69 -5 -121t-19.5 -99t-38 -76.5t-62 -47t-90.5 -17.5q-68 0 -122 25t-54 74q0 26 18 44t49 18q42 0 65 -43l34 -62q12 -20 29 -20q32 0 39.5 70t7.5 255z" />
    <glyph glyph-name="ij" unicode="&#x133;" horiz-adv-x="630" 
d="M107 234l-1 162q0 28 -8 39.5t-34 15.5l-42 6v28l228 19v-270l1 -145q0 -28 8.5 -39.5t34.5 -15.5l42 -6v-28h-315v28l42 6q26 4 33.5 15t8.5 40q0 10 1 64t1 81zM79 672q0 38 27 65t65 27t65 -27t27 -65t-27 -65t-65 -27t-65 27t-27 65zM420 29l-1 367q0 29 -7.5 40
t-33.5 15l-42 6v28l228 19q-1 -110 -1 -195v-261q0 -53 -6 -92.5t-24.5 -88t-60 -92t-106.5 -82.5l-18 22q26 27 41.5 64t21.5 85t7.5 79t1.5 86zM391 672q0 38 27 65t65 27t65 -27t27 -65t-27 -65t-65 -27t-65 27t-27 65z" />
    <glyph glyph-name="Jcircumflex" unicode="&#x134;" horiz-adv-x="495" 
d="M248 361v133l-1 171q0 38 -19.5 54t-56.5 20l-48 6v28h392v-28l-48 -6q-35 -4 -50.5 -19.5t-16.5 -54.5q-3 -16 -3 -171v-133q0 -69 -5 -121t-19.5 -99t-38 -76.5t-62 -47t-90.5 -17.5q-68 0 -122 25t-54 74q0 26 18 44t49 18q42 0 65 -43l34 -62q12 -20 29 -20
q32 0 39.5 70t7.5 255zM153 828l142 197h46l141 -196l-20 -18l-144 101l-145 -102z" />
    <glyph glyph-name="jcircumflex" unicode="&#x135;" horiz-adv-x="291" 
d="M81 29l-1 367q0 29 -7.5 40t-33.5 15l-42 6v28l228 19q-1 -110 -1 -195v-261q0 -53 -6 -92.5t-24.5 -88t-60 -92t-106.5 -82.5l-18 22q26 27 41.5 64t21.5 85t7.5 79t1.5 86zM-29 575l142 197h46l141 -196l-20 -18l-144 101l-145 -102z" />
    <glyph glyph-name="Kcommaaccent" unicode="&#x136;" horiz-adv-x="838" 
d="M294 375l207 233q32 36 46.5 62t14 40t-12.5 22.5t-26.5 10.5t-36.5 2l1 28h301v-30q-86 0 -183 -103l-184 -198l262 -314q80 -95 159 -100v-28h-361v28q23 0 37.5 2.5t23 10t4 21t-21.5 34.5zM293 510v-244l2 -158q1 -39 16.5 -54.5t50.5 -19.5l48 -6v-28h-383v28l48 6
q35 4 51 19.5t16 54.5q0 53 1 96.5t1 61.5v244l-2 155q0 39 -16 54.5t-51 19.5l-48 6v28h383v-28l-48 -6q-35 -4 -50.5 -19.5t-16.5 -54.5q-2 -54 -2 -155zM388 -283l-11 20q17 12 35 32.5t18 38.5q0 13 -32 39.5t-32 52.5q0 24 19.5 44t52.5 20q39 0 59.5 -27.5t20.5 -64.5
q0 -45 -41.5 -90.5t-88.5 -64.5z" />
    <glyph glyph-name="kcommaaccent" unicode="&#x137;" horiz-adv-x="667" 
d="M104 699q0 28 -8 39.5t-34 15.5l-42 6v28l230 12q-2 -141 -2 -244v-283l113 94q82 67 42 81q-12 4 -37 4v28h250v-28q-54 0 -94 -18t-100 -69l-52 -44l181 -234q23 -29 43.5 -40.5t72.5 -18.5v-28h-307v28q2 0 14.5 1t17.5 3t11 7t2 16t-16 28l-141 187v-16l2 -165
q0 -28 8.5 -39.5t34.5 -15.5l42 -6v-28h-315v28l42 6q26 4 34 15.5t8 39.5q1 62 1 165v302zM298 -283l-11 20q17 12 35 32.5t18 38.5q0 13 -32 39.5t-32 52.5q0 24 19.5 44t52.5 20q39 0 59.5 -27.5t20.5 -64.5q0 -45 -41.5 -90.5t-88.5 -64.5z" />
    <glyph glyph-name="kgreenlandic" unicode="&#x138;" horiz-adv-x="667" 
d="M107 234l-1 162q0 28 -8 39.5t-34 15.5l-42 6v28l228 19v-230l111 93q82 67 42 81q-12 4 -37 4v28h250v-28q-54 0 -94 -18t-100 -69l-52 -44l181 -234q23 -29 43.5 -40.5t72.5 -18.5v-28h-307v28q2 0 14.5 1t17.5 3t11 7t2 16t-16 28l-139 185v-34l1 -145
q0 -28 8.5 -39.5t34.5 -15.5l42 -6v-28h-315v28l42 6q26 4 33.5 15t8.5 40q0 10 1 64t1 81z" />
    <glyph glyph-name="Lacute" unicode="&#x139;" horiz-adv-x="725" 
d="M144 266v244l-2 156q-1 39 -16.5 54t-50.5 19l-48 6v28h393v-28l-48 -6q-43 -6 -60 -20.5t-17 -53.5q-1 -58 -1 -137v-283l1 -112q0 -44 18.5 -63t68.5 -19h86q111 0 154 57q34 44 41 114h29l1 -222h-666v28l48 6q35 4 51 19.5t16 54.5q0 35 1 86t1 72zM209 817l81 209
h166l-218 -209h-29z" />
    <glyph glyph-name="lacute" unicode="&#x13a;" 
d="M104 699q0 28 -8 39.5t-34 15.5l-42 6v28l230 12q-2 -141 -2 -244v-302l2 -167q0 -27 8 -37t35 -15l42 -7v-28h-315v28l42 7q27 5 34.5 15t7.5 37q1 64 1 167v302zM60 818l81 209h166l-218 -209h-29z" />
    <glyph glyph-name="Lcommaaccent" unicode="&#x13b;" horiz-adv-x="725" 
d="M144 266v244l-2 156q-1 39 -16.5 54t-50.5 19l-48 6v28h393v-28l-48 -6q-43 -6 -60 -20.5t-17 -53.5q-1 -58 -1 -137v-283l1 -112q0 -44 18.5 -63t68.5 -19h86q111 0 154 57q34 44 41 114h29l1 -222h-666v28l48 6q35 4 51 19.5t16 54.5q0 35 1 86t1 72zM318 -283l-11 20
q17 12 35 32.5t18 38.5q0 13 -32 39.5t-32 52.5q0 24 19.5 44t52.5 20q39 0 59.5 -27.5t20.5 -64.5q0 -45 -41.5 -90.5t-88.5 -64.5z" />
    <glyph glyph-name="lcommaaccent" unicode="&#x13c;" 
d="M104 699q0 28 -8 39.5t-34 15.5l-42 6v28l230 12q-2 -141 -2 -244v-302l2 -167q0 -27 8 -37t35 -15l42 -7v-28h-315v28l42 7q27 5 34.5 15t7.5 37q1 64 1 167v302zM128 -283l-11 20q17 12 35 32.5t18 38.5q0 13 -32 39.5t-32 52.5q0 24 19.5 44t52.5 20q39 0 59.5 -27.5
t20.5 -64.5q0 -45 -41.5 -90.5t-88.5 -64.5z" />
    <glyph glyph-name="Lcaron" unicode="&#x13d;" horiz-adv-x="725" 
d="M144 266v244l-2 156q-1 39 -16.5 54t-50.5 19l-48 6v28h393v-28l-48 -6q-43 -6 -60 -20.5t-17 -53.5q-1 -58 -1 -137v-283l1 -112q0 -44 18.5 -63t68.5 -19h86q111 0 154 57q34 44 41 114h29l1 -222h-666v28l48 6q35 4 51 19.5t16 54.5q0 35 1 86t1 72zM472 543l-11 20
q17 12 35 32.5t18 38.5q0 13 -32 39.5t-32 52.5q0 23 19.5 41.5t52.5 18.5q39 0 59.5 -25.5t20.5 -62.5q0 -45 -41 -90t-89 -65z" />
    <glyph glyph-name="lcaron" unicode="&#x13e;" horiz-adv-x="393" 
d="M104 699q0 28 -8 39.5t-34 15.5l-42 6v28l230 12q-2 -141 -2 -244v-302l2 -167q0 -27 8 -37t35 -15l42 -7v-28h-315v28l42 7q27 5 34.5 15t7.5 37q1 64 1 167v302zM308 543l-11 20q17 12 35 32.5t18 38.5q0 13 -32 39.5t-32 52.5q0 23 19.5 41.5t52.5 18.5
q39 0 59.5 -25.5t20.5 -62.5q0 -45 -41 -90t-89 -65z" />
    <glyph glyph-name="Ldot" unicode="&#x13f;" horiz-adv-x="725" 
d="M144 266v244l-2 156q-1 39 -16.5 54t-50.5 19l-48 6v28h393v-28l-48 -6q-43 -6 -60 -20.5t-17 -53.5q-1 -58 -1 -137v-283l1 -112q0 -44 18.5 -63t68.5 -19h86q111 0 154 57q34 44 41 114h29l1 -222h-666v28l48 6q35 4 51 19.5t16 54.5q0 35 1 86t1 72zM127 925
q0 38 27 65t65 27t65 -27t27 -65t-27 -65t-65 -27t-65 27t-27 65z" />
    <glyph glyph-name="ldot" unicode="&#x140;" 
d="M104 699q0 28 -8 39.5t-34 15.5l-42 6v28l230 12q-2 -141 -2 -244v-302l2 -167q0 -27 8 -37t35 -15l42 -7v-28h-315v28l42 7q27 5 34.5 15t7.5 37q1 64 1 167v302zM69 925q0 38 27 65t65 27t65 -27t27 -65t-27 -65t-65 -27t-65 27t-27 65z" />
    <glyph glyph-name="Lslash" unicode="&#x141;" horiz-adv-x="725" 
d="M35 257l-27 48l136 78v127l-2 156q-1 39 -16.5 54t-50.5 19l-48 6v28h393v-28l-48 -6q-43 -6 -60 -20.5t-17 -53.5q-1 -58 -1 -137v-58l107 62l28 -48l-135 -78v-161l1 -112q0 -44 18.5 -63t68.5 -19h124q75 0 112.5 43.5t44.5 108.5h29l1 -203h-666v28l48 6
q35 4 51 19.5t16 54.5q0 35 1 86t1 72v54z" />
    <glyph glyph-name="lslash" unicode="&#x142;" 
d="M15 274l-27 48l117 68v166l-1 143q0 28 -8 39.5t-34 15.5l-42 6v28l230 12q-2 -141 -2 -244v-83l93 54l28 -48l-121 -70v-155l2 -167q0 -27 8 -37t35 -15l42 -7v-28h-315v28l42 7q27 5 34.5 15t7.5 37q1 64 1 167v72z" />
    <glyph glyph-name="Nacute" unicode="&#x143;" horiz-adv-x="880" 
d="M696 228v363q0 94 -22.5 120t-105.5 34v28h312v-28q-42 -5 -62.5 -10.5t-37 -21.5t-21.5 -44t-5 -78v-605h-48l-498 604v-408q0 -94 22.5 -120t105.5 -34v-28h-312v28q42 5 62.5 10.5t37 21.5t21.5 44t5 78v478q-27 32 -40 45.5t-36.5 26.5t-49.5 13v28h224zM396 817
l81 209h166l-218 -209h-29z" />
    <glyph glyph-name="nacute" unicode="&#x144;" horiz-adv-x="660" 
d="M22 485l223 13l3 -105q53 115 163 115q155 0 155 -198v-96l2 -125q1 -29 8.5 -40t33.5 -15l42 -6v-28h-305v28l42 6q33 4 33 55q0 13 0.5 55.5t0.5 69.5v81q0 29 -1.5 47t-8.5 40.5t-23.5 34t-43.5 11.5q-26 0 -52.5 -19t-42.5 -56v-173l1 -91q0 -28 6.5 -40t26.5 -15
l42 -6v-28h-305v28l42 6q26 4 33.5 15t8.5 40q2 52 2 98v90l-2 119q-1 29 -8.5 40t-33.5 15l-42 6v28zM266 564l81 209h166l-218 -209h-29z" />
    <glyph glyph-name="Ncommaaccent" unicode="&#x145;" horiz-adv-x="880" 
d="M696 228v363q0 94 -22.5 120t-105.5 34v28h312v-28q-42 -5 -62.5 -10.5t-37 -21.5t-21.5 -44t-5 -78v-605h-48l-498 604v-408q0 -94 22.5 -120t105.5 -34v-28h-312v28q42 5 62.5 10.5t37 21.5t21.5 44t5 78v478q-27 32 -40 45.5t-36.5 26.5t-49.5 13v28h224zM388 -283
l-11 20q17 12 35 32.5t18 38.5q0 13 -32 39.5t-32 52.5q0 24 19.5 44t52.5 20q39 0 59.5 -27.5t20.5 -64.5q0 -45 -41.5 -90.5t-88.5 -64.5z" />
    <glyph glyph-name="ncommaaccent" unicode="&#x146;" horiz-adv-x="660" 
d="M22 485l223 13l3 -105q53 115 163 115q155 0 155 -198v-96l2 -125q1 -29 8.5 -40t33.5 -15l42 -6v-28h-305v28l42 6q33 4 33 55q0 13 0.5 55.5t0.5 69.5v81q0 29 -1.5 47t-8.5 40.5t-23.5 34t-43.5 11.5q-26 0 -52.5 -19t-42.5 -56v-173l1 -91q0 -28 6.5 -40t26.5 -15
l42 -6v-28h-305v28l42 6q26 4 33.5 15t8.5 40q2 52 2 98v90l-2 119q-1 29 -8.5 40t-33.5 15l-42 6v28zM288 -283l-11 20q17 12 35 32.5t18 38.5q0 13 -32 39.5t-32 52.5q0 24 19.5 44t52.5 20q39 0 59.5 -27.5t20.5 -64.5q0 -45 -41.5 -90.5t-88.5 -64.5z" />
    <glyph glyph-name="Ncaron" unicode="&#x147;" horiz-adv-x="880" 
d="M696 228v363q0 94 -22.5 120t-105.5 34v28h312v-28q-42 -5 -62.5 -10.5t-37 -21.5t-21.5 -44t-5 -78v-605h-48l-498 604v-408q0 -94 22.5 -120t105.5 -34v-28h-312v28q42 5 62.5 10.5t37 21.5t21.5 44t5 78v478q-27 32 -40 45.5t-36.5 26.5t-49.5 13v28h224zM624 1008
l-146 -197h-39l-144 196l20 18l144 -105l145 106z" />
    <glyph glyph-name="ncaron" unicode="&#x148;" horiz-adv-x="660" 
d="M22 485l223 13l3 -105q53 115 163 115q155 0 155 -198v-96l2 -125q1 -29 8.5 -40t33.5 -15l42 -6v-28h-305v28l42 6q33 4 33 55q0 13 0.5 55.5t0.5 69.5v81q0 29 -1.5 47t-8.5 40.5t-23.5 34t-43.5 11.5q-26 0 -52.5 -19t-42.5 -56v-173l1 -91q0 -28 6.5 -40t26.5 -15
l42 -6v-28h-305v28l42 6q26 4 33.5 15t8.5 40q2 52 2 98v90l-2 119q-1 29 -8.5 40t-33.5 15l-42 6v28zM496 755l-146 -197h-39l-144 196l20 18l144 -105l145 106z" />
    <glyph glyph-name="napostrophe" unicode="&#x149;" horiz-adv-x="660" 
d="M22 485l223 13l3 -105q53 115 163 115q155 0 155 -198v-96l2 -125q1 -29 8.5 -40t33.5 -15l42 -6v-28h-305v28l42 6q33 4 33 55q0 13 0.5 55.5t0.5 69.5v81q0 29 -1.5 47t-8.5 40.5t-23.5 34t-43.5 11.5q-26 0 -52.5 -19t-42.5 -56v-173l1 -91q0 -28 6.5 -40t26.5 -15
l42 -6v-28h-305v28l42 6q26 4 33.5 15t8.5 40q2 52 2 98v90l-2 119q-1 29 -8.5 40t-33.5 15l-42 6v28zM118 551l-11 19q16 11 33 30t17 36q0 12 -30 36.5t-30 49.5q0 22 18 39t49 17q37 0 56 -23.5t19 -58.5q0 -42 -38.5 -84.5t-82.5 -60.5z" />
    <glyph glyph-name="Eng" unicode="&#x14a;" horiz-adv-x="880" 
d="M696 228v363q0 94 -22.5 120t-105.5 34v28h312v-28q-42 -5 -62.5 -10.5t-37 -21.5t-21.5 -44t-5 -78v-543q0 -53 -6 -92.5t-24.5 -88t-60 -92t-106.5 -82.5l-18 22q90 96 90 314v50l-421 511v-408q0 -94 22.5 -120t105.5 -34v-28h-312v28q42 5 62.5 10.5t37 21.5t21.5 44
t5 78v478q-27 32 -40 45.5t-36.5 26.5t-49.5 13v28h224z" />
    <glyph glyph-name="eng" unicode="&#x14b;" horiz-adv-x="636" 
d="M422 29q1 191 1 266q0 29 -1.5 47t-8.5 40.5t-23.5 34t-43.5 11.5q-26 0 -52.5 -19t-42.5 -56v-173l1 -91q0 -28 6.5 -40t26.5 -15l42 -6v-28h-305v28l42 6q26 4 33.5 15t8.5 40q2 52 2 98v90l-2 119q-1 29 -8.5 40t-33.5 15l-42 6v28l223 13l3 -105q53 115 163 115
q155 0 155 -198l-1 -262q0 -53 -6 -92.5t-24.5 -88t-60 -92t-106.5 -82.5l-18 22q26 27 41.5 64t21.5 85t7.5 79t1.5 86z" />
    <glyph glyph-name="Omacron" unicode="&#x14c;" horiz-adv-x="899" 
d="M692 387q0 174 -69.5 263.5t-173.5 89.5q-105 0 -174.5 -89.5t-69.5 -263.5q0 -173 69.5 -261t174.5 -88t174 87.5t69 261.5zM859 385q0 -172 -120 -285.5t-290 -113.5t-289.5 115.5t-119.5 289.5q0 172 119 285.5t290 113.5q169 0 289.5 -116t120.5 -289zM262 863v55
h374v-55h-374z" />
    <glyph glyph-name="omacron" unicode="&#x14d;" horiz-adv-x="600" 
d="M36 256q0 111 74.5 181.5t189.5 70.5q127 0 195.5 -76t68.5 -192q0 -111 -70.5 -182.5t-196.5 -71.5q-129 0 -195 78t-66 192zM411 245q0 98 -26 159t-83 61q-112 0 -112 -217q0 -95 25 -157t81 -62q115 0 115 216zM113 620v55h374v-55h-374z" />
    <glyph glyph-name="Obreve" unicode="&#x14e;" horiz-adv-x="899" 
d="M692 387q0 174 -69.5 263.5t-173.5 89.5q-105 0 -174.5 -89.5t-69.5 -263.5q0 -173 69.5 -261t174.5 -88t174 87.5t69 261.5zM859 385q0 -172 -120 -285.5t-290 -113.5t-289.5 115.5t-119.5 289.5q0 172 119 285.5t290 113.5q169 0 289.5 -116t120.5 -289zM449 871
q95 0 107 111h56q-5 -48 -24 -82.5t-45.5 -50t-49 -21.5t-44.5 -6t-44.5 6t-49 21t-45.5 49.5t-24 83.5h59q12 -111 104 -111z" />
    <glyph glyph-name="obreve" unicode="&#x14f;" horiz-adv-x="600" 
d="M36 256q0 111 74.5 181.5t189.5 70.5q127 0 195.5 -76t68.5 -192q0 -111 -70.5 -182.5t-196.5 -71.5q-129 0 -195 78t-66 192zM411 245q0 98 -26 159t-83 61q-112 0 -112 -217q0 -95 25 -157t81 -62q115 0 115 216zM300 618q95 0 107 111h56q-5 -48 -24 -82.5t-45.5 -50
t-49 -21.5t-44.5 -6t-44.5 6t-49 21t-45.5 49.5t-24 83.5h59q12 -111 104 -111z" />
    <glyph glyph-name="Ohungarumlaut" unicode="&#x150;" horiz-adv-x="899" 
d="M692 387q0 174 -69.5 263.5t-173.5 89.5q-105 0 -174.5 -89.5t-69.5 -263.5q0 -173 69.5 -261t174.5 -88t174 87.5t69 261.5zM859 385q0 -172 -120 -285.5t-290 -113.5t-289.5 115.5t-119.5 289.5q0 172 119 285.5t290 113.5q169 0 289.5 -116t120.5 -289zM297 817
l81 209h166l-218 -209h-29zM498 817l81 209h166l-218 -209h-29z" />
    <glyph glyph-name="ohungarumlaut" unicode="&#x151;" horiz-adv-x="600" 
d="M36 256q0 111 74.5 181.5t189.5 70.5q127 0 195.5 -76t68.5 -192q0 -111 -70.5 -182.5t-196.5 -71.5q-129 0 -195 78t-66 192zM411 245q0 98 -26 159t-83 61q-112 0 -112 -217q0 -95 25 -157t81 -62q115 0 115 216zM128 564l81 209h166l-218 -209h-29zM329 564l81 209
h166l-218 -209h-29z" />
    <glyph glyph-name="OE" unicode="&#x152;" horiz-adv-x="1248" 
d="M679 772l497 1v-194h-34q-6 68 -51.5 105t-119.5 37h-149v-291h99q50 0 74.5 30t30.5 90h33v-293h-35q-6 63 -30.5 92t-72.5 29h-99v-133l1 -114q0 -44 18 -61.5t69 -17.5h114q75 0 111 42.5t43 108.5h32l1 -203h-532v77q-96 -91 -242 -91q-168 0 -284.5 114.5
t-116.5 287.5q0 172 116 284.5t285 112.5q146 0 243 -94zM679 385q0 174 -67.5 261t-174.5 87t-174.5 -87t-67.5 -261t67 -259.5t175 -85.5q107 0 174.5 85.5t67.5 259.5z" />
    <glyph glyph-name="oe" unicode="&#x153;" horiz-adv-x="912" 
d="M876 279h-327v-7q-1 -96 40 -152.5t111 -56.5q98 0 149 90l28 -11q-61 -156 -218 -156q-116 0 -174 79q-60 -79 -188 -79q-129 0 -195 78t-66 192q0 111 74 181.5t189 70.5q127 0 186 -83q56 83 173 83q102 0 157 -59.5t61 -169.5zM411 245q0 98 -26 159t-83 61
q-112 0 -112 -217q0 -95 25 -157t81 -62q115 0 115 216zM653 467q-45 0 -69.5 -41t-30.5 -105h178q-3 146 -78 146z" />
    <glyph glyph-name="Racute" unicode="&#x154;" horiz-adv-x="816" 
d="M427 0h-389v28l48 6q35 4 51 19.5t16 54.5q1 43 1 159l-1 397q0 39 -16 54.5t-51 19.5l-48 6v28q59 0 164 2t164 2q56 0 105 -9t95 -29.5t73 -60.5t27 -96q0 -68 -53 -125t-138 -74q66 -7 113 -47.5t65 -104.5l17 -59q22 -76 56.5 -108t97.5 -25l7 -31q-60 -21 -120 -21
q-155 0 -204 205q-24 99 -64.5 129.5t-139.5 33.5v-246q0 -39 16 -54.5t51 -19.5l57 -6v-28zM303 725v-336q56 -3 96.5 7t63 26t35 42.5t16 50t3.5 55.5q0 82 -51 119.5t-129 37.5q-12 0 -34 -2zM294 817l81 209h166l-218 -209h-29z" />
    <glyph glyph-name="racute" unicode="&#x155;" horiz-adv-x="469" 
d="M240 498l1 -139q19 61 61 105t92 44q38 0 58.5 -19t20.5 -51q0 -26 -20.5 -47.5t-48.5 -21.5q-30 0 -49.5 13.5t-40.5 39.5q-44 -24 -68 -97v-145l1 -91q0 -27 12 -39t41 -16l42 -6v-28h-325v28l42 6q26 4 33.5 15t8.5 40q2 52 2 98v131l-2 78q-1 29 -8.5 40t-33.5 15
l-42 6v28zM111 564l81 209h166l-218 -209h-29z" />
    <glyph glyph-name="Rcommaaccent" unicode="&#x156;" horiz-adv-x="816" 
d="M427 0h-389v28l48 6q35 4 51 19.5t16 54.5q1 43 1 159l-1 397q0 39 -16 54.5t-51 19.5l-48 6v28q59 0 164 2t164 2q56 0 105 -9t95 -29.5t73 -60.5t27 -96q0 -68 -53 -125t-138 -74q66 -7 113 -47.5t65 -104.5l17 -59q22 -76 56.5 -108t97.5 -25l7 -31q-60 -21 -120 -21
q-155 0 -204 205q-24 99 -64.5 129.5t-139.5 33.5v-246q0 -39 16 -54.5t51 -19.5l57 -6v-28zM303 725v-336q56 -3 96.5 7t63 26t35 42.5t16 50t3.5 55.5q0 82 -51 119.5t-129 37.5q-12 0 -34 -2zM378 -283l-11 20q17 12 35 32.5t18 38.5q0 13 -32 39.5t-32 52.5
q0 24 19.5 44t52.5 20q39 0 59.5 -27.5t20.5 -64.5q0 -45 -41.5 -90.5t-88.5 -64.5z" />
    <glyph glyph-name="rcommaaccent" unicode="&#x157;" horiz-adv-x="469" 
d="M240 498l1 -139q19 61 61 105t92 44q38 0 58.5 -19t20.5 -51q0 -26 -20.5 -47.5t-48.5 -21.5q-30 0 -49.5 13.5t-40.5 39.5q-44 -24 -68 -97v-145l1 -91q0 -27 12 -39t41 -16l42 -6v-28h-325v28l42 6q26 4 33.5 15t8.5 40q2 52 2 98v131l-2 78q-1 29 -8.5 40t-33.5 15
l-42 6v28zM125 -283l-11 20q17 12 35 32.5t18 38.5q0 13 -32 39.5t-32 52.5q0 24 19.5 44t52.5 20q39 0 59.5 -27.5t20.5 -64.5q0 -45 -41.5 -90.5t-88.5 -64.5z" />
    <glyph glyph-name="Rcaron" unicode="&#x158;" horiz-adv-x="816" 
d="M427 0h-389v28l48 6q35 4 51 19.5t16 54.5q1 43 1 159l-1 397q0 39 -16 54.5t-51 19.5l-48 6v28q59 0 164 2t164 2q56 0 105 -9t95 -29.5t73 -60.5t27 -96q0 -68 -53 -125t-138 -74q66 -7 113 -47.5t65 -104.5l17 -59q22 -76 56.5 -108t97.5 -25l7 -31q-60 -21 -120 -21
q-155 0 -204 205q-24 99 -64.5 129.5t-139.5 33.5v-246q0 -39 16 -54.5t51 -19.5l57 -6v-28zM303 725v-336q56 -3 96.5 7t63 26t35 42.5t16 50t3.5 55.5q0 82 -51 119.5t-129 37.5q-12 0 -34 -2zM527 1008l-146 -197h-39l-144 196l20 18l144 -105l145 106z" />
    <glyph glyph-name="rcaron" unicode="&#x159;" horiz-adv-x="469" 
d="M240 498l1 -139q19 61 61 105t92 44q38 0 58.5 -19t20.5 -51q0 -26 -20.5 -47.5t-48.5 -21.5q-30 0 -49.5 13.5t-40.5 39.5q-44 -24 -68 -97v-145l1 -91q0 -27 12 -39t41 -16l42 -6v-28h-325v28l42 6q26 4 33.5 15t8.5 40q2 52 2 98v131l-2 78q-1 29 -8.5 40t-33.5 15
l-42 6v28zM327 755l-146 -197h-39l-144 196l20 18l144 -105l145 106z" />
    <glyph glyph-name="Sacute" unicode="&#x15a;" horiz-adv-x="650" 
d="M298 41q79 0 122.5 36t43.5 91q0 54 -28.5 89t-97.5 60l-80 28q-105 38 -149.5 97t-44.5 142q0 92 74.5 149t185.5 57q116 0 217 -49l11 -153h-35q-47 150 -183 150q-68 0 -104.5 -32t-36.5 -79q0 -95 106 -132l97 -34q43 -15 75 -32t63 -45t47 -69.5t16 -94.5
q0 -103 -81.5 -168.5t-212.5 -65.5q-146 0 -247 63v163h28q33 -96 86.5 -133.5t127.5 -37.5zM241 817l81 209h166l-218 -209h-29z" />
    <glyph glyph-name="sacute" unicode="&#x15b;" horiz-adv-x="494" 
d="M247 -14q-99 0 -146 54l-19 -53h-33v197h43q17 -81 56.5 -114t83.5 -33q88 0 88 74q0 61 -72 78l-48 12q-76 19 -111.5 64t-35.5 99q0 68 53 105.5t136 37.5q30 0 67 -9.5t57 -30.5l20 40h31v-174h-41q-25 128 -118 128q-30 0 -53 -16t-23 -46q0 -61 78 -80l36 -9
q157 -40 157 -159q0 -82 -61.5 -123.5t-144.5 -41.5zM173 564l81 209h166l-218 -209h-29z" />
    <glyph glyph-name="Scircumflex" unicode="&#x15c;" horiz-adv-x="650" 
d="M298 41q79 0 122.5 36t43.5 91q0 54 -28.5 89t-97.5 60l-80 28q-105 38 -149.5 97t-44.5 142q0 92 74.5 149t185.5 57q116 0 217 -49l11 -153h-35q-47 150 -183 150q-68 0 -104.5 -32t-36.5 -79q0 -95 106 -132l97 -34q43 -15 75 -32t63 -45t47 -69.5t16 -94.5
q0 -103 -81.5 -168.5t-212.5 -65.5q-146 0 -247 63v163h28q33 -96 86.5 -133.5t127.5 -37.5zM160 828l142 197h46l141 -196l-20 -18l-144 101l-145 -102z" />
    <glyph glyph-name="scircumflex" unicode="&#x15d;" horiz-adv-x="494" 
d="M247 -14q-99 0 -146 54l-19 -53h-33v197h43q17 -81 56.5 -114t83.5 -33q88 0 88 74q0 61 -72 78l-48 12q-76 19 -111.5 64t-35.5 99q0 68 53 105.5t136 37.5q30 0 67 -9.5t57 -30.5l20 40h31v-174h-41q-25 128 -118 128q-30 0 -53 -16t-23 -46q0 -61 78 -80l36 -9
q157 -40 157 -159q0 -82 -61.5 -123.5t-144.5 -41.5zM72 575l142 197h46l141 -196l-20 -18l-144 101l-145 -102z" />
    <glyph glyph-name="Scedilla" unicode="&#x15e;" horiz-adv-x="650" 
d="M298 41q79 0 122.5 36t43.5 91q0 54 -28.5 89t-97.5 60l-80 28q-105 38 -149.5 97t-44.5 142q0 92 74.5 149t185.5 57q116 0 217 -49l11 -153h-35q-47 150 -183 150q-68 0 -104.5 -32t-36.5 -79q0 -95 106 -132l97 -34q43 -15 75 -32t63 -45t47 -69.5t16 -94.5
q0 -99 -75.5 -163.5t-198.5 -69.5l-54 -81q34 26 67 26t53.5 -18.5t20.5 -52.5q0 -51 -60.5 -84.5t-127.5 -38.5l-3 18q44 9 73 41t29 63q0 17 -9.5 26.5t-24.5 9.5q-16 0 -30 -11l-24 19l54 82q-139 5 -231 63v163h28q33 -96 86.5 -133.5t127.5 -37.5z" />
    <glyph glyph-name="scedilla" unicode="&#x15f;" horiz-adv-x="494" 
d="M453 151q0 -80 -58 -121t-140 -44l-54 -80q34 26 67 26t53.5 -18.5t20.5 -52.5q0 -51 -60.5 -84.5t-127.5 -38.5l-3 18q44 9 73 41t29 63q0 17 -9.5 26.5t-24.5 9.5q-16 0 -30 -11l-24 19l54 84q-82 9 -118 52l-19 -53h-33v197h43q17 -81 56.5 -114t83.5 -33q88 0 88 74
q0 61 -72 78l-48 12q-76 19 -111.5 64t-35.5 99q0 68 53 105.5t136 37.5q30 0 67 -9.5t57 -30.5l20 40h31v-174h-41q-25 128 -118 128q-30 0 -53 -16t-23 -46q0 -61 78 -80l36 -9q157 -40 157 -159z" />
    <glyph glyph-name="Scaron" unicode="&#x160;" horiz-adv-x="650" 
d="M298 41q79 0 122.5 36t43.5 91q0 54 -28.5 89t-97.5 60l-80 28q-105 38 -149.5 97t-44.5 142q0 92 74.5 149t185.5 57q116 0 217 -49l11 -153h-35q-47 150 -183 150q-68 0 -104.5 -32t-36.5 -79q0 -95 106 -132l97 -34q43 -15 75 -32t63 -45t47 -69.5t16 -94.5
q0 -103 -81.5 -168.5t-212.5 -65.5q-146 0 -247 63v163h28q33 -96 86.5 -133.5t127.5 -37.5zM489 1008l-146 -197h-39l-144 196l20 18l144 -105l145 106z" />
    <glyph glyph-name="scaron" unicode="&#x161;" horiz-adv-x="494" 
d="M247 -14q-99 0 -146 54l-19 -53h-33v197h43q17 -81 56.5 -114t83.5 -33q88 0 88 74q0 61 -72 78l-48 12q-76 19 -111.5 64t-35.5 99q0 68 53 105.5t136 37.5q30 0 67 -9.5t57 -30.5l20 40h31v-174h-41q-25 128 -118 128q-30 0 -53 -16t-23 -46q0 -61 78 -80l36 -9
q157 -40 157 -159q0 -82 -61.5 -123.5t-144.5 -41.5zM411 755l-146 -197h-39l-144 196l20 18l144 -105l145 106z" />
    <glyph glyph-name="Tcommaaccent" unicode="&#x162;" horiz-adv-x="758" 
d="M13 539v234h737v-234h-34q-9 95 -57 140q-47 45 -155 45h-48v-458l2 -158q1 -39 16.5 -54.5t50.5 -19.5l48 -6v-28h-383v28l48 6q35 4 50.5 19.5t16.5 54.5l2 155v3v458h-44q-102 0 -152 -40q-55 -46 -64 -145h-34zM338 -283l-11 20q17 12 35 32.5t18 38.5q0 13 -32 39.5
t-32 52.5q0 24 19.5 44t52.5 20q39 0 59.5 -27.5t20.5 -64.5q0 -45 -41.5 -90.5t-88.5 -64.5z" />
    <glyph glyph-name="tcommaaccent" unicode="&#x163;" horiz-adv-x="398" 
d="M199 611h35v-130h138v-47h-138l1 -303q0 -45 14 -61.5t39 -16.5q39 0 89 25l17 -27q-76 -65 -165 -65q-57 0 -97.5 31.5t-40.5 93.5v325l-75 6v39h85zM172 -283l-11 20q17 12 35 32.5t18 38.5q0 13 -32 39.5t-32 52.5q0 24 19.5 44t52.5 20q39 0 59.5 -27.5t20.5 -64.5
q0 -45 -41.5 -90.5t-88.5 -64.5z" />
    <glyph glyph-name="Tcaron" unicode="&#x164;" horiz-adv-x="758" 
d="M13 539v234h737v-234h-34q-9 95 -57 140q-47 45 -155 45h-48v-458l2 -158q1 -39 16.5 -54.5t50.5 -19.5l48 -6v-28h-383v28l48 6q35 4 50.5 19.5t16.5 54.5l2 155v3v458h-44q-102 0 -152 -40q-55 -46 -64 -145h-34zM543 1008l-146 -197h-39l-144 196l20 18l144 -105
l145 106z" />
    <glyph glyph-name="tcaron" unicode="&#x165;" horiz-adv-x="398" 
d="M199 611h35v-130h138v-47h-138l1 -303q0 -45 14 -61.5t39 -16.5q39 0 89 25l17 -27q-76 -65 -165 -65q-57 0 -97.5 31.5t-40.5 93.5v325l-75 6v39h85zM278 543l-11 20q17 12 35 32.5t18 38.5q0 13 -32 39.5t-32 52.5q0 23 19.5 41.5t52.5 18.5q39 0 59.5 -25.5
t20.5 -62.5q0 -45 -41 -90t-89 -65z" />
    <glyph glyph-name="Tbar" unicode="&#x166;" horiz-adv-x="758" 
d="M156 374v55h151v295h-44q-102 0 -152 -40q-55 -46 -64 -145h-34v234h737v-234h-34q-9 95 -57 140q-47 45 -155 45h-48v-295h154v-55h-154v-108l2 -158q1 -39 16.5 -54.5t50.5 -19.5l48 -6v-28h-383v28l48 6q35 4 50.5 19.5t16.5 54.5l2 155v3v108h-151z" />
    <glyph glyph-name="tbar" unicode="&#x167;" horiz-adv-x="398" 
d="M16 300v47h75v89l-75 6v39h85l98 130h35v-130h138v-47h-138v-87h138v-47h-138l1 -169q0 -45 14 -61.5t39 -16.5q39 0 89 25l17 -27q-76 -65 -165 -65q-57 0 -97.5 31.5t-40.5 93.5v189h-75z" />
    <glyph glyph-name="Utilde" unicode="&#x168;" horiz-adv-x="864" 
d="M243 851q10 29 16.5 46t18 40.5t21.5 35.5t25 21.5t31 9.5q36 0 112.5 -35t111.5 -35q46 0 76 41l22 -10q-14 -37 -22.5 -56.5t-22.5 -44.5t-31 -36.5t-38 -11.5q-42 0 -117 34.5t-106 34.5q-45 0 -76 -45zM116 304l-1 361q0 39 -16 54.5t-51 19.5l-48 6v28h383v-28
l-48 -6q-35 -4 -51 -19.5t-16 -54.5q-2 -245 -2 -367q0 -119 47.5 -175.5t161.5 -56.5q101 0 155 66t54 192v175v50.5t-1 43t-3.5 39t-7 31.5t-11 28t-16 20.5t-22.5 17t-30 10t-39 6.5v28h320v-28q-27 -2 -47.5 -10t-34 -17.5t-22.5 -29.5t-14 -34.5t-7 -45.5t-2.5 -50
t-0.5 -59v-184q0 -155 -83.5 -242t-230.5 -87q-136 0 -217 67q-99 84 -99 251z" />
    <glyph glyph-name="utilde" unicode="&#x169;" horiz-adv-x="633" 
d="M616 0h-210l-5 103q-53 -115 -163 -115q-82 0 -116.5 51t-34.5 146v68l-2 143q-1 29 -8.5 40t-33.5 15l-42 6v28l233 12q-3 -43 -3 -198l-1 -98q0 -26 0.5 -37.5t4 -34t10.5 -33t21.5 -19.5t36.5 -9q26 0 52.5 19t42.5 56v120l-2 133q-1 29 -8.5 40t-33.5 15l-42 6v28
l233 12q-3 -66 -3 -188l-1 -220q0 -28 6.5 -40t26.5 -15l42 -6v-28zM93 608q25 70 49 106.5t63 36.5q36 0 106.5 -35.5t102.5 -35.5q41 0 71 42l22 -10q-26 -69 -50.5 -104t-63.5 -35q-41 0 -110 35t-97 35q-41 0 -72 -46z" />
    <glyph glyph-name="Umacron" unicode="&#x16a;" horiz-adv-x="864" 
d="M283 863v55h374v-55h-374zM116 304l-1 361q0 39 -16 54.5t-51 19.5l-48 6v28h383v-28l-48 -6q-35 -4 -51 -19.5t-16 -54.5q-2 -245 -2 -367q0 -119 47.5 -175.5t161.5 -56.5q101 0 155 66t54 192v175v50.5t-1 43t-3.5 39t-7 31.5t-11 28t-16 20.5t-22.5 17t-30 10
t-39 6.5v28h320v-28q-27 -2 -47.5 -10t-34 -17.5t-22.5 -29.5t-14 -34.5t-7 -45.5t-2.5 -50t-0.5 -59v-184q0 -155 -83.5 -242t-230.5 -87q-136 0 -217 67q-99 84 -99 251z" />
    <glyph glyph-name="umacron" unicode="&#x16b;" horiz-adv-x="633" 
d="M616 0h-210l-5 103q-53 -115 -163 -115q-82 0 -116.5 51t-34.5 146v68l-2 143q-1 29 -8.5 40t-33.5 15l-42 6v28l233 12q-3 -43 -3 -198l-1 -98q0 -26 0.5 -37.5t4 -34t10.5 -33t21.5 -19.5t36.5 -9q26 0 52.5 19t42.5 56v120l-2 133q-1 29 -8.5 40t-33.5 15l-42 6v28
l233 12q-3 -66 -3 -188l-1 -220q0 -28 6.5 -40t26.5 -15l42 -6v-28zM119 620v55h374v-55h-374z" />
    <glyph glyph-name="Ubreve" unicode="&#x16c;" horiz-adv-x="864" 
d="M116 304l-1 361q0 39 -16 54.5t-51 19.5l-48 6v28h383v-28l-48 -6q-35 -4 -51 -19.5t-16 -54.5q-2 -245 -2 -367q0 -119 47.5 -175.5t161.5 -56.5q101 0 155 66t54 192v175v50.5t-1 43t-3.5 39t-7 31.5t-11 28t-16 20.5t-22.5 17t-30 10t-39 6.5v28h320v-28
q-27 -2 -47.5 -10t-34 -17.5t-22.5 -29.5t-14 -34.5t-7 -45.5t-2.5 -50t-0.5 -59v-184q0 -155 -83.5 -242t-230.5 -87q-136 0 -217 67q-99 84 -99 251zM462 871q95 0 107 111h56q-5 -48 -24 -82.5t-45.5 -50t-49 -21.5t-44.5 -6t-44.5 6t-49 21t-45.5 49.5t-24 83.5h59
q12 -111 104 -111z" />
    <glyph glyph-name="ubreve" unicode="&#x16d;" horiz-adv-x="633" 
d="M616 0h-210l-5 103q-53 -115 -163 -115q-82 0 -116.5 51t-34.5 146v68l-2 143q-1 29 -8.5 40t-33.5 15l-42 6v28l233 12q-3 -43 -3 -198l-1 -98q0 -26 0.5 -37.5t4 -34t10.5 -33t21.5 -19.5t36.5 -9q26 0 52.5 19t42.5 56v120l-2 133q-1 29 -8.5 40t-33.5 15l-42 6v28
l233 12q-3 -66 -3 -188l-1 -220q0 -28 6.5 -40t26.5 -15l42 -6v-28zM316 618q95 0 107 111h56q-5 -48 -24 -82.5t-45.5 -50t-49 -21.5t-44.5 -6t-44.5 6t-49 21t-45.5 49.5t-24 83.5h59q12 -111 104 -111z" />
    <glyph glyph-name="Uring" unicode="&#x16e;" horiz-adv-x="864" 
d="M116 304l-1 361q0 39 -16 54.5t-51 19.5l-48 6v28h383v-28l-48 -6q-35 -4 -51 -19.5t-16 -54.5q-2 -245 -2 -367q0 -119 47.5 -175.5t161.5 -56.5q101 0 155 66t54 192v175v50.5t-1 43t-3.5 39t-7 31.5t-11 28t-16 20.5t-22.5 17t-30 10t-39 6.5v28h320v-28
q-27 -2 -47.5 -10t-34 -17.5t-22.5 -29.5t-14 -34.5t-7 -45.5t-2.5 -50t-0.5 -59v-184q0 -155 -83.5 -242t-230.5 -87q-136 0 -217 67q-99 84 -99 251zM564 910q0 -41 -30 -69.5t-72 -28.5t-72 28.5t-30 69.5t30 69.5t72 28.5t72 -28.5t30 -69.5zM516 910q0 27 -15 41
t-39 14t-38.5 -15t-14.5 -40t14 -40t39 -15q54 0 54 55z" />
    <glyph glyph-name="uring" unicode="&#x16f;" horiz-adv-x="633" 
d="M616 0h-210l-5 103q-53 -115 -163 -115q-82 0 -116.5 51t-34.5 146v68l-2 143q-1 29 -8.5 40t-33.5 15l-42 6v28l233 12q-3 -43 -3 -198l-1 -98q0 -26 0.5 -37.5t4 -34t10.5 -33t21.5 -19.5t36.5 -9q26 0 52.5 19t42.5 56v120l-2 133q-1 29 -8.5 40t-33.5 15l-42 6v28
l233 12q-3 -66 -3 -188l-1 -220q0 -28 6.5 -40t26.5 -15l42 -6v-28zM404 657q0 -41 -30 -69.5t-72 -28.5t-72 28.5t-30 69.5t30 69.5t72 28.5t72 -28.5t30 -69.5zM356 657q0 27 -15 41t-39 14t-38.5 -15t-14.5 -40t14 -40t39 -15q54 0 54 55z" />
    <glyph glyph-name="Uhungarumlaut" unicode="&#x170;" horiz-adv-x="864" 
d="M116 304l-1 361q0 39 -16 54.5t-51 19.5l-48 6v28h383v-28l-48 -6q-35 -4 -51 -19.5t-16 -54.5q-2 -245 -2 -367q0 -119 47.5 -175.5t161.5 -56.5q101 0 155 66t54 192v175v50.5t-1 43t-3.5 39t-7 31.5t-11 28t-16 20.5t-22.5 17t-30 10t-39 6.5v28h320v-28
q-27 -2 -47.5 -10t-34 -17.5t-22.5 -29.5t-14 -34.5t-7 -45.5t-2.5 -50t-0.5 -59v-184q0 -155 -83.5 -242t-230.5 -87q-136 0 -217 67q-99 84 -99 251zM280 817l81 209h166l-218 -209h-29zM481 817l81 209h166l-218 -209h-29z" />
    <glyph glyph-name="uhungarumlaut" unicode="&#x171;" horiz-adv-x="633" 
d="M616 0h-210l-5 103q-53 -115 -163 -115q-82 0 -116.5 51t-34.5 146v68l-2 143q-1 29 -8.5 40t-33.5 15l-42 6v28l233 12q-3 -43 -3 -198l-1 -98q0 -26 0.5 -37.5t4 -34t10.5 -33t21.5 -19.5t36.5 -9q26 0 52.5 19t42.5 56v120l-2 133q-1 29 -8.5 40t-33.5 15l-42 6v28
l233 12q-3 -66 -3 -188l-1 -220q0 -28 6.5 -40t26.5 -15l42 -6v-28zM144 564l81 209h166l-218 -209h-29zM345 564l81 209h166l-218 -209h-29z" />
    <glyph glyph-name="Uogonek" unicode="&#x172;" horiz-adv-x="864" 
d="M116 304l-1 361q0 39 -16 54.5t-51 19.5l-48 6v28h383v-28l-48 -6q-35 -4 -51 -19.5t-16 -54.5q-2 -245 -2 -367q0 -119 47.5 -175.5t161.5 -56.5q101 0 155 66t54 192v175v50.5t-1 43t-3.5 39t-7 31.5t-11 28t-16 20.5t-22.5 17t-30 10t-39 6.5v28h320v-28
q-27 -2 -47.5 -10t-34 -17.5t-22.5 -29.5t-14 -34.5t-7 -45.5t-2.5 -50t-0.5 -59v-184q0 -125 -54 -206t-154 -109q-68 -65 -68 -141q0 -34 17.5 -49.5t44.5 -15.5q16 0 39 7l6 -15q-44 -36 -99 -36q-40 0 -70.5 23t-30.5 65q0 76 127 154q-33 -6 -72 -6q-136 0 -217 67
q-99 84 -99 251z" />
    <glyph glyph-name="uogonek" unicode="&#x173;" horiz-adv-x="633" 
d="M616 0h-40q-67 -64 -67 -140q0 -34 17.5 -49.5t44.5 -15.5q16 0 39 7l6 -15q-44 -36 -99 -36q-40 0 -70.5 23t-30.5 65q0 79 139 161h-149l-5 103q-53 -115 -163 -115q-82 0 -116.5 51t-34.5 146v68l-2 143q-1 29 -8.5 40t-33.5 15l-42 6v28l233 12q-3 -43 -3 -198
l-1 -98q0 -26 0.5 -37.5t4 -34t10.5 -33t21.5 -19.5t36.5 -9q26 0 52.5 19t42.5 56v120l-2 133q-1 29 -8.5 40t-33.5 15l-42 6v28l233 12q-3 -66 -3 -188l-1 -220q0 -28 6.5 -40t26.5 -15l42 -6v-28z" />
    <glyph glyph-name="Wcircumflex" unicode="&#x174;" horiz-adv-x="1141" 
d="M813 194l106 390q15 52 16.5 85.5t-11 49t-29 21t-44.5 5.5v28h290v-29q-66 -5 -100 -39t-67 -145l-171 -584h-71l-174 542l-163 -542h-67l-218 698q-7 19 -17 31.5t-23 19.5t-22.5 10t-25.5 6t-22 4v28h362v-28q-49 -4 -70.5 -13.5t-21 -24.5t6.5 -37l132 -476l122 411
l-22 69q-7 19 -17 31.5t-23 19.5t-22.5 10t-25.5 6t-22 4v28h362v-28q-49 -4 -70.5 -13.5t-21 -24.5t6.5 -37zM416 828l142 197h46l141 -196l-20 -18l-144 101l-145 -102z" />
    <glyph glyph-name="wcircumflex" unicode="&#x175;" horiz-adv-x="877" 
d="M562 401l80 -244l72 195q11 29 11.5 49t-4 30t-16.5 15t-19.5 5.5t-19.5 0.5h-3v28h214v-28q-42 0 -65 -22t-54 -99l-139 -350h-39l-143 355l-142 -355h-39l-171 425q-7 17 -16.5 27t-23 14t-21.5 4.5t-24 0.5v28h288v-28q-11 0 -17 -0.5t-14.5 -1.5t-12.5 -4.5t-7 -9
t-2.5 -14.5t4.5 -21l79 -244l95 239l-4 10q-7 17 -16.5 27t-23 14t-21.5 4.5t-24 0.5v28h288v-28q-37 0 -49 -9.5t-1 -41.5zM274 575l142 197h46l141 -196l-20 -18l-144 101l-145 -102z" />
    <glyph glyph-name="Ycircumflex" unicode="&#x176;" horiz-adv-x="736" 
d="M414 407l103 177q25 43 33 74t3.5 47t-20 25.5t-29.5 12t-33 2.5v28h265v-29q-11 0 -20.5 -2t-17 -4t-15.5 -8.5t-14 -10.5t-14.5 -15.5t-14 -18.5t-16 -24.5l-16.5 -27.5t-20 -34t-23 -39l-131 -221l2 -231q1 -39 16.5 -54.5t50.5 -19.5l48 -6v-28h-383v28l48 6
q35 4 50.5 19.5t16.5 54.5l2 229l-175 337q-9 18 -19 30.5t-24 19.5t-21 10t-25 6.5t-21 4.5v28h362v-28q-49 -4 -72 -14t-22.5 -25.5t9.5 -35.5zM233 828l142 197h46l141 -196l-20 -18l-144 101l-145 -102z" />
    <glyph glyph-name="ycircumflex" unicode="&#x177;" horiz-adv-x="593" 
d="M122 -253q54 0 107 130l42 104l-186 425q-7 16 -17 26.5t-23 14t-21.5 4.5t-23.5 1v28h288v-28q-36 0 -48 -10t0 -41l98 -259l78 210q11 29 11.5 49t-4 30t-16.5 15t-19.5 5.5t-19.5 0.5h-3v28h225v-28q-42 0 -65 -22t-54 -99l-190 -472q-65 -164 -185 -164
q-59 0 -95 23.5t-36 59.5q0 28 18 43t41 15q25 0 41.5 -14t22 -30.5t14 -30.5t20.5 -14zM132 575l142 197h46l141 -196l-20 -18l-144 101l-145 -102z" />
    <glyph glyph-name="Ydieresis" unicode="&#x178;" horiz-adv-x="736" 
d="M168 923q0 35 24.5 59.5t59.5 24.5q37 0 61.5 -24.5t24.5 -59.5q0 -37 -24.5 -61.5t-61.5 -24.5q-35 0 -59.5 24.5t-24.5 61.5zM458 923q0 35 24.5 59.5t59.5 24.5q37 0 61.5 -24.5t24.5 -59.5q0 -37 -24.5 -61.5t-61.5 -24.5q-35 0 -59.5 24.5t-24.5 61.5zM414 407
l103 177q25 43 33 74t3.5 47t-20 25.5t-29.5 12t-33 2.5v28h265v-29q-11 0 -20.5 -2t-17 -4t-15.5 -8.5t-14 -10.5t-14.5 -15.5t-14 -18.5t-16 -24.5l-16.5 -27.5t-20 -34t-23 -39l-131 -221l2 -231q0 -39 16 -54.5t51 -19.5l48 -6v-28h-383v28l48 6q35 4 51 19.5t16 54.5
l2 229l-175 337q-9 18 -19.5 30.5t-24.5 19.5t-20.5 10t-24.5 6.5t-21 4.5v28h362v-28q-49 -4 -72 -14t-22.5 -25.5t9.5 -35.5z" />
    <glyph glyph-name="Zacute" unicode="&#x179;" horiz-adv-x="726" 
d="M30 11l455 708h-86q-142 0 -195 -39q-56 -40 -68 -141h-35l8 234h560l7 -14l-455 -708h176q86 0 131.5 19.5t69.5 55.5q31 46 38 118h34v-244h-633zM339 817l81 209h166l-218 -209h-29z" />
    <glyph glyph-name="zacute" unicode="&#x17a;" horiz-adv-x="513" 
d="M61 480h411l11 -15l-302 -426q124 1 189.5 28.5t77.5 106.5h29l3 -174h-458l-7 14l307 429q-37 -1 -61 -2.5t-52 -5.5t-46 -12.5t-35 -21.5t-28 -33.5t-17 -48.5h-32zM208 564l81 209h166l-218 -209h-29z" />
    <glyph glyph-name="Zdotaccent" unicode="&#x17b;" horiz-adv-x="726" 
d="M30 11l455 708h-86q-142 0 -195 -39q-56 -40 -68 -141h-35l8 234h560l7 -14l-455 -708h176q86 0 131.5 19.5t69.5 55.5q31 46 38 118h34v-244h-633zM311 925q0 38 27 65t65 27t65 -27t27 -65t-27 -65t-65 -27t-65 27t-27 65z" />
    <glyph glyph-name="zdotaccent" unicode="&#x17c;" horiz-adv-x="513" 
d="M61 480h411l11 -15l-302 -426q124 1 189.5 28.5t77.5 106.5h29l3 -174h-458l-7 14l307 429q-37 -1 -61 -2.5t-52 -5.5t-46 -12.5t-35 -21.5t-28 -33.5t-17 -48.5h-32zM188 672q0 38 27 65t65 27t65 -27t27 -65t-27 -65t-65 -27t-65 27t-27 65z" />
    <glyph glyph-name="Zcaron" unicode="&#x17d;" horiz-adv-x="726" 
d="M30 11l455 708h-86q-142 0 -195 -39q-56 -40 -68 -141h-35l8 234h560l7 -14l-455 -708h176q86 0 131.5 19.5t69.5 55.5q31 46 38 118h34v-244h-633zM527 1008l-146 -197h-39l-144 196l20 18l144 -105l145 106z" />
    <glyph glyph-name="zcaron" unicode="&#x17e;" horiz-adv-x="513" 
d="M61 480h411l11 -15l-302 -426q124 1 189.5 28.5t77.5 106.5h29l3 -174h-458l-7 14l307 429q-37 -1 -61 -2.5t-52 -5.5t-46 -12.5t-35 -21.5t-28 -33.5t-17 -48.5h-32zM444 755l-146 -197h-39l-144 196l20 18l144 -105l145 106z" />
    <glyph glyph-name="uni0186" unicode="&#x186;" horiz-adv-x="800" 
d="M34 535l26 172q43 39 123.5 61t161.5 22q130 0 226 -56t142.5 -145t46.5 -198q0 -177 -118.5 -291t-302.5 -114q-27 0 -53.5 2.5t-46 5t-46 9t-41 10.5t-45.5 13t-45 13l-15 176h26q41 -90 107.5 -134t149.5 -44q109 0 187 93t78 263q0 160 -80 252t-181 92
q-201 0 -271 -202h-29z" />
    <glyph glyph-name="uni018F" unicode="&#x18f;" horiz-adv-x="802" 
d="M380 -13q-96 0 -173 35t-125 109t-48 175h554q15 94 -4.5 182t-77 147t-141.5 59q-90 0 -162.5 -36.5t-131.5 -122.5l-39 16q53 114 148 175t214 61q172 0 268.5 -106t96.5 -266q0 -189 -108 -308.5t-271 -119.5zM383 31q78 0 132.5 61.5t66.5 175.5h-381q1 -117 54 -177
t128 -60z" />
    <glyph glyph-name="uni0190" unicode="&#x190;" horiz-adv-x="565" 
d="M406 429v-36q-110 -2 -172 -47t-62 -139q0 -73 41 -125t107 -52q72 0 107 73q18 45 35.5 62t46.5 17q56 0 56 -57q0 -53 -73.5 -96t-186.5 -43q-135 0 -212.5 64.5t-77.5 163.5q0 76 61 135.5t178 74.5q-189 51 -189 195q0 72 66 121t180 49q72 0 134 -28t94 -86l-33 -21
q-51 73 -156 73q-59 0 -91 -34t-32 -85q0 -67 45 -116t134 -63z" />
    <glyph glyph-name="florin" unicode="&#x192;" horiz-adv-x="407" 
d="M406 762q-18 0 -35 -15t-37.5 -64.5t-33.5 -130.5l-11 -71h179l-8 -49h-179l-74 -465q-12 -74 -43 -129.5t-72.5 -85t-82.5 -43.5t-81 -14q-65 0 -121 25.5t-56 69.5q0 26 16 45.5t48 19.5q29 0 48.5 -19t27.5 -41.5t22 -41.5t33 -19q13 0 26.5 9t29 30t30 65t24.5 106
l77 488h-112l9 49h111l8 48q12 74 42.5 129.5t70.5 85t80.5 43.5t81.5 14q65 0 120 -24.5t55 -68.5q0 -62 -59 -62q-29 0 -49 18t-28.5 40t-23 40t-33.5 18z" />
    <glyph glyph-name="uni019D" unicode="&#x19d;" horiz-adv-x="871" 
d="M697 -14l-498 603v-465q0 -45 -2 -76.5t-10.5 -74.5t-24.5 -75t-46 -66.5t-72 -61.5l-14 20q35 37 52 59.5t33 60.5t21 87t5 127v536q-27 32 -40 45.5t-36.5 26.5t-49.5 13v28h224l448 -545v363q0 94 -22.5 120t-105.5 34v28h312v-28q-42 -5 -62.5 -10.5t-37 -21.5
t-21.5 -44t-5 -78v-605h-48z" />
    <glyph glyph-name="uni019F" unicode="&#x19f;" horiz-adv-x="899" 
d="M859 385q0 -172 -120 -285.5t-290 -113.5t-289.5 115.5t-119.5 289.5q0 172 119 285.5t290 113.5q169 0 289.5 -116t120.5 -289zM449 38q102 0 171 84.5t72 251.5h-487q3 -167 72 -251.5t172 -84.5zM449 740q-98 0 -166 -78.5t-77 -232.5h484q-9 154 -76.5 232.5
t-164.5 78.5z" />
    <glyph glyph-name="Ohorn" unicode="&#x1a0;" horiz-adv-x="899" 
d="M744 779l-6 15q44 36 99 36q40 0 70.5 -23t30.5 -65q0 -76 -132 -157q53 -93 53 -200q0 -172 -120 -285.5t-290 -113.5t-289.5 115.5t-119.5 289.5q0 172 119 285.5t290 113.5q107 0 200 -50.5t148 -137.5q48 59 48 119q0 34 -17.5 49.5t-44.5 15.5q-16 0 -39 -7z
M692 387q0 174 -69.5 263.5t-173.5 89.5q-105 0 -174.5 -89.5t-69.5 -263.5q0 -173 69.5 -261t174.5 -88t174 87.5t69 261.5z" />
    <glyph glyph-name="ohorn" unicode="&#x1a1;" horiz-adv-x="600" 
d="M480 552l-6 15q44 36 99 36q40 0 70.5 -23t30.5 -65q0 -76 -132 -157q22 -57 22 -118q0 -111 -70.5 -182.5t-196.5 -71.5q-129 0 -195 78t-66 192q0 111 74.5 181.5t189.5 70.5q85 0 144 -35.5t90 -96.5q47 59 47 118q0 34 -17.5 49.5t-44.5 15.5q-16 0 -39 -7zM411 245
q0 98 -26 159t-83 61q-112 0 -112 -217q0 -95 25 -157t81 -62q115 0 115 216z" />
    <glyph glyph-name="Uhorn" unicode="&#x1af;" horiz-adv-x="864" 
d="M554 773h269q15 29 17 63.5t-14 61t-50 26.5q-16 0 -39 -7l-6 15q44 36 99 36q40 0 70.5 -23t30.5 -65q0 -81 -123 -153q-41 -24 -51.5 -74.5t-10.5 -153.5v-184q0 -155 -83.5 -242t-230.5 -87q-136 0 -217 67q-99 84 -99 251l-1 361q0 39 -16 54.5t-51 19.5l-48 6v28
h383v-28l-48 -6q-35 -4 -51 -19.5t-16 -54.5q-2 -245 -2 -367q0 -119 47.5 -175.5t161.5 -56.5q101 0 155 66t54 192v175v50.5t-1 43t-3.5 39t-7 31.5t-11 28t-16 20.5t-22.5 17t-30 10t-39 6.5v28z" />
    <glyph glyph-name="uhorn" unicode="&#x1b0;" horiz-adv-x="633" 
d="M480 672l-6 15q44 36 99 36q40 0 70.5 -23t30.5 -65q0 -76 -130 -156q-2 -50 -2 -170l-1 -220q0 -28 6.5 -40t26.5 -15l42 -6v-28h-210l-5 103q-53 -115 -163 -115q-82 0 -116.5 51t-34.5 146v68l-2 143q-1 29 -8.5 40t-33.5 15l-42 6v28l233 12q-3 -43 -3 -198l-1 -98
q0 -26 0.5 -37.5t4 -34t10.5 -33t21.5 -19.5t36.5 -9q26 0 52.5 19t42.5 56v120l-2 133q-1 29 -8.5 40t-33.5 15l-42 6v28l222 11q47 57 47 118q0 34 -17.5 49.5t-44.5 15.5q-16 0 -39 -7z" />
    <glyph glyph-name="uni01C4" unicode="&#x1c4;" horiz-adv-x="1526" 
d="M30 0v28l48 6q35 4 51 19.5t16 54.5q0 35 1 86t1 72v242q0 17 -1 59.5t-1 97.5q0 39 -16 54.5t-51 19.5l-48 6v27q66 0 190 1.5t174 1.5q217 0 334 -98.5t117 -281.5q0 -181 -115.5 -288t-318.5 -107h-381zM297 266l1 -139q0 -49 28 -62.5t100 -13.5q52 0 96 17.5
t82 55.5t59.5 107.5t21.5 165.5q0 78 -17.5 137t-46 94.5t-70 57t-84 29.5t-93.5 8q-48 0 -77 -2v-455zM830 11l455 708h-86q-142 0 -195 -39q-56 -40 -68 -141h-35l8 234h560l7 -14l-455 -708h176q86 0 131.5 19.5t69.5 55.5q31 46 38 118h34v-244h-633zM1355 1007
l-146 -197h-39l-144 196l20 18l144 -105l145 106z" />
    <glyph glyph-name="uni01C5" unicode="&#x1c5;" horiz-adv-x="1368" 
d="M30 0v28l48 6q35 4 51 19.5t16 54.5q0 35 1 86t1 72v242q0 17 -1 59.5t-1 97.5q0 39 -16 54.5t-51 19.5l-48 6v27q66 0 190 1.5t174 1.5q217 0 334 -98.5t117 -281.5q0 -181 -115.5 -288t-318.5 -107h-381zM297 266l1 -139q0 -49 28 -62.5t100 -13.5q52 0 96 17.5
t82 55.5t59.5 107.5t21.5 165.5q0 78 -17.5 137t-46 94.5t-70 57t-84 29.5t-93.5 8q-48 0 -77 -2v-455zM916 480h411l11 -15l-302 -426q124 1 189.5 28.5t77.5 106.5h29l3 -174h-458l-7 14l307 429q-37 -1 -61 -2.5t-52 -5.5t-46 -12.5t-35 -21.5t-28 -33.5t-17 -48.5h-32z
M1288 755l-146 -197h-39l-144 196l20 18l144 -105l145 106z" />
    <glyph glyph-name="uni01C6" unicode="&#x1c6;" horiz-adv-x="1144" 
d="M393 449v117l-1 133q0 29 -8 40.5t-34 14.5l-52 6v28l240 12q-2 -141 -2 -244v-234l2 -226q1 -37 7.5 -46.5t35.5 -13.5l36 -5l-1 -28l-213 -14l-4 66q-54 -69 -141 -69q-103 0 -162.5 75t-59.5 190q0 109 68 183t161 74q81 0 128 -59zM394 84l-1 332q-30 23 -72 23
q-61 0 -97 -49.5t-36 -136.5q0 -95 33.5 -145.5t90.5 -50.5q50 0 82 27zM692 480h411l11 -15l-302 -426q124 1 189.5 28.5t77.5 106.5h29l3 -174h-458l-7 14l307 429q-37 -1 -61 -2.5t-52 -5.5t-46 -12.5t-35 -21.5t-28 -33.5t-17 -48.5h-32zM1053 755l-146 -197h-39
l-144 196l20 18l144 -105l145 106z" />
    <glyph glyph-name="uni01C7" unicode="&#x1c7;" horiz-adv-x="1209" 
d="M144 266v244l-2 156q-1 39 -16.5 54t-50.5 19l-48 6v28h393v-28l-48 -6q-43 -6 -60 -20.5t-17 -53.5q-1 -58 -1 -137v-283l1 -112q0 -44 18.5 -63t68.5 -19h86q111 0 154 57q34 44 41 114h29l1 -222h-666v28l48 6q35 4 51 19.5t16 54.5q0 35 1 86t1 72zM962 361v133
l-1 171q0 38 -19.5 54t-56.5 20l-48 6v28h392v-28l-48 -6q-35 -4 -50.5 -19.5t-16.5 -54.5q-3 -16 -3 -171v-133q0 -69 -5 -121t-19.5 -99t-38 -76.5t-62 -47t-90.5 -17.5q-68 0 -122 25t-54 74q0 26 18 44t49 18q42 0 65 -43l34 -62q12 -20 29 -20q32 0 39.5 70t7.5 255z
" />
    <glyph glyph-name="uni01C8" unicode="&#x1c8;" horiz-adv-x="989" 
d="M144 266v244l-2 156q-1 39 -16.5 54t-50.5 19l-48 6v28h393v-28l-48 -6q-43 -6 -60 -20.5t-17 -53.5q-1 -58 -1 -137v-283l1 -112q0 -44 18.5 -63t68.5 -19h86q111 0 154 57q34 44 41 114h29l1 -222h-666v28l48 6q35 4 51 19.5t16 54.5q0 35 1 86t1 72zM779 29l-1 367
q0 29 -7.5 40t-33.5 15l-42 6v28l228 19q-1 -110 -1 -195v-261q0 -53 -6 -92.5t-24.5 -88t-60 -92t-106.5 -82.5l-18 22q26 27 41.5 64t21.5 85t7.5 79t1.5 86zM750 672q0 38 27 65t65 27t65 -27t27 -65t-27 -65t-65 -27t-65 27t-27 65z" />
    <glyph glyph-name="uni01C9" unicode="&#x1c9;" horiz-adv-x="636" 
d="M104 699q0 28 -8 39.5t-34 15.5l-42 6v28l230 12q-2 -141 -2 -244v-302l2 -167q0 -27 8 -37t35 -15l42 -7v-28h-315v28l42 7q27 5 34.5 15t7.5 37q1 64 1 167v302zM426 29l-1 367q0 29 -7.5 40t-33.5 15l-42 6v28l228 19q-1 -110 -1 -195v-261q0 -53 -6 -92.5t-24.5 -88
t-60 -92t-106.5 -82.5l-18 22q26 27 41.5 64t21.5 85t7.5 79t1.5 86zM397 672q0 38 27 65t65 27t65 -27t27 -65t-27 -65t-65 -27t-65 27t-27 65z" />
    <glyph glyph-name="uni01CA" unicode="&#x1ca;" horiz-adv-x="1316" 
d="M696 228v363q0 94 -22.5 120t-105.5 34v28h312v-28q-42 -5 -62.5 -10.5t-37 -21.5t-21.5 -44t-5 -78v-605h-48l-498 604v-408q0 -94 22.5 -120t105.5 -34v-28h-312v28q42 5 62.5 10.5t37 21.5t21.5 44t5 78v478q-27 32 -40 45.5t-36.5 26.5t-49.5 13v28h224zM1069 361
v133l-1 171q0 38 -19.5 54t-56.5 20l-48 6v28h392v-28l-48 -6q-35 -4 -50.5 -19.5t-16.5 -54.5q-3 -16 -3 -171v-133q0 -69 -5 -121t-19.5 -99t-38 -76.5t-62 -47t-90.5 -17.5q-68 0 -122 25t-54 74q0 26 18 44t49 18q42 0 65 -43l34 -62q12 -20 29 -20q32 0 39.5 70
t7.5 255z" />
    <glyph glyph-name="uni01CB" unicode="&#x1cb;" horiz-adv-x="880" 
d="M696 228v363q0 94 -22.5 120t-105.5 34v28h312v-28q-42 -5 -62.5 -10.5t-37 -21.5t-21.5 -44t-5 -78v-605h-48l-498 604v-408q0 -94 22.5 -120t105.5 -34v-28h-312v28q42 5 62.5 10.5t37 21.5t21.5 44t5 78v478q-27 32 -40 45.5t-36.5 26.5t-49.5 13v28h224zM977 29
l-1 367q0 29 -7.5 40t-33.5 15l-42 6v28l228 19q-1 -110 -1 -195v-261q0 -53 -6 -92.5t-24.5 -88t-60 -92t-106.5 -82.5l-18 22q26 27 41.5 64t21.5 85t7.5 79t1.5 86zM948 672q0 38 27 65t65 27t65 -27t27 -65t-27 -65t-65 -27t-65 27t-27 65z" />
    <glyph glyph-name="uni01CC" unicode="&#x1cc;" horiz-adv-x="950" 
d="M22 485l223 13l3 -105q53 115 163 115q155 0 155 -198v-96l2 -125q1 -29 8.5 -40t33.5 -15l42 -6v-28h-305v28l42 6q33 4 33 55q0 13 0.5 55.5t0.5 69.5v81q0 29 -1.5 47t-8.5 40.5t-23.5 34t-43.5 11.5q-26 0 -52.5 -19t-42.5 -56v-173l1 -91q0 -28 6.5 -40t26.5 -15
l42 -6v-28h-305v28l42 6q26 4 33.5 15t8.5 40q2 52 2 98v90l-2 119q-1 29 -8.5 40t-33.5 15l-42 6v28zM740 29l-1 367q0 29 -7.5 40t-33.5 15l-42 6v28l228 19q-1 -110 -1 -195v-261q0 -53 -6 -92.5t-24.5 -88t-60 -92t-106.5 -82.5l-18 22q26 27 41.5 64t21.5 85t7.5 79
t1.5 86zM711 672q0 38 27 65t65 27t65 -27t27 -65t-27 -65t-65 -27t-65 27t-27 65z" />
    <glyph glyph-name="uni01F1" unicode="&#x1f1;" horiz-adv-x="1526" 
d="M30 0v28l48 6q35 4 51 19.5t16 54.5q0 35 1 86t1 72v242q0 17 -1 59.5t-1 97.5q0 39 -16 54.5t-51 19.5l-48 6v27q66 0 190 1.5t174 1.5q217 0 334 -98.5t117 -281.5q0 -181 -115.5 -288t-318.5 -107h-381zM297 266l1 -139q0 -49 28 -62.5t100 -13.5q52 0 96 17.5
t82 55.5t59.5 107.5t21.5 165.5q0 78 -17.5 137t-46 94.5t-70 57t-84 29.5t-93.5 8q-48 0 -77 -2v-455zM830 11l455 708h-86q-142 0 -195 -39q-56 -40 -68 -141h-35l8 234h560l7 -14l-455 -708h176q86 0 131.5 19.5t69.5 55.5q31 46 38 118h34v-244h-633z" />
    <glyph glyph-name="uni01F2" unicode="&#x1f2;" horiz-adv-x="1368" 
d="M30 0v28l48 6q35 4 51 19.5t16 54.5q0 35 1 86t1 72v242q0 17 -1 59.5t-1 97.5q0 39 -16 54.5t-51 19.5l-48 6v27q66 0 190 1.5t174 1.5q217 0 334 -98.5t117 -281.5q0 -181 -115.5 -288t-318.5 -107h-381zM297 266l1 -139q0 -49 28 -62.5t100 -13.5q52 0 96 17.5
t82 55.5t59.5 107.5t21.5 165.5q0 78 -17.5 137t-46 94.5t-70 57t-84 29.5t-93.5 8q-48 0 -77 -2v-455zM916 480h411l11 -15l-302 -426q124 1 189.5 28.5t77.5 106.5h29l3 -174h-458l-7 14l307 429q-37 -1 -61 -2.5t-52 -5.5t-46 -12.5t-35 -21.5t-28 -33.5t-17 -48.5h-32z
" />
    <glyph glyph-name="uni01F3" unicode="&#x1f3;" horiz-adv-x="1144" 
d="M393 449v117l-1 133q0 29 -8 40.5t-34 14.5l-52 6v28l240 12q-2 -141 -2 -244v-234l2 -226q1 -37 7.5 -46.5t35.5 -13.5l36 -5l-1 -28l-213 -14l-4 66q-54 -69 -141 -69q-103 0 -162.5 75t-59.5 190q0 109 68 183t161 74q81 0 128 -59zM394 84l-1 332q-30 23 -72 23
q-61 0 -97 -49.5t-36 -136.5q0 -95 33.5 -145.5t90.5 -50.5q50 0 82 27zM692 480h411l11 -15l-302 -426q124 1 189.5 28.5t77.5 106.5h29l3 -174h-458l-7 14l307 429q-37 -1 -61 -2.5t-52 -5.5t-46 -12.5t-35 -21.5t-28 -33.5t-17 -48.5h-32z" />
    <glyph glyph-name="Aringacute" unicode="&#x1fa;" horiz-adv-x="827" 
d="M550 103l-51 131h-263l-38 -105q-9 -25 -9.5 -42.5t4 -27t17.5 -16t22.5 -8t28 -4t25.5 -3.5v-28h-286v29q61 5 90.5 29.5t54.5 91.5l236 645h49l287 -696q8 -19 17.5 -31.5t23 -19.5t22 -10t25.5 -6t22 -4v-28h-362v28q49 4 71 13.5t22 25t-8 36.5zM363 585l-101 -278
h209zM505 910q0 -41 -30 -69.5t-72 -28.5t-72 28.5t-30 69.5t30 69.5t72 28.5t72 -28.5t30 -69.5zM457 910q0 27 -15 41t-39 14t-38.5 -15t-14.5 -40t14 -40t39 -15q54 0 54 55zM380 1039l81 209h166l-218 -209h-29z" />
    <glyph glyph-name="aringacute" unicode="&#x1fb;" horiz-adv-x="535" 
d="M302 93v145q-140 -12 -140 -112q0 -34 18 -51.5t43 -17.5q51 0 79 36zM30 115q0 73 72 112.5t197 39.5v117q0 49 -13.5 69t-42.5 20q-51 0 -51 -45q0 -17 -0.5 -26t-3.5 -24t-9.5 -23t-19.5 -14.5t-31 -6.5q-23 0 -39 17.5t-16 44.5q0 53 58 82t123 29q82 0 132 -33.5
t49 -114.5l-2 -232q0 -38 8.5 -53.5t26.5 -15.5q24 0 60 23l15 -14q-47 -78 -131 -78q-86 0 -108 73q-57 -76 -138 -76q-63 0 -99.5 35.5t-36.5 93.5zM369 657q0 -41 -30 -69.5t-72 -28.5t-72 28.5t-30 69.5t30 69.5t72 28.5t72 -28.5t30 -69.5zM321 657q0 27 -15 41t-39 14
t-38.5 -15t-14.5 -40t14 -40t39 -15q54 0 54 55zM272 782l81 209h166l-218 -209h-29z" />
    <glyph glyph-name="AEacute" unicode="&#x1fc;" horiz-adv-x="1210" 
d="M517 773h621v-194h-34q-6 68 -51.5 105t-119.5 37h-149v-291h99q50 0 74.5 30t30.5 90h33v-293h-35q-6 63 -30.5 92t-72.5 29h-99v-133l1 -114q0 -44 18 -61.5t69 -17.5h114q75 0 111 42.5t43 108.5h32l1 -203h-656v28l48 6q35 4 51 19.5t16 54.5q0 35 1 86t1 72v112
h-204l-215 -282q-25 -38 -13 -54t51 -18l28 -1v-23h-281v23q58 5 91 24.5t66 61.5l466 599q-12 25 -58 32l-48 6v27zM634 510q0 36 -0.5 81t-0.5 53l-164 -214h165v80zM711 817l81 209h166l-218 -209h-29z" />
    <glyph glyph-name="aeacute" unicode="&#x1fd;" horiz-adv-x="803" 
d="M767 279h-327v-7q-1 -98 34.5 -153.5t104.5 -55.5q110 0 161 90l28 -11q-61 -156 -224 -156q-139 0 -200 97q-43 -60 -86.5 -78.5t-91.5 -18.5q-63 0 -99.5 35.5t-36.5 93.5q0 73 72 112.5t197 39.5v117q0 49 -13.5 69t-42.5 20q-51 0 -51 -45q0 -17 -0.5 -26t-3.5 -24
t-9.5 -23t-19.5 -14.5t-31 -6.5q-23 0 -39 17.5t-16 44.5q0 36 30.5 62.5t67.5 37.5t72 11q103 0 146 -64q56 65 162 65q99 0 154.5 -60t61.5 -169zM227 57q66 0 103 52q-26 54 -28 129q-140 -12 -140 -112q0 -34 19.5 -51.5t45.5 -17.5zM544 467q-45 0 -69.5 -41
t-30.5 -105h178q-3 146 -78 146zM349 564l81 209h166l-218 -209h-29z" />
    <glyph glyph-name="Oslashacute" unicode="&#x1fe;" horiz-adv-x="883" 
d="M238 39l-52 -74h-63l71 102q-72 54 -113 137.5t-41 183.5q0 172 116 284.5t285 112.5q117 0 215 -60l59 84h65l-81 -115q68 -55 106 -135.5t38 -175.5q0 -172 -117 -284.5t-285 -112.5q-111 0 -203 53zM441 733q-107 0 -174.5 -87t-67.5 -261q0 -150 52 -237l356 507
q-63 78 -166 78zM683 385q0 135 -45 223l-354 -504q61 -64 157 -64q107 0 174.5 85.5t67.5 259.5zM410 817l81 209h166l-218 -209h-29z" />
    <glyph glyph-name="oslashacute" unicode="&#x1ff;" horiz-adv-x="600" 
d="M36 256q0 111 74.5 181.5t189.5 70.5q71 0 128 -27l41 59h62l-60 -86q93 -74 93 -214q0 -111 -70.5 -182.5t-196.5 -71.5q-75 0 -135 31l-36 -52h-60l56 79q-86 74 -86 212zM411 245q0 63 -10 110l-186 -264q27 -62 81 -62q115 0 115 216zM190 248q0 -54 7 -96l183 261
q-28 52 -78 52q-112 0 -112 -217zM237 564l81 209h166l-218 -209h-29z" />
    <glyph glyph-name="Scommaaccent" unicode="&#x218;" horiz-adv-x="650" 
d="M298 41q79 0 122.5 36t43.5 91q0 54 -28.5 89t-97.5 60l-80 28q-105 38 -149.5 97t-44.5 142q0 92 74.5 149t185.5 57q116 0 217 -49l11 -153h-35q-47 150 -183 150q-68 0 -104.5 -32t-36.5 -79q0 -95 106 -132l97 -34q43 -15 75 -32t63 -45t47 -69.5t16 -94.5
q0 -103 -81.5 -168.5t-212.5 -65.5q-146 0 -247 63v163h28q33 -96 86.5 -133.5t127.5 -37.5zM268 -283l-11 20q17 12 35 32.5t18 38.5q0 13 -32 39.5t-32 52.5q0 24 19.5 44t52.5 20q39 0 59.5 -27.5t20.5 -64.5q0 -45 -41.5 -90.5t-88.5 -64.5z" />
    <glyph glyph-name="scommaaccent" unicode="&#x219;" horiz-adv-x="494" 
d="M247 -14q-99 0 -146 54l-19 -53h-33v197h43q17 -81 56.5 -114t83.5 -33q88 0 88 74q0 61 -72 78l-48 12q-76 19 -111.5 64t-35.5 99q0 68 53 105.5t136 37.5q30 0 67 -9.5t57 -30.5l20 40h31v-174h-41q-25 128 -118 128q-30 0 -53 -16t-23 -46q0 -61 78 -80l36 -9
q157 -40 157 -159q0 -82 -61.5 -123.5t-144.5 -41.5zM197 -283l-11 20q17 12 35 32.5t18 38.5q0 13 -32 39.5t-32 52.5q0 24 19.5 44t52.5 20q39 0 59.5 -27.5t20.5 -64.5q0 -45 -41.5 -90.5t-88.5 -64.5z" />
    <glyph glyph-name="uni021D" unicode="&#x21d;" horiz-adv-x="441" 
d="M39 380l-33 19q28 56 80.5 82t112.5 26q80 0 132.5 -37.5t52.5 -101.5q0 -45 -36 -84.5t-79.5 -62t-87.5 -33.5q94 -6 158 -59t64 -127q0 -61 -42.5 -114.5t-110 -90t-139 -60.5t-140.5 -35l-7 33q52 15 98.5 35.5t91 50t70.5 72t26 90.5q0 132 -169 154l-3 20
q68 34 113 87t45 119q0 88 -80 88q-71 0 -117 -71z" />
    <glyph glyph-name="uni0226" unicode="&#x226;" horiz-adv-x="827" 
d="M550 103l-51 131h-263l-38 -105q-9 -25 -9.5 -42.5t4 -27t17.5 -16t22.5 -8t28 -4t25.5 -3.5v-28h-286v29q61 5 90.5 29.5t54.5 91.5l236 645h49l287 -696q8 -19 17.5 -31.5t23 -19.5t22 -10t25.5 -6t22 -4v-28h-362v28q49 4 71 13.5t22 25t-8 36.5zM363 585l-101 -278
h209zM313 925q0 38 27 65t65 27t65 -27t27 -65t-27 -65t-65 -27t-65 27t-27 65z" />
    <glyph glyph-name="uni0227" unicode="&#x227;" horiz-adv-x="535" 
d="M302 93v145q-140 -12 -140 -112q0 -34 18 -51.5t43 -17.5q51 0 79 36zM30 115q0 73 72 112.5t197 39.5v117q0 49 -13.5 69t-42.5 20q-51 0 -51 -45q0 -17 -0.5 -26t-3.5 -24t-9.5 -23t-19.5 -14.5t-31 -6.5q-23 0 -39 17.5t-16 44.5q0 53 58 82t123 29q82 0 132 -33.5
t49 -114.5l-2 -232q0 -38 8.5 -53.5t26.5 -15.5q24 0 60 23l15 -14q-47 -78 -131 -78q-86 0 -108 73q-57 -76 -138 -76q-63 0 -99.5 35.5t-36.5 93.5zM170 672q0 38 27 65t65 27t65 -27t27 -65t-27 -65t-65 -27t-65 27t-27 65z" />
    <glyph glyph-name="uni0232" unicode="&#x232;" horiz-adv-x="736" 
d="M414 407l103 177q25 43 33 74t3.5 47t-20 25.5t-29.5 12t-33 2.5v28h265v-29q-11 0 -20.5 -2t-17 -4t-15.5 -8.5t-14 -10.5t-14.5 -15.5t-14 -18.5t-16 -24.5l-16.5 -27.5t-20 -34t-23 -39l-131 -221l2 -231q1 -39 16.5 -54.5t50.5 -19.5l48 -6v-28h-383v28l48 6
q35 4 50.5 19.5t16.5 54.5l2 229l-175 337q-9 18 -19 30.5t-24 19.5t-21 10t-25 6.5t-21 4.5v28h362v-28q-49 -4 -72 -14t-22.5 -25.5t9.5 -35.5zM203 863v55h374v-55h-374z" />
    <glyph glyph-name="uni0233" unicode="&#x233;" horiz-adv-x="593" 
d="M122 -253q54 0 107 130l42 104l-186 425q-7 16 -17 26.5t-23 14t-21.5 4.5t-23.5 1v28h288v-28q-36 0 -48 -10t0 -41l98 -259l78 210q11 29 11.5 49t-4 30t-16.5 15t-19.5 5.5t-19.5 0.5h-3v28h225v-28q-42 0 -65 -22t-54 -99l-190 -472q-65 -164 -185 -164
q-59 0 -95 23.5t-36 59.5q0 28 18 43t41 15q25 0 41.5 -14t22 -30.5t14 -30.5t20.5 -14zM120 620v55h374v-55h-374z" />
    <glyph glyph-name="dotlessj" unicode="&#x237;" horiz-adv-x="291" 
d="M81 29l-1 367q0 29 -7.5 40t-33.5 15l-42 6v28l228 19q-1 -110 -1 -195v-261q0 -53 -6 -92.5t-24.5 -88t-60 -92t-106.5 -82.5l-18 22q26 27 41.5 64t21.5 85t7.5 79t1.5 86z" />
    <glyph glyph-name="uni0254" unicode="&#x254;" horiz-adv-x="513" 
d="M225 508q120 0 186 -74.5t66 -186.5q0 -115 -75.5 -188t-193.5 -73q-74 0 -130.5 30t-56.5 71q0 28 17 45.5t43 17.5q49 0 72 -69q9 -26 21.5 -39.5t37.5 -13.5q43 0 79 52.5t36 149.5q0 89 -36.5 145t-106.5 56q-94 0 -145 -90l-28 11q61 156 214 156z" />
    <glyph glyph-name="uni0259" unicode="&#x259;" horiz-adv-x="543" 
d="M36 215h327v7q1 96 -40 152.5t-111 56.5q-101 0 -152 -90l-28 11q61 156 221 156q119 0 186.5 -73t67.5 -190q0 -114 -68 -186.5t-181 -72.5q-103 0 -159.5 60t-62.5 169zM258 27q43 0 69 41.5t32 104.5h-178q1 -146 77 -146z" />
    <glyph glyph-name="uni025B" unicode="&#x25b;" horiz-adv-x="487" 
d="M387 278v-32q-234 -1 -234 -127q0 -43 24 -68.5t75 -25.5q25 0 41.5 3t35.5 18t31 44q9 23 15.5 35.5t23 24.5t39.5 12q24 0 39 -14.5t15 -38.5q0 -45 -74 -84t-168 -39q-124 0 -185.5 39.5t-61.5 99.5q0 52 46 91t156 50q-81 13 -119.5 48t-38.5 78q0 39 33.5 65.5
t74.5 36t84 9.5q148 0 214 -88l-24 -23q-57 50 -147 50q-42 0 -66.5 -16.5t-24.5 -45.5q0 -38 56 -69.5t140 -32.5z" />
    <glyph glyph-name="uni0272" unicode="&#x272;" horiz-adv-x="648" 
d="M95 29l1 248l-2 119q-1 29 -8.5 40t-33.5 15l-42 6v28l223 13l3 -105q53 115 163 115q155 0 155 -198v-96l2 -125q1 -29 8.5 -40t33.5 -15l42 -6v-28h-305v28l42 6q33 4 33 55q0 13 0.5 55.5t0.5 69.5v81q0 29 -1.5 47t-8.5 40.5t-23.5 34t-43.5 11.5q-26 0 -52.5 -19
t-42.5 -56l-1 -305q0 -53 -6 -92.5t-24.5 -88t-60 -92t-106.5 -82.5l-18 22q26 27 41.5 64t21.5 85t7.5 79t1.5 86z" />
    <glyph glyph-name="uni0275" unicode="&#x275;" horiz-adv-x="600" 
d="M36 256q0 111 74.5 181.5t189.5 70.5q127 0 195.5 -76t68.5 -192q0 -111 -70.5 -182.5t-196.5 -71.5q-129 0 -195 78t-66 192zM296 29q110 0 115 198h-221q3 -87 28 -142.5t78 -55.5zM302 465q-105 0 -112 -191h220q-7 191 -108 191z" />
    <glyph glyph-name="circumflex" unicode="&#x2c6;" horiz-adv-x="342" 
d="M3 575l142 197h46l141 -196l-20 -18l-144 101l-145 -102z" />
    <glyph glyph-name="caron" unicode="&#x2c7;" horiz-adv-x="342" 
d="M333 755l-146 -197h-39l-144 196l20 18l144 -105l145 106z" />
    <glyph glyph-name="breve" unicode="&#x2d8;" horiz-adv-x="461" 
d="M230 618q95 0 107 111h56q-5 -48 -24 -82.5t-45.5 -50t-49 -21.5t-44.5 -6t-44.5 6t-49 21t-45.5 49.5t-24 83.5h59q12 -111 104 -111z" />
    <glyph glyph-name="dotaccent" unicode="&#x2d9;" horiz-adv-x="244" 
d="M30 672q0 38 27 65t65 27t65 -27t27 -65t-27 -65t-65 -27t-65 27t-27 65z" />
    <glyph glyph-name="ring" unicode="&#x2da;" horiz-adv-x="304" 
d="M254 657q0 -41 -30 -69.5t-72 -28.5t-72 28.5t-30 69.5t30 69.5t72 28.5t72 -28.5t30 -69.5zM206 657q0 27 -15 41t-39 14t-38.5 -15t-14.5 -40t14 -40t39 -15q54 0 54 55z" />
    <glyph glyph-name="ogonek" unicode="&#x2db;" horiz-adv-x="500" 
d="M399 -199l6 -15q-44 -36 -99 -36q-40 0 -70.5 23t-30.5 65q0 79 141 162h20q-68 -65 -68 -141q0 -34 17.5 -49.5t44.5 -15.5q16 0 39 7z" />
    <glyph glyph-name="tilde" unicode="&#x2dc;" horiz-adv-x="473" 
d="M30 608q25 70 49 106.5t63 36.5q36 0 106.5 -35.5t102.5 -35.5q41 0 71 42l22 -10q-26 -69 -50.5 -104t-63.5 -35q-41 0 -110 35t-97 35q-41 0 -72 -46z" />
    <glyph glyph-name="hungarumlaut" unicode="&#x2dd;" horiz-adv-x="524" 
d="M30 564l81 209h166l-218 -209h-29zM231 564l81 209h166l-218 -209h-29z" />
    <glyph glyph-name="uni032C" unicode="&#x32c;" horiz-adv-x="342" 
d="M333 -62l-146 -197h-39l-144 196l20 18l144 -105l145 106z" />
    <glyph glyph-name="Delta" unicode="&#x394;" horiz-adv-x="604" 
d="M301 588l303 -588h-604zM301 469l-211 -413h421z" />
    <glyph glyph-name="Delta" unicode="&#x2206;" horiz-adv-x="604" 
d="M301 588l303 -588h-604zM301 469l-211 -413h421z" />
    <glyph glyph-name="Omega" unicode="&#x3a9;" horiz-adv-x="892" 
d="M518 0v54q48 16 92 43t84.5 68.5t64.5 101.5t24 131q0 73 -20.5 133t-54 99.5t-78 66.5t-90.5 38.5t-94 11.5q-61 0 -118.5 -20t-108 -59t-81.5 -107.5t-31 -155.5q0 -73 24 -134t64.5 -103t85 -69.5t93.5 -43.5v-55h-344v55h238q-94 45 -156.5 140t-62.5 206
q0 177 113.5 287.5t283.5 110.5t283.5 -112t113.5 -290q0 -111 -62 -204.5t-155 -137.5h238v-55h-346z" />
    <glyph glyph-name="Omega" unicode="&#x2126;" horiz-adv-x="892" 
d="M518 0v54q48 16 92 43t84.5 68.5t64.5 101.5t24 131q0 73 -20.5 133t-54 99.5t-78 66.5t-90.5 38.5t-94 11.5q-61 0 -118.5 -20t-108 -59t-81.5 -107.5t-31 -155.5q0 -73 24 -134t64.5 -103t85 -69.5t93.5 -43.5v-55h-344v55h238q-94 45 -156.5 140t-62.5 206
q0 177 113.5 287.5t283.5 110.5t283.5 -112t113.5 -290q0 -111 -62 -204.5t-155 -137.5h238v-55h-346z" />
    <glyph glyph-name="pi" unicode="&#x3c0;" horiz-adv-x="718" 
d="M70 425v55h578v-55h-87v-425h-58v425h-288v-425h-58v425h-87z" />
    <glyph glyph-name="Wgrave" unicode="&#x1e80;" horiz-adv-x="1141" 
d="M813 194l106 390q15 52 16.5 85.5t-11 49t-29 21t-44.5 5.5v28h290v-29q-66 -5 -100 -39t-67 -145l-171 -584h-71l-174 542l-163 -542h-67l-218 698q-7 19 -17 31.5t-23 19.5t-22.5 10t-25.5 6t-22 4v28h362v-28q-49 -4 -70.5 -13.5t-21 -24.5t6.5 -37l132 -476l122 411
l-22 69q-7 19 -17 31.5t-23 19.5t-22.5 10t-25.5 6t-22 4v28h362v-28q-49 -4 -70.5 -13.5t-21 -24.5t6.5 -37zM580 1027l81 -209h-29l-218 209h166z" />
    <glyph glyph-name="wgrave" unicode="&#x1e81;" horiz-adv-x="877" 
d="M562 401l80 -244l72 195q11 29 11.5 49t-4 30t-16.5 15t-19.5 5.5t-19.5 0.5h-3v28h214v-28q-42 0 -65 -22t-54 -99l-139 -350h-39l-143 355l-142 -355h-39l-171 425q-7 17 -16.5 27t-23 14t-21.5 4.5t-24 0.5v28h288v-28q-11 0 -17 -0.5t-14.5 -1.5t-12.5 -4.5t-7 -9
t-2.5 -14.5t4.5 -21l79 -244l95 239l-4 10q-7 17 -16.5 27t-23 14t-21.5 4.5t-24 0.5v28h288v-28q-37 0 -49 -9.5t-1 -41.5zM446 773l81 -209h-29l-218 209h166z" />
    <glyph glyph-name="Wacute" unicode="&#x1e82;" horiz-adv-x="1141" 
d="M813 194l106 390q15 52 16.5 85.5t-11 49t-29 21t-44.5 5.5v28h290v-29q-66 -5 -100 -39t-67 -145l-171 -584h-71l-174 542l-163 -542h-67l-218 698q-7 19 -17 31.5t-23 19.5t-22.5 10t-25.5 6t-22 4v28h362v-28q-49 -4 -70.5 -13.5t-21 -24.5t6.5 -37l132 -476l122 411
l-22 69q-7 19 -17 31.5t-23 19.5t-22.5 10t-25.5 6t-22 4v28h362v-28q-49 -4 -70.5 -13.5t-21 -24.5t6.5 -37zM533 818l81 209h166l-218 -209h-29z" />
    <glyph glyph-name="wacute" unicode="&#x1e83;" horiz-adv-x="877" 
d="M562 401l80 -244l72 195q11 29 11.5 49t-4 30t-16.5 15t-19.5 5.5t-19.5 0.5h-3v28h214v-28q-42 0 -65 -22t-54 -99l-139 -350h-39l-143 355l-142 -355h-39l-171 425q-7 17 -16.5 27t-23 14t-21.5 4.5t-24 0.5v28h288v-28q-11 0 -17 -0.5t-14.5 -1.5t-12.5 -4.5t-7 -9
t-2.5 -14.5t4.5 -21l79 -244l95 239l-4 10q-7 17 -16.5 27t-23 14t-21.5 4.5t-24 0.5v28h288v-28q-37 0 -49 -9.5t-1 -41.5zM409 564l81 209h166l-218 -209h-29z" />
    <glyph glyph-name="Wdieresis" unicode="&#x1e84;" horiz-adv-x="1141" 
d="M813 194l106 390q15 52 16.5 85.5t-11 49t-29 21t-44.5 5.5v28h290v-29q-66 -5 -100 -39t-67 -145l-171 -584h-71l-174 542l-163 -542h-67l-218 698q-7 19 -17 31.5t-23 19.5t-22.5 10t-25.5 6t-22 4v28h362v-28q-49 -4 -70.5 -13.5t-21 -24.5t6.5 -37l132 -476l122 411
l-22 69q-7 19 -17 31.5t-23 19.5t-22.5 10t-25.5 6t-22 4v28h362v-28q-49 -4 -70.5 -13.5t-21 -24.5t6.5 -37zM344 923q0 35 24.5 59.5t59.5 24.5q37 0 61.5 -24.5t24.5 -59.5q0 -37 -24.5 -61.5t-61.5 -24.5q-35 0 -59.5 24.5t-24.5 61.5zM634 923q0 35 24.5 59.5
t59.5 24.5q37 0 61.5 -24.5t24.5 -59.5q0 -37 -24.5 -61.5t-61.5 -24.5q-35 0 -59.5 24.5t-24.5 61.5z" />
    <glyph glyph-name="wdieresis" unicode="&#x1e85;" horiz-adv-x="877" 
d="M562 401l80 -244l72 195q11 29 11.5 49t-4 30t-16.5 15t-19.5 5.5t-19.5 0.5h-3v28h214v-28q-42 0 -65 -22t-54 -99l-139 -350h-39l-143 355l-142 -355h-39l-171 425q-7 17 -16.5 27t-23 14t-21.5 4.5t-24 0.5v28h288v-28q-11 0 -17 -0.5t-14.5 -1.5t-12.5 -4.5t-7 -9
t-2.5 -14.5t4.5 -21l79 -244l95 239l-4 10q-7 17 -16.5 27t-23 14t-21.5 4.5t-24 0.5v28h288v-28q-37 0 -49 -9.5t-1 -41.5zM258 670q0 35 24.5 59.5t59.5 24.5q37 0 61.5 -24.5t24.5 -59.5q0 -37 -24.5 -61.5t-61.5 -24.5q-35 0 -59.5 24.5t-24.5 61.5zM488 670
q0 35 24.5 59.5t59.5 24.5q37 0 61.5 -24.5t24.5 -59.5q0 -37 -24.5 -61.5t-61.5 -24.5q-35 0 -59.5 24.5t-24.5 61.5z" />
    <glyph glyph-name="uni1EA0" unicode="&#x1ea0;" horiz-adv-x="827" 
d="M550 103l-51 131h-263l-38 -105q-9 -25 -9.5 -42.5t4 -27t17.5 -16t22.5 -8t28 -4t25.5 -3.5v-28h-286v29q61 5 90.5 29.5t54.5 91.5l236 645h49l287 -696q8 -19 17.5 -31.5t23 -19.5t22 -10t25.5 -6t22 -4v-28h-362v28q49 4 71 13.5t22 25t-8 36.5zM363 585l-101 -278
h209zM297 -157q0 35 24.5 59.5t59.5 24.5q37 0 61.5 -24.5t24.5 -59.5q0 -37 -24.5 -61.5t-61.5 -24.5q-35 0 -59.5 24.5t-24.5 61.5z" />
    <glyph glyph-name="uni1EA1" unicode="&#x1ea1;" horiz-adv-x="535" 
d="M302 93v145q-140 -12 -140 -112q0 -34 18 -51.5t43 -17.5q51 0 79 36zM30 115q0 73 72 112.5t197 39.5v117q0 49 -13.5 69t-42.5 20q-51 0 -51 -45q0 -17 -0.5 -26t-3.5 -24t-9.5 -23t-19.5 -14.5t-31 -6.5q-23 0 -39 17.5t-16 44.5q0 53 58 82t123 29q82 0 132 -33.5
t49 -114.5l-2 -232q0 -38 8.5 -53.5t26.5 -15.5q24 0 60 23l15 -14q-47 -78 -131 -78q-86 0 -108 73q-57 -76 -138 -76q-63 0 -99.5 35.5t-36.5 93.5zM188 -157q0 35 24.5 59.5t59.5 24.5q37 0 61.5 -24.5t24.5 -59.5q0 -37 -24.5 -61.5t-61.5 -24.5q-35 0 -59.5 24.5
t-24.5 61.5z" />
    <glyph glyph-name="uni1EB8" unicode="&#x1eb8;" horiz-adv-x="729" 
d="M30 773h621v-204h-30q-6 73 -61 116q-47 36 -167 36h-96v-291h55q84 0 116 30q33 32 39 90h27v-293h-29q-6 66 -43 97q-28 24 -112 24h-53v-133l1 -114q0 -44 18.5 -62.5t68.5 -18.5h71q110 0 152 44q42 45 49 119h28l1 -213h-656v28l48 6q35 4 51 19.5t16 54.5
q0 35 1 86t1 72v244l-2 156q-1 39 -16.5 54.5t-50.5 19.5l-48 6v27zM287 -157q0 35 24.5 59.5t59.5 24.5q37 0 61.5 -24.5t24.5 -59.5q0 -37 -24.5 -61.5t-61.5 -24.5q-35 0 -59.5 24.5t-24.5 61.5z" />
    <glyph glyph-name="uni1EB9" unicode="&#x1eb9;" horiz-adv-x="543" 
d="M507 279h-327v-7q-1 -96 40 -152.5t111 -56.5q101 0 152 90l28 -11q-61 -156 -221 -156q-119 0 -186.5 73t-67.5 190q0 114 68 186.5t181 72.5q103 0 159.5 -60t62.5 -169zM285 467q-43 0 -69 -41.5t-32 -104.5h178q-1 146 -77 146zM194 -157q0 35 24.5 59.5t59.5 24.5
q37 0 61.5 -24.5t24.5 -59.5q0 -37 -24.5 -61.5t-61.5 -24.5q-35 0 -59.5 24.5t-24.5 61.5z" />
    <glyph glyph-name="uni1ECA" unicode="&#x1eca;" horiz-adv-x="443" 
d="M296 510v-244l2 -158q1 -39 16.5 -54.5t50.5 -19.5l48 -6v-28h-383v28l48 6q35 4 51 19.5t16 54.5q0 53 1 96.5t1 61.5v244l-2 155q0 39 -16 54.5t-51 19.5l-48 6v28h383v-28l-48 -6q-35 -4 -50.5 -19.5t-16.5 -54.5q-2 -54 -2 -155zM132 -157q0 35 24.5 59.5t59.5 24.5
q37 0 61.5 -24.5t24.5 -59.5q0 -37 -24.5 -61.5t-61.5 -24.5q-35 0 -59.5 24.5t-24.5 61.5z" />
    <glyph glyph-name="uni1ECB" unicode="&#x1ecb;" 
d="M107 234l-1 162q0 28 -8 39.5t-34 15.5l-42 6v28l228 19v-270l1 -145q0 -28 8.5 -39.5t34.5 -15.5l42 -6v-28h-315v28l42 6q26 4 33.5 15t8.5 40q0 10 1 64t1 81zM79 672q0 38 27 65t65 27t65 -27t27 -65t-27 -65t-65 -27t-65 27t-27 65zM85 -157q0 35 24.5 59.5
t59.5 24.5q37 0 61.5 -24.5t24.5 -59.5q0 -37 -24.5 -61.5t-61.5 -24.5q-35 0 -59.5 24.5t-24.5 61.5z" />
    <glyph glyph-name="uni1ECC" unicode="&#x1ecc;" horiz-adv-x="899" 
d="M692 387q0 174 -69.5 263.5t-173.5 89.5q-105 0 -174.5 -89.5t-69.5 -263.5q0 -173 69.5 -261t174.5 -88t174 87.5t69 261.5zM859 385q0 -172 -120 -285.5t-290 -113.5t-289.5 115.5t-119.5 289.5q0 172 119 285.5t290 113.5q169 0 289.5 -116t120.5 -289zM364 -157
q0 35 24.5 59.5t59.5 24.5q37 0 61.5 -24.5t24.5 -59.5q0 -37 -24.5 -61.5t-61.5 -24.5q-35 0 -59.5 24.5t-24.5 61.5z" />
    <glyph glyph-name="uni1ECD" unicode="&#x1ecd;" horiz-adv-x="600" 
d="M36 256q0 111 74.5 181.5t189.5 70.5q127 0 195.5 -76t68.5 -192q0 -111 -70.5 -182.5t-196.5 -71.5q-129 0 -195 78t-66 192zM411 245q0 98 -26 159t-83 61q-112 0 -112 -217q0 -95 25 -157t81 -62q115 0 115 216zM210 -157q0 35 24.5 59.5t59.5 24.5q37 0 61.5 -24.5
t24.5 -59.5q0 -37 -24.5 -61.5t-61.5 -24.5q-35 0 -59.5 24.5t-24.5 61.5z" />
    <glyph glyph-name="uni1EE4" unicode="&#x1ee4;" horiz-adv-x="864" 
d="M116 304l-1 361q0 39 -16 54.5t-51 19.5l-48 6v28h383v-28l-48 -6q-35 -4 -51 -19.5t-16 -54.5q-2 -245 -2 -367q0 -119 47.5 -175.5t161.5 -56.5q101 0 155 66t54 192v175v50.5t-1 43t-3.5 39t-7 31.5t-11 28t-16 20.5t-22.5 17t-30 10t-39 6.5v28h320v-28
q-27 -2 -47.5 -10t-34 -17.5t-22.5 -29.5t-14 -34.5t-7 -45.5t-2.5 -50t-0.5 -59v-184q0 -155 -83.5 -242t-230.5 -87q-136 0 -217 67q-99 84 -99 251zM356 -157q0 35 24.5 59.5t59.5 24.5q37 0 61.5 -24.5t24.5 -59.5q0 -37 -24.5 -61.5t-61.5 -24.5q-35 0 -59.5 24.5
t-24.5 61.5z" />
    <glyph glyph-name="uni1EE5" unicode="&#x1ee5;" horiz-adv-x="633" 
d="M616 0h-210l-5 103q-53 -115 -163 -115q-82 0 -116.5 51t-34.5 146v68l-2 143q-1 29 -8.5 40t-33.5 15l-42 6v28l233 12q-3 -43 -3 -198l-1 -98q0 -26 0.5 -37.5t4 -34t10.5 -33t21.5 -19.5t36.5 -9q26 0 52.5 19t42.5 56v120l-2 133q-1 29 -8.5 40t-33.5 15l-42 6v28
l233 12q-3 -66 -3 -188l-1 -220q0 -28 6.5 -40t26.5 -15l42 -6v-28zM249 -157q0 35 24.5 59.5t59.5 24.5q37 0 61.5 -24.5t24.5 -59.5q0 -37 -24.5 -61.5t-61.5 -24.5q-35 0 -59.5 24.5t-24.5 61.5z" />
    <glyph glyph-name="Ygrave" unicode="&#x1ef2;" horiz-adv-x="736" 
d="M414 407l103 177q25 43 33 74t3.5 47t-20 25.5t-29.5 12t-33 2.5v28h265v-29q-11 0 -20.5 -2t-17 -4t-15.5 -8.5t-14 -10.5t-14.5 -15.5t-14 -18.5t-16 -24.5l-16.5 -27.5t-20 -34t-23 -39l-131 -221l2 -231q1 -39 16.5 -54.5t50.5 -19.5l48 -6v-28h-383v28l48 6
q35 4 50.5 19.5t16.5 54.5l2 229l-175 337q-9 18 -19 30.5t-24 19.5t-21 10t-25 6.5t-21 4.5v28h362v-28q-49 -4 -72 -14t-22.5 -25.5t9.5 -35.5zM380 1027l81 -209h-29l-218 209h166z" />
    <glyph glyph-name="ygrave" unicode="&#x1ef3;" horiz-adv-x="593" 
d="M122 -253q54 0 107 130l42 104l-186 425q-7 16 -17 26.5t-23 14t-21.5 4.5t-23.5 1v28h288v-28q-36 0 -48 -10t0 -41l98 -259l78 210q11 29 11.5 49t-4 30t-16.5 15t-19.5 5.5t-19.5 0.5h-3v28h225v-28q-42 0 -65 -22t-54 -99l-190 -472q-65 -164 -185 -164
q-59 0 -95 23.5t-36 59.5q0 28 18 43t41 15q25 0 41.5 -14t22 -30.5t14 -30.5t20.5 -14zM276 773l81 -209h-29l-218 209h166z" />
    <glyph glyph-name="endash" unicode="&#x2013;" horiz-adv-x="514" 
d="M50 227v55h414v-55h-414z" />
    <glyph glyph-name="emdash" unicode="&#x2014;" horiz-adv-x="761" 
d="M50 227v55h661v-55h-661z" />
    <glyph glyph-name="quoteleft" unicode="&#x2018;" horiz-adv-x="223" 
d="M184 802l15 -27q-23 -17 -47 -44t-24 -51q0 -16 19 -34.5t38 -40t19 -45.5q0 -35 -22 -59t-60 -24q-44 0 -72.5 35.5t-28.5 82.5q0 61 50.5 121t112.5 86z" />
    <glyph glyph-name="quoteright" unicode="&#x2019;" horiz-adv-x="223" 
d="M40 476l-15 27q23 17 47 44t24 51q0 16 -19 34.5t-38 40t-19 45.5q0 35 22 59t60 24q44 0 72.5 -35.5t28.5 -82.5q0 -61 -50.5 -121t-112.5 -86z" />
    <glyph glyph-name="quotesinglbase" unicode="&#x201a;" horiz-adv-x="283" 
d="M70 -140l-15 27q23 17 47 44t24 51q0 16 -19 34.5t-38 40t-19 45.5q0 35 22 59t60 24q44 0 72.5 -35.5t28.5 -82.5q0 -61 -50.5 -121t-112.5 -86z" />
    <glyph glyph-name="quotedblleft" unicode="&#x201c;" horiz-adv-x="499" 
d="M430 802l15 -27q-23 -17 -47 -44t-24 -51q0 -16 19 -34.5t38 -40t19 -45.5q0 -35 -22 -59t-60 -24q-44 0 -72.5 35.5t-28.5 82.5q0 61 50.5 121t112.5 86zM214 802l15 -27q-23 -17 -47 -44t-24 -51q0 -16 19 -34.5t38 -40t19 -45.5q0 -35 -22 -59t-60 -24
q-44 0 -72.5 35.5t-28.5 82.5q0 61 50.5 121t112.5 86z" />
    <glyph glyph-name="quotedblright" unicode="&#x201d;" horiz-adv-x="499" 
d="M70 476l-15 27q23 17 47 44t24 51q0 16 -19 34.5t-38 40t-19 45.5q0 35 22 59t60 24q44 0 72.5 -35.5t28.5 -82.5q0 -61 -50.5 -121t-112.5 -86zM286 476l-15 27q23 17 47 44t24 51q0 16 -19 34.5t-38 40t-19 45.5q0 35 22 59t60 24q44 0 72.5 -35.5t28.5 -82.5
q0 -61 -50.5 -121t-112.5 -86z" />
    <glyph glyph-name="quotedblbase" unicode="&#x201e;" horiz-adv-x="499" 
d="M70 -140l-15 27q23 17 47 44t24 51q0 16 -19 34.5t-38 40t-19 45.5q0 35 22 59t60 24q44 0 72.5 -35.5t28.5 -82.5q0 -61 -50.5 -121t-112.5 -86zM286 -140l-15 27q23 17 47 44t24 51q0 16 -19 34.5t-38 40t-19 45.5q0 35 22 59t60 24q44 0 72.5 -35.5t28.5 -82.5
q0 -61 -50.5 -121t-112.5 -86z" />
    <glyph glyph-name="dagger" unicode="&#x2020;" horiz-adv-x="720" 
d="M19 422v55h311v296h58v-296h314v-55h-314v-550h-58v550h-311z" />
    <glyph glyph-name="daggerdbl" unicode="&#x2021;" horiz-adv-x="720" 
d="M19 442v55h311v276h58v-276h314v-55h-314v-264h314v-55h-314v-251h-58v251h-311v55h311v264h-311z" />
    <glyph glyph-name="bullet" unicode="&#x2022;" horiz-adv-x="426" 
d="M50 259q0 66 47 113t113 47q70 0 118 -47t48 -113q0 -71 -48 -118.5t-118 -47.5q-66 0 -113 48t-47 118z" />
    <glyph glyph-name="ellipsis" unicode="&#x2026;" horiz-adv-x="806" 
d="M50 82q0 39 27 66t66 27q41 0 68.5 -27t27.5 -66q0 -41 -27.5 -68.5t-68.5 -27.5q-39 0 -66 27.5t-27 68.5zM309 82q0 39 27 66t66 27q41 0 68.5 -27t27.5 -66q0 -41 -27.5 -68.5t-68.5 -27.5q-39 0 -66 27.5t-27 68.5zM567 82q0 39 27 66t66 27q41 0 68.5 -27t27.5 -66
q0 -41 -27.5 -68.5t-68.5 -27.5q-39 0 -66 27.5t-27 68.5z" />
    <glyph glyph-name="perthousand" unicode="&#x2030;" horiz-adv-x="1309" 
d="M758 790l-525 -790h-62l523 790h64zM230 698q-56 0 -89 -36t-33 -95q0 -57 31 -93.5t91 -36.5t91 36.5t31 93.5q0 59 -33 95t-89 36zM230 386q-77 0 -128.5 52.5t-51.5 128.5q0 78 49.5 129.5t130.5 51.5t130.5 -51.5t49.5 -129.5q0 -76 -51.5 -128.5t-128.5 -52.5z
M667 298q-56 0 -89 -36t-33 -95q0 -57 31 -93.5t91 -36.5t91 36.5t31 93.5q0 59 -33 95t-89 36zM667 -14q-77 0 -128.5 52.5t-51.5 128.5q0 78 49.5 129.5t130.5 51.5t130.5 -51.5t49.5 -129.5q0 -76 -51.5 -128.5t-128.5 -52.5zM1079 299q-56 0 -89 -36t-33 -95
q0 -57 31 -93.5t91 -36.5t91 36.5t31 93.5q0 59 -33 95t-89 36zM1079 -13q-77 0 -128.5 52.5t-51.5 128.5q0 78 49.5 129.5t130.5 51.5t130.5 -51.5t49.5 -129.5q0 -76 -51.5 -128.5t-128.5 -52.5z" />
    <glyph glyph-name="guilsinglleft" unicode="&#x2039;" horiz-adv-x="294" 
d="M253 34l-233 210l232 211h27l-125 -210l125 -211h-26z" />
    <glyph glyph-name="guilsinglright" unicode="&#x203a;" horiz-adv-x="294" 
d="M274 244l-233 -210h-26l125 211l-125 210h27z" />
    <glyph glyph-name="fraction" unicode="&#x2044;" horiz-adv-x="580" 
d="M588 790l-525 -790h-62l523 790h64z" />
    <glyph glyph-name="Euro" unicode="&#x20ac;" horiz-adv-x="790" 
d="M-20 465v55h116q38 121 136.5 192.5t235.5 71.5q106 0 255 -53l15 -174h-26q-42 91 -98.5 132.5t-136.5 41.5q-83 0 -143.5 -53.5t-85.5 -157.5h186v-55h-195q-5 -34 -5 -85q0 -29 1 -43h199v-55h-192q21 -116 86.5 -178.5t149.5 -62.5q89 0 147.5 45t96.5 153h29
l-26 -171q-44 -39 -114 -60.5t-146 -21.5q-155 0 -253 82.5t-126 213.5h-106v55h98q-2 15 -2 45q0 45 7 83h-103z" />
    <glyph glyph-name="trademark" unicode="&#x2122;" horiz-adv-x="1070" 
d="M25 606v167h416v-167h-18q-7 73 -36 105.5t-93 32.5v-342q0 -27 13.5 -38.5t57.5 -13.5v-21h-263v21q43 2 56.5 13.5t13.5 38.5v342q-69 0 -94.5 -29.5t-34.5 -108.5h-18zM543 436l10 260q1 31 -11.5 42t-44.5 13v22h172l97 -248l86 248h179v-22q-30 -2 -41.5 -12.5
t-10.5 -38.5l13 -309q1 -18 11.5 -28.5t37.5 -12.5v-21h-220v21q51 4 49 41l-12 297l-130 -365h-6l-137 326l-8 -213q-1 -29 3 -47t16 -25.5t21.5 -10t29.5 -3.5v-21h-179v21q20 1 29.5 3.5t21.5 10.5t17.5 25.5t6.5 46.5z" />
    <glyph glyph-name="partialdiff" unicode="&#x2202;" horiz-adv-x="567" 
d="M272 503q74 0 127 -40.5t77 -121.5q-10 143 -117 256q-87 94 -212 132l18 52q204 -66 303 -236q61 -106 61 -258q0 -80 -26 -146.5t-84.5 -110.5t-140.5 -44q-109 0 -173.5 76t-64.5 182q0 116 69.5 187.5t162.5 71.5zM277 446q-74 0 -123.5 -52.5t-49.5 -147.5
t50 -149.5t124 -54.5q92 0 138 55t46 138q0 88 -47.5 149.5t-137.5 61.5z" />
    <glyph glyph-name="product" unicode="&#x220f;" horiz-adv-x="848" 
d="M70 -135v53h85v800h-87v55h708v-55h-87v-800h89v-53h-225v53h78v800h-418v-800h82v-53h-225z" />
    <glyph glyph-name="summation" unicode="&#x2211;" horiz-adv-x="704" 
d="M291 391l-264 382h597v-230h-58v175h-431l228 -327l-245 -336h458v175h58v-230h-624z" />
    <glyph glyph-name="minus" unicode="&#x2212;" horiz-adv-x="554" 
d="M50 227v55h454v-55h-454z" />
    <glyph glyph-name="radical" unicode="&#x221a;" horiz-adv-x="691" 
d="M20 349v55h166l112 -306l244 785h249v-55h-207l-284 -884l-156 405h-124z" />
    <glyph glyph-name="infinity" unicode="&#x221e;" horiz-adv-x="787" 
d="M211 376q52 0 94 -22.5t90 -77.5q77 100 181 100q71 0 116 -40.5t45 -103.5q0 -64 -43.5 -104.5t-115.5 -40.5q-101 0 -183 106q-86 -105 -186 -105q-71 0 -115 40t-44 104q0 63 44.5 103.5t116.5 40.5zM213 142q43 0 77 20.5t71 69.5q-36 46 -69 68t-76 22
q-50 0 -78 -23.5t-28 -66.5q0 -38 27.5 -64t75.5 -26zM578 142q44 0 71 24.5t27 65.5q0 40 -27.5 65t-79.5 25q-40 0 -71 -19t-69 -68q36 -49 70.5 -71t78.5 -22z" />
    <glyph glyph-name="integral" unicode="&#x222b;" horiz-adv-x="267" 
d="M105 -185v855q0 58 27.5 89t104.5 31h10v-51q-49 0 -67 -13t-18 -56v-855q0 -58 -27.5 -89t-104.5 -31h-10v51q51 0 68 13t17 56z" />
    <glyph glyph-name="approxequal" unicode="&#x2248;" horiz-adv-x="659" 
d="M183 233q52 0 151 -49.5t141 -49.5q31 0 53.5 17t41.5 60l47 -19q-19 -55 -57 -84t-84 -29q-54 0 -153 49t-139 49q-64 0 -95 -78l-47 21q19 55 57 84t84 29zM183 415q52 0 151 -49.5t141 -49.5q31 0 53.5 17t41.5 60l47 -19q-19 -55 -57 -84t-84 -29q-54 0 -153 49
t-139 49q-64 0 -95 -78l-47 21q19 55 57 84t84 29z" />
    <glyph glyph-name="notequal" unicode="&#x2260;" horiz-adv-x="554" 
d="M50 315v55h244l48 120h58l-48 -120h152v-55h-174l-51 -128h225v-55h-247l-53 -132h-58l53 132h-149v55h171l51 128h-222z" />
    <glyph glyph-name="lessequal" unicode="&#x2264;" horiz-adv-x="605" 
d="M50 276v55l505 172v-64l-427 -135l427 -151v-66zM62 0v55h493v-55h-493z" />
    <glyph glyph-name="greaterequal" unicode="&#x2265;" horiz-adv-x="606" 
d="M556 331v-55l-505 -189v66l427 151l-427 135v64zM544 55v-55h-493v55h493z" />
    <glyph glyph-name="lozenge" unicode="&#x25ca;" horiz-adv-x="563" 
d="M278 -50l-248 425l248 434l255 -434zM469 375l-191 326l-184 -326l184 -319z" />
    <glyph glyph-name="apple" unicode="&#xf8ff;" horiz-adv-x="2262" 
d="M19 746v27q99 0 207.5 1.5t151.5 1.5q118 0 193 -44.5t75 -132.5q0 -67 -48 -119.5t-115 -65.5q93 -3 152.5 -59t59.5 -135q0 -103 -73.5 -161.5t-216.5 -58.5h-386v28l48 6q35 4 51 19.5t16 54.5q0 35 1 87.5t1 73.5v235q0 17 -1 62t-1 100q0 39 -16 54.5t-51 19.5z
M1385 299l-39 -56l131 -146q31 -36 55.5 -49.5t54.5 -18.5v-29h-321v29q21 0 32.5 3t15.5 6.5t-1 13t-11 16.5t-20 23l-24 27q-106 -132 -270 -132q-126 0 -190 63t-64 152q0 83 61 146t179 89l-5 6q-95 106 -95 202q0 72 57.5 114t162.5 42q85 0 140 -34.5t55 -98.5
q0 -46 -46.5 -94t-123.5 -76l196 -219l25 39q23 37 30.5 63.5t2.5 40t-19.5 21t-28 9t-30.5 1.5v28h272v-28q-25 -1 -35.5 -3.5t-32.5 -15.5t-48.5 -45.5t-65.5 -88.5zM1608 745v28q56 0 167.5 1.5t166.5 1.5q51 0 92.5 -4.5t86.5 -18t75 -36.5t50 -63t20 -94
q0 -108 -78 -170t-187 -62q-64 0 -128 22v-68l3 -174q1 -40 19 -54t68 -20l48 -6v-28h-403v28l48 6q35 4 51 19.5t16 54.5q1 59 1 175l-1 382q0 39 -16 54.5t-51 19.5zM1873 722v-338q32 -7 68 -7q79 0 130.5 44t51.5 137q0 168 -178 168q-40 0 -72 -4zM284 381v-118l1 -165
q0 -32 20 -43t64 -11q76 0 119.5 41.5t43.5 126.5q0 78 -46.5 123.5t-133.5 45.5h-68zM1051 58q96 0 177 93l-235 263q-93 -71 -93 -192q0 -74 43 -119t108 -45zM284 728v-310h37q169 0 169 155q0 74 -42.5 116t-115.5 42q-31 0 -48 -3zM1031 670q0 -73 70 -152
q67 73 67 149q0 46 -18.5 80.5t-48.5 34.5q-33 0 -51.5 -33t-18.5 -79z" />
    <glyph glyph-name="s_t" unicode="&#xfb06;" horiz-adv-x="872" 
d="M484 481h74v105q0 88 -24 120.5t-75 32.5q-50 0 -80.5 -28.5t-30.5 -76.5q0 -96 69 -174v-117h-41q-13 66 -43 92t-75 26q-30 0 -53 -16t-23 -46q0 -61 78 -80l36 -9q157 -40 157 -159q0 -82 -61.5 -123.5t-144.5 -41.5q-99 0 -146 54l-19 -53h-33v187h43
q29 -137 140 -137q88 0 88 74q0 61 -72 78l-48 12q-76 19 -111.5 64t-35.5 99q0 68 53 105.5t136 37.5q68 0 133 -35q-50 57 -69.5 95t-19.5 79q0 63 57 108.5t147 45.5q212 0 212 -195v-124h138v-47h-138l1 -303q0 -45 14 -61.5t39 -16.5q39 0 89 25l17 -27
q-81 -65 -165 -65q-57 0 -97.5 31.5t-40.5 93.5v325l-75 6v39z" />
    <glyph glyph-name="DEL" horiz-adv-x="212" 
 />
    <glyph glyph-name="s_p" horiz-adv-x="1057" 
d="M679 415v-348q23 -14 61 -14q75 0 107 55t32 137q0 93 -32 145t-87 52q-49 0 -81 -27zM682 605v-153q44 56 126 56q107 0 165 -73.5t58 -193.5q0 -106 -60 -180.5t-161 -74.5q-88 0 -130 49v-93l2 -146q0 -28 11.5 -38.5t51.5 -16.5l42 -6v-28h-335v28l42 6q26 4 34 15.5
t8 39.5q0 14 1 68.5t1 78.5v643q0 87 -22.5 120t-66.5 33q-43 0 -69 -28.5t-26 -76.5q0 -96 69 -174v-117h-41q-13 66 -43 92t-75 26q-30 0 -53 -16t-23 -46q0 -61 78 -80l36 -9q157 -40 157 -159q0 -82 -61.5 -123.5t-144.5 -41.5q-99 0 -146 54l-19 -53h-33v187h43
q29 -137 140 -137q88 0 88 74q0 61 -72 78l-48 12q-76 19 -111.5 64t-35.5 99q0 68 53 105.5t136 37.5q68 0 133 -35q-50 57 -69.5 95t-19.5 79q0 65 49.5 109.5t138.5 44.5q202 0 202 -195z" />
    <glyph glyph-name="c_t" horiz-adv-x="899" 
d="M290 -14q-120 0 -187 75t-67 186q0 115 75.5 188t193.5 73q52 0 101 -18q-83 80 -83 160q0 61 52.5 105.5t141.5 44.5q212 0 212 -195v-124h138v-47h-138l1 -303q0 -45 14 -61.5t39 -16.5q39 0 89 25l17 -27q-81 -65 -165 -65q-57 0 -97.5 31.5t-40.5 93.5v325
q-12 1 -29 3t-26 3v39h54v105q0 88 -24 120.5t-75 32.5q-49 0 -75 -28t-26 -77q0 -98 76 -172q31 -29 31 -55q0 -28 -17 -45.5t-43 -17.5q-49 0 -72 69q-9 26 -21.5 39.5t-37.5 13.5q-43 0 -79 -52.5t-36 -149.5q0 -89 36.5 -145t106.5 -56q94 0 145 90l28 -11
q-61 -156 -212 -156z" />
    <glyph glyph-name="zero.plf" horiz-adv-x="722" 
d="M504 350q0 319 -148 319t-148 -319q0 -315 148 -315t148 315zM666 349q0 -173 -87.5 -268t-222.5 -95q-142 0 -226 94.5t-84 270.5q0 174 87.5 271t224.5 97q148 0 228 -95.5t80 -274.5z" />
    <glyph glyph-name="one.plf" horiz-adv-x="420" 
d="M143 218v285l-1 92q-58 -5 -127 3v33q109 26 223 88h50v-501l1 -91q1 -43 10.5 -63t39.5 -25l61 -9v-30h-380v30l71 9q32 4 41 24t10 62q1 38 1 93z" />
    <glyph glyph-name="two.plf" horiz-adv-x="619" 
d="M126 493l-41 7q-1 94 66 156.5t179 62.5q94 0 155.5 -47.5t61.5 -133.5q0 -60 -28 -115.5t-88.5 -111t-116 -95.5t-150.5 -101h173q109 0 148 22.5t60 101.5h24v-239h-569l-4 18q52 44 77 65t74.5 65t75.5 72.5t62 71.5t54.5 77t32 74.5t13.5 78.5q0 54 -27.5 87.5
t-85.5 33.5q-59 0 -100 -42.5t-46 -107.5z" />
    <glyph glyph-name="three.plf" horiz-adv-x="555" 
d="M243 643q-111 0 -148 -102l-37 11q23 87 89.5 127t147.5 40q79 0 134.5 -36.5t55.5 -99.5q0 -56 -54.5 -104.5t-143.5 -67.5q64 -1 112 -20t74 -48.5t38 -62.5t12 -69q0 -95 -71 -160t-204 -65q-95 0 -167 39t-72 92q0 26 17 43.5t44 17.5q16 0 28.5 -5.5t21.5 -18
t13 -20.5t11 -23q15 -34 42.5 -57.5t60.5 -23.5q57 0 90 45t33 111q0 72 -40.5 108.5t-103.5 36.5q-44 0 -92 -17v42q94 32 147 94t53 111q0 41 -26 61.5t-65 20.5z" />
    <glyph glyph-name="four.plf" horiz-adv-x="690" 
d="M479 108q0 -39 15 -54.5t49 -19.5l48 -6v-28h-376v28l48 6q36 4 53.5 19.5t17.5 54.5v97h-323l-11 19l420 509h59v-420h43q98 0 113 81h25v-189h-181v-97zM139 313h195v234z" />
    <glyph glyph-name="five.plf" horiz-adv-x="607" 
d="M531 754l-28 -171h-335l-34 -168q25 30 72 46.5t90 16.5q113 0 182 -62.5t69 -166.5q0 -114 -81 -188.5t-210 -74.5q-92 0 -164 38t-72 91q0 27 17.5 43.5t42.5 16.5q7 0 13.5 -1t12 -2.5t10.5 -5t8.5 -6t8 -7.5t6.5 -7.5t5.5 -9t4.5 -8.5l4.5 -9t4.5 -8
q11 -22 17.5 -32.5t18 -24t26 -19t33.5 -5.5q61 0 98 54t37 134q0 78 -36 123t-104 45q-78 0 -151 -79l-39 11l68 382h261q52 0 76.5 11t38.5 43h29z" />
    <glyph glyph-name="six.plf" horiz-adv-x="674" 
d="M549 762l13 -33q-145 -61 -229.5 -139.5t-110.5 -198.5q55 95 167 95q38 0 75 -12.5t72 -39.5t56.5 -77t21.5 -116q0 -111 -81 -183t-204 -72q-127 0 -198 82.5t-71 209.5q0 81 28.5 151t74.5 121t111 93.5t132 70.5t143 48zM344 431q-64 0 -100 -57t-36 -143
q0 -91 29.5 -146.5t88.5 -55.5q66 0 100.5 55.5t34.5 155.5q0 191 -117 191z" />
    <glyph glyph-name="seven.plf" horiz-adv-x="532" 
d="M-18 -28l444 611h-206q-156 0 -178 -117h-30l19 236h498l14 -14l-459 -778z" />
    <glyph glyph-name="eight.plf" horiz-adv-x="593" 
d="M190 585q0 -50 30.5 -81.5t92.5 -67.5q70 60 70 140q0 40 -23 69t-72 29t-73.5 -25.5t-24.5 -63.5zM322 274l-91 53q-34 -23 -54 -67t-20 -92q0 -59 32.5 -98.5t98.5 -39.5q53 0 84 31t31 82q0 42 -17.5 70.5t-63.5 60.5zM345 418l38 -22q84 -50 120 -96.5t36 -108.5
q0 -83 -68.5 -144t-193.5 -61q-106 0 -178.5 47.5t-72.5 132.5q0 57 39 101t133 80q-69 41 -104.5 94t-35.5 110q0 75 61 121t170 46q108 0 166 -35.5t58 -93.5q0 -45 -43 -90.5t-125 -80.5z" />
    <glyph glyph-name="nine.plf" horiz-adv-x="642" 
d="M96 -56l-13 33q145 61 229.5 139.5t110.5 198.5q-55 -95 -173 -95q-36 0 -72 12.5t-70 38.5t-55.5 76t-21.5 116q0 112 81 184.5t204 72.5q127 0 198 -80.5t71 -207.5q0 -81 -28.5 -151.5t-74.5 -122t-111 -94.5t-132 -71.5t-143 -48.5zM301 275q64 0 100 57t36 143
q0 91 -29.5 146.5t-88.5 55.5q-66 0 -100.5 -55.5t-34.5 -155.5q0 -191 117 -191z" />
    <glyph glyph-name="Gtilde" horiz-adv-x="848" 
d="M253 851q10 29 16.5 46t18 40.5t21.5 35.5t25 21.5t31 9.5q36 0 112.5 -35t111.5 -35q46 0 76 41l22 -10q-14 -37 -22.5 -56.5t-22.5 -44.5t-31 -36.5t-38 -11.5q-42 0 -117 34.5t-106 34.5q-45 0 -76 -45zM490 333h328v-28q-40 -6 -50 -19.5t-10 -61.5v-149
q-46 -43 -129.5 -66t-171.5 -23q-196 0 -306.5 115t-110.5 282q0 175 119.5 291t301.5 116q112 0 275 -53l18 -175h-31q-40 91 -111 134t-143 43q-107 0 -186.5 -92.5t-79.5 -265.5q0 -160 77.5 -251t184.5 -91q67 0 110 19q19 9 25 18t6 27v121q0 40 -16.5 55.5t-51.5 19.5
l-48 6v28z" />
    <glyph glyph-name="gtilde" horiz-adv-x="565" 
d="M83 608q25 70 49 106.5t63 36.5q36 0 106.5 -35.5t102.5 -35.5q41 0 71 42l22 -10q-26 -69 -50.5 -104t-63.5 -35q-41 0 -110 35t-97 35q-41 0 -72 -46zM472 317q0 -84 -63.5 -134.5t-163.5 -50.5q-27 0 -52 6q-45 -25 -45 -54q0 -38 57 -36l115 2q114 0 170.5 -34
t56.5 -111q0 -92 -87 -146.5t-203 -54.5q-106 0 -176.5 39t-70.5 104q0 31 27 57.5t82 33.5q-43 11 -65.5 40t-22.5 56q0 37 29.5 72.5t99.5 44.5q-54 17 -91 68.5t-37 107.5q0 84 61.5 132.5t149.5 48.5q68 0 122 -24l201 19q9 -29 9 -45q0 -33 -33 -33q-24 0 -74 16
l-60 18q64 -51 64 -142zM318 -68h-101q-42 0 -61 2q-46 -27 -46 -77q0 -111 152 -111q62 0 113 31t51 82q0 43 -28 58t-80 15zM327 320q0 68 -18 110.5t-55 42.5q-39 0 -58.5 -42t-19.5 -110q0 -67 18 -110t55 -43q29 0 47.5 26.5t24.5 58.5t6 67z" />
    <glyph glyph-name="Mcircumflex" horiz-adv-x="1066" 
d="M384 828l142 197h46l141 -196l-20 -18l-144 101l-145 -102zM773 108l-23 501l-223 -609h-63l-232 609l-18 -429q-4 -96 14.5 -124t98.5 -28v-28h-307v28q77 0 102.5 28.5t30.5 120.5l26 499q1 23 -8.5 38t-27 21t-31.5 8t-31 2v28h248l215 -573l206 573h243v-28
q-56 0 -77.5 -17t-19.5 -49l21 -416l9 -155q2 -39 17.5 -54.5t49.5 -19.5l48 -6v-28h-373v28l38 6q36 4 52.5 19.5t14.5 54.5z" />
    <glyph glyph-name="mcircumflex" horiz-adv-x="975" 
d="M313 575l142 197h46l141 -196l-20 -18l-144 101l-145 -102zM737 89q0 13 0.5 55.5t0.5 69.5v81q0 29 -1.5 47t-8.5 40.5t-23.5 34t-43.5 11.5q-26 0 -55.5 -20t-41.5 -57q2 -26 2 -41v-96l2 -125q1 -28 7 -40t25 -15l42 -6v-28h-295v28l42 6q33 4 33 55q0 13 0.5 55.5
t0.5 69.5v81q0 29 -1.5 47t-8.5 40.5t-23.5 34t-43.5 11.5q-26 0 -52.5 -19t-42.5 -56v-173l1 -91q0 -28 6.5 -40t26.5 -15l42 -6v-28h-305v28l42 6q26 4 33.5 15t8.5 40q2 52 2 98v131l-2 78q-1 29 -8.5 40t-33.5 15l-42 6v28l223 13l3 -105q53 115 163 115q121 0 147 -121
q24 59 69.5 90t98.5 31q155 0 155 -198v-96l2 -125q1 -29 8.5 -40t33.5 -15l42 -6v-28h-305v28l42 6q33 4 33 55z" />
    <glyph glyph-name="Mmacron" horiz-adv-x="1066" 
d="M348 863v55h374v-55h-374zM773 108l-23 501l-223 -609h-63l-232 609l-18 -429q-4 -96 14.5 -124t98.5 -28v-28h-307v28q77 0 102.5 28.5t30.5 120.5l26 499q1 23 -8.5 38t-27 21t-31.5 8t-31 2v28h248l215 -573l206 573h243v-28q-56 0 -77.5 -17t-19.5 -49l21 -416
l9 -155q2 -39 17.5 -54.5t49.5 -19.5l48 -6v-28h-373v28l38 6q36 4 52.5 19.5t14.5 54.5z" />
    <glyph glyph-name="mmacron" horiz-adv-x="975" 
d="M288 620v55h374v-55h-374zM737 89q0 13 0.5 55.5t0.5 69.5v81q0 29 -1.5 47t-8.5 40.5t-23.5 34t-43.5 11.5q-26 0 -55.5 -20t-41.5 -57q2 -26 2 -41v-96l2 -125q1 -28 7 -40t25 -15l42 -6v-28h-295v28l42 6q33 4 33 55q0 13 0.5 55.5t0.5 69.5v81q0 29 -1.5 47
t-8.5 40.5t-23.5 34t-43.5 11.5q-26 0 -52.5 -19t-42.5 -56v-173l1 -91q0 -28 6.5 -40t26.5 -15l42 -6v-28h-305v28l42 6q26 4 33.5 15t8.5 40q2 52 2 98v131l-2 78q-1 29 -8.5 40t-33.5 15l-42 6v28l223 13l3 -105q53 115 163 115q121 0 147 -121q24 59 69.5 90t98.5 31
q155 0 155 -198v-96l2 -125q1 -29 8.5 -40t33.5 -15l42 -6v-28h-305v28l42 6q33 4 33 55z" />
    <glyph glyph-name="Ncircumflex" horiz-adv-x="880" 
d="M287 828l142 197h46l141 -196l-20 -18l-144 101l-145 -102zM696 228v363q0 94 -22.5 120t-105.5 34v28h312v-28q-42 -5 -62.5 -10.5t-37 -21.5t-21.5 -44t-5 -78v-605h-48l-498 604v-408q0 -94 22.5 -120t105.5 -34v-28h-312v28q42 5 62.5 10.5t37 21.5t21.5 44t5 78v478
q-27 32 -40 45.5t-36.5 26.5t-49.5 13v28h224z" />
    <glyph glyph-name="ncircumflex" horiz-adv-x="660" 
d="M174 575l142 197h46l141 -196l-20 -18l-144 101l-145 -102zM22 485l223 13l3 -105q53 115 163 115q155 0 155 -198v-96l2 -125q1 -29 8.5 -40t33.5 -15l42 -6v-28h-305v28l42 6q33 4 33 55q0 13 0.5 55.5t0.5 69.5v81q0 29 -1.5 47t-8.5 40.5t-23.5 34t-43.5 11.5
q-26 0 -52.5 -19t-42.5 -56v-173l1 -91q0 -28 6.5 -40t26.5 -15l42 -6v-28h-305v28l42 6q26 4 33.5 15t8.5 40q2 52 2 98v90l-2 119q-1 29 -8.5 40t-33.5 15l-42 6v28z" />
    <glyph glyph-name="Ndieresis" horiz-adv-x="880" 
d="M217 923q0 35 24.5 59.5t59.5 24.5q37 0 61.5 -24.5t24.5 -59.5q0 -37 -24.5 -61.5t-61.5 -24.5q-35 0 -59.5 24.5t-24.5 61.5zM507 923q0 35 24.5 59.5t59.5 24.5q37 0 61.5 -24.5t24.5 -59.5q0 -37 -24.5 -61.5t-61.5 -24.5q-35 0 -59.5 24.5t-24.5 61.5zM696 228v363
q0 94 -22.5 120t-105.5 34v28h312v-28q-42 -5 -62.5 -10.5t-37 -21.5t-21.5 -44t-5 -78v-605h-48l-498 604v-408q0 -94 22.5 -120t105.5 -34v-28h-312v28q42 5 62.5 10.5t37 21.5t21.5 44t5 78v478q-27 32 -40 45.5t-36.5 26.5t-49.5 13v28h224z" />
    <glyph glyph-name="ndieresis" horiz-adv-x="660" 
d="M130 670q0 35 24.5 59.5t59.5 24.5q37 0 61.5 -24.5t24.5 -59.5q0 -37 -24.5 -61.5t-61.5 -24.5q-35 0 -59.5 24.5t-24.5 61.5zM360 670q0 35 24.5 59.5t59.5 24.5q37 0 61.5 -24.5t24.5 -59.5q0 -37 -24.5 -61.5t-61.5 -24.5q-35 0 -59.5 24.5t-24.5 61.5zM22 485
l223 13l3 -105q53 115 163 115q155 0 155 -198v-96l2 -125q1 -29 8.5 -40t33.5 -15l42 -6v-28h-305v28l42 6q33 4 33 55q0 13 0.5 55.5t0.5 69.5v81q0 29 -1.5 47t-8.5 40.5t-23.5 34t-43.5 11.5q-26 0 -52.5 -19t-42.5 -56v-173l1 -91q0 -28 6.5 -40t26.5 -15l42 -6v-28
h-305v28l42 6q26 4 33.5 15t8.5 40q2 52 2 98v90l-2 119q-1 29 -8.5 40t-33.5 15l-42 6v28z" />
    <glyph glyph-name="Nmacron" horiz-adv-x="880" 
d="M268 863v55h374v-55h-374zM696 228v363q0 94 -22.5 120t-105.5 34v28h312v-28q-42 -5 -62.5 -10.5t-37 -21.5t-21.5 -44t-5 -78v-605h-48l-498 604v-408q0 -94 22.5 -120t105.5 -34v-28h-312v28q42 5 62.5 10.5t37 21.5t21.5 44t5 78v478q-27 32 -40 45.5t-36.5 26.5
t-49.5 13v28h224z" />
    <glyph glyph-name="nmacron" horiz-adv-x="660" 
d="M136 620v55h374v-55h-374zM22 485l223 13l3 -105q53 115 163 115q155 0 155 -198v-96l2 -125q1 -29 8.5 -40t33.5 -15l42 -6v-28h-305v28l42 6q33 4 33 55q0 13 0.5 55.5t0.5 69.5v81q0 29 -1.5 47t-8.5 40.5t-23.5 34t-43.5 11.5q-26 0 -52.5 -19t-42.5 -56v-173l1 -91
q0 -28 6.5 -40t26.5 -15l42 -6v-28h-305v28l42 6q26 4 33.5 15t8.5 40q2 52 2 98v90l-2 119q-1 29 -8.5 40t-33.5 15l-42 6v28z" />
    <glyph glyph-name="Pmacron" horiz-adv-x="672" 
d="M168 863v55h374v-55h-374zM283 722v-338q32 -7 68 -7q79 0 130.5 44t51.5 137q0 168 -178 168q-40 0 -72 -4zM18 745v28q56 0 167.5 1.5t166.5 1.5q51 0 92.5 -4.5t86.5 -18t75 -36.5t50 -63t20 -94q0 -108 -78 -170t-187 -62q-64 0 -128 22v-68l3 -174q1 -40 19 -54
t68 -20l48 -6v-28h-403v28l48 6q35 4 51 19.5t16 54.5q1 59 1 175l-1 382q0 39 -16 54.5t-51 19.5z" />
    <glyph glyph-name="pmacron" horiz-adv-x="610" 
d="M106 620v55h374v-55h-374zM222 415v-348q23 -14 61 -14q75 0 107 55t32 137q0 93 -32 145t-87 52q-49 0 -81 -27zM79 -204q0 14 1 68.5t1 78.5v453q0 28 -8 39.5t-34 15.5l-42 6v28l220 13l1 -56q21 33 58 49.5t75 16.5q107 0 165 -72.5t58 -192.5q0 -106 -60.5 -181.5
t-160.5 -75.5q-88 0 -130 49v-93l2 -146q0 -28 11.5 -38.5t51.5 -16.5l42 -6v-28h-335v28l42 6q26 4 34 15.5t8 39.5z" />
    <glyph glyph-name="A.sc" horiz-adv-x="618" 
d="M327 561l203 -479q23 -54 88 -54v-28h-288v28q36 0 48 10t0 41l-28 71h-179l-9 -22q-12 -29 -12.5 -49.5t4.5 -30t19 -14.5t20.5 -5.5t19.5 -0.5v-28h-213v28q42 0 64.5 22t54.5 99l166 412h42zM263 375l-70 -170h136z" />
    <glyph glyph-name="B.sc" horiz-adv-x="610" 
d="M40 0v28l42 6q26 4 33.5 15t8.5 40q2 48 2 125v106l-2 125q-1 29 -8.5 40t-33.5 15l-42 6v28q70 -1 168.5 0.5t141.5 1.5q90 0 146 -30.5t56 -91.5q0 -44 -32 -79.5t-87 -47.5q70 -4 111 -42.5t41 -91.5q0 -153 -217 -153h-328zM268 257v-75l1 -112q0 -36 74 -36
q42 0 66.5 28t24.5 85q0 51 -30.5 80.5t-81.5 29.5h-54zM268 501v-207h32q49 0 77 25t28 76q0 108 -106 108q-9 0 -31 -2z" />
    <glyph glyph-name="C.sc" horiz-adv-x="629" 
d="M589 184l-17 -149q-91 -49 -212 -49q-153 0 -233 77t-80 202q0 131 86.5 208t228.5 77q88 0 208 -43l10 -136h-25q-54 137 -187 137q-76 0 -121.5 -61.5t-45.5 -182.5q0 -114 48.5 -175t129.5 -61q62 0 112 38t72 118h26z" />
    <glyph glyph-name="D.sc" horiz-adv-x="704" 
d="M269 185l1 -96q0 -31 22 -40.5t65 -9.5q67 0 111 55t44 180q0 68 -16 114t-46 69t-63 31.5t-77 8.5q-31 0 -41 -1v-311zM40 506v28q50 -1 155.5 0.5t137.5 1.5q331 0 331 -263q0 -131 -83.5 -202t-235.5 -71h-305v28l42 6q26 4 33.5 15t8.5 40q2 48 2 125v106l-2 125
q-1 29 -8.5 40t-33.5 15z" />
    <glyph glyph-name="E.sc" horiz-adv-x="591" 
d="M40 534h481v-152h-32q-5 56 -37.5 79.5t-106.5 23.5h-76v-186h57q39 0 55.5 20t20.5 62h30v-215h-31q-5 46 -21 68.5t-51 22.5h-60v-83l1 -75q0 -30 10.5 -41t44.5 -11h46q74 0 105 25.5t38 85.5h32v-158h-506v28l42 6q26 4 33.5 15t8.5 40q2 48 2 125v106l-2 125
q-1 29 -8.5 40t-33.5 15l-42 6v28z" />
    <glyph glyph-name="F.sc" horiz-adv-x="541" 
d="M40 0v28l42 6q26 4 33.5 15t8.5 40q2 48 2 125v106l-2 125q-1 29 -8.5 40t-33.5 15l-42 6v28h481v-151h-32q-5 56 -37.5 79.5t-106.5 23.5h-76v-187h57q39 0 55.5 20t20.5 62h30v-215h-31q-5 46 -21 68.5t-51 22.5h-60v-43l2 -125q1 -29 8.5 -40.5t33.5 -14.5l55 -6v-28
h-328z" />
    <glyph glyph-name="G.sc" horiz-adv-x="645" 
d="M592 143v-94q-39 -32 -105 -47.5t-134 -15.5q-153 0 -233 77t-80 202q0 131 86.5 208t228.5 77q88 0 208 -43l10 -136h-25q-54 137 -187 137q-76 0 -121.5 -61.5t-45.5 -182.5q0 -113 47 -174.5t120 -61.5q81 0 81 50v65q0 28 -8 39.5t-34 15.5l-42 6v28h275v-28l-8 -1
q-21 -3 -27 -16.5t-6 -43.5z" />
    <glyph glyph-name="H.sc" horiz-adv-x="752" 
d="M483 296v24l-2 125q-1 29 -8.5 40t-33.5 15l-42 6v28h315v-28l-42 -6q-26 -4 -33.5 -15t-8.5 -40q-2 -48 -2 -125v-106l2 -125q1 -29 8.5 -40t33.5 -15l42 -6v-28h-315v28l42 6q26 4 33.5 15t8.5 40q2 48 2 125v32h-214v-32l2 -125q1 -29 8.5 -40t33.5 -15l42 -6v-28
h-315v28l42 6q26 4 33.5 15t8.5 40q2 48 2 125v106l-2 125q-1 29 -8.5 40t-33.5 15l-42 6v28h315v-28l-42 -6q-26 -4 -33.5 -15t-8.5 -40q-2 -48 -2 -125v-24h214z" />
    <glyph glyph-name="I.sc" horiz-adv-x="395" 
d="M126 214v106l-2 125q-1 29 -8.5 40t-33.5 15l-42 6v28h315v-28l-42 -6q-26 -4 -33.5 -15t-8.5 -40q-2 -48 -2 -125v-106l2 -125q1 -29 8.5 -40t33.5 -15l42 -6v-28h-315v28l42 6q26 4 33.5 15t8.5 40q2 48 2 125z" />
    <glyph glyph-name="J.sc" horiz-adv-x="446" 
d="M197 238v100l-2 107q-1 29 -8.5 40.5t-33.5 14.5l-52 6v28h325v-28l-42 -6q-26 -4 -33.5 -15t-8.5 -40q-2 -30 -2 -107v-100q0 -60 -7 -103t-24.5 -78.5t-50.5 -53t-82 -17.5q-57 0 -106.5 25t-49.5 66q0 20 13.5 34.5t34.5 14.5q44 0 64 -54q13 -33 21 -44t17 -11
q17 0 22 55.5t5 165.5z" />
    <glyph glyph-name="K.sc" horiz-adv-x="707" 
d="M126 214v106l-2 125q-1 29 -8.5 40t-33.5 15l-42 6v28h315v-28l-42 -6q-26 -4 -33.5 -15t-8.5 -40q-2 -48 -2 -125v-61l143 162q34 33 32.5 58.5t-48.5 26.5v28h251v-29q-57 0 -97 -23t-82 -69l-81 -89l207 -234q51 -58 113 -64v-26h-315v28q25 0 37 5t10.5 19.5
t-22.5 38.5l-148 168v-45l2 -125q1 -29 8.5 -40t33.5 -15l42 -6v-28h-315v28l42 6q26 4 33.5 15t8.5 40q2 48 2 125z" />
    <glyph glyph-name="L.sc" horiz-adv-x="576" 
d="M359 534v-28l-48 -6q-26 -4 -34 -15.5t-8 -39.5v-270l1 -75q0 -30 10.5 -41t44.5 -11h46q74 0 105 25.5t38 85.5h32v-159h-506v28l42 6q26 4 33.5 15t8.5 40q2 48 2 125v106l-2 125q-1 29 -8.5 40t-33.5 15l-42 6v28h319z" />
    <glyph glyph-name="M.sc" horiz-adv-x="850" 
d="M128 153l15 292q2 28 -7 39.5t-35 15.5l-42 6v28h218l162 -360l161 360h200v-28l-42 -6q-26 -4 -35 -15.5t-7 -39.5l20 -356q2 -29 9 -40t33 -15l42 -6v-28h-313v28l42 6q26 4 34.5 15.5t7.5 39.5l-11 275l-162 -364h-52l-175 367l-9 -218q-3 -77 12 -97t75 -24v-28h-239
v28q40 4 57 11t27.5 32.5t13.5 81.5z" />
    <glyph glyph-name="N.sc" horiz-adv-x="700" 
d="M527 -14l-342 417v-270q0 -64 17 -84t74 -22v-27h-236v27q54 2 73.5 22t19.5 82v335q-40 43 -77 43v25h213l271 -336v205q0 63 -16.5 82.5t-74.5 21.5v27h236v-27q-55 -2 -74 -21.5t-19 -80.5v-419h-65z" />
    <glyph glyph-name="O.sc" horiz-adv-x="686" 
d="M491 267q0 122 -41.5 182t-106.5 60q-66 0 -107 -60t-41 -182q0 -121 41 -180t107 -59q65 0 106.5 59t41.5 180zM646 266q0 -125 -87.5 -202.5t-215.5 -77.5t-215.5 79t-87.5 204t87.5 203t215.5 78q127 0 215 -79.5t88 -204.5z" />
    <glyph glyph-name="P.sc" horiz-adv-x="583" 
d="M269 497v-240q17 -3 32 -3q55 0 82.5 32t27.5 102q0 65 -29 88t-80 23q-11 0 -33 -2zM363 0h-323v28l42 6q26 4 33.5 15t8.5 40q2 48 2 125v106l-2 125q-1 29 -8.5 40t-33.5 15l-42 6v28q46 -1 141 0.5t127 1.5q41 0 72.5 -2.5t65.5 -11.5t56 -24.5t36.5 -43t14.5 -65.5
q0 -165 -219 -165q-36 0 -65 7v-17l2 -125q1 -27 12 -39t38 -16l42 -6v-28z" />
    <glyph glyph-name="Q.sc" horiz-adv-x="686" 
d="M646 266q0 -80 -37.5 -141.5t-101.5 -97.5l50 -127l-17 -10l-167 98q-20 -2 -30 -2q-128 0 -215.5 79t-87.5 204t87.5 203t215.5 78q127 0 215 -79.5t88 -204.5zM491 267q0 122 -41.5 182t-106.5 60q-66 0 -107 -60t-41 -182q0 -121 41 -180t107 -59q65 0 106.5 59
t41.5 180z" />
    <glyph glyph-name="R.sc" horiz-adv-x="623" 
d="M40 506v28q45 0 130.5 1t128.5 1t80 -6t72 -20t55.5 -42t20.5 -67q0 -59 -41.5 -96t-115.5 -45q109 -5 147 -104l15 -40q19 -51 41 -71.5t64 -15.5l6 -24q-48 -19 -107 -19q-124 0 -160 142q-14 57 -38.5 81t-68.5 29v-24l2 -125q1 -27 12 -39t38 -16l42 -6v-28h-323v28
l42 6q26 4 33.5 15t8.5 40q2 48 2 125v106l-2 125q-1 29 -8.5 40t-33.5 15zM382 393q0 55 -29.5 80t-74.5 25h-9v-232q113 4 113 127z" />
    <glyph glyph-name="S.sc" horiz-adv-x="492" 
d="M241 29q48 0 77.5 22t29.5 60q0 35 -22.5 56.5t-69.5 37.5l-55 19q-135 47 -135 171q0 66 54 110.5t139 44.5q83 0 164 -32l6 -132h-27q-32 123 -137 123q-39 0 -64.5 -19.5t-25.5 -50.5q0 -57 74 -84l67 -24q71 -25 108.5 -66t37.5 -113q0 -73 -58.5 -119.5
t-152.5 -46.5q-101 0 -191 40v141h29q20 -76 53.5 -107t98.5 -31z" />
    <glyph glyph-name="T.sc" horiz-adv-x="587" 
d="M365 494v-280l2 -125q1 -29 8.5 -40t33.5 -15l47 -6v-28h-325v28l47 6q26 4 33.5 15t8.5 40q2 48 2 125v280h-26q-134 0 -144 -126h-32v166h547v-166h-32q-10 126 -144 126h-26z" />
    <glyph glyph-name="U.sc" horiz-adv-x="647" 
d="M233 445v-248q0 -146 124 -146q145 0 145 165v161q0 69 -17.5 99.5t-71.5 30.5v27h234v-27q-51 0 -72 -31t-21 -97v-169q0 -111 -60 -167.5t-167 -56.5q-114 0 -176 55.5t-62 161.5v242q0 28 -8 39.5t-34 15.5l-42 6v28h315v-28l-42 -6q-26 -4 -35.5 -15.5t-9.5 -39.5z
" />
    <glyph glyph-name="V.sc" horiz-adv-x="561" 
d="M261 -27l-193 479q-23 54 -68 54v28h268v-28q-36 0 -48 -10t0 -41l105 -296l91 247q9 25 11.5 43.5t-3 29t-10 16.5t-17 8t-16.5 2.5t-16 0.5v28h196v-28q-28 0 -49.5 -23t-49.5 -98l-156 -412h-45z" />
    <glyph glyph-name="W.sc" horiz-adv-x="839" 
d="M559 -27l-142 370l-131 -370h-45l-173 479q-20 54 -68 54v28h268v-28q-35 0 -46 -9.5t-2 -41.5l85 -296l84 257l-13 36q-20 54 -78 54v28h278v-28q-36 0 -48 -10t0 -41l95 -296l71 247q7 24 8 42t-3.5 28t-10 17t-15.5 9.5t-15.5 3t-14.5 0.5v28h196v-28q-29 0 -52 -23
t-47 -98l-136 -412h-45z" />
    <glyph glyph-name="X.sc" horiz-adv-x="623" 
d="M157 148l88 99l-151 219q-10 14 -20.5 22.5t-16.5 11t-19 4.5t-17 3v27h304v-28q-27 -2 -41.5 -5t-20 -8t-3.5 -11t9 -17l73 -108l22 25q92 104 47 120q-11 4 -32 4v28h217v-28q-42 -3 -75 -28t-104 -106l-48 -54l171 -250q12 -18 25 -26t34.5 -11.5t23.5 -3.5v-27h-312
v27q51 4 61 13.5t-5 29.5l-95 137l-56 -64q-37 -43 -48.5 -68t1 -36.5t49.5 -11.5v-27h-218v28q40 5 66 25.5t91 94.5z" />
    <glyph glyph-name="Y.sc" horiz-adv-x="566" 
d="M412 320l-60 -106l2 -125q1 -29 8.5 -40t33.5 -15l47 -6v-28h-325v28l47 6q26 4 33.5 15t8.5 40q2 48 2 125l-133 252q-5 9 -10 16t-11 11l-10.5 7t-12 4t-10.5 1.5t-11.5 0.5h-10.5v28h300v-28q-51 -4 -61.5 -12.5t2.5 -30.5l94 -192l75 137q18 33 23 54.5t-4.5 30
t-19 10.5t-26.5 3v28h183v-28q-34 -1 -58.5 -31t-95.5 -155z" />
    <glyph glyph-name="Z.sc" horiz-adv-x="536" 
d="M20 8l283 483h-50q-60 0 -93 -13.5t-45 -35.5t-16 -62h-30l6 154h406l5 -9l-283 -484h104q43 0 72 10t44 28.5t21 37t9 44.5h29v-161h-457z" />
    <glyph glyph-name="AE.sc" horiz-adv-x="922" 
d="M381 534h471v-152h-32q-5 56 -37.5 79.5t-106.5 23.5h-76v-186h57q39 0 55.5 20t20.5 62h30v-215h-31q-5 46 -21 68.5t-51 22.5h-60v-83l1 -75q0 -30 10.5 -41t44.5 -11h46q74 0 105 25.5t38 85.5h32v-158h-496v28l42 6q26 4 33.5 15t8.5 40q1 23 1 61h-246l-18 -22
q-24 -29 -33 -49.5t-8 -30t13 -14.5t18.5 -5.5t19.5 -0.5v-28h-212v28q42 0 73.5 22t94.5 99l280 343q-7 5 -25 8l-42 6v28zM467 320l-2 125v3l-200 -243h202v9v106z" />
    <glyph glyph-name="OE.sc" horiz-adv-x="914" 
d="M459 534h385v-152h-32q-5 56 -37.5 79.5t-106.5 23.5h-76v-186h57q39 0 55.5 20t20.5 62h30v-215h-31q-5 46 -21 68.5t-51 22.5h-60v-83l1 -75q0 -30 10.5 -41t44.5 -11h46q74 0 105 25.5t38 85.5h32v-158h-410v37q-61 -37 -132 -37q-121 0 -204 75t-83 193
q0 119 82.5 192.5t204.5 73.5q73 0 132 -37v37zM459 266q0 113 -36.5 168.5t-95.5 55.5t-95.5 -55.5t-36.5 -168.5q0 -112 36.5 -166.5t95.5 -54.5t95.5 54.5t36.5 166.5z" />
    <glyph glyph-name="Ccedilla.sc" horiz-adv-x="629" 
d="M589 184l-17 -149q-87 -47 -209 -49l-54 -80q34 26 67 26t53.5 -18.5t20.5 -52.5q0 -51 -60.5 -84.5t-127.5 -38.5l-3 18q44 9 73 41t29 63q0 17 -9.5 26.5t-24.5 9.5q-16 0 -30 -11l-24 19l54 83q-137 9 -208.5 84.5t-71.5 193.5q0 131 86.5 208t228.5 77q88 0 208 -43
l10 -136h-25q-54 137 -187 137q-76 0 -121.5 -61.5t-45.5 -182.5q0 -114 48.5 -175t129.5 -61q62 0 112 38t72 118h26z" />
    <glyph glyph-name="Scaron.sc" horiz-adv-x="492" 
d="M241 29q48 0 77.5 22t29.5 60q0 35 -22.5 56.5t-69.5 37.5l-55 19q-135 47 -135 171q0 66 54 110.5t139 44.5q83 0 164 -32l6 -132h-27q-32 123 -137 123q-39 0 -64.5 -19.5t-25.5 -50.5q0 -57 74 -84l67 -24q71 -25 108.5 -66t37.5 -113q0 -73 -58.5 -119.5
t-152.5 -46.5q-101 0 -191 40v141h29q20 -76 53.5 -107t98.5 -31zM430 765l-146 -197h-39l-144 196l20 18l144 -105l145 106z" />
    <glyph glyph-name="Yacute.sc" horiz-adv-x="566" 
d="M412 320l-60 -106l2 -125q1 -29 8.5 -40t33.5 -15l47 -6v-28h-325v28l47 6q26 4 33.5 15t8.5 40q2 48 2 125l-133 252q-5 9 -10 16t-11 11l-10.5 7t-12 4t-10.5 1.5t-11.5 0.5h-10.5v28h300v-28q-51 -4 -61.5 -12.5t2.5 -30.5l94 -192l75 137q18 33 23 54.5t-4.5 30
t-19 10.5t-26.5 3v28h183v-28q-34 -1 -58.5 -31t-95.5 -155zM229 564l81 209h166l-218 -209h-29z" />
    <glyph glyph-name="Zcaron.sc" horiz-adv-x="536" 
d="M20 8l283 483h-50q-60 0 -93 -13.5t-45 -35.5t-16 -62h-30l6 154h406l5 -9l-283 -484h104q43 0 72 10t44 28.5t21 37t9 44.5h29v-161h-457zM452 765l-146 -197h-39l-144 196l20 18l144 -105l145 106z" />
    <glyph glyph-name="Aacute.sc" horiz-adv-x="618" 
d="M327 561l203 -479q23 -54 88 -54v-28h-288v28q36 0 48 10t0 41l-28 71h-179l-9 -22q-12 -29 -12.5 -49.5t4.5 -30t19 -14.5t20.5 -5.5t19.5 -0.5v-28h-213v28q42 0 65 22t54 99l166 412h42zM215 564l81 209h166l-218 -209h-29zM263 375l-70 -170h136z" />
    <glyph glyph-name="Agrave.sc" horiz-adv-x="618" 
d="M327 561l203 -479q23 -54 88 -54v-28h-288v28q36 0 48 10t0 41l-28 71h-179l-9 -22q-12 -29 -12.5 -49.5t4.5 -30t19 -14.5t20.5 -5.5t19.5 -0.5v-28h-213v28q42 0 65 22t54 99l166 412h42zM321 773l81 -209h-29l-218 209h166zM263 375l-70 -170h136z" />
    <glyph glyph-name="Acircumflex.sc" horiz-adv-x="618" 
d="M327 561l203 -479q23 -54 88 -54v-28h-288v28q36 0 48 10t0 41l-28 71h-179l-9 -22q-12 -29 -12.5 -49.5t4.5 -30t19 -14.5t20.5 -5.5t19.5 -0.5v-28h-213v28q42 0 65 22t54 99l166 412h42zM144 575l142 197h46l141 -196l-20 -18l-144 101l-145 -102zM263 375l-70 -170
h136z" />
    <glyph glyph-name="Adieresis.sc" horiz-adv-x="618" 
d="M327 561l203 -479q23 -54 88 -54v-28h-288v28q36 0 48 10t0 41l-28 71h-179l-9 -22q-12 -29 -12.5 -49.5t4.5 -30t19 -14.5t20.5 -5.5t19.5 -0.5v-28h-213v28q42 0 65 22t54 99l166 412h42zM109 670q0 35 24.5 59.5t59.5 24.5q37 0 61.5 -24.5t24.5 -59.5
q0 -37 -24.5 -61.5t-61.5 -24.5q-35 0 -59.5 24.5t-24.5 61.5zM339 670q0 35 24.5 59.5t59.5 24.5q37 0 61.5 -24.5t24.5 -59.5q0 -37 -24.5 -61.5t-61.5 -24.5q-35 0 -59.5 24.5t-24.5 61.5zM263 375l-70 -170h136z" />
    <glyph glyph-name="Atilde.sc" horiz-adv-x="618" 
d="M327 561l203 -479q23 -54 88 -54v-28h-288v28q36 0 48 10t0 41l-28 71h-179l-9 -22q-12 -29 -12.5 -49.5t4.5 -30t19 -14.5t20.5 -5.5t19.5 -0.5v-28h-213v28q42 0 65 22t54 99l166 412h42zM102 608q25 70 49 106.5t63 36.5q36 0 106.5 -35.5t102.5 -35.5q41 0 71 42
l22 -10q-26 -69 -50.5 -104t-63.5 -35q-41 0 -110 35t-97 35q-41 0 -72 -46zM263 375l-70 -170h136z" />
    <glyph glyph-name="Aring.sc" horiz-adv-x="618" 
d="M411 657q0 -36 -24 -63.5t-60 -33.5l203 -478q23 -54 88 -54v-28h-288v28q36 0 48 10t0 41l-28 71h-179l-9 -22q-12 -29 -12.5 -49.5t4.5 -30t19 -14.5t20.5 -5.5t19.5 -0.5v-28h-213v28q42 0 65 22t54 99l166 412q-34 8 -56 34.5t-22 61.5q0 41 30 69.5t72 28.5
t72 -28.5t30 -69.5zM263 375l-70 -170h136zM363 657q0 27 -15 41t-39 14t-38.5 -15t-14.5 -40t14 -40t39 -15q54 0 54 55z" />
    <glyph glyph-name="Eacute.sc" horiz-adv-x="591" 
d="M40 534h481v-152h-32q-5 56 -37.5 79.5t-106.5 23.5h-76v-186h57q39 0 55.5 20t20.5 62h30v-215h-31q-5 46 -21 68.5t-51 22.5h-60v-83l1 -75q0 -30 10.5 -41t44.5 -11h46q74 0 105 25.5t38 85.5h32v-158h-506v28l42 6q26 4 33.5 15t8.5 40q2 48 2 125v106l-2 125
q-1 29 -8.5 40t-33.5 15l-42 6v28zM212 564l81 209h166l-218 -209h-29z" />
    <glyph glyph-name="Egrave.sc" horiz-adv-x="591" 
d="M40 534h481v-152h-32q-5 56 -37.5 79.5t-106.5 23.5h-76v-186h57q39 0 55.5 20t20.5 62h30v-215h-31q-5 46 -21 68.5t-51 22.5h-60v-83l1 -75q0 -30 10.5 -41t44.5 -11h46q74 0 105 25.5t38 85.5h32v-158h-506v28l42 6q26 4 33.5 15t8.5 40q2 48 2 125v106l-2 125
q-1 29 -8.5 40t-33.5 15l-42 6v28zM304 773l81 -209h-29l-218 209h166z" />
    <glyph glyph-name="Ecircumflex.sc" horiz-adv-x="591" 
d="M40 534h481v-152h-32q-5 56 -37.5 79.5t-106.5 23.5h-76v-186h57q39 0 55.5 20t20.5 62h30v-215h-31q-5 46 -21 68.5t-51 22.5h-60v-83l1 -75q0 -30 10.5 -41t44.5 -11h46q74 0 105 25.5t38 85.5h32v-158h-506v28l42 6q26 4 33.5 15t8.5 40q2 48 2 125v106l-2 125
q-1 29 -8.5 40t-33.5 15l-42 6v28zM131 575l142 197h46l141 -196l-20 -18l-144 101l-145 -102z" />
    <glyph glyph-name="Edieresis.sc" horiz-adv-x="591" 
d="M40 534h481v-152h-32q-5 56 -37.5 79.5t-106.5 23.5h-76v-186h57q39 0 55.5 20t20.5 62h30v-215h-31q-5 46 -21 68.5t-51 22.5h-60v-83l1 -75q0 -30 10.5 -41t44.5 -11h46q74 0 105 25.5t38 85.5h32v-158h-506v28l42 6q26 4 33.5 15t8.5 40q2 48 2 125v106l-2 125
q-1 29 -8.5 40t-33.5 15l-42 6v28zM103 670q0 35 24.5 59.5t59.5 24.5q37 0 61.5 -24.5t24.5 -59.5q0 -37 -24.5 -61.5t-61.5 -24.5q-35 0 -59.5 24.5t-24.5 61.5zM333 670q0 35 24.5 59.5t59.5 24.5q37 0 61.5 -24.5t24.5 -59.5q0 -37 -24.5 -61.5t-61.5 -24.5
q-35 0 -59.5 24.5t-24.5 61.5z" />
    <glyph glyph-name="Ntilde.sc" horiz-adv-x="700" 
d="M527 -14l-342 417v-270q0 -64 17 -84t74 -22v-27h-236v27q54 2 73.5 22t19.5 82v335q-40 43 -77 43v25h213l271 -336v205q0 63 -16.5 82.5t-74.5 21.5v27h236v-27q-55 -2 -74 -21.5t-19 -80.5v-419h-65zM173 608q25 70 49 106.5t63 36.5q36 0 106.5 -35.5t102.5 -35.5
q41 0 71 42l22 -10q-26 -69 -50.5 -104t-63.5 -35q-41 0 -110 35t-97 35q-41 0 -72 -46z" />
    <glyph glyph-name="Oacute.sc" horiz-adv-x="686" 
d="M491 267q0 122 -41.5 182t-106.5 60q-66 0 -107 -60t-41 -182q0 -121 41 -180t107 -59q65 0 106.5 59t41.5 180zM646 266q0 -125 -87.5 -202.5t-215.5 -77.5t-215.5 79t-87.5 204t87.5 203t215.5 78q127 0 215 -79.5t88 -204.5zM249 564l81 209h166l-218 -209h-29z" />
    <glyph glyph-name="Ograve.sc" horiz-adv-x="686" 
d="M491 267q0 122 -41.5 182t-106.5 60q-66 0 -107 -60t-41 -182q0 -121 41 -180t107 -59q65 0 106.5 59t41.5 180zM646 266q0 -125 -87.5 -202.5t-215.5 -77.5t-215.5 79t-87.5 204t87.5 203t215.5 78q127 0 215 -79.5t88 -204.5zM355 773l81 -209h-29l-218 209h166z" />
    <glyph glyph-name="Ocircumflex.sc" horiz-adv-x="686" 
d="M491 267q0 122 -41.5 182t-106.5 60q-66 0 -107 -60t-41 -182q0 -121 41 -180t107 -59q65 0 106.5 59t41.5 180zM646 266q0 -125 -87.5 -202.5t-215.5 -77.5t-215.5 79t-87.5 204t87.5 203t215.5 78q127 0 215 -79.5t88 -204.5zM178 575l142 197h46l141 -196l-20 -18
l-144 101l-145 -102z" />
    <glyph glyph-name="Odieresis.sc" horiz-adv-x="686" 
d="M491 267q0 122 -41.5 182t-106.5 60q-66 0 -107 -60t-41 -182q0 -121 41 -180t107 -59q65 0 106.5 59t41.5 180zM646 266q0 -125 -87.5 -202.5t-215.5 -77.5t-215.5 79t-87.5 204t87.5 203t215.5 78q127 0 215 -79.5t88 -204.5zM143 670q0 35 24.5 59.5t59.5 24.5
q37 0 61.5 -24.5t24.5 -59.5q0 -37 -24.5 -61.5t-61.5 -24.5q-35 0 -59.5 24.5t-24.5 61.5zM373 670q0 35 24.5 59.5t59.5 24.5q37 0 61.5 -24.5t24.5 -59.5q0 -37 -24.5 -61.5t-61.5 -24.5q-35 0 -59.5 24.5t-24.5 61.5z" />
    </font>
</defs>
</svg>
