<?xml version="1.0" standalone="no"?>
<!DOCTYPE svg PUBLIC "-//W3C//DTD SVG 1.1//EN" "http://www.w3.org/Graphics/SVG/1.1/DTD/svg11.dtd" >
<svg xmlns="http://www.w3.org/2000/svg" xmlns:xlink="http://www.w3.org/1999/xlink" version="1.1">
<metadata>
Created by FontForge 20170731 at Tue Mar 15 20:25:17 2016
 By Aleksey,,,
Copyright (c) 2015 by Noel Leu. All rights reserved.
</metadata>
<defs>
<font id="Walfork-Regular" horiz-adv-x="0" >
  <font-face 
    font-family="Walfork"
    font-weight="400"
    font-stretch="normal"
    units-per-em="1000"
    panose-1="0 0 5 0 0 0 0 0 0 0"
    ascent="700"
    descent="-300"
    x-height="453"
    cap-height="700"
    bbox="-634 -328 1145 907"
    underline-thickness="50"
    underline-position="-150"
    unicode-range="U+0020-FB02"
  />
<missing-glyph horiz-adv-x="800" 
d="M208.5 34q-82.5 51 -127.5 135.5t-45 180.5t45 180.5t127.5 135.5t191.5 51t191.5 -51t127.5 -135.5t45 -180.5t-45 -180.5t-127.5 -135.5t-191.5 -51t-191.5 51zM570 52q78 46 123.5 125t45.5 173q0 90 -44.5 169.5t-122.5 127.5t-172 48q-95 0 -173 -48t-122.5 -127.5
t-44.5 -169.5q0 -94 45.5 -173t123.5 -125t171 -46q92 0 170 46zM213.5 470q-12.5 13 -12.5 30q0 18 12.5 30.5t29.5 12.5q18 0 30.5 -12.5t12.5 -30.5q0 -17 -12.5 -30t-30.5 -13q-17 0 -29.5 13zM510.5 470q-12.5 13 -12.5 30q0 18 12.5 30.5t29.5 12.5q18 0 30.5 -12.5
t12.5 -30.5q0 -17 -12.5 -30t-30.5 -13q-17 0 -29.5 13zM398 527l-110 -243h178v-25h-247zM158 259l23 13q11 6 13 17.5t2 39.5h17q0 -34 -4.5 -48t-15.5 -21l-22 -13q-23 -13 -23 -40h-16q0 38 26 52zM600 161q4 16 4 20q0 13 -17 21l-41 20q-39 20 -39 58q0 18 8 40l15 -5
q-7 -23 -7 -35q0 -31 34 -47l40 -19q23 -10 23 -33q0 -8 -4 -24zM267 104.5q-49 38.5 -99 123.5q7 -4 45.5 -27.5t73 -33.5t69.5 -10q57 0 118 8t102 29q1 0 3 2q-15 -32 -50.5 -62.5t-80 -49t-82.5 -18.5q-50 0 -99 38.5zM460.5 117.5q50.5 25.5 71.5 42.5q-38 -10 -33 -8
q-48 -11 -76.5 -15.5t-64.5 -4.5q-30 0 -69.5 11.5t-63.5 30.5q26 -42 69 -62t72 -20q44 0 94.5 25.5z" />
    <glyph glyph-name="fi" unicode="fi" horiz-adv-x="584" 
d="M118 381h-98v72h98v88q0 95 45.5 130t100.5 35q43 0 70 -11v-73q-30 8 -48 8q-36 0 -59.5 -17t-23.5 -70v-90h131v-72h-131v-381h-85v381zM423 453h85v-453h-85v453zM416 571q-20 20 -20 50t19.5 49.5t50.5 19.5q30 0 50 -19.5t20 -49.5t-20 -50t-50 -20t-50 20z" />
    <glyph glyph-name="fl" unicode="fl" horiz-adv-x="584" 
d="M118 381h-98v72h98v88q0 95 45.5 130t100.5 35q43 0 70 -11v-73q-30 8 -48 8q-36 0 -59.5 -17t-23.5 -70v-90h131v-72h-131v-381h-85v381zM423 700h85v-700h-85v700z" />
    <glyph glyph-name=".notdef" horiz-adv-x="800" 
d="M208.5 34q-82.5 51 -127.5 135.5t-45 180.5t45 180.5t127.5 135.5t191.5 51t191.5 -51t127.5 -135.5t45 -180.5t-45 -180.5t-127.5 -135.5t-191.5 -51t-191.5 51zM570 52q78 46 123.5 125t45.5 173q0 90 -44.5 169.5t-122.5 127.5t-172 48q-95 0 -173 -48t-122.5 -127.5
t-44.5 -169.5q0 -94 45.5 -173t123.5 -125t171 -46q92 0 170 46zM213.5 470q-12.5 13 -12.5 30q0 18 12.5 30.5t29.5 12.5q18 0 30.5 -12.5t12.5 -30.5q0 -17 -12.5 -30t-30.5 -13q-17 0 -29.5 13zM510.5 470q-12.5 13 -12.5 30q0 18 12.5 30.5t29.5 12.5q18 0 30.5 -12.5
t12.5 -30.5q0 -17 -12.5 -30t-30.5 -13q-17 0 -29.5 13zM398 527l-110 -243h178v-25h-247zM158 259l23 13q11 6 13 17.5t2 39.5h17q0 -34 -4.5 -48t-15.5 -21l-22 -13q-23 -13 -23 -40h-16q0 38 26 52zM600 161q4 16 4 20q0 13 -17 21l-41 20q-39 20 -39 58q0 18 8 40l15 -5
q-7 -23 -7 -35q0 -31 34 -47l40 -19q23 -10 23 -33q0 -8 -4 -24zM267 104.5q-49 38.5 -99 123.5q7 -4 45.5 -27.5t73 -33.5t69.5 -10q57 0 118 8t102 29q1 0 3 2q-15 -32 -50.5 -62.5t-80 -49t-82.5 -18.5q-50 0 -99 38.5zM460.5 117.5q50.5 25.5 71.5 42.5q-38 -10 -33 -8
q-48 -11 -76.5 -15.5t-64.5 -4.5q-30 0 -69.5 11.5t-63.5 30.5q26 -42 69 -62t72 -20q44 0 94.5 25.5z" />
    <glyph glyph-name=".null" 
 />
    <glyph glyph-name="nonmarkingreturn" horiz-adv-x="250" 
 />
    <glyph glyph-name="space" unicode=" " horiz-adv-x="253" 
 />
    <glyph glyph-name="exclam" unicode="!" horiz-adv-x="252" 
d="M83 700h85v-490h-85v490zM75 14.5q-21 21.5 -21 51.5t21 51t51 21t51 -21.5t21 -50.5q0 -30 -21 -51.5t-51 -21.5t-51 21.5z" />
    <glyph glyph-name="quotedbl" unicode="&#x22;" horiz-adv-x="340" 
d="M51 627v73h81v-73l-19 -178h-43zM201 627v73h81v-73l-19 -178h-43z" />
    <glyph glyph-name="numbersign" unicode="#" horiz-adv-x="537" 
d="M119 209h-96v67h105l20 148h-95v67h105l29 209h70l-28 -209h128l28 209h71l-29 -209h88v-67h-97l-21 -148h88v-67h-97l-30 -209h-70l29 209h-128l-29 -209h-70zM327 276l20 148h-128l-20 -148h128z" />
    <glyph glyph-name="dollar" unicode="$" horiz-adv-x="557" 
d="M463 42.5q-55 -49.5 -144 -57.5v-105h-65v105q-104 9 -162 69t-58 161h90q0 -74 44.5 -114t118.5 -40q63 0 102 27t39 85q0 51 -28.5 76.5t-83.5 42.5l-118 39q-143 42 -143 177q0 48 23.5 88t68.5 65t107 29v100h65v-102q84 -11 135 -64t52 -140h-90q-1 65 -38.5 98.5
t-101.5 33.5q-63 0 -97 -30t-34 -77q0 -45 34 -72t91 -44l111 -35q62 -20 99.5 -62.5t37.5 -120.5q0 -83 -55 -132.5z" />
    <glyph glyph-name="percent" unicode="%" horiz-adv-x="777" 
d="M120 18l472 682l63 -36l-472 -682zM100.5 369.5q-40.5 23.5 -62 62.5t-21.5 85t21.5 85t62 62.5t94.5 23.5q55 0 95.5 -23.5t62 -62.5t21.5 -85t-21.5 -85t-62 -62.5t-95.5 -23.5q-54 0 -94.5 23.5zM271.5 442.5q27.5 29.5 27.5 74.5q0 44 -27.5 74t-75.5 30t-76 -30
t-28 -74q0 -45 27.5 -74.5t76.5 -29.5q48 0 75.5 29.5zM486.5 18.5q-40.5 23.5 -62 62.5t-21.5 85t21.5 85t62 62.5t94.5 23.5q55 0 95.5 -23.5t62 -62.5t21.5 -85t-21.5 -85t-62 -62.5t-95.5 -23.5q-54 0 -94.5 23.5zM656.5 91.5q27.5 29.5 27.5 74.5q0 44 -27.5 74
t-75.5 30t-76 -30t-28 -74q0 -45 27.5 -74.5t76.5 -29.5q48 0 75.5 29.5z" />
    <glyph glyph-name="ampersand" unicode="&#x26;" horiz-adv-x="597" 
d="M156 11.5q-54 26.5 -84.5 74t-30.5 108.5q0 65 40 112.5t99 60.5q-58 16 -91 56t-33 100q0 57 28 100.5t78.5 67.5t117.5 24q101 0 164.5 -55t63.5 -157h-93q0 60 -34.5 97.5t-100.5 37.5q-57 0 -94 -31t-37 -84q0 -55 32 -86.5t98 -31.5h26v-81h-25q-75 0 -111 -35.5
t-36 -95.5q0 -55 40 -92t107 -37q69 0 109.5 44.5t40.5 123.5h-74v79h225v-79h-58q-1 -117 -67 -182t-176 -65q-70 0 -124 26.5z" />
    <glyph glyph-name="quotesingle" unicode="'" horiz-adv-x="174" 
d="M47 627v73h81v-73l-19 -178h-43z" />
    <glyph glyph-name="parenleft" unicode="(" horiz-adv-x="311" 
d="M115.5 -7.5q-60.5 119.5 -60.5 277.5t60.5 277t165.5 213l53 -49q-96 -92 -145 -199.5t-49 -241.5q0 -135 49 -242.5t145 -199.5l-53 -49q-105 94 -165.5 213.5z" />
    <glyph glyph-name="parenright" unicode=")" horiz-adv-x="311" 
d="M-23 -172q96 92 145 199.5t49 242.5q0 134 -49 241.5t-145 199.5l53 49q105 -94 165.5 -213t60.5 -277t-60.5 -277.5t-165.5 -213.5z" />
    <glyph glyph-name="asterisk" unicode="*" horiz-adv-x="421" 
d="M75 398l106 129l-148 39l18 54l141 -57l-11 154h60l-11 -154l141 57l18 -54l-148 -39l106 -129l-50 -35l-86 138l-86 -138z" />
    <glyph glyph-name="plus" unicode="+" horiz-adv-x="620" 
d="M267 246h-156v77h156v161h86v-161h157v-77h-157v-160h-86v160z" />
    <glyph glyph-name="comma" unicode="," horiz-adv-x="276" 
d="M59 -117v42q12 -2 36 -2q21 0 35.5 9t21.5 25q12 23 12 53q-14 -15 -40 -15q-29 0 -48 18.5t-19 49.5t20 50.5t52 19.5q35 0 62.5 -29.5t27.5 -83.5q0 -62 -33.5 -100.5t-93.5 -38.5q-24 0 -33 2z" />
    <glyph glyph-name="hyphen" unicode="-" horiz-adv-x="360" 
d="M33 323h294v-77h-294v77z" />
    <glyph glyph-name="period" unicode="." horiz-adv-x="270" 
d="M84 14.5q-21 21.5 -21 51.5t21 51t51 21t51 -21.5t21 -50.5q0 -30 -21 -51.5t-51 -21.5t-51 21.5z" />
    <glyph glyph-name="slash" unicode="/" horiz-adv-x="418" 
d="M3 -34l343 795l69 -30l-343 -795z" />
    <glyph glyph-name="zero" unicode="0" horiz-adv-x="617" 
d="M106.5 87.5q-58.5 98.5 -58.5 252.5t58.5 252.5t202.5 98.5t202 -98.5t58 -252.5t-58 -252.5t-202 -98.5t-202.5 98.5zM445 140q39 75 39 200t-39 200t-137 75q-97 0 -136 -75t-39 -200t39 -200t136 -75q98 0 137 75z" />
    <glyph glyph-name="one" unicode="1" horiz-adv-x="375" 
d="M174 488h-141v76q61 0 93 11t44 35.5t12 69.5h81v-680h-89v488z" />
    <glyph glyph-name="two" unicode="2" horiz-adv-x="550" 
d="M83.5 184.5q38.5 68.5 130.5 115.5l103 54q96 50 96 144q0 51 -33.5 83t-86.5 32q-66 0 -103 -42t-37 -116h-93q0 71 29 124.5t81.5 82.5t122.5 29q101 0 158 -50t57 -139q0 -65 -34.5 -118t-100.5 -88l-101 -55q-45 -24 -69.5 -45t-36 -47.5t-15.5 -67.5h357v-81h-463
q0 116 38.5 184.5z" />
    <glyph glyph-name="three" unicode="3" horiz-adv-x="551" 
d="M99.5 48.5q-64.5 59.5 -64.5 164.5h91q0 -70 40.5 -109t111.5 -39q62 0 101 34.5t39 89.5q0 61 -37.5 93.5t-107.5 32.5h-50v78h51q62 0 95 29.5t33 84.5q0 49 -34.5 79t-90.5 30q-63 0 -100 -34.5t-37 -93.5h-92q0 61 28 107t80 71t120 25q65 0 114 -23t76 -64.5
t27 -96.5q0 -57 -32.5 -96t-91.5 -55q63 -11 101 -56t38 -110q0 -59 -29 -105t-81.5 -71t-119.5 -25q-114 0 -178.5 59.5z" />
    <glyph glyph-name="four" unicode="4" horiz-adv-x="544" 
d="M329 221h-271v459h89v-378h182v201h89v-201h106v-81h-106v-221h-89v221z" />
    <glyph glyph-name="five" unicode="5" horiz-adv-x="565" 
d="M125.5 43.5q-63.5 54.5 -68.5 146.5h90q3 -55 42.5 -88t102.5 -33q65 0 105.5 43.5t40.5 113.5q0 68 -39 109t-105 41q-52 0 -87.5 -21.5t-51.5 -62.5h-85v388h413v-80h-332v-220q53 73 161 73q64 0 113 -28t76 -79.5t27 -119.5t-30 -122t-84 -84.5t-122 -30.5
q-103 0 -166.5 54.5z" />
    <glyph glyph-name="six" unicode="6" horiz-adv-x="537" 
d="M393.5 434.5q55.5 -30.5 87 -84.5t31.5 -123t-31.5 -123t-87 -84.5t-126.5 -30.5q-70 0 -125 30.5t-86 84.5t-31 123q0 73 36 131l2 3l9 13l207 294h106l-145 -204q9 1 27 1q71 0 126.5 -30.5zM380 112q42 43 42 115t-42 115t-112 43q-69 0 -111 -43.5t-42 -114.5
t42 -114.5t111 -43.5q70 0 112 43z" />
    <glyph glyph-name="seven" unicode="7" horiz-adv-x="491" 
d="M375 599h-337v81h467l-353 -680h-95z" />
    <glyph glyph-name="eight" unicode="8" horiz-adv-x="563" 
d="M156 13q-54 24 -83.5 69t-29.5 104q0 64 34 108.5t94 61.5q-50 15 -80.5 56t-30.5 96q0 53 28.5 95t79 65t114.5 23t114.5 -23t78.5 -65t28 -95q0 -55 -30 -96t-81 -56q60 -17 94.5 -62t34.5 -108q0 -59 -29.5 -104t-83.5 -69t-126 -24t-126 24zM376 422.5
q35 30.5 35 81.5t-35.5 82.5t-93.5 31.5t-94 -31.5t-36 -82.5t35.5 -81.5t94.5 -30.5t94 30.5zM389 100q40 35 40 94q0 57 -40 92t-107 35t-107.5 -35t-40.5 -92q0 -59 40.5 -94t107.5 -35t107 35z" />
    <glyph glyph-name="nine" unicode="9" horiz-adv-x="537" 
d="M474 319l-9 -13l-207 -294h-106l145 204q-9 -1 -27 -1q-71 0 -126.5 30.5t-87 84.5t-31.5 123t31.5 123t87 84.5t126.5 30.5q70 0 125 -30.5t86 -84.5t31 -123q0 -73 -36 -131zM380 338.5q42 43.5 42 114.5t-42 114.5t-111 43.5q-70 0 -112 -43t-42 -115t42 -115t112 -43
q69 0 111 43.5z" />
    <glyph glyph-name="colon" unicode=":" horiz-adv-x="270" 
d="M84 14.5q-21 21.5 -21 51.5t21 51t51 21t51 -21.5t21 -50.5q0 -30 -21 -51.5t-51 -21.5t-51 21.5zM84 340.5q-21 21.5 -21 51.5t21 51t51 21t51 -21.5t21 -50.5q0 -30 -21 -51.5t-51 -21.5t-51 21.5z" />
    <glyph glyph-name="semicolon" unicode=";" horiz-adv-x="276" 
d="M59 -117v42q12 -2 36 -2q21 0 35.5 9t21.5 25q12 23 12 53q-14 -15 -40 -15q-29 0 -48 18.5t-19 49.5t20 50.5t52 19.5q35 0 62.5 -29.5t27.5 -83.5q0 -62 -33.5 -100.5t-93.5 -38.5q-24 0 -33 2zM84 339.5q-21 21.5 -21 51.5t21 51t51 21t51 -21.5t21 -50.5
q0 -30 -21 -51.5t-51 -21.5t-51 21.5z" />
    <glyph glyph-name="less" unicode="&#x3c;" horiz-adv-x="620" 
d="M56 253v62l507 180v-81l-381 -130l381 -131v-81z" />
    <glyph glyph-name="equal" unicode="=" horiz-adv-x="620" 
d="M108 403h404v-77h-404v77zM108 241h404v-77h-404v77z" />
    <glyph glyph-name="greater" unicode="&#x3e;" horiz-adv-x="620" 
d="M56 153l381 131l-381 130v81l507 -180v-62l-507 -181v81z" />
    <glyph glyph-name="question" unicode="?" horiz-adv-x="479" 
d="M177 225q0 51 13 81t52 58l51 36q33 24 50.5 53.5t17.5 71.5q0 50 -31.5 81t-84.5 31q-63 0 -101 -37.5t-38 -105.5h-90q0 104 62.5 163t170.5 59q97 0 150.5 -52t53.5 -136q0 -60 -26 -101.5t-74 -77.5l-43 -32q-28 -21 -38 -39.5t-10 -51.5v-16h-85v15zM168 14.5
q-21 21.5 -21 51.5t21 51t51 21t51 -21.5t21 -50.5q0 -30 -21 -51.5t-51 -21.5t-51 21.5z" />
    <glyph glyph-name="at" unicode="@" horiz-adv-x="889" 
d="M234.5 -137q-97.5 57 -147 150t-49.5 200q0 123 53 215.5t145.5 142.5t209.5 50q124 0 215.5 -44t141 -127.5t49.5 -198.5q0 -157 -41.5 -224.5t-128.5 -67.5q-53 0 -84.5 28t-39.5 82v19q-19 -36 -57 -58t-82 -22q-62 0 -108 28t-70 74.5t-24 102.5t25 103t71 75t106 28
q44 0 82 -22t57 -58v71h72v-291q0 -101 64 -101q43 0 66 49.5t23 183.5q0 95 -41 164.5t-117.5 107t-178.5 37.5q-98 0 -175.5 -42.5t-121 -122t-43.5 -185.5q0 -89 41.5 -167.5t124 -127t197.5 -48.5q112 0 208 50l27 -53q-107 -58 -235 -58q-137 0 -234.5 57zM492.5 92
q31.5 19 48.5 51t17 70q0 59 -38 100t-99 41q-58 0 -95 -41t-37 -100q0 -38 16.5 -70t47 -51t68.5 -19q40 0 71.5 19z" />
    <glyph glyph-name="A" unicode="A" horiz-adv-x="573" 
d="M432 108h-291l-34 -108h-94l241 700h65l242 -700h-94zM406 189l-119 374l-120 -374h239z" />
    <glyph glyph-name="B" unicode="B" horiz-adv-x="579" 
d="M80 700h230q101 0 159.5 -48.5t58.5 -132.5q0 -69 -35 -109t-98 -53q60 -7 100.5 -51t40.5 -115q0 -89 -58 -140t-158 -51h-240v700zM314 394q57 0 90.5 30.5t33.5 83.5t-34.5 83t-96.5 30h-137v-227h144zM318 79q60 0 94.5 32t34.5 89q0 51 -34 83t-87 32h-156v-236h148
z" />
    <glyph glyph-name="C" unicode="C" horiz-adv-x="769" 
d="M207.5 32q-82.5 48 -126 131t-43.5 187q0 100 43.5 183.5t127 133t198.5 49.5q92 0 164.5 -35t115 -94.5t49.5 -131.5h-98q-16 82 -77 131t-162 49q-83 0 -143.5 -39t-92 -104.5t-31.5 -143.5q0 -81 33 -145.5t94.5 -101t145.5 -36.5q87 0 147 39t83 111h99
q-29 -107 -116 -169t-217 -62q-111 0 -193.5 48z" />
    <glyph glyph-name="D" unicode="D" horiz-adv-x="696" 
d="M80 700h222q111 0 192 -48.5t122.5 -128.5t41.5 -173t-41.5 -173t-122.5 -128.5t-192 -48.5h-222v700zM295 81q88 0 149 37.5t91.5 99t30.5 132.5t-30.5 132.5t-91.5 99t-149 37.5h-125v-538h125z" />
    <glyph glyph-name="E" unicode="E" horiz-adv-x="544" 
d="M80 700h397v-81h-307v-231h307v-81h-307v-226h307v-81h-397v700z" />
    <glyph glyph-name="F" unicode="F" horiz-adv-x="504" 
d="M80 700h397v-81h-307v-251h307v-81h-307v-287h-90v700z" />
    <glyph glyph-name="G" unicode="G" horiz-adv-x="812" 
d="M807 258h-78q-22 -127 -107.5 -200.5t-224.5 -73.5q-109 0 -190.5 47.5t-125 129.5t-43.5 183t42 186t124 135.5t197 50.5q80 0 145.5 -28t106.5 -77.5t50 -110.5h-98q-16 60 -70 97.5t-134 37.5q-87 0 -148 -38.5t-91.5 -104t-29.5 -146.5q-1 -79 31 -143t92.5 -101
t141.5 -37q99 0 159.5 50t79.5 143h-172v81h343v-81z" />
    <glyph glyph-name="H" unicode="H" horiz-adv-x="668" 
d="M80 700h90v-312h327v312h90v-700h-90v307h-327v-307h-90v700z" />
    <glyph glyph-name="I" unicode="I" horiz-adv-x="250" 
d="M80 700h90v-700h-90v700z" />
    <glyph glyph-name="J" unicode="J" horiz-adv-x="534" 
d="M81.5 48q-61.5 64 -61.5 174h90q0 -73 37 -115t100 -42t98.5 43t35.5 116v476h90v-476q0 -111 -60 -175.5t-164 -64.5t-165.5 64z" />
    <glyph glyph-name="K" unicode="K" horiz-adv-x="582" 
d="M253 354l327 -354h-116l-294 325v-325h-90v700h90v-327l295 327h115z" />
    <glyph glyph-name="L" unicode="L" horiz-adv-x="498" 
d="M80 700h90v-619h301v-81h-391v700z" />
    <glyph glyph-name="M" unicode="M" horiz-adv-x="815" 
d="M80 700h86l242 -573l240 573h87v-700h-86v514l-207 -514h-69l-207 517v-517h-86v700z" />
    <glyph glyph-name="N" unicode="N" horiz-adv-x="659" 
d="M80 700h95l318 -551v551h86v-700h-95l-318 551v-551h-86v700z" />
    <glyph glyph-name="O" unicode="O" horiz-adv-x="797" 
d="M208 33.5q-82 49.5 -126 133t-44 183.5t44 183.5t126 133t191 49.5t191 -49.5t126 -133t44 -183.5t-44 -183.5t-126 -133t-191 -49.5t-191 49.5zM541.5 103.5q60.5 38.5 92.5 103.5t31 143q1 78 -31 143t-92.5 103.5t-142.5 38.5t-143 -38.5t-93 -103.5t-31 -143
q-1 -78 31 -143t93 -103.5t143 -38.5t142.5 38.5z" />
    <glyph glyph-name="P" unicode="P" horiz-adv-x="580" 
d="M80 700h251q67 0 120.5 -30.5t83.5 -85t30 -122.5q0 -69 -30 -123t-83.5 -84.5t-120.5 -30.5h-161v-224h-90v700zM326 305q42 0 76.5 20.5t54 56t19.5 80.5t-19.5 80.5t-54 56t-76.5 20.5h-156v-314h156z" />
    <glyph glyph-name="Q" unicode="Q" horiz-adv-x="797" 
d="M729 194q-31 -73 -89.5 -124.5t-138.5 -72.5l79 -104l-79 -40l-99 131h-3q-109 0 -191 49.5t-126 133t-44 183.5t44 183.5t126 133t191 49.5t191 -49.5t126 -133t44 -183.5q0 -83 -31 -156zM541.5 103.5q60.5 38.5 92.5 103.5t31 143q1 78 -31 143t-92.5 103.5
t-142.5 38.5t-143 -38.5t-93 -103.5t-31 -143q-1 -78 31 -143t93 -103.5t143 -38.5t142.5 38.5z" />
    <glyph glyph-name="R" unicode="R" horiz-adv-x="601" 
d="M522.5 319.5q-42.5 -60.5 -113.5 -83.5l146 -236h-102l-139 224h-144v-224h-90v700h251q67 0 120.5 -30.5t83.5 -85t30 -122.5q0 -82 -42.5 -142.5zM170 305h156q42 0 76.5 20.5t54 56t19.5 80.5t-19.5 80.5t-54 56t-76.5 20.5h-156v-314z" />
    <glyph glyph-name="S" unicode="S" horiz-adv-x="557" 
d="M101.5 47.5q-67.5 63.5 -67.5 175.5h90q0 -74 43.5 -117t119.5 -43q67 0 104 30t37 86q0 46 -26 75t-87 49l-117 40q-143 45 -143 182q0 56 28 99.5t78.5 67.5t115.5 24q103 0 165 -58t64 -156h-90q-1 65 -38 101t-104 36q-60 0 -94.5 -29.5t-34.5 -79.5q0 -43 30 -72
t95 -51l110 -37q138 -45 138 -188q0 -59 -28.5 -104t-80.5 -69.5t-121 -24.5q-119 0 -186.5 63.5z" />
    <glyph glyph-name="T" unicode="T" horiz-adv-x="521" 
d="M215 619h-209v81h508v-81h-210v-619h-89v619z" />
    <glyph glyph-name="U" unicode="U" horiz-adv-x="623" 
d="M130 47.5q-67 63.5 -67 178.5v474h90v-469q0 -79 42.5 -122.5t116.5 -43.5q73 0 116 43.5t43 122.5v469h90v-474q0 -115 -67.5 -178.5t-181.5 -63.5q-115 0 -182 63.5z" />
    <glyph glyph-name="V" unicode="V" horiz-adv-x="558" 
d="M1 700h94l184 -560l183 560h94l-245 -700h-65z" />
    <glyph glyph-name="W" unicode="W" horiz-adv-x="964" 
d="M6 700h94l181 -553l167 553h68l167 -553l180 553h95l-240 -700h-66l-170 545l-170 -545h-67z" />
    <glyph glyph-name="X" unicode="X" horiz-adv-x="586" 
d="M242 350l-230 350h101l180 -277l180 277h102l-231 -350l231 -350h-102l-180 276l-180 -276h-101z" />
    <glyph glyph-name="Y" unicode="Y" horiz-adv-x="570" 
d="M240 284l-256 416h104l196 -329l198 329h104l-256 -415v-285h-90v284z" />
    <glyph glyph-name="Z" unicode="Z" horiz-adv-x="539" 
d="M381 619h-336v81h485l-370 -619h367v-81h-519z" />
    <glyph glyph-name="bracketleft" unicode="[" horiz-adv-x="288" 
d="M80 751h197v-70h-119v-825h119v-68h-197v963z" />
    <glyph glyph-name="backslash" unicode="\" horiz-adv-x="418" 
d="M3 731l69 30l343 -795l-69 -30z" />
    <glyph glyph-name="bracketright" unicode="]" horiz-adv-x="288" 
d="M11 -212v68h119v825h-119v70h197v-963h-197z" />
    <glyph glyph-name="asciicircum" unicode="^" horiz-adv-x="637" 
d="M286 750h61l230 -427h-96l-163 320l-165 -320h-93z" />
    <glyph glyph-name="underscore" unicode="_" horiz-adv-x="545" 
d="M23 -50h500v-60h-500v60z" />
    <glyph glyph-name="grave" unicode="`" horiz-adv-x="600" 
d="M17 631l29 57l273 -115l-29 -59z" />
    <glyph glyph-name="a" unicode="a" horiz-adv-x="525" 
d="M88.5 24.5q-44.5 35.5 -44.5 96.5q0 74 53 112q26 20 66 28.5t121 12.5l86 5v25q0 43 -28.5 68t-75.5 25q-54 0 -85.5 -24t-34.5 -67h-86q5 75 59 117t147 42q98 0 144 -43.5t46 -137.5v-284h-86v76q-37 -87 -161 -87q-76 0 -120.5 35.5zM334 92.5q37 36.5 37 98.5v28
l-131 -9q-56 -5 -82.5 -24.5t-26.5 -56.5q0 -36 26.5 -54.5t77.5 -18.5q62 0 99 36.5z" />
    <glyph glyph-name="b" unicode="b" horiz-adv-x="587" 
d="M443 435q50 -30 78 -84t28 -124q0 -69 -29 -123t-80.5 -84.5t-116.5 -30.5q-53 0 -97 24.5t-66 66.5v-80h-85v700h85v-326q22 41 67.5 66t100.5 25q65 0 115 -30zM421 110.5q43 45.5 43 116.5q0 70 -43 115.5t-110 45.5q-68 0 -111.5 -45t-43.5 -116t43.5 -116.5
t111.5 -45.5q67 0 110 45.5z" />
    <glyph glyph-name="c" unicode="c" horiz-adv-x="516" 
d="M98 52q-60 63 -60 174q0 69 29 123.5t81 85t119 30.5q92 0 148.5 -49.5t61.5 -135.5h-85q-7 52 -39.5 80t-85.5 28q-64 0 -104 -45t-40 -117q0 -77 38 -119t108 -42q51 0 82.5 25.5t41.5 73.5h86q-13 -83 -69.5 -129t-145.5 -46q-106 0 -166 63z" />
    <glyph glyph-name="d" unicode="d" horiz-adv-x="587" 
d="M512 430h-1v-430h-85v80q-21 -42 -66 -66.5t-97 -24.5q-69 0 -120 31.5t-78.5 86t-27.5 120.5t28.5 120.5t80.5 86t119 31.5q54 0 97 -24.5t64 -66.5v79h1v247h85v-270zM359 87q35 22 53.5 58.5t18.5 81.5q0 44 -18.5 81t-54 58.5t-82.5 21.5q-69 0 -111 -46t-42 -115
q0 -70 42 -116t111 -46q48 0 83 22z" />
    <glyph glyph-name="e" unicode="e" horiz-adv-x="517" 
d="M100 53.5q-62 64.5 -62 173.5q0 71 28 125t79 83.5t119 29.5q63 0 112 -27t76 -75.5t27 -110.5q0 -27 -2 -48h-354q3 -68 40.5 -104t104.5 -36q45 0 75 18.5t44 53.5h87q-12 -65 -69.5 -106t-136.5 -41q-106 0 -168 64.5zM395 267q0 59 -35.5 94.5t-96.5 35.5
q-62 0 -100.5 -35.5t-40.5 -94.5h273z" />
    <glyph glyph-name="f" unicode="f" horiz-adv-x="348" 
d="M118 381h-98v72h98v88q0 95 45.5 130t100.5 35q43 0 70 -11v-73q-30 8 -48 8q-36 0 -59.5 -17t-23.5 -70v-90h131v-72h-131v-381h-85v381z" />
    <glyph glyph-name="g" unicode="g" horiz-adv-x="587" 
d="M176 -242q-43 15 -74 43q-28 26 -44 62t-17 78h89q4 -56 42 -89t99 -33q156 0 156 157v104q-20 -41 -65 -66t-98 -25q-66 0 -117.5 30t-80 84t-28.5 124q0 68 29.5 122t81.5 85t117 31q53 0 96 -24t65 -67v79h85v-477q0 -124 -67 -182q-60 -51 -174 -51q-52 0 -95 15z
M387.5 110.5q43.5 45.5 43.5 116.5t-43.5 116t-111.5 45q-67 0 -110 -45t-43 -116t43 -116.5t110 -45.5q68 0 111.5 45.5z" />
    <glyph glyph-name="h" unicode="h" horiz-adv-x="561" 
d="M448 417.5q44 -47.5 44 -138.5v-279h-85v241q0 80 -27.5 115t-89.5 35q-60 0 -95 -40t-35 -108v-243h-85v700h85v-329q20 44 62.5 69t98.5 25q83 0 127 -47.5z" />
    <glyph glyph-name="i" unicode="i" horiz-adv-x="236" 
d="M75 453h85v-453h-85v453zM68 571q-20 20 -20 50t19.5 49.5t50.5 19.5q30 0 50 -19.5t20 -49.5t-20 -50t-50 -20t-50 20z" />
    <glyph glyph-name="j" unicode="j" horiz-adv-x="235" 
d="M-20 -245v78q21 -8 47 -8q51 0 51 64v564h85v-588q0 -58 -31 -89.5t-89 -31.5q-42 0 -63 11zM71 571q-20 20 -20 50t19.5 49.5t50.5 19.5q30 0 50 -19.5t20 -49.5t-20 -50t-50 -20t-50 20z" />
    <glyph glyph-name="k" unicode="k" horiz-adv-x="485" 
d="M256 234l219 -234h-115l-200 217v-217h-85v700h85v-458l203 211h112z" />
    <glyph glyph-name="l" unicode="l" horiz-adv-x="236" 
d="M75 700h85v-700h-85v700z" />
    <glyph glyph-name="m" unicode="m" horiz-adv-x="826" 
d="M75 453h85v-83q14 41 50.5 68t86.5 27q121 0 148 -99q16 43 56 71t93 28q85 0 124 -48.5t39 -130.5v-286h-85v268q0 123 -100 123q-54 0 -83.5 -38t-29.5 -117v-236h-86v261q0 71 -25 100.5t-74 29.5q-52 0 -83 -39t-31 -116v-236h-85v453z" />
    <glyph glyph-name="n" unicode="n" horiz-adv-x="561" 
d="M75 453h85v-82q20 44 62.5 69t98.5 25q83 0 127 -47.5t44 -138.5v-279h-85v241q0 80 -27.5 115t-89.5 35q-60 0 -95 -40t-35 -108v-243h-85v453z" />
    <glyph glyph-name="o" unicode="o" horiz-adv-x="553" 
d="M150 20.5q-54 31.5 -83 86t-29 120.5t29 120.5t83 86t127 31.5t127 -31.5t83 -86t29 -120.5t-29 -120.5t-83 -86t-127 -31.5t-127 31.5zM389.5 111q41.5 46 41.5 116t-41.5 115.5t-112.5 45.5t-112.5 -45.5t-41.5 -115.5t41.5 -116t112.5 -46t112.5 46z" />
    <glyph glyph-name="p" unicode="p" horiz-adv-x="587" 
d="M443 435q50 -30 78 -84t28 -124q0 -69 -29 -123t-80.5 -84.5t-116.5 -30.5q-53 0 -97 24.5t-66 66.5v-327h-85v700h85v-79q22 41 67.5 66t100.5 25q65 0 115 -30zM421 110.5q43 45.5 43 116.5q0 70 -43 115.5t-110 45.5q-68 0 -111.5 -45t-43.5 -116t43.5 -116.5
t111.5 -45.5q67 0 110 45.5z" />
    <glyph glyph-name="q" unicode="q" horiz-adv-x="587" 
d="M512 47v-294h-85v247h-1v80q-21 -42 -66 -66.5t-97 -24.5q-69 0 -120 31.5t-78.5 86t-27.5 120.5t28.5 120.5t80.5 86t119 31.5q54 0 97 -24.5t64 -66.5v79h85v-406h1zM359 87q35 22 53.5 58.5t18.5 81.5q0 44 -18.5 81t-54 58.5t-82.5 21.5q-69 0 -111 -46t-42 -115
q0 -70 42 -116t111 -46q48 0 83 22z" />
    <glyph glyph-name="r" unicode="r" horiz-adv-x="345" 
d="M75 453h85v-103q13 55 50 82t83 27q28 0 41 -4v-78q-14 2 -41 2q-65 0 -99 -50t-34 -130v-199h-85v453z" />
    <glyph glyph-name="s" unicode="s" horiz-adv-x="465" 
d="M90.5 34.5q-55.5 45.5 -55.5 122.5h85q0 -44 33 -71t87 -27q48 0 75.5 18t27.5 50q0 56 -70 63l-93 12q-135 17 -135 124q0 62 50.5 100.5t132.5 38.5q93 0 141 -39t48 -114h-84q0 41 -27.5 63.5t-78.5 22.5q-45 0 -71.5 -17.5t-26.5 -46.5q0 -28 19 -42.5t61 -20.5
l96 -13q61 -9 92.5 -41.5t31.5 -85.5q0 -65 -51.5 -103.5t-138.5 -38.5q-93 0 -148.5 45.5z" />
    <glyph glyph-name="t" unicode="t" horiz-adv-x="354" 
d="M146 24.5q-41 30.5 -41 128.5v228h-85v72h85v154h85v-154h118v-72h-118v-210q0 -61 18.5 -80.5t57.5 -19.5t58 6v-76q-30 -7 -77 -7q-60 0 -101 30.5z" />
    <glyph glyph-name="u" unicode="u" horiz-adv-x="556" 
d="M115.5 34.5q-46.5 45.5 -46.5 139.5v279h85v-244q0 -73 26 -110t93 -37q62 0 92.5 43t30.5 106v242h85v-453h-85v83q-19 -43 -59 -68.5t-94 -25.5q-81 0 -127.5 45.5z" />
    <glyph glyph-name="v" unicode="v" horiz-adv-x="478" 
d="M3 453h92l144 -339l144 339h92l-208 -453h-59z" />
    <glyph glyph-name="w" unicode="w" horiz-adv-x="739" 
d="M8 453h94l113 -332l116 332h77l117 -332l113 332h94l-176 -453h-59l-127 360l-127 -360h-59z" />
    <glyph glyph-name="x" unicode="x" horiz-adv-x="465" 
d="M183 228l-169 225h106l113 -162l113 162h106l-170 -225l172 -228h-105l-116 166l-115 -166h-106z" />
    <glyph glyph-name="y" unicode="y" horiz-adv-x="476" 
d="M10 -245v80q25 -7 55 -7q84 0 118 93l21 53l-199 479h92l152 -386l136 386h89l-207 -547q-33 -87 -82.5 -123t-118.5 -36q-28 0 -56 8z" />
    <glyph glyph-name="z" unicode="z" horiz-adv-x="436" 
d="M284 381h-248v72h392l-268 -381h256v-72h-399z" />
    <glyph glyph-name="braceleft" unicode="{" horiz-adv-x="314" 
d="M186.5 -197.5q-31.5 15.5 -51.5 47t-20 76.5v206q0 32 -15.5 53.5t-37 31.5t-39.5 10v71q18 0 39.5 9.5t37 29.5t15.5 49v226q0 45 20 76.5t51.5 47t65.5 15.5h61v-69h-49q-35 0 -53 -25t-18 -62v-220q0 -52 -29.5 -78t-63.5 -33q93 -24 93 -121v-201q0 -37 18 -61.5
t53 -24.5h49v-69h-61q-34 0 -65.5 15.5z" />
    <glyph glyph-name="bar" unicode="|" horiz-adv-x="235" 
d="M80 762h74v-975h-74v975z" />
    <glyph glyph-name="braceright" unicode="}" horiz-adv-x="314" 
d="M1 -213v69h49q35 0 53 24.5t18 61.5v201q0 97 93 121q-34 7 -63.5 33t-29.5 78v220q0 37 -18 62t-53 25h-49v69h61q34 0 65.5 -15.5t51.5 -47t20 -76.5v-226q0 -29 15.5 -49t37 -29.5t39.5 -9.5v-71q-18 0 -39.5 -10t-37 -31.5t-15.5 -53.5v-206q0 -45 -20 -76.5
t-51.5 -47t-65.5 -15.5h-61z" />
    <glyph glyph-name="asciitilde" unicode="~" horiz-adv-x="518" 
d="M320 209.5q-25 8.5 -61 25.5q-33 16 -61 25t-58 9q-27 0 -53.5 -15.5t-49.5 -38.5v76q22 28 50.5 41t56.5 13q25 0 53 -8.5t65 -23.5l21 -9q62 -27 87 -27q52 0 110 54v-74q-23 -28 -52.5 -42t-58.5 -14q-24 0 -49 8.5z" />
    <glyph glyph-name="exclamdown" unicode="&#xa1;" horiz-adv-x="252" 
d="M177 488.5q21 -21.5 21 -51.5q0 -29 -21 -50.5t-51 -21.5t-51 21t-21 51t21 51.5t51 21.5t51 -21.5zM168 293v-490h-85v490h85z" />
    <glyph glyph-name="cent" unicode="&#xa2;" horiz-adv-x="516" 
d="M479 286q-13 -83 -69.5 -129t-145.5 -46q-106 0 -166 63t-60 174q0 69 29 123.5t81 85t119 30.5q92 0 148.5 -49.5t61.5 -135.5h-85q-6 44 -29.5 71t-62.5 34v-91h-65v91q-51 -11 -81.5 -54t-30.5 -105q0 -67 29 -107.5t83 -50.5v80h65v-80q76 14 93 96h86z" />
    <glyph glyph-name="sterling" unicode="&#xa3;" horiz-adv-x="530" 
d="M182 149q-15 -47 -37 -68h340v-81h-438v60q60 58 60 179v101h-73v67h73v68q0 105 59.5 160.5t154.5 55.5q96 0 155 -56.5t59 -154.5h-89q0 63 -31 97t-94 34q-60 0 -92 -36t-32 -104v-64h163v-67h-163v-83q0 -61 -15 -108z" />
    <glyph glyph-name="currency" unicode="&#xa4;" horiz-adv-x="602" 
d="M38 162l68 68q-43 64 -43 140q0 77 43 139l-67 68l53 55l68 -68q62 44 141 44q80 0 142 -44l67 67l54 -54l-67 -67q44 -63 44 -140q0 -79 -44 -140l67 -67l-54 -54l-67 66q-61 -43 -142 -43q-82 0 -140 44l-69 -67zM382 231q35 22 54 58.5t19 80.5t-19 81t-54 59t-81 22
q-45 0 -80 -22t-54 -59t-19 -81t19 -80.5t54 -58.5t80 -22q46 0 81 22z" />
    <glyph glyph-name="yen" unicode="&#xa5;" horiz-adv-x="570" 
d="M330 276h157v-60h-157v-69h157v-61h-157v-86h-90v86h-156v61h156v69h-156v60h156v2l-256 407h104l196 -323l198 323h104l-256 -407v-2z" />
    <glyph glyph-name="brokenbar" unicode="&#xa6;" horiz-adv-x="236" 
d="M80 794h75v-466h-75v466zM80 232h75v-466h-75v466z" />
    <glyph glyph-name="section" unicode="&#xa7;" horiz-adv-x="569" 
d="M159 -183.5q-52 26.5 -82 73.5t-30 107h90q0 -57 39 -94.5t100 -37.5q60 0 96 25t36 75q0 45 -35 70.5t-106 45.5q-76 23 -123.5 44.5t-77.5 56.5t-30 89q0 56 30.5 96t83.5 54q-37 24 -56.5 59.5t-19.5 81.5q0 53 30 93t80.5 61.5t111.5 21.5q62 0 112.5 -25.5t79.5 -72
t29 -104.5h-90q0 56 -36.5 91.5t-94.5 35.5t-94.5 -26t-36.5 -75q0 -48 35 -72.5t99 -43.5q76 -23 123.5 -44t77.5 -56.5t30 -89.5q0 -36 -16 -68.5t-42 -54t-54 -27.5q80 -47 80 -141q0 -54 -29.5 -93.5t-80 -60.5t-112.5 -21q-65 0 -117 26.5zM356 141q23 0 42.5 16.5
t30.5 41t11 48.5q0 35 -20.5 56t-61.5 34l-124 44q-48 -3 -77.5 -32t-29.5 -69q0 -35 20 -57t66 -37l122 -41q14 -4 21 -4z" />
    <glyph glyph-name="dieresis" unicode="&#xa8;" horiz-adv-x="600" 
d="M71 564q-19 19 -19 47t19 47.5t47 19.5t47.5 -19.5t19.5 -47.5t-19.5 -47t-47.5 -19t-47 19zM290 564q-19 19 -19 47t19 47.5t47 19.5t47.5 -19.5t19.5 -47.5t-19.5 -47t-47.5 -19t-47 19z" />
    <glyph glyph-name="copyright" unicode="&#xa9;" horiz-adv-x="797" 
d="M209 34q-82 51 -126.5 135.5t-44.5 180.5t44.5 180.5t126.5 135.5t190 51t190 -51t126 -135.5t44 -180.5t-44 -180.5t-126 -135.5t-190 -51t-190 51zM552 82.5q66 43.5 102 114.5t36 153t-36 153t-102 114.5t-153 43.5t-153.5 -43.5t-102 -114.5t-35.5 -153t35.5 -153
t102 -114.5t153.5 -43.5t153 43.5zM295 170.5q-47 28.5 -72.5 76t-25.5 104.5q0 54 24.5 101.5t70 76.5t106.5 29q83 0 132 -41t60 -108h-59q-11 43 -45 69.5t-88 26.5q-43 0 -75 -21.5t-49.5 -56.5t-17.5 -76q0 -42 18 -78t52 -57t79 -21q43 0 76.5 21.5t47.5 56.5h61
q-15 -57 -65.5 -94t-119.5 -37q-63 0 -110 28.5z" />
    <glyph glyph-name="ordfeminine" unicode="&#xaa;" horiz-adv-x="597" 
d="M153 21q-53 32 -82.5 87t-29.5 119t29.5 118.5t82.5 87t121 32.5q50 0 94 -25t66 -66v79h85v-453h-85v80q-22 -42 -65.5 -66.5t-94.5 -24.5q-68 0 -121 32zM360 87q35 22 54 59t19 81t-19 80.5t-54 58.5t-81 22q-45 0 -80 -22t-54 -58.5t-19 -80.5t19 -81t54 -59t80 -22
q46 0 81 22z" />
    <glyph glyph-name="guillemotleft" unicode="&#xab;" horiz-adv-x="458" 
d="M-5 291l206 192l49 -50l-153 -142l153 -142l-49 -50zM202 291l206 192l49 -50l-153 -142l153 -142l-49 -50z" />
    <glyph glyph-name="logicalnot" unicode="&#xac;" horiz-adv-x="620" 
d="M427 304h-319v76h404v-225h-85v149z" />
    <glyph glyph-name="uni00AD" unicode="&#xad;" horiz-adv-x="360" 
d="M33 323h294v-77h-294v77z" />
    <glyph glyph-name="registered" unicode="&#xae;" horiz-adv-x="799" 
d="M209 34q-82 51 -126.5 135.5t-44.5 180.5t44.5 180.5t126.5 135.5t191 51t191 -51t126.5 -135.5t44.5 -180.5t-44.5 -180.5t-126.5 -135.5t-191 -51t-191 51zM554.5 82.5q66.5 43.5 102 114.5t35.5 153t-35.5 153t-102 114.5t-154.5 43.5q-87 0 -153.5 -43.5
t-102.5 -114.5t-36 -153t36 -153t102.5 -114.5t153.5 -43.5q88 0 154.5 43.5zM270 565h157q62 0 100.5 -40.5t38.5 -98.5q0 -45 -24.5 -80t-66.5 -49l87 -139h-69l-82 131h-79v-131h-62v407zM422 343q35 0 57 24t22 59q0 36 -22 60.5t-57 24.5h-90v-168h90z" />
    <glyph glyph-name="macron" unicode="&#xaf;" horiz-adv-x="600" 
d="M54 634h347v-68h-347v68z" />
    <glyph glyph-name="degree" unicode="&#xb0;" horiz-adv-x="329" 
d="M92 450q-33 19 -52 52t-19 72t19 72t52 52t72 19t72 -19t52 -52t19 -72t-19 -72t-52 -52t-72 -19t-72 19zM221.5 516q23.5 24 23.5 58t-23.5 58.5t-57.5 24.5t-57.5 -24.5t-23.5 -58.5t23.5 -58t57.5 -24t57.5 24z" />
    <glyph glyph-name="plusminus" unicode="&#xb1;" horiz-adv-x="620" 
d="M267 379h-156v77h156v162h86v-162h157v-77h-157v-160h-86v160zM111 102h399v-76h-399v76z" />
    <glyph glyph-name="uni00B2" unicode="&#xb2;" horiz-adv-x="370" 
d="M67.5 411.5q12.5 36.5 34.5 58t60 41.5q44 23 64 40.5t20 47.5q0 26 -15.5 40t-42.5 14q-29 0 -45.5 -17.5t-16.5 -50.5h-70q0 54 35.5 88t96.5 34q57 0 92 -29t35 -84q0 -44 -28.5 -72t-72.5 -52q-47 -24 -63 -43.5t-16 -53.5h180v-58h-260q0 60 12.5 96.5z" />
    <glyph glyph-name="uni00B3" unicode="&#xb3;" horiz-adv-x="381" 
d="M85.5 343.5q-37.5 35.5 -37.5 94.5h70q0 -34 19.5 -53.5t51.5 -19.5q30 0 47 17.5t17 43.5q0 29 -17 45.5t-51 16.5h-33v56h33q62 0 62 56q0 26 -15.5 39.5t-42.5 13.5q-61 0 -61 -64h-70q0 52 33 85t97 33q55 0 92 -28t37 -78q0 -32 -17 -55t-45 -31q31 -8 49.5 -33
t18.5 -61q0 -52 -38.5 -82.5t-95.5 -30.5q-66 0 -103.5 35.5z" />
    <glyph glyph-name="acute" unicode="&#xb4;" horiz-adv-x="600" 
d="M49 573l273 115l29 -57l-273 -117z" />
    <glyph glyph-name="uni00B5" unicode="&#xb5;" horiz-adv-x="620" 
d="M101 453h85v-240q0 -68 28 -108t88 -40q63 0 97 45t34 110v233h85v-453h-85v82q-21 -43 -63 -68t-98 -25q-54 0 -86 29v-265h-85v700z" />
    <glyph glyph-name="paragraph" unicode="&#xb6;" horiz-adv-x="633" 
d="M231 329q-97 0 -156.5 48.5t-59.5 142.5q0 116 76.5 156.5t172.5 40.5h318v-71h-53v-794h-81v793h-136v-793h-81v477z" />
    <glyph glyph-name="periodcentered" unicode="&#xb7;" horiz-adv-x="264" 
d="M83.5 263.5q-20.5 20.5 -20.5 48.5q0 29 20 49.5t49 20.5t49.5 -20.5t20.5 -49.5t-20.5 -49t-49.5 -20q-28 0 -48.5 20.5z" />
    <glyph glyph-name="cedilla" unicode="&#xb8;" horiz-adv-x="600" 
d="M80.5 -214q-31.5 20 -37.5 68h52q4 -19 16 -30.5t30 -11.5q21 0 34 14t13 36q0 20 -13 33t-33 13q-28 0 -40 -26h-45v118h53v-71q6 9 20 14.5t28 5.5q33 0 58 -24t25 -63q0 -38 -26.5 -67t-73.5 -29q-29 0 -60.5 20z" />
    <glyph glyph-name="uni00B9" unicode="&#xb9;" horiz-adv-x="267" 
d="M125 583h-78v51q52 0 69.5 15t17.5 51h63v-385h-72v268z" />
    <glyph glyph-name="ordmasculine" unicode="&#xba;" horiz-adv-x="559" 
d="M155 21q-54 32 -84 86.5t-30 119.5q0 64 30 118.5t84 87t124 32.5q71 0 125.5 -32.5t84.5 -87t30 -118.5q0 -65 -30 -119.5t-84.5 -86.5t-125.5 -32q-70 0 -124 32zM360 87q35 22 54 59t19 81t-19 80.5t-54 58.5t-81 22q-45 0 -80 -22t-54 -58.5t-19 -80.5t19 -81t54 -59
t80 -22q46 0 81 22z" />
    <glyph glyph-name="guillemotright" unicode="&#xbb;" horiz-adv-x="458" 
d="M1 149l153 142l-153 142l49 50l206 -192l-206 -192zM208 149l153 142l-153 142l49 50l206 -192l-206 -192z" />
    <glyph glyph-name="onequarter" unicode="&#xbc;" horiz-adv-x="913" 
d="M139 18l472 682l63 -36l-472 -682zM144 568h-78v51q52 0 69.5 15t17.5 51h63v-385h-72v268zM706 116h-152v269h70v-209h82v112h70v-112h53v-60h-53v-116h-70v116z" />
    <glyph glyph-name="onehalf" unicode="&#xbd;" horiz-adv-x="913" 
d="M139 18l472 682l63 -36l-472 -682zM144 568h-78v51q52 0 69.5 15t17.5 51h63v-385h-72v268zM564.5 96.5q12.5 36.5 34.5 58t60 41.5q44 23 64 40.5t20 47.5q0 26 -15.5 40t-42.5 14q-29 0 -45.5 -17.5t-16.5 -50.5h-70q0 54 35.5 88t96.5 34q57 0 92 -29t35 -84
q0 -44 -28.5 -72t-72.5 -52q-47 -24 -63 -43.5t-16 -53.5h180v-58h-260q0 60 12.5 96.5z" />
    <glyph glyph-name="threequarters" unicode="&#xbe;" horiz-adv-x="913" 
d="M147 18l472 682l63 -36l-472 -682zM83.5 328.5q-37.5 35.5 -37.5 94.5h70q0 -33 19.5 -53t51.5 -20q30 0 47 17.5t17 43.5q0 29 -17 45.5t-51 16.5h-33v56h33q62 0 62 56q0 26 -15.5 39.5t-42.5 13.5q-61 0 -61 -63h-70q0 52 33 85t97 33q55 0 92 -28.5t37 -78.5
q0 -32 -17 -55t-45 -31q31 -8 49.5 -33t18.5 -60q0 -52 -38.5 -83t-95.5 -31q-66 0 -103.5 35.5zM706 116h-152v269h70v-209h82v112h70v-112h53v-60h-53v-116h-70v116z" />
    <glyph glyph-name="questiondown" unicode="&#xbf;" horiz-adv-x="479" 
d="M311 493.5q21 -21.5 21 -51.5t-21 -51t-51 -21t-51 21.5t-21 50.5q0 30 21 51.5t51 21.5t51 -21.5zM302 283q0 -51 -13 -81t-52 -58l-51 -36q-33 -24 -50.5 -53.5t-17.5 -71.5q0 -50 31.5 -81t84.5 -31q63 0 101 37.5t38 105.5h90q0 -104 -62.5 -163t-170.5 -59
q-97 0 -150.5 52t-53.5 136q0 60 26 101.5t74 77.5l43 32q28 21 38 39.5t10 51.5v16h85v-15z" />
    <glyph glyph-name="Agrave" unicode="&#xc0;" horiz-adv-x="573" 
d="M432 108h-291l-34 -108h-94l241 700h65l242 -700h-94zM406 189l-119 374l-120 -374h239zM158 835l39 59l217 -105l-38 -58z" />
    <glyph glyph-name="Aacute" unicode="&#xc1;" horiz-adv-x="573" 
d="M432 108h-291l-34 -108h-94l241 700h65l242 -700h-94zM406 189l-119 374l-120 -374h239zM159 789l217 105l39 -59l-218 -104z" />
    <glyph glyph-name="Acircumflex" unicode="&#xc2;" horiz-adv-x="573" 
d="M432 108h-291l-34 -108h-94l241 700h65l242 -700h-94zM406 189l-119 374l-120 -374h239zM458 775l-50 -43l-121 94l-121 -94l-50 43l171 129z" />
    <glyph glyph-name="Atilde" unicode="&#xc3;" horiz-adv-x="573" 
d="M432 108h-291l-34 -108h-94l241 700h65l242 -700h-94zM406 189l-119 374l-120 -374h239zM319 747.5q-20 8.5 -47 25.5q-20 14 -35 21t-31 7q-21 0 -37 -9.5t-36 -36.5l-37 34q46 78 105 78q23 0 43.5 -9t46.5 -25q25 -14 40 -21t31 -7q23 0 41.5 10t38.5 38l36 -38
q-42 -76 -116 -76q-23 0 -43 8.5z" />
    <glyph glyph-name="Adieresis" unicode="&#xc4;" horiz-adv-x="573" 
d="M432 108h-291l-34 -108h-94l241 700h65l242 -700h-94zM406 189l-119 374l-120 -374h239zM121 767q-19 19 -19 47t19 47.5t47 19.5t47.5 -19.5t19.5 -47.5t-19.5 -47t-47.5 -19t-47 19zM358 767q-19 19 -19 47t19 47.5t47 19.5t47.5 -19.5t19.5 -47.5t-19.5 -47t-47.5 -19
t-47 19z" />
    <glyph glyph-name="Aring" unicode="&#xc5;" horiz-adv-x="573" 
d="M432 108h-291l-34 -108h-94l228 664q-36 13 -58 44t-22 69q0 51 36 86.5t88 35.5q34 0 63.5 -16.5t46.5 -44.5t17 -61q0 -38 -22.5 -68.5t-58.5 -44.5l230 -664h-94zM237 729q20 -20 48 -20q30 0 50 20t20 49q0 30 -19.5 49.5t-50.5 19.5q-28 0 -48 -20.5t-20 -49.5
q0 -28 20 -48zM406 189l-119 374l-120 -374h239z" />
    <glyph glyph-name="AE" unicode="&#xc6;" horiz-adv-x="852" 
d="M479 619v-231h307v-81h-307v-226h307v-81h-397v108h-243l-52 -108h-97l352 700h437v-81h-307zM389 189v424l-204 -424h204z" />
    <glyph glyph-name="Ccedilla" unicode="&#xc7;" horiz-adv-x="769" 
d="M552 104q60 39 83 111h99q-28 -104 -111.5 -165.5t-208.5 -65.5v-55q6 9 20 14.5t28 5.5q33 0 58 -24t25 -63q0 -38 -26.5 -67t-73.5 -29q-29 0 -60.5 20t-37.5 68h52q4 -19 16 -30.5t30 -11.5q21 0 34 14t13 36q0 20 -13 33t-33 13q-28 0 -40 -26h-45v104
q-100 8 -173 57.5t-111.5 129.5t-38.5 177q0 100 43.5 183.5t127 133t198.5 49.5q92 0 164.5 -35t115 -94.5t49.5 -131.5h-98q-16 82 -77 131t-162 49q-83 0 -143.5 -39t-92 -104.5t-31.5 -143.5q0 -81 33 -145.5t94.5 -101t145.5 -36.5q87 0 147 39z" />
    <glyph glyph-name="Egrave" unicode="&#xc8;" horiz-adv-x="544" 
d="M80 700h397v-81h-307v-231h307v-81h-307v-226h307v-81h-397v700zM143 835l39 59l217 -105l-38 -58z" />
    <glyph glyph-name="Eacute" unicode="&#xc9;" horiz-adv-x="544" 
d="M80 700h397v-81h-307v-231h307v-81h-307v-226h307v-81h-397v700zM144 789l217 105l39 -59l-218 -104z" />
    <glyph glyph-name="Ecircumflex" unicode="&#xca;" horiz-adv-x="544" 
d="M80 700h397v-81h-307v-231h307v-81h-307v-226h307v-81h-397v700zM443 775l-50 -43l-121 94l-121 -94l-50 43l171 129z" />
    <glyph glyph-name="Edieresis" unicode="&#xcb;" horiz-adv-x="544" 
d="M80 700h397v-81h-307v-231h307v-81h-307v-226h307v-81h-397v700zM106 767q-19 19 -19 47t19 47.5t47 19.5t47.5 -19.5t19.5 -47.5t-19.5 -47t-47.5 -19t-47 19zM343 767q-19 19 -19 47t19 47.5t47 19.5t47.5 -19.5t19.5 -47.5t-19.5 -47t-47.5 -19t-47 19z" />
    <glyph glyph-name="Igrave" unicode="&#xcc;" horiz-adv-x="250" 
d="M80 700h90v-700h-90v700zM31 827l39 58l149 -88l-39 -59z" />
    <glyph glyph-name="Iacute" unicode="&#xcd;" horiz-adv-x="250" 
d="M80 700h90v-700h-90v700zM26 808l161 99l39 -56l-161 -99z" />
    <glyph glyph-name="Icircumflex" unicode="&#xce;" horiz-adv-x="250" 
d="M80 700h90v-700h-90v700zM125 798l-73 -61l-47 50l120 100l121 -100l-46 -51z" />
    <glyph glyph-name="Idieresis" unicode="&#xcf;" horiz-adv-x="250" 
d="M80 700h90v-700h-90v700zM13.5 778q-17.5 18 -17.5 43q0 26 17.5 44t43.5 18t43.5 -18t17.5 -44q0 -25 -18 -43t-43 -18q-26 0 -43.5 18zM150.5 778q-17.5 18 -17.5 43q0 26 17.5 44t43.5 18t43.5 -18t17.5 -44t-17.5 -43.5t-43.5 -17.5t-43.5 18z" />
    <glyph glyph-name="Eth" unicode="&#xd0;" horiz-adv-x="696" 
d="M494 651.5q81 -48.5 122.5 -128.5t41.5 -173t-41.5 -173t-122.5 -128.5t-192 -48.5h-222v313h-79v77h79v310h222q111 0 192 -48.5zM444 118.5q61 37.5 91.5 99t30.5 132.5t-30.5 132.5t-91.5 99t-149 37.5h-125v-229h133v-77h-133v-232h125q88 0 149 37.5z" />
    <glyph glyph-name="Ntilde" unicode="&#xd1;" horiz-adv-x="659" 
d="M80 700h95l318 -551v551h86v-700h-95l-318 551v-551h-86v700zM362 747.5q-20 8.5 -47 25.5q-20 14 -35 21t-31 7q-21 0 -37 -9.5t-36 -36.5l-37 34q46 78 105 78q23 0 43.5 -9t46.5 -25q25 -14 40 -21t31 -7q23 0 41.5 10t38.5 38l36 -38q-42 -76 -116 -76q-23 0 -43 8.5
z" />
    <glyph glyph-name="Ograve" unicode="&#xd2;" horiz-adv-x="797" 
d="M208 33.5q-82 49.5 -126 133t-44 183.5t44 183.5t126 133t191 49.5t191 -49.5t126 -133t44 -183.5t-44 -183.5t-126 -133t-191 -49.5t-191 49.5zM541.5 103.5q60.5 38.5 92.5 103.5t31 143q1 78 -31 143t-92.5 103.5t-142.5 38.5t-143 -38.5t-93 -103.5t-31 -143
q-1 -78 31 -143t93 -103.5t143 -38.5t142.5 38.5zM270 835l39 59l217 -105l-38 -58z" />
    <glyph glyph-name="Oacute" unicode="&#xd3;" horiz-adv-x="797" 
d="M208 33.5q-82 49.5 -126 133t-44 183.5t44 183.5t126 133t191 49.5t191 -49.5t126 -133t44 -183.5t-44 -183.5t-126 -133t-191 -49.5t-191 49.5zM541.5 103.5q60.5 38.5 92.5 103.5t31 143q1 78 -31 143t-92.5 103.5t-142.5 38.5t-143 -38.5t-93 -103.5t-31 -143
q-1 -78 31 -143t93 -103.5t143 -38.5t142.5 38.5zM271 789l217 105l39 -59l-218 -104z" />
    <glyph glyph-name="Ocircumflex" unicode="&#xd4;" horiz-adv-x="797" 
d="M208 33.5q-82 49.5 -126 133t-44 183.5t44 183.5t126 133t191 49.5t191 -49.5t126 -133t44 -183.5t-44 -183.5t-126 -133t-191 -49.5t-191 49.5zM541.5 103.5q60.5 38.5 92.5 103.5t31 143q1 78 -31 143t-92.5 103.5t-142.5 38.5t-143 -38.5t-93 -103.5t-31 -143
q-1 -78 31 -143t93 -103.5t143 -38.5t142.5 38.5zM570 775l-50 -43l-121 94l-121 -94l-50 43l171 129z" />
    <glyph glyph-name="Otilde" unicode="&#xd5;" horiz-adv-x="797" 
d="M208 33.5q-82 49.5 -126 133t-44 183.5t44 183.5t126 133t191 49.5t191 -49.5t126 -133t44 -183.5t-44 -183.5t-126 -133t-191 -49.5t-191 49.5zM541.5 103.5q60.5 38.5 92.5 103.5t31 143q1 78 -31 143t-92.5 103.5t-142.5 38.5t-143 -38.5t-93 -103.5t-31 -143
q-1 -78 31 -143t93 -103.5t143 -38.5t142.5 38.5zM431 747.5q-20 8.5 -47 25.5q-20 14 -35 21t-31 7q-21 0 -37 -9.5t-36 -36.5l-37 34q46 78 105 78q23 0 43.5 -9t46.5 -25q25 -14 40 -21t31 -7q23 0 41.5 10t38.5 38l36 -38q-42 -76 -116 -76q-23 0 -43 8.5z" />
    <glyph glyph-name="Odieresis" unicode="&#xd6;" horiz-adv-x="797" 
d="M208 33.5q-82 49.5 -126 133t-44 183.5t44 183.5t126 133t191 49.5t191 -49.5t126 -133t44 -183.5t-44 -183.5t-126 -133t-191 -49.5t-191 49.5zM541.5 103.5q60.5 38.5 92.5 103.5t31 143q1 78 -31 143t-92.5 103.5t-142.5 38.5t-143 -38.5t-93 -103.5t-31 -143
q-1 -78 31 -143t93 -103.5t143 -38.5t142.5 38.5zM233 767q-19 19 -19 47t19 47.5t47 19.5t47.5 -19.5t19.5 -47.5t-19.5 -47t-47.5 -19t-47 19zM470 767q-19 19 -19 47t19 47.5t47 19.5t47.5 -19.5t19.5 -47.5t-19.5 -47t-47.5 -19t-47 19z" />
    <glyph glyph-name="multiply" unicode="&#xd7;" horiz-adv-x="620" 
d="M137 172l115 116l-111 112l53 55l113 -113l116 116l60 -60l-116 -116l113 -113l-54 -54l-113 113l-116 -116z" />
    <glyph glyph-name="Oslash" unicode="&#xd8;" horiz-adv-x="797" 
d="M711.5 542q48.5 -87 48.5 -192q0 -100 -44 -183.5t-126 -133t-191 -49.5q-62 0 -113 16l-35 -83l-61 26l35 81q-89 46 -138 133t-49 193q0 100 44 183.5t126 133t191 49.5q59 0 115 -16l34 80l61 -27l-33 -78q87 -46 135.5 -133zM164 205q33 -66 94 -103l223 522
q-39 11 -82 11q-82 0 -143 -38.5t-93 -103.5t-31 -143q-1 -79 32 -145zM541 103q60 38 92 102.5t32 142.5q0 80 -31.5 145.5t-91.5 102.5l-223 -520q39 -11 80 -11q82 0 142 38z" />
    <glyph glyph-name="Ugrave" unicode="&#xd9;" horiz-adv-x="623" 
d="M130 47.5q-67 63.5 -67 178.5v474h90v-469q0 -79 42.5 -122.5t116.5 -43.5q73 0 116 43.5t43 122.5v469h90v-474q0 -115 -67.5 -178.5t-181.5 -63.5q-115 0 -182 63.5zM182 835l39 59l217 -105l-38 -58z" />
    <glyph glyph-name="Uacute" unicode="&#xda;" horiz-adv-x="623" 
d="M130 47.5q-67 63.5 -67 178.5v474h90v-469q0 -79 42.5 -122.5t116.5 -43.5q73 0 116 43.5t43 122.5v469h90v-474q0 -115 -67.5 -178.5t-181.5 -63.5q-115 0 -182 63.5zM183 789l217 105l39 -59l-218 -104z" />
    <glyph glyph-name="Ucircumflex" unicode="&#xdb;" horiz-adv-x="623" 
d="M130 47.5q-67 63.5 -67 178.5v474h90v-469q0 -79 42.5 -122.5t116.5 -43.5q73 0 116 43.5t43 122.5v469h90v-474q0 -115 -67.5 -178.5t-181.5 -63.5q-115 0 -182 63.5zM482 775l-50 -43l-121 94l-121 -94l-50 43l171 129z" />
    <glyph glyph-name="Udieresis" unicode="&#xdc;" horiz-adv-x="623" 
d="M130 47.5q-67 63.5 -67 178.5v474h90v-469q0 -79 42.5 -122.5t116.5 -43.5q73 0 116 43.5t43 122.5v469h90v-474q0 -115 -67.5 -178.5t-181.5 -63.5q-115 0 -182 63.5zM145 767q-19 19 -19 47t19 47.5t47 19.5t47.5 -19.5t19.5 -47.5t-19.5 -47t-47.5 -19t-47 19z
M382 767q-19 19 -19 47t19 47.5t47 19.5t47.5 -19.5t19.5 -47.5t-19.5 -47t-47.5 -19t-47 19z" />
    <glyph glyph-name="Yacute" unicode="&#xdd;" horiz-adv-x="570" 
d="M240 284l-256 416h104l196 -329l198 329h104l-256 -415v-285h-90v284zM157 789l217 105l39 -59l-218 -104z" />
    <glyph glyph-name="Thorn" unicode="&#xde;" horiz-adv-x="581" 
d="M455.5 556q53.5 -32 82 -86.5t28.5 -119.5t-28.5 -119t-82 -86.5t-124.5 -32.5h-161v-112h-90v700h90v-112h161q71 0 124.5 -32zM404.5 214q34.5 21 53 57t18.5 79t-18.5 79t-53 57t-78.5 21h-156v-314h156q44 0 78.5 21z" />
    <glyph glyph-name="germandbls" unicode="&#xdf;" horiz-adv-x="569" 
d="M217 0v75q37 -11 84 -11q59 0 99.5 34t40.5 95q0 32 -16.5 63t-52.5 51t-92 20h-43v76h41q73 0 109.5 32t36.5 84t-34 84.5t-93 32.5q-63 0 -97.5 -38.5t-34.5 -99.5v-498h-85v498q0 62 26 110.5t75 76t116 27.5q64 0 112 -23.5t74 -65.5t26 -96q0 -65 -37 -106.5
t-102 -56.5q66 -11 111 -61t45 -114q0 -65 -31.5 -110t-82.5 -68t-111 -23q-48 0 -84 12z" />
    <glyph glyph-name="agrave" unicode="&#xe0;" horiz-adv-x="525" 
d="M88.5 24.5q-44.5 35.5 -44.5 96.5q0 74 53 112q26 20 66 28.5t121 12.5l86 5v25q0 43 -28.5 68t-75.5 25q-54 0 -85.5 -24t-34.5 -67h-86q5 75 59 117t147 42q98 0 144 -43.5t46 -137.5v-284h-86v76q-37 -87 -161 -87q-76 0 -120.5 35.5zM334 92.5q37 36.5 37 98.5v28
l-131 -9q-56 -5 -82.5 -24.5t-26.5 -56.5q0 -36 26.5 -54.5t77.5 -18.5q62 0 99 36.5zM112 631l29 57l273 -115l-29 -59z" />
    <glyph glyph-name="aacute" unicode="&#xe1;" horiz-adv-x="525" 
d="M88.5 24.5q-44.5 35.5 -44.5 96.5q0 74 53 112q26 20 66 28.5t121 12.5l86 5v25q0 43 -28.5 68t-75.5 25q-54 0 -85.5 -24t-34.5 -67h-86q5 75 59 117t147 42q98 0 144 -43.5t46 -137.5v-284h-86v76q-37 -87 -161 -87q-76 0 -120.5 35.5zM334 92.5q37 36.5 37 98.5v28
l-131 -9q-56 -5 -82.5 -24.5t-26.5 -56.5q0 -36 26.5 -54.5t77.5 -18.5q62 0 99 36.5zM97 573l273 115l29 -57l-273 -117z" />
    <glyph glyph-name="acircumflex" unicode="&#xe2;" horiz-adv-x="525" 
d="M88.5 24.5q-44.5 35.5 -44.5 96.5q0 74 53 112q26 20 66 28.5t121 12.5l86 5v25q0 43 -28.5 68t-75.5 25q-54 0 -85.5 -24t-34.5 -67h-86q5 75 59 117t147 42q98 0 144 -43.5t46 -137.5v-284h-86v76q-37 -87 -161 -87q-76 0 -120.5 35.5zM334 92.5q37 36.5 37 98.5v28
l-131 -9q-56 -5 -82.5 -24.5t-26.5 -56.5q0 -36 26.5 -54.5t77.5 -18.5q62 0 99 36.5zM437 553l-46 -51l-129 109l-127 -108l-47 50l174 146z" />
    <glyph glyph-name="atilde" unicode="&#xe3;" horiz-adv-x="525" 
d="M88.5 24.5q-44.5 35.5 -44.5 96.5q0 74 53 112q26 20 66 28.5t121 12.5l86 5v25q0 43 -28.5 68t-75.5 25q-54 0 -85.5 -24t-34.5 -67h-86q5 75 59 117t147 42q98 0 144 -43.5t46 -137.5v-284h-86v76q-37 -87 -161 -87q-76 0 -120.5 35.5zM334 92.5q37 36.5 37 98.5v28
l-131 -9q-56 -5 -82.5 -24.5t-26.5 -56.5q0 -36 26.5 -54.5t77.5 -18.5q62 0 99 36.5zM296.5 554q-19.5 8 -44.5 23q-24 13 -36.5 18.5t-25.5 5.5q-20 0 -35.5 -7.5t-33.5 -31.5l-33 46q42 66 97 66q18 0 35.5 -7.5t41.5 -21.5q25 -13 40 -19.5t30 -6.5q20 0 37.5 9t35.5 32
l32 -46q-21 -37 -47 -52.5t-53 -15.5q-21 0 -40.5 8z" />
    <glyph glyph-name="adieresis" unicode="&#xe4;" horiz-adv-x="525" 
d="M88.5 24.5q-44.5 35.5 -44.5 96.5q0 74 53 112q26 20 66 28.5t121 12.5l86 5v25q0 43 -28.5 68t-75.5 25q-54 0 -85.5 -24t-34.5 -67h-86q5 75 59 117t147 42q98 0 144 -43.5t46 -137.5v-284h-86v76q-37 -87 -161 -87q-76 0 -120.5 35.5zM334 92.5q37 36.5 37 98.5v28
l-131 -9q-56 -5 -82.5 -24.5t-26.5 -56.5q0 -36 26.5 -54.5t77.5 -18.5q62 0 99 36.5zM106 564q-19 19 -19 47t19 47.5t47 19.5t47.5 -19.5t19.5 -47.5t-19.5 -47t-47.5 -19t-47 19zM325 564q-19 19 -19 47t19 47.5t47 19.5t47.5 -19.5t19.5 -47.5t-19.5 -47t-47.5 -19
t-47 19z" />
    <glyph glyph-name="aring" unicode="&#xe5;" horiz-adv-x="525" 
d="M88.5 24.5q-44.5 35.5 -44.5 96.5q0 74 53 112q26 20 66 28.5t121 12.5l86 5v25q0 43 -28.5 68t-75.5 25q-54 0 -85.5 -24t-34.5 -67h-86q5 75 59 117t147 42q98 0 144 -43.5t46 -137.5v-284h-86v76q-37 -87 -161 -87q-76 0 -120.5 35.5zM334 92.5q37 36.5 37 98.5v28
l-131 -9q-56 -5 -82.5 -24.5t-26.5 -56.5q0 -36 26.5 -54.5t77.5 -18.5q62 0 99 36.5zM180 531.5q-34 34.5 -34 81.5q0 49 34 83t82 34q32 0 59 -16t43 -43t16 -58q0 -47 -34.5 -81.5t-83.5 -34.5q-48 0 -82 34.5zM310.5 566q19.5 20 19.5 49q0 27 -19.5 47t-48.5 20
q-28 0 -47.5 -20t-19.5 -49q0 -28 19.5 -47.5t47.5 -19.5q29 0 48.5 20z" />
    <glyph glyph-name="ae" unicode="&#xe6;" horiz-adv-x="846" 
d="M806 203h-354q3 -68 40.5 -104t104.5 -36q45 0 75 18.5t44 53.5h87q-12 -65 -69.5 -106t-136.5 -41q-62 0 -109.5 23t-77.5 65q-55 -87 -197 -87q-75 0 -122 36t-47 96q0 73 56 111q29 20 70.5 27.5t111.5 7.5h88v3v35q0 41 -25.5 66.5t-79.5 25.5q-55 0 -85.5 -24.5
t-33.5 -66.5h-86q5 74 59 116.5t148 42.5q114 0 157 -71q30 34 73 52t96 18q63 0 112 -27t76 -75.5t27 -110.5q0 -27 -2 -48zM724 266q0 59 -35.5 94.5t-96.5 35.5q-62 0 -100.5 -35.5t-40.5 -94.5h273zM330.5 86q38.5 30 40.5 89q-3 14 -3 29h-118q-58 0 -88.5 -21
t-30.5 -56q0 -36 27.5 -53.5t76.5 -17.5q57 0 95.5 30z" />
    <glyph glyph-name="ccedilla" unicode="&#xe7;" horiz-adv-x="516" 
d="M415.5 40q-51.5 -46 -133.5 -50v-61q6 9 20 14.5t28 5.5q33 0 58 -24t25 -63q0 -38 -26.5 -67t-73.5 -29q-29 0 -60.5 20t-37.5 68h52q4 -19 16 -30.5t30 -11.5q21 0 34 14t13 36q0 20 -13 33t-33 13q-28 0 -40 -26h-45v109q-90 11 -140.5 72.5t-50.5 162.5
q0 69 29 123.5t81 85t119 30.5q92 0 148.5 -49.5t61.5 -135.5h-85q-7 52 -39.5 80t-85.5 28q-64 0 -104 -45t-40 -117q0 -77 38 -119t108 -42q51 0 82.5 25.5t41.5 73.5h86q-12 -78 -63.5 -124z" />
    <glyph glyph-name="egrave" unicode="&#xe8;" horiz-adv-x="517" 
d="M100 53.5q-62 64.5 -62 173.5q0 71 28 125t79 83.5t119 29.5q63 0 112 -27t76 -75.5t27 -110.5q0 -27 -2 -48h-354q3 -68 40.5 -104t104.5 -36q45 0 75 18.5t44 53.5h87q-12 -65 -69.5 -106t-136.5 -41q-106 0 -168 64.5zM395 267q0 59 -35.5 94.5t-96.5 35.5
q-62 0 -100.5 -35.5t-40.5 -94.5h273zM119 631l29 57l273 -115l-29 -59z" />
    <glyph glyph-name="eacute" unicode="&#xe9;" horiz-adv-x="517" 
d="M100 53.5q-62 64.5 -62 173.5q0 71 28 125t79 83.5t119 29.5q63 0 112 -27t76 -75.5t27 -110.5q0 -27 -2 -48h-354q3 -68 40.5 -104t104.5 -36q45 0 75 18.5t44 53.5h87q-12 -65 -69.5 -106t-136.5 -41q-106 0 -168 64.5zM395 267q0 59 -35.5 94.5t-96.5 35.5
q-62 0 -100.5 -35.5t-40.5 -94.5h273zM104 573l273 115l29 -57l-273 -117z" />
    <glyph glyph-name="ecircumflex" unicode="&#xea;" horiz-adv-x="517" 
d="M100 53.5q-62 64.5 -62 173.5q0 71 28 125t79 83.5t119 29.5q63 0 112 -27t76 -75.5t27 -110.5q0 -27 -2 -48h-354q3 -68 40.5 -104t104.5 -36q45 0 75 18.5t44 53.5h87q-12 -65 -69.5 -106t-136.5 -41q-106 0 -168 64.5zM395 267q0 59 -35.5 94.5t-96.5 35.5
q-62 0 -100.5 -35.5t-40.5 -94.5h273zM444 553l-46 -51l-129 109l-127 -108l-47 50l174 146z" />
    <glyph glyph-name="edieresis" unicode="&#xeb;" horiz-adv-x="517" 
d="M100 53.5q-62 64.5 -62 173.5q0 71 28 125t79 83.5t119 29.5q63 0 112 -27t76 -75.5t27 -110.5q0 -27 -2 -48h-354q3 -68 40.5 -104t104.5 -36q45 0 75 18.5t44 53.5h87q-12 -65 -69.5 -106t-136.5 -41q-106 0 -168 64.5zM395 267q0 59 -35.5 94.5t-96.5 35.5
q-62 0 -100.5 -35.5t-40.5 -94.5h273zM113 564q-19 19 -19 47t19 47.5t47 19.5t47.5 -19.5t19.5 -47.5t-19.5 -47t-47.5 -19t-47 19zM332 564q-19 19 -19 47t19 47.5t47 19.5t47.5 -19.5t19.5 -47.5t-19.5 -47t-47.5 -19t-47 19z" />
    <glyph glyph-name="igrave" unicode="&#xec;" horiz-adv-x="236" 
d="M75 453h85v-453h-85v453zM22 615l39 59l151 -99l-40 -59z" />
    <glyph glyph-name="iacute" unicode="&#xed;" horiz-adv-x="236" 
d="M75 453h85v-453h-85v453zM23 575l150 99l40 -59l-151 -99z" />
    <glyph glyph-name="icircumflex" unicode="&#xee;" horiz-adv-x="236" 
d="M75 453h85v-453h-85v453zM-3 567l120 111l121 -111l-46 -50l-75 72l-73 -71z" />
    <glyph glyph-name="idieresis" unicode="&#xef;" horiz-adv-x="236" 
d="M75 453h85v-453h-85v453zM11.5 557.5q-16.5 16.5 -16.5 39.5q0 24 16.5 40.5t39.5 16.5q24 0 41 -16.5t17 -40.5q0 -23 -17 -39.5t-41 -16.5q-23 0 -39.5 16.5zM143.5 557.5q-16.5 16.5 -16.5 39.5q0 24 16.5 40.5t39.5 16.5q25 0 41.5 -16.5t16.5 -40.5
q0 -23 -16.5 -39.5t-41.5 -16.5q-23 0 -39.5 16.5z" />
    <glyph glyph-name="eth" unicode="&#xf0;" horiz-adv-x="562" 
d="M525 227q0 -66 -30 -120.5t-85 -86t-128 -31.5q-74 0 -129 31.5t-85 86t-30 120.5q0 88 51.5 152t140.5 80q20 2 30 2q30 0 57 -8l-61 86l-102 -57l-28 50l97 53l-82 115h106l52 -73l95 52l28 -48l-91 -50l148 -209q46 -63 46 -145zM393 113.5q41 44.5 41 113.5
t-41 113.5t-111 44.5q-72 0 -113.5 -44.5t-41.5 -113.5t41.5 -113.5t113.5 -44.5q70 0 111 44.5z" />
    <glyph glyph-name="ntilde" unicode="&#xf1;" horiz-adv-x="561" 
d="M75 453h85v-82q20 44 62.5 69t98.5 25q83 0 127 -47.5t44 -138.5v-279h-85v241q0 80 -27.5 115t-89.5 35q-60 0 -95 -40t-35 -108v-243h-85v453zM314.5 554q-19.5 8 -44.5 23q-24 13 -36.5 18.5t-25.5 5.5q-20 0 -35.5 -7.5t-33.5 -31.5l-33 46q42 66 97 66
q18 0 35.5 -7.5t41.5 -21.5q25 -13 40 -19.5t30 -6.5q20 0 37.5 9t35.5 32l32 -46q-21 -37 -47 -52.5t-53 -15.5q-21 0 -40.5 8z" />
    <glyph glyph-name="ograve" unicode="&#xf2;" horiz-adv-x="553" 
d="M150 20.5q-54 31.5 -83 86t-29 120.5t29 120.5t83 86t127 31.5t127 -31.5t83 -86t29 -120.5t-29 -120.5t-83 -86t-127 -31.5t-127 31.5zM389.5 111q41.5 46 41.5 116t-41.5 115.5t-112.5 45.5t-112.5 -45.5t-41.5 -115.5t41.5 -116t112.5 -46t112.5 46zM126 631l29 57
l273 -115l-29 -59z" />
    <glyph glyph-name="oacute" unicode="&#xf3;" horiz-adv-x="553" 
d="M150 20.5q-54 31.5 -83 86t-29 120.5t29 120.5t83 86t127 31.5t127 -31.5t83 -86t29 -120.5t-29 -120.5t-83 -86t-127 -31.5t-127 31.5zM389.5 111q41.5 46 41.5 116t-41.5 115.5t-112.5 45.5t-112.5 -45.5t-41.5 -115.5t41.5 -116t112.5 -46t112.5 46zM111 573l273 115
l29 -57l-273 -117z" />
    <glyph glyph-name="ocircumflex" unicode="&#xf4;" horiz-adv-x="553" 
d="M150 20.5q-54 31.5 -83 86t-29 120.5t29 120.5t83 86t127 31.5t127 -31.5t83 -86t29 -120.5t-29 -120.5t-83 -86t-127 -31.5t-127 31.5zM389.5 111q41.5 46 41.5 116t-41.5 115.5t-112.5 45.5t-112.5 -45.5t-41.5 -115.5t41.5 -116t112.5 -46t112.5 46zM451 553l-46 -51
l-129 109l-127 -108l-47 50l174 146z" />
    <glyph glyph-name="otilde" unicode="&#xf5;" horiz-adv-x="553" 
d="M150 20.5q-54 31.5 -83 86t-29 120.5t29 120.5t83 86t127 31.5t127 -31.5t83 -86t29 -120.5t-29 -120.5t-83 -86t-127 -31.5t-127 31.5zM389.5 111q41.5 46 41.5 116t-41.5 115.5t-112.5 45.5t-112.5 -45.5t-41.5 -115.5t41.5 -116t112.5 -46t112.5 46zM310.5 554
q-19.5 8 -44.5 23q-24 13 -36.5 18.5t-25.5 5.5q-20 0 -35.5 -7.5t-33.5 -31.5l-33 46q42 66 97 66q18 0 35.5 -7.5t41.5 -21.5q25 -13 40 -19.5t30 -6.5q20 0 37.5 9t35.5 32l32 -46q-21 -37 -47 -52.5t-53 -15.5q-21 0 -40.5 8z" />
    <glyph glyph-name="odieresis" unicode="&#xf6;" horiz-adv-x="553" 
d="M150 20.5q-54 31.5 -83 86t-29 120.5t29 120.5t83 86t127 31.5t127 -31.5t83 -86t29 -120.5t-29 -120.5t-83 -86t-127 -31.5t-127 31.5zM389.5 111q41.5 46 41.5 116t-41.5 115.5t-112.5 45.5t-112.5 -45.5t-41.5 -115.5t41.5 -116t112.5 -46t112.5 46zM120 564
q-19 19 -19 47t19 47.5t47 19.5t47.5 -19.5t19.5 -47.5t-19.5 -47t-47.5 -19t-47 19zM339 564q-19 19 -19 47t19 47.5t47 19.5t47.5 -19.5t19.5 -47.5t-19.5 -47t-47.5 -19t-47 19z" />
    <glyph glyph-name="divide" unicode="&#xf7;" horiz-adv-x="620" 
d="M261.5 343.5q-20.5 20.5 -20.5 48.5q0 29 20 49.5t49 20.5t49.5 -20.5t20.5 -49.5t-20.5 -49t-49.5 -20q-28 0 -48.5 20.5zM108 273h404v-77h-404v77zM261.5 36.5q-20.5 20.5 -20.5 48.5q0 26 20.5 48t48.5 22t49 -22t21 -48q0 -29 -20.5 -49t-49.5 -20q-28 0 -48.5 20.5
z" />
    <glyph glyph-name="oslash" unicode="&#xf8;" horiz-adv-x="553" 
d="M486 348.5q30 -54.5 30 -121.5q0 -66 -29 -120.5t-83 -86t-127 -31.5q-36 0 -64 7l-31 -71l-50 23l29 67q-58 29 -90.5 85.5t-32.5 126.5q0 66 29 120.5t83 86t127 31.5q43 0 74 -10l32 73l50 -23l-31 -71q54 -31 84 -85.5zM141 145.5q18 -36.5 51 -57.5l128 295
q-22 5 -43 5q-71 0 -112.5 -45.5t-41.5 -115.5q0 -45 18 -81.5zM389.5 111q41.5 46 41.5 116q0 42 -16 76.5t-45 56.5l-126 -292q15 -3 33 -3q71 0 112.5 46z" />
    <glyph glyph-name="ugrave" unicode="&#xf9;" horiz-adv-x="556" 
d="M115.5 34.5q-46.5 45.5 -46.5 139.5v279h85v-244q0 -73 26 -110t93 -37q62 0 92.5 43t30.5 106v242h85v-453h-85v83q-19 -43 -59 -68.5t-94 -25.5q-81 0 -127.5 45.5zM128 631l29 57l273 -115l-29 -59z" />
    <glyph glyph-name="uacute" unicode="&#xfa;" horiz-adv-x="556" 
d="M115.5 34.5q-46.5 45.5 -46.5 139.5v279h85v-244q0 -73 26 -110t93 -37q62 0 92.5 43t30.5 106v242h85v-453h-85v83q-19 -43 -59 -68.5t-94 -25.5q-81 0 -127.5 45.5zM113 573l273 115l29 -57l-273 -117z" />
    <glyph glyph-name="ucircumflex" unicode="&#xfb;" horiz-adv-x="556" 
d="M115.5 34.5q-46.5 45.5 -46.5 139.5v279h85v-244q0 -73 26 -110t93 -37q62 0 92.5 43t30.5 106v242h85v-453h-85v83q-19 -43 -59 -68.5t-94 -25.5q-81 0 -127.5 45.5zM453 553l-46 -51l-129 109l-127 -108l-47 50l174 146z" />
    <glyph glyph-name="udieresis" unicode="&#xfc;" horiz-adv-x="556" 
d="M115.5 34.5q-46.5 45.5 -46.5 139.5v279h85v-244q0 -73 26 -110t93 -37q62 0 92.5 43t30.5 106v242h85v-453h-85v83q-19 -43 -59 -68.5t-94 -25.5q-81 0 -127.5 45.5zM122 564q-19 19 -19 47t19 47.5t47 19.5t47.5 -19.5t19.5 -47.5t-19.5 -47t-47.5 -19t-47 19zM341 564
q-19 19 -19 47t19 47.5t47 19.5t47.5 -19.5t19.5 -47.5t-19.5 -47t-47.5 -19t-47 19z" />
    <glyph glyph-name="yacute" unicode="&#xfd;" horiz-adv-x="476" 
d="M10 -245v80q25 -7 55 -7q84 0 118 93l21 53l-199 479h92l152 -386l136 386h89l-207 -547q-33 -87 -82.5 -123t-118.5 -36q-28 0 -56 8zM72 573l273 115l29 -57l-273 -117z" />
    <glyph glyph-name="thorn" unicode="&#xfe;" horiz-adv-x="587" 
d="M443 435q50 -30 78 -84t28 -124q0 -69 -29 -123t-80.5 -84.5t-116.5 -30.5q-53 0 -97 24.5t-66 66.5v-327h-85v947h85v-326q22 41 67.5 66t100.5 25q65 0 115 -30zM421 110.5q43 45.5 43 116.5q0 70 -43 115.5t-110 45.5q-68 0 -111.5 -45t-43.5 -116t43.5 -116.5
t111.5 -45.5q67 0 110 45.5z" />
    <glyph glyph-name="ydieresis" unicode="&#xff;" horiz-adv-x="476" 
d="M10 -245v80q25 -7 55 -7q84 0 118 93l21 53l-199 479h92l152 -386l136 386h89l-207 -547q-33 -87 -82.5 -123t-118.5 -36q-28 0 -56 8zM81 564q-19 19 -19 47t19 47.5t47 19.5t47.5 -19.5t19.5 -47.5t-19.5 -47t-47.5 -19t-47 19zM300 564q-19 19 -19 47t19 47.5t47 19.5
t47.5 -19.5t19.5 -47.5t-19.5 -47t-47.5 -19t-47 19z" />
    <glyph glyph-name="Amacron" unicode="&#x100;" horiz-adv-x="573" 
d="M432 108h-291l-34 -108h-94l241 700h65l242 -700h-94zM406 189l-119 374l-120 -374h239zM94 836h386v-68h-386v68z" />
    <glyph glyph-name="amacron" unicode="&#x101;" horiz-adv-x="525" 
d="M88.5 24.5q-44.5 35.5 -44.5 96.5q0 74 53 112q26 20 66 28.5t121 12.5l86 5v25q0 43 -28.5 68t-75.5 25q-54 0 -85.5 -24t-34.5 -67h-86q5 75 59 117t147 42q98 0 144 -43.5t46 -137.5v-284h-86v76q-37 -87 -161 -87q-76 0 -120.5 35.5zM334 92.5q37 36.5 37 98.5v28
l-131 -9q-56 -5 -82.5 -24.5t-26.5 -56.5q0 -36 26.5 -54.5t77.5 -18.5q62 0 99 36.5zM89 634h347v-68h-347v68z" />
    <glyph glyph-name="Abreve" unicode="&#x102;" horiz-adv-x="573" 
d="M432 108h-291l-34 -108h-94l241 700h65l242 -700h-94zM406 189l-119 374l-120 -374h239zM166.5 770.5q-50.5 36.5 -60.5 98.5h73q7 -37 36 -55t72 -18q44 0 73 18t36 55h73q-10 -62 -61 -98.5t-121 -36.5t-120.5 36.5z" />
    <glyph glyph-name="abreve" unicode="&#x103;" horiz-adv-x="525" 
d="M88.5 24.5q-44.5 35.5 -44.5 96.5q0 74 53 112q26 20 66 28.5t121 12.5l86 5v25q0 43 -28.5 68t-75.5 25q-54 0 -85.5 -24t-34.5 -67h-86q5 75 59 117t147 42q98 0 144 -43.5t46 -137.5v-284h-86v76q-37 -87 -161 -87q-76 0 -120.5 35.5zM334 92.5q37 36.5 37 98.5v28
l-131 -9q-56 -5 -82.5 -24.5t-26.5 -56.5q0 -36 26.5 -54.5t77.5 -18.5q62 0 99 36.5zM142.5 559.5q-50.5 40.5 -60.5 109.5h73q7 -44 36 -65.5t72 -21.5q44 0 73 21.5t36 65.5h73q-10 -70 -60.5 -110t-121.5 -40q-70 0 -120.5 40.5z" />
    <glyph glyph-name="Aogonek" unicode="&#x104;" horiz-adv-x="573" 
d="M432 108h-291l-34 -108h-94l241 700h65l242 -700h-94zM406 189l-119 374l-120 -374h239zM412.5 -184q-31.5 28 -31.5 70q0 33 21.5 62t63.5 52h85q-48 -10 -70 -34.5t-22 -53.5q0 -26 17 -42.5t44 -16.5q28 0 57 13l-1 -63q-39 -15 -79 -15q-53 0 -84.5 28z" />
    <glyph glyph-name="aogonek" unicode="&#x105;" horiz-adv-x="525" 
d="M481 -134l-1 -63q-39 -15 -79 -15q-53 0 -84.5 28t-31.5 70q0 33 21.5 62t63.5 52v76q-37 -87 -161 -87q-76 0 -120.5 35.5t-44.5 96.5q0 74 53 112q26 20 66 28.5t121 12.5l86 5v25q0 43 -28.5 68t-75.5 25q-54 0 -85.5 -24t-34.5 -67h-86q5 75 59 117t147 42
q98 0 144 -43.5t46 -137.5v-284h-1q-48 -10 -70 -34.5t-22 -53.5q0 -26 17 -42.5t44 -16.5q28 0 57 13zM334 92.5q37 36.5 37 98.5v28l-131 -9q-56 -5 -82.5 -24.5t-26.5 -56.5q0 -36 26.5 -54.5t77.5 -18.5q62 0 99 36.5z" />
    <glyph glyph-name="Cacute" unicode="&#x106;" horiz-adv-x="769" 
d="M207.5 32q-82.5 48 -126 131t-43.5 187q0 100 43.5 183.5t127 133t198.5 49.5q92 0 164.5 -35t115 -94.5t49.5 -131.5h-98q-16 82 -77 131t-162 49q-83 0 -143.5 -39t-92 -104.5t-31.5 -143.5q0 -81 33 -145.5t94.5 -101t145.5 -36.5q87 0 147 39t83 111h99
q-29 -107 -116 -169t-217 -62q-111 0 -193.5 48zM261 789l217 105l39 -59l-218 -104z" />
    <glyph glyph-name="cacute" unicode="&#x107;" horiz-adv-x="516" 
d="M98 52q-60 63 -60 174q0 69 29 123.5t81 85t119 30.5q92 0 148.5 -49.5t61.5 -135.5h-85q-7 52 -39.5 80t-85.5 28q-64 0 -104 -45t-40 -117q0 -77 38 -119t108 -42q51 0 82.5 25.5t41.5 73.5h86q-13 -83 -69.5 -129t-145.5 -46q-106 0 -166 63zM92 573l273 115l29 -57
l-273 -117z" />
    <glyph glyph-name="Ccircumflex" unicode="&#x108;" horiz-adv-x="769" 
d="M207.5 32q-82.5 48 -126 131t-43.5 187q0 100 43.5 183.5t127 133t198.5 49.5q92 0 164.5 -35t115 -94.5t49.5 -131.5h-98q-16 82 -77 131t-162 49q-83 0 -143.5 -39t-92 -104.5t-31.5 -143.5q0 -81 33 -145.5t94.5 -101t145.5 -36.5q87 0 147 39t83 111h99
q-29 -107 -116 -169t-217 -62q-111 0 -193.5 48zM560 775l-50 -43l-121 94l-121 -94l-50 43l171 129z" />
    <glyph glyph-name="ccircumflex" unicode="&#x109;" horiz-adv-x="516" 
d="M98 52q-60 63 -60 174q0 69 29 123.5t81 85t119 30.5q92 0 148.5 -49.5t61.5 -135.5h-85q-7 52 -39.5 80t-85.5 28q-64 0 -104 -45t-40 -117q0 -77 38 -119t108 -42q51 0 82.5 25.5t41.5 73.5h86q-13 -83 -69.5 -129t-145.5 -46q-106 0 -166 63zM432 553l-46 -51
l-129 109l-127 -108l-47 50l174 146z" />
    <glyph glyph-name="Cdotaccent" unicode="&#x10a;" horiz-adv-x="769" 
d="M207.5 32q-82.5 48 -126 131t-43.5 187q0 100 43.5 183.5t127 133t198.5 49.5q92 0 164.5 -35t115 -94.5t49.5 -131.5h-98q-16 82 -77 131t-162 49q-83 0 -143.5 -39t-92 -104.5t-31.5 -143.5q0 -81 33 -145.5t94.5 -101t145.5 -36.5q87 0 147 39t83 111h99
q-29 -107 -116 -169t-217 -62q-111 0 -193.5 48zM338.5 762q-19.5 20 -19.5 49q0 30 19.5 50t49.5 20t50 -20t20 -50q0 -29 -20 -49t-50 -20t-49.5 20z" />
    <glyph glyph-name="cdotaccent" unicode="&#x10b;" horiz-adv-x="516" 
d="M98 52q-60 63 -60 174q0 69 29 123.5t81 85t119 30.5q92 0 148.5 -49.5t61.5 -135.5h-85q-7 52 -39.5 80t-85.5 28q-64 0 -104 -45t-40 -117q0 -77 38 -119t108 -42q51 0 82.5 25.5t41.5 73.5h86q-13 -83 -69.5 -129t-145.5 -46q-106 0 -166 63zM208 571q-20 20 -20 50
t19.5 49.5t50.5 19.5q30 0 50 -19.5t20 -49.5t-20 -50t-50 -20t-50 20z" />
    <glyph glyph-name="Ccaron" unicode="&#x10c;" horiz-adv-x="769" 
d="M207.5 32q-82.5 48 -126 131t-43.5 187q0 100 43.5 183.5t127 133t198.5 49.5q92 0 164.5 -35t115 -94.5t49.5 -131.5h-98q-16 82 -77 131t-162 49q-83 0 -143.5 -39t-92 -104.5t-31.5 -143.5q0 -81 33 -145.5t94.5 -101t145.5 -36.5q87 0 147 39t83 111h99
q-29 -107 -116 -169t-217 -62q-111 0 -193.5 48zM218 859l50 43l121 -94l121 94l50 -43l-171 -129z" />
    <glyph glyph-name="ccaron" unicode="&#x10d;" horiz-adv-x="516" 
d="M98 52q-60 63 -60 174q0 69 29 123.5t81 85t119 30.5q92 0 148.5 -49.5t61.5 -135.5h-85q-7 52 -39.5 80t-85.5 28q-64 0 -104 -45t-40 -117q0 -77 38 -119t108 -42q51 0 82.5 25.5t41.5 73.5h86q-13 -83 -69.5 -129t-145.5 -46q-106 0 -166 63zM83 647l47 50l127 -108
l129 109l46 -51l-175 -146z" />
    <glyph glyph-name="Dcaron" unicode="&#x10e;" horiz-adv-x="696" 
d="M80 700h222q111 0 192 -48.5t122.5 -128.5t41.5 -173t-41.5 -173t-122.5 -128.5t-192 -48.5h-222v700zM295 81q88 0 149 37.5t91.5 99t30.5 132.5t-30.5 132.5t-91.5 99t-149 37.5h-125v-538h125zM179 859l50 43l121 -94l121 94l50 -43l-171 -129z" />
    <glyph glyph-name="dcaron" unicode="&#x10f;" horiz-adv-x="656" 
d="M512 430h-1v-430h-85v80q-21 -42 -66 -66.5t-97 -24.5q-69 0 -120 31.5t-78.5 86t-27.5 120.5t28.5 120.5t80.5 86t119 31.5q54 0 97 -24.5t64 -66.5v79h1v247h85v-270zM359 87q35 22 53.5 58.5t18.5 81.5q0 44 -18.5 81t-54 58.5t-82.5 21.5q-69 0 -111 -46t-42 -115
q0 -70 42 -116t111 -46q48 0 83 22zM550 495v40q11 -2 30 -2t34 9t22 24q13 21 13 50q-12 -15 -38 -15q-27 0 -45 17.5t-18 46.5q0 30 19 48.5t49 18.5q33 0 59 -28t26 -80q0 -58 -32 -94.5t-88 -36.5q-23 0 -31 2z" />
    <glyph glyph-name="Dcroat" unicode="&#x110;" horiz-adv-x="696" 
d="M494 651.5q81 -48.5 122.5 -128.5t41.5 -173t-41.5 -173t-122.5 -128.5t-192 -48.5h-222v313h-79v77h79v310h222q111 0 192 -48.5zM444 118.5q61 37.5 91.5 99t30.5 132.5t-30.5 132.5t-91.5 99t-149 37.5h-125v-229h133v-77h-133v-232h125q88 0 149 37.5z" />
    <glyph glyph-name="dcroat" unicode="&#x111;" horiz-adv-x="591" 
d="M569 536h-57v-106h-1v-430h-85v80q-21 -42 -66 -66.5t-97 -24.5q-69 0 -120 31.5t-78.5 86t-27.5 120.5t28.5 120.5t80.5 86t119 31.5q54 0 97 -24.5t64 -66.5v79h1v83h-154v59h154v105h85v-105h57v-59zM359 87q35 22 53.5 58.5t18.5 81.5q0 44 -18.5 81t-54 58.5
t-82.5 21.5q-69 0 -111 -46t-42 -115q0 -70 42 -116t111 -46q48 0 83 22z" />
    <glyph glyph-name="Emacron" unicode="&#x112;" horiz-adv-x="544" 
d="M80 700h397v-81h-307v-231h307v-81h-307v-226h307v-81h-397v700zM79 836h386v-68h-386v68z" />
    <glyph glyph-name="emacron" unicode="&#x113;" horiz-adv-x="517" 
d="M100 53.5q-62 64.5 -62 173.5q0 71 28 125t79 83.5t119 29.5q63 0 112 -27t76 -75.5t27 -110.5q0 -27 -2 -48h-354q3 -68 40.5 -104t104.5 -36q45 0 75 18.5t44 53.5h87q-12 -65 -69.5 -106t-136.5 -41q-106 0 -168 64.5zM395 267q0 59 -35.5 94.5t-96.5 35.5
q-62 0 -100.5 -35.5t-40.5 -94.5h273zM96 634h347v-68h-347v68z" />
    <glyph glyph-name="Ebreve" unicode="&#x114;" horiz-adv-x="544" 
d="M80 700h397v-81h-307v-231h307v-81h-307v-226h307v-81h-397v700zM151.5 770.5q-50.5 36.5 -60.5 98.5h73q7 -37 36 -55t72 -18q44 0 73 18t36 55h73q-10 -62 -61 -98.5t-121 -36.5t-120.5 36.5z" />
    <glyph glyph-name="ebreve" unicode="&#x115;" horiz-adv-x="517" 
d="M100 53.5q-62 64.5 -62 173.5q0 71 28 125t79 83.5t119 29.5q63 0 112 -27t76 -75.5t27 -110.5q0 -27 -2 -48h-354q3 -68 40.5 -104t104.5 -36q45 0 75 18.5t44 53.5h87q-12 -65 -69.5 -106t-136.5 -41q-106 0 -168 64.5zM395 267q0 59 -35.5 94.5t-96.5 35.5
q-62 0 -100.5 -35.5t-40.5 -94.5h273zM149.5 559.5q-50.5 40.5 -60.5 109.5h73q7 -44 36 -65.5t72 -21.5q44 0 73 21.5t36 65.5h73q-10 -70 -60.5 -110t-121.5 -40q-70 0 -120.5 40.5z" />
    <glyph glyph-name="Edotaccent" unicode="&#x116;" horiz-adv-x="544" 
d="M80 700h397v-81h-307v-231h307v-81h-307v-226h307v-81h-397v700zM221.5 762q-19.5 20 -19.5 49q0 30 19.5 50t49.5 20t50 -20t20 -50q0 -29 -20 -49t-50 -20t-49.5 20z" />
    <glyph glyph-name="edotaccent" unicode="&#x117;" horiz-adv-x="517" 
d="M100 53.5q-62 64.5 -62 173.5q0 71 28 125t79 83.5t119 29.5q63 0 112 -27t76 -75.5t27 -110.5q0 -27 -2 -48h-354q3 -68 40.5 -104t104.5 -36q45 0 75 18.5t44 53.5h87q-12 -65 -69.5 -106t-136.5 -41q-106 0 -168 64.5zM395 267q0 59 -35.5 94.5t-96.5 35.5
q-62 0 -100.5 -35.5t-40.5 -94.5h273zM220 571q-20 20 -20 50t19.5 49.5t50.5 19.5q30 0 50 -19.5t20 -49.5t-20 -50t-50 -20t-50 20z" />
    <glyph glyph-name="Eogonek" unicode="&#x118;" horiz-adv-x="544" 
d="M509 -131l-1 -63q-39 -15 -79 -15q-53 0 -84.5 28t-31.5 70q0 65 80 111h-313v700h397v-81h-307v-231h307v-81h-307v-226h307v-78h6l-6 -1v-2h-6q-41 -12 -60.5 -35t-19.5 -50q0 -26 17 -42.5t44 -16.5q28 0 57 13z" />
    <glyph glyph-name="eogonek" unicode="&#x119;" horiz-adv-x="517" 
d="M477 204h-354q3 -68 40.5 -104t104.5 -36q45 0 75 18.5t44 53.5h87q-9 -48 -43.5 -84t-86.5 -52h2q-48 -10 -70 -34.5t-22 -53.5q0 -26 17 -42.5t44 -16.5q28 0 57 13l-1 -63q-39 -15 -79 -15q-53 0 -84.5 28t-31.5 70q0 29 17 56t51 48q-96 8 -151 71t-55 166
q0 71 28 125t79 83.5t119 29.5q63 0 112 -27t76 -75.5t27 -110.5q0 -27 -2 -48zM395 267q0 59 -35.5 94.5t-96.5 35.5q-62 0 -100.5 -35.5t-40.5 -94.5h273z" />
    <glyph glyph-name="Ecaron" unicode="&#x11a;" horiz-adv-x="544" 
d="M80 700h397v-81h-307v-231h307v-81h-307v-226h307v-81h-397v700zM101 859l50 43l121 -94l121 94l50 -43l-171 -129z" />
    <glyph glyph-name="ecaron" unicode="&#x11b;" horiz-adv-x="517" 
d="M100 53.5q-62 64.5 -62 173.5q0 71 28 125t79 83.5t119 29.5q63 0 112 -27t76 -75.5t27 -110.5q0 -27 -2 -48h-354q3 -68 40.5 -104t104.5 -36q45 0 75 18.5t44 53.5h87q-12 -65 -69.5 -106t-136.5 -41q-106 0 -168 64.5zM395 267q0 59 -35.5 94.5t-96.5 35.5
q-62 0 -100.5 -35.5t-40.5 -94.5h273zM95 647l47 50l127 -108l129 109l46 -51l-175 -146z" />
    <glyph glyph-name="Gcircumflex" unicode="&#x11c;" horiz-adv-x="812" 
d="M807 258h-78q-22 -127 -107.5 -200.5t-224.5 -73.5q-109 0 -190.5 47.5t-125 129.5t-43.5 183t42 186t124 135.5t197 50.5q80 0 145.5 -28t106.5 -77.5t50 -110.5h-98q-16 60 -70 97.5t-134 37.5q-87 0 -148 -38.5t-91.5 -104t-29.5 -146.5q-1 -79 31 -143t92.5 -101
t141.5 -37q99 0 159.5 50t79.5 143h-172v81h343v-81zM576 775l-50 -43l-121 94l-121 -94l-50 43l171 129z" />
    <glyph glyph-name="gcircumflex" unicode="&#x11d;" horiz-adv-x="587" 
d="M176 -242q-43 15 -74 43q-28 26 -44 62t-17 78h89q4 -56 42 -89t99 -33q156 0 156 157v104q-20 -41 -65 -66t-98 -25q-66 0 -117.5 30t-80 84t-28.5 124q0 68 29.5 122t81.5 85t117 31q53 0 96 -24t65 -67v79h85v-477q0 -124 -67 -182q-60 -51 -174 -51q-52 0 -95 15z
M387.5 110.5q43.5 45.5 43.5 116.5t-43.5 116t-111.5 45q-67 0 -110 -45t-43 -116t43 -116.5t110 -45.5q68 0 111.5 45.5zM468 553l-46 -51l-129 109l-127 -108l-47 50l174 146z" />
    <glyph glyph-name="Gbreve" unicode="&#x11e;" horiz-adv-x="812" 
d="M807 258h-78q-22 -127 -107.5 -200.5t-224.5 -73.5q-109 0 -190.5 47.5t-125 129.5t-43.5 183t42 186t124 135.5t197 50.5q80 0 145.5 -28t106.5 -77.5t50 -110.5h-98q-16 60 -70 97.5t-134 37.5q-87 0 -148 -38.5t-91.5 -104t-29.5 -146.5q-1 -79 31 -143t92.5 -101
t141.5 -37q99 0 159.5 50t79.5 143h-172v81h343v-81zM284.5 770.5q-50.5 36.5 -60.5 98.5h73q7 -37 36 -55t72 -18q44 0 73 18t36 55h73q-10 -62 -61 -98.5t-121 -36.5t-120.5 36.5z" />
    <glyph glyph-name="gbreve" unicode="&#x11f;" horiz-adv-x="587" 
d="M176 -242q-43 15 -74 43q-28 26 -44 62t-17 78h89q4 -56 42 -89t99 -33q156 0 156 157v104q-20 -41 -65 -66t-98 -25q-66 0 -117.5 30t-80 84t-28.5 124q0 68 29.5 122t81.5 85t117 31q53 0 96 -24t65 -67v79h85v-477q0 -124 -67 -182q-60 -51 -174 -51q-52 0 -95 15z
M387.5 110.5q43.5 45.5 43.5 116.5t-43.5 116t-111.5 45q-67 0 -110 -45t-43 -116t43 -116.5t110 -45.5q68 0 111.5 45.5zM173.5 559.5q-50.5 40.5 -60.5 109.5h73q7 -44 36 -65.5t72 -21.5q44 0 73 21.5t36 65.5h73q-10 -70 -60.5 -110t-121.5 -40q-70 0 -120.5 40.5z" />
    <glyph glyph-name="Gdotaccent" unicode="&#x120;" horiz-adv-x="812" 
d="M807 258h-78q-22 -127 -107.5 -200.5t-224.5 -73.5q-109 0 -190.5 47.5t-125 129.5t-43.5 183t42 186t124 135.5t197 50.5q80 0 145.5 -28t106.5 -77.5t50 -110.5h-98q-16 60 -70 97.5t-134 37.5q-87 0 -148 -38.5t-91.5 -104t-29.5 -146.5q-1 -79 31 -143t92.5 -101
t141.5 -37q99 0 159.5 50t79.5 143h-172v81h343v-81zM354.5 762q-19.5 20 -19.5 49q0 30 19.5 50t49.5 20t50 -20t20 -50q0 -29 -20 -49t-50 -20t-49.5 20z" />
    <glyph glyph-name="gdotaccent" unicode="&#x121;" horiz-adv-x="587" 
d="M176 -242q-43 15 -74 43q-28 26 -44 62t-17 78h89q4 -56 42 -89t99 -33q156 0 156 157v104q-20 -41 -65 -66t-98 -25q-66 0 -117.5 30t-80 84t-28.5 124q0 68 29.5 122t81.5 85t117 31q53 0 96 -24t65 -67v79h85v-477q0 -124 -67 -182q-60 -51 -174 -51q-52 0 -95 15z
M387.5 110.5q43.5 45.5 43.5 116.5t-43.5 116t-111.5 45q-67 0 -110 -45t-43 -116t43 -116.5t110 -45.5q68 0 111.5 45.5zM244 571q-20 20 -20 50t19.5 49.5t50.5 19.5q30 0 50 -19.5t20 -49.5t-20 -50t-50 -20t-50 20z" />
    <glyph glyph-name="Gcommaaccent" unicode="&#x122;" horiz-adv-x="812" 
d="M807 258h-78q-22 -127 -107.5 -200.5t-224.5 -73.5q-109 0 -190.5 47.5t-125 129.5t-43.5 183t42 186t124 135.5t197 50.5q80 0 145.5 -28t106.5 -77.5t50 -110.5h-98q-16 60 -70 97.5t-134 37.5q-87 0 -148 -38.5t-91.5 -104t-29.5 -146.5q-1 -79 31 -143t92.5 -101
t141.5 -37q99 0 159.5 50t79.5 143h-172v81h343v-81zM349 -205q23 0 38.5 7.5t22.5 20.5q12 18 10 39q-2 -4 -8 -6.5t-13 -2.5q-25 0 -41 16.5t-16 40.5t17 41.5t41 17.5q31 0 51 -24.5t20 -61.5q0 -122 -122 -124v36z" />
    <glyph glyph-name="gcommaaccent" unicode="&#x123;" horiz-adv-x="587" 
d="M176 -242q-43 15 -74 43q-28 26 -44 62t-17 78h89q4 -56 42 -89t99 -33q156 0 156 157v104q-20 -41 -65 -66t-98 -25q-66 0 -117.5 30t-80 84t-28.5 124q0 68 29.5 122t81.5 85t117 31q53 0 96 -24t65 -67v79h85v-477q0 -124 -67 -182q-60 -51 -174 -51q-52 0 -95 15z
M387.5 110.5q43.5 45.5 43.5 116.5t-43.5 116t-111.5 45q-67 0 -110 -45t-43 -116t43 -116.5t110 -45.5q68 0 111.5 45.5zM356 685q-23 0 -38.5 -7.5t-22.5 -20.5q-12 -18 -10 -39q2 4 8 6.5t13 2.5q25 0 41 -16.5t16 -40.5t-17 -41.5t-41 -17.5q-31 0 -51 24.5t-20 61.5
q0 122 122 124v-36z" />
    <glyph glyph-name="Hcircumflex" unicode="&#x124;" horiz-adv-x="668" 
d="M80 700h90v-312h327v312h90v-700h-90v307h-327v-307h-90v700zM505 775l-50 -43l-121 94l-121 -94l-50 43l171 129z" />
    <glyph glyph-name="hcircumflex" unicode="&#x125;" horiz-adv-x="561" 
d="M448 417.5q44 -47.5 44 -138.5v-279h-85v241q0 80 -27.5 115t-89.5 35q-60 0 -95 -40t-35 -108v-243h-85v700h85v-329q20 44 62.5 69t98.5 25q83 0 127 -47.5zM117 798l-73 -61l-47 50l120 100l121 -100l-46 -51z" />
    <glyph glyph-name="Hbar" unicode="&#x126;" horiz-adv-x="668" 
d="M587 700v-700h-90v307h-327v-307h-90v700h90v-136h327v136h90zM497 388v118h-327v-118h327z" />
    <glyph glyph-name="hbar" unicode="&#x127;" horiz-adv-x="561" 
d="M448 417.5q44 -47.5 44 -138.5v-279h-85v241q0 80 -27.5 115t-89.5 35q-60 0 -95 -40t-35 -108v-243h-85v536h-47v59h47v105h85v-105h164v-59h-164v-165q20 44 62.5 69t98.5 25q83 0 127 -47.5z" />
    <glyph glyph-name="Itilde" unicode="&#x128;" horiz-adv-x="250" 
d="M80 700h90v-700h-90v700zM138 758q-10 7 -22 20q-10 11 -17.5 16.5t-16.5 5.5q-12 0 -20.5 -6.5t-18.5 -26.5l-21 44q12 33 29.5 47.5t35.5 14.5q16 0 27 -7.5t27 -21.5q21 -21 33 -21q11 0 19 6t16 23l20 -45q-9 -31 -27 -43.5t-39 -12.5q-15 0 -25 7z" />
    <glyph glyph-name="itilde" unicode="&#x129;" horiz-adv-x="236" 
d="M75 453h85v-453h-85v453zM129.5 540.5q-10.5 7.5 -22.5 20.5q-18 22 -33 22q-13 0 -21 -6.5t-18 -26.5l-21 44q12 32 29.5 47t34.5 15q16 0 28.5 -8t26.5 -22q2 -2 9.5 -8t13 -9t10.5 -3q11 0 18.5 6t16.5 23l20 -45q-10 -31 -28 -44t-38 -13q-15 0 -25.5 7.5z" />
    <glyph glyph-name="Imacron" unicode="&#x12a;" horiz-adv-x="250" 
d="M80 700h90v-700h-90v700zM26 836h201v-68h-201v68z" />
    <glyph glyph-name="imacron" unicode="&#x12b;" horiz-adv-x="236" 
d="M75 453h85v-453h-85v453zM19 621h197v-68h-197v68z" />
    <glyph glyph-name="Ibreve" unicode="&#x12c;" horiz-adv-x="250" 
d="M80 700h90v-700h-90v700zM42.5 767q-32.5 30 -33.5 99h66q1 -34 15 -50.5t36 -16.5q21 0 35 16.5t15 50.5h66q0 -69 -33 -99t-83 -30q-51 0 -83.5 30z" />
    <glyph glyph-name="ibreve" unicode="&#x12d;" horiz-adv-x="236" 
d="M75 453h85v-453h-85v453zM40 566.5q-31 30.5 -32 97.5h59q1 -36 15 -54.5t35 -18.5t35 18.5t16 54.5h59q-1 -67 -32 -97.5t-78 -30.5q-46 0 -77 30.5z" />
    <glyph glyph-name="Iogonek" unicode="&#x12e;" horiz-adv-x="250" 
d="M80 700h90v-700h-90v700zM26.5 -184q-31.5 28 -31.5 70q0 33 21.5 62t63.5 52h85q-48 -10 -70 -34.5t-22 -53.5q0 -26 17 -42.5t44 -16.5q28 0 57 13l-1 -63q-39 -15 -79 -15q-53 0 -84.5 28z" />
    <glyph glyph-name="iogonek" unicode="&#x12f;" horiz-adv-x="236" 
d="M75 453h85v-453h-85v453zM68 571q-20 20 -20 50t19.5 49.5t50.5 19.5q30 0 50 -19.5t20 -49.5t-20 -50t-50 -20t-50 20zM21.5 -184q-31.5 28 -31.5 70q0 33 21.5 62t63.5 52h85q-48 -10 -70 -34.5t-22 -53.5q0 -26 17 -42.5t44 -16.5q28 0 57 13l-1 -63q-39 -15 -79 -15
q-53 0 -84.5 28z" />
    <glyph glyph-name="Idotaccent" unicode="&#x130;" horiz-adv-x="250" 
d="M80 700h90v-700h-90v700zM75.5 762q-19.5 20 -19.5 49q0 30 19.5 50t49.5 20t50 -20t20 -50q0 -29 -20 -49t-50 -20t-49.5 20z" />
    <glyph glyph-name="dotlessi" unicode="&#x131;" horiz-adv-x="236" 
d="M75 453h85v-453h-85v453z" />
    <glyph glyph-name="IJ" unicode="&#x132;" horiz-adv-x="784" 
d="M80 700h90v-700h-90v700zM331.5 48q-61.5 64 -61.5 174h90q0 -73 37 -115t100 -42t98.5 43t35.5 116v476h90v-476q0 -111 -60 -175.5t-164 -64.5t-165.5 64z" />
    <glyph glyph-name="ij" unicode="&#x133;" horiz-adv-x="471" 
d="M75 453h85v-453h-85v453zM68 571q-20 20 -20 50t19.5 49.5t50.5 19.5q30 0 50 -19.5t20 -49.5t-20 -50t-50 -20t-50 20zM216 -245v78q21 -8 47 -8q51 0 51 64v564h85v-588q0 -58 -31 -89.5t-89 -31.5q-42 0 -63 11zM307 571q-20 20 -20 50t19.5 49.5t50.5 19.5
q30 0 50 -19.5t20 -49.5t-20 -50t-50 -20t-50 20z" />
    <glyph glyph-name="Jcircumflex" unicode="&#x134;" horiz-adv-x="534" 
d="M81.5 48q-61.5 64 -61.5 174h90q0 -73 37 -115t100 -42t98.5 43t35.5 116v476h90v-476q0 -111 -60 -175.5t-164 -64.5t-165.5 64zM425 798l-73 -61l-47 50l120 100l121 -100l-46 -51z" />
    <glyph glyph-name="jcircumflex" unicode="&#x135;" horiz-adv-x="235" 
d="M-20 -245v78q21 -8 47 -8q51 0 51 64v564h85v-588q0 -58 -31 -89.5t-89 -31.5q-42 0 -63 11zM0 567l120 111l121 -111l-46 -50l-75 72l-73 -71z" />
    <glyph glyph-name="Kcommaaccent" unicode="&#x136;" horiz-adv-x="582" 
d="M253 354l327 -354h-116l-294 325v-325h-90v700h90v-327l295 327h115zM235 -205q23 0 38.5 7.5t22.5 20.5q12 18 10 39q-2 -4 -8 -6.5t-13 -2.5q-25 0 -41 16.5t-16 40.5t17 41.5t41 17.5q31 0 51 -24.5t20 -61.5q0 -122 -122 -124v36z" />
    <glyph glyph-name="kcommaaccent" unicode="&#x137;" horiz-adv-x="485" 
d="M256 234l219 -234h-115l-200 217v-217h-85v700h85v-458l203 211h112zM205 -205q23 0 38.5 7.5t22.5 20.5q12 18 10 39q-2 -4 -8 -6.5t-13 -2.5q-25 0 -41 16.5t-16 40.5t17 41.5t41 17.5q31 0 51 -24.5t20 -61.5q0 -122 -122 -124v36z" />
    <glyph glyph-name="kgreenlandic" unicode="&#x138;" horiz-adv-x="477" 
d="M253 234l213 -234h-115l-191 213v-213h-85v453h85v-207l195 207h111z" />
    <glyph glyph-name="Lacute" unicode="&#x139;" horiz-adv-x="498" 
d="M80 700h90v-619h301v-81h-391v700zM26 808l161 99l39 -56l-161 -99z" />
    <glyph glyph-name="lacute" unicode="&#x13a;" horiz-adv-x="236" 
d="M75 700h85v-700h-85v700zM18 808l161 99l39 -56l-161 -99z" />
    <glyph glyph-name="Lcommaaccent" unicode="&#x13b;" horiz-adv-x="498" 
d="M80 700h90v-619h301v-81h-391v700zM227 -205q23 0 38.5 7.5t22.5 20.5q12 18 10 39q-2 -4 -8 -6.5t-13 -2.5q-25 0 -41 16.5t-16 40.5t17 41.5t41 17.5q31 0 51 -24.5t20 -61.5q0 -122 -122 -124v36z" />
    <glyph glyph-name="lcommaaccent" unicode="&#x13c;" horiz-adv-x="236" 
d="M75 700h85v-700h-85v700zM62 -205q23 0 38.5 7.5t22.5 20.5q12 18 10 39q-2 -4 -8 -6.5t-13 -2.5q-25 0 -41 16.5t-16 40.5t17 41.5t41 17.5q31 0 51 -24.5t20 -61.5q0 -122 -122 -124v36z" />
    <glyph glyph-name="Lcaron" unicode="&#x13d;" horiz-adv-x="498" 
d="M80 700h90v-619h301v-81h-391v700zM285 473v40q11 -2 30 -2t34 9t22 24q13 21 13 50q-12 -15 -38 -15q-27 0 -45 17.5t-18 46.5q0 30 19 48.5t49 18.5q33 0 59 -28t26 -80q0 -58 -32 -94.5t-88 -36.5q-23 0 -31 2z" />
    <glyph glyph-name="lcaron" unicode="&#x13e;" horiz-adv-x="303" 
d="M75 700h85v-700h-85v700zM197 488v40q11 -2 30 -2t34 9t22 24q13 21 13 50q-12 -15 -38 -15q-27 0 -45 17.5t-18 46.5q0 30 19 48.5t49 18.5q33 0 59 -28t26 -80q0 -58 -32 -94.5t-88 -36.5q-23 0 -31 2z" />
    <glyph glyph-name="Ldot" unicode="&#x13f;" horiz-adv-x="498" 
d="M80 700h90v-619h301v-81h-391v700zM324.5 404.5q-20.5 20.5 -20.5 48.5q0 29 20 49.5t49 20.5t49.5 -20.5t20.5 -49.5t-20.5 -49t-49.5 -20q-28 0 -48.5 20.5z" />
    <glyph glyph-name="ldot" unicode="&#x140;" horiz-adv-x="330" 
d="M75 700h85v-700h-85v700zM217.5 389.5q-20.5 20.5 -20.5 48.5q0 29 20 49.5t49 20.5t49.5 -20.5t20.5 -49.5t-20.5 -49t-49.5 -20q-28 0 -48.5 20.5z" />
    <glyph glyph-name="Lslash" unicode="&#x141;" horiz-adv-x="498" 
d="M471 81v-81h-391v269l-56 -25v72l56 25v359h90v-319l162 73v-72l-162 -73v-228h301z" />
    <glyph glyph-name="lslash" unicode="&#x142;" horiz-adv-x="236" 
d="M231 387l-74 -40v-347h-85v301l-67 -36v66l67 36v333h85v-287l74 40v-66z" />
    <glyph glyph-name="Nacute" unicode="&#x143;" horiz-adv-x="659" 
d="M80 700h95l318 -551v551h86v-700h-95l-318 551v-551h-86v700zM202 789l217 105l39 -59l-218 -104z" />
    <glyph glyph-name="nacute" unicode="&#x144;" horiz-adv-x="561" 
d="M75 453h85v-82q20 44 62.5 69t98.5 25q83 0 127 -47.5t44 -138.5v-279h-85v241q0 80 -27.5 115t-89.5 35q-60 0 -95 -40t-35 -108v-243h-85v453zM115 573l273 115l29 -57l-273 -117z" />
    <glyph glyph-name="Ncommaaccent" unicode="&#x145;" horiz-adv-x="659" 
d="M80 700h95l318 -551v551h86v-700h-95l-318 551v-551h-86v700zM274 -205q23 0 38.5 7.5t22.5 20.5q12 18 10 39q-2 -4 -8 -6.5t-13 -2.5q-25 0 -41 16.5t-16 40.5t17 41.5t41 17.5q31 0 51 -24.5t20 -61.5q0 -122 -122 -124v36z" />
    <glyph glyph-name="ncommaaccent" unicode="&#x146;" horiz-adv-x="561" 
d="M75 453h85v-82q20 44 62.5 69t98.5 25q83 0 127 -47.5t44 -138.5v-279h-85v241q0 80 -27.5 115t-89.5 35q-60 0 -95 -40t-35 -108v-243h-85v453zM225 -205q23 0 38.5 7.5t22.5 20.5q12 18 10 39q-2 -4 -8 -6.5t-13 -2.5q-25 0 -41 16.5t-16 40.5t17 41.5t41 17.5
q31 0 51 -24.5t20 -61.5q0 -122 -122 -124v36z" />
    <glyph glyph-name="Ncaron" unicode="&#x147;" horiz-adv-x="659" 
d="M80 700h95l318 -551v551h86v-700h-95l-318 551v-551h-86v700zM159 859l50 43l121 -94l121 94l50 -43l-171 -129z" />
    <glyph glyph-name="ncaron" unicode="&#x148;" horiz-adv-x="561" 
d="M75 453h85v-82q20 44 62.5 69t98.5 25q83 0 127 -47.5t44 -138.5v-279h-85v241q0 80 -27.5 115t-89.5 35q-60 0 -95 -40t-35 -108v-243h-85v453zM106 647l47 50l127 -108l129 109l46 -51l-175 -146z" />
    <glyph glyph-name="napostrophe" unicode="&#x149;" horiz-adv-x="561" 
d="M75 453h85v-82q20 44 62.5 69t98.5 25q83 0 127 -47.5t44 -138.5v-279h-85v241q0 80 -27.5 115t-89.5 35q-60 0 -95 -40t-35 -108v-243h-85v453zM21 547v40q11 -2 30 -2t34 9t22 24q13 21 13 50q-12 -15 -38 -15q-27 0 -45 17.5t-18 46.5q0 30 19 48.5t49 18.5
q33 0 59 -28t26 -80q0 -58 -32 -94.5t-88 -36.5q-23 0 -31 2z" />
    <glyph glyph-name="Eng" unicode="&#x14a;" horiz-adv-x="661" 
d="M581 44v-62q0 -69 -27 -122.5t-78 -84t-120 -30.5q-54 0 -97.5 22t-74.5 61l58 57q25 -30 52 -45t62 -15q62 0 96.5 42.5t34.5 114.5v18h-3l-318 551v-551h-86v700h95l318 -551v551h86v-656h2z" />
    <glyph glyph-name="eng" unicode="&#x14b;" horiz-adv-x="563" 
d="M450 417.5q44 -47.5 44 -138.5v-309q0 -66 -26 -117.5t-74 -80.5t-114 -29q-99 0 -162 76l56 54q25 -27 49 -40t57 -13q60 0 94.5 40.5t34.5 109.5v271q0 80 -27.5 115t-89.5 35q-60 0 -95 -40t-35 -108v-243h-85v453h85v-82q20 44 62.5 69t98.5 25q83 0 127 -47.5z" />
    <glyph glyph-name="Omacron" unicode="&#x14c;" horiz-adv-x="797" 
d="M208 33.5q-82 49.5 -126 133t-44 183.5t44 183.5t126 133t191 49.5t191 -49.5t126 -133t44 -183.5t-44 -183.5t-126 -133t-191 -49.5t-191 49.5zM541.5 103.5q60.5 38.5 92.5 103.5t31 143q1 78 -31 143t-92.5 103.5t-142.5 38.5t-143 -38.5t-93 -103.5t-31 -143
q-1 -78 31 -143t93 -103.5t143 -38.5t142.5 38.5zM206 836h386v-68h-386v68z" />
    <glyph glyph-name="omacron" unicode="&#x14d;" horiz-adv-x="553" 
d="M150 20.5q-54 31.5 -83 86t-29 120.5t29 120.5t83 86t127 31.5t127 -31.5t83 -86t29 -120.5t-29 -120.5t-83 -86t-127 -31.5t-127 31.5zM389.5 111q41.5 46 41.5 116t-41.5 115.5t-112.5 45.5t-112.5 -45.5t-41.5 -115.5t41.5 -116t112.5 -46t112.5 46zM103 634h347v-68
h-347v68z" />
    <glyph glyph-name="Obreve" unicode="&#x14e;" horiz-adv-x="797" 
d="M208 33.5q-82 49.5 -126 133t-44 183.5t44 183.5t126 133t191 49.5t191 -49.5t126 -133t44 -183.5t-44 -183.5t-126 -133t-191 -49.5t-191 49.5zM541.5 103.5q60.5 38.5 92.5 103.5t31 143q1 78 -31 143t-92.5 103.5t-142.5 38.5t-143 -38.5t-93 -103.5t-31 -143
q-1 -78 31 -143t93 -103.5t143 -38.5t142.5 38.5zM278.5 770.5q-50.5 36.5 -60.5 98.5h73q7 -37 36 -55t72 -18q44 0 73 18t36 55h73q-10 -62 -61 -98.5t-121 -36.5t-120.5 36.5z" />
    <glyph glyph-name="obreve" unicode="&#x14f;" horiz-adv-x="553" 
d="M150 20.5q-54 31.5 -83 86t-29 120.5t29 120.5t83 86t127 31.5t127 -31.5t83 -86t29 -120.5t-29 -120.5t-83 -86t-127 -31.5t-127 31.5zM389.5 111q41.5 46 41.5 116t-41.5 115.5t-112.5 45.5t-112.5 -45.5t-41.5 -115.5t41.5 -116t112.5 -46t112.5 46zM156.5 559.5
q-50.5 40.5 -60.5 109.5h73q7 -44 36 -65.5t72 -21.5q44 0 73 21.5t36 65.5h73q-10 -70 -60.5 -110t-121.5 -40q-70 0 -120.5 40.5z" />
    <glyph glyph-name="Ohungarumlaut" unicode="&#x150;" horiz-adv-x="797" 
d="M208 33.5q-82 49.5 -126 133t-44 183.5t44 183.5t126 133t191 49.5t191 -49.5t126 -133t44 -183.5t-44 -183.5t-126 -133t-191 -49.5t-191 49.5zM541.5 103.5q60.5 38.5 92.5 103.5t31 143q1 78 -31 143t-92.5 103.5t-142.5 38.5t-143 -38.5t-93 -103.5t-31 -143
q-1 -78 31 -143t93 -103.5t143 -38.5t142.5 38.5zM242 756l127 132l77 -30l-156 -122zM421 756l127 132l76 -32l-156 -121z" />
    <glyph glyph-name="ohungarumlaut" unicode="&#x151;" horiz-adv-x="553" 
d="M150 20.5q-54 31.5 -83 86t-29 120.5t29 120.5t83 86t127 31.5t127 -31.5t83 -86t29 -120.5t-29 -120.5t-83 -86t-127 -31.5t-127 31.5zM389.5 111q41.5 46 41.5 116t-41.5 115.5t-112.5 45.5t-112.5 -45.5t-41.5 -115.5t41.5 -116t112.5 -46t112.5 46zM90 525l125 166
l75 -37l-157 -152zM285 525l125 166l75 -37l-157 -152z" />
    <glyph glyph-name="OE" unicode="&#x152;" horiz-adv-x="1135" 
d="M761 619v-231h307v-81h-307v-226h307v-81h-397v101q-48 -56 -117 -86.5t-155 -30.5q-109 0 -191 49.5t-126 133t-44 183.5t44 183.5t126 133t191 49.5q86 0 155 -30.5t117 -86.5v101h397v-81h-307zM541.5 103.5q60.5 38.5 92.5 103.5t31 143q1 78 -31 143t-92.5 103.5
t-142.5 38.5t-143 -38.5t-93 -103.5t-31 -143q-1 -78 31 -143t93 -103.5t143 -38.5t142.5 38.5z" />
    <glyph glyph-name="oe" unicode="&#x153;" horiz-adv-x="909" 
d="M870 204h-354q3 -68 40.5 -104t104.5 -36q45 0 75 18.5t44 53.5h87q-12 -65 -69.5 -106t-136.5 -41q-63 0 -112 23.5t-78 68.5q-32 -43 -81.5 -67.5t-112.5 -24.5q-73 0 -127 31.5t-83 86t-29 120.5t29 120.5t83 86t127 31.5q63 0 112.5 -24.5t81.5 -67.5q30 44 77.5 68
t108.5 24q63 0 112 -27t76 -75.5t27 -110.5q0 -27 -2 -48zM788 267q0 59 -35.5 94.5t-96.5 35.5q-62 0 -100.5 -35.5t-40.5 -94.5h273zM389.5 111q41.5 46 41.5 116t-41.5 115.5t-112.5 45.5t-112.5 -45.5t-41.5 -115.5t41.5 -116t112.5 -46t112.5 46z" />
    <glyph glyph-name="Racute" unicode="&#x154;" horiz-adv-x="601" 
d="M522.5 319.5q-42.5 -60.5 -113.5 -83.5l146 -236h-102l-139 224h-144v-224h-90v700h251q67 0 120.5 -30.5t83.5 -85t30 -122.5q0 -82 -42.5 -142.5zM170 305h156q42 0 76.5 20.5t54 56t19.5 80.5t-19.5 80.5t-54 56t-76.5 20.5h-156v-314zM173 789l217 105l39 -59
l-218 -104z" />
    <glyph glyph-name="racute" unicode="&#x155;" horiz-adv-x="345" 
d="M75 453h85v-103q13 55 50 82t83 27q28 0 41 -4v-78q-14 2 -41 2q-65 0 -99 -50t-34 -130v-199h-85v453zM5 573l273 115l29 -57l-273 -117z" />
    <glyph glyph-name="Rcommaaccent" unicode="&#x156;" horiz-adv-x="601" 
d="M522.5 319.5q-42.5 -60.5 -113.5 -83.5l146 -236h-102l-139 224h-144v-224h-90v700h251q67 0 120.5 -30.5t83.5 -85t30 -122.5q0 -82 -42.5 -142.5zM170 305h156q42 0 76.5 20.5t54 56t19.5 80.5t-19.5 80.5t-54 56t-76.5 20.5h-156v-314zM245 -205q23 0 38.5 7.5
t22.5 20.5q12 18 10 39q-2 -4 -8 -6.5t-13 -2.5q-25 0 -41 16.5t-16 40.5t17 41.5t41 17.5q31 0 51 -24.5t20 -61.5q0 -122 -122 -124v36z" />
    <glyph glyph-name="rcommaaccent" unicode="&#x157;" horiz-adv-x="345" 
d="M75 453h85v-103q13 55 50 82t83 27q28 0 41 -4v-78q-14 2 -41 2q-65 0 -99 -50t-34 -130v-199h-85v453zM69 -205q23 0 38.5 7.5t22.5 20.5q12 18 10 39q-2 -4 -8 -6.5t-13 -2.5q-25 0 -41 16.5t-16 40.5t17 41.5t41 17.5q31 0 51 -24.5t20 -61.5q0 -122 -122 -124v36z
" />
    <glyph glyph-name="Rcaron" unicode="&#x158;" horiz-adv-x="601" 
d="M522.5 319.5q-42.5 -60.5 -113.5 -83.5l146 -236h-102l-139 224h-144v-224h-90v700h251q67 0 120.5 -30.5t83.5 -85t30 -122.5q0 -82 -42.5 -142.5zM170 305h156q42 0 76.5 20.5t54 56t19.5 80.5t-19.5 80.5t-54 56t-76.5 20.5h-156v-314zM130 859l50 43l121 -94l121 94
l50 -43l-171 -129z" />
    <glyph glyph-name="rcaron" unicode="&#x159;" horiz-adv-x="345" 
d="M75 453h85v-103q13 55 50 82t83 27q28 0 41 -4v-78q-14 2 -41 2q-65 0 -99 -50t-34 -130v-199h-85v453zM-4 647l47 50l127 -108l129 109l46 -51l-175 -146z" />
    <glyph glyph-name="Sacute" unicode="&#x15a;" horiz-adv-x="557" 
d="M101.5 47.5q-67.5 63.5 -67.5 175.5h90q0 -74 43.5 -117t119.5 -43q67 0 104 30t37 86q0 46 -26 75t-87 49l-117 40q-143 45 -143 182q0 56 28 99.5t78.5 67.5t115.5 24q103 0 165 -58t64 -156h-90q-1 65 -38 101t-104 36q-60 0 -94.5 -29.5t-34.5 -79.5q0 -43 30 -72
t95 -51l110 -37q138 -45 138 -188q0 -59 -28.5 -104t-80.5 -69.5t-121 -24.5q-119 0 -186.5 63.5zM150 789l217 105l39 -59l-218 -104z" />
    <glyph glyph-name="sacute" unicode="&#x15b;" horiz-adv-x="465" 
d="M90.5 34.5q-55.5 45.5 -55.5 122.5h85q0 -44 33 -71t87 -27q48 0 75.5 18t27.5 50q0 56 -70 63l-93 12q-135 17 -135 124q0 62 50.5 100.5t132.5 38.5q93 0 141 -39t48 -114h-84q0 41 -27.5 63.5t-78.5 22.5q-45 0 -71.5 -17.5t-26.5 -46.5q0 -28 19 -42.5t61 -20.5
l96 -13q61 -9 92.5 -41.5t31.5 -85.5q0 -65 -51.5 -103.5t-138.5 -38.5q-93 0 -148.5 45.5zM66 573l273 115l29 -57l-273 -117z" />
    <glyph glyph-name="Scircumflex" unicode="&#x15c;" horiz-adv-x="557" 
d="M101.5 47.5q-67.5 63.5 -67.5 175.5h90q0 -74 43.5 -117t119.5 -43q67 0 104 30t37 86q0 46 -26 75t-87 49l-117 40q-143 45 -143 182q0 56 28 99.5t78.5 67.5t115.5 24q103 0 165 -58t64 -156h-90q-1 65 -38 101t-104 36q-60 0 -94.5 -29.5t-34.5 -79.5q0 -43 30 -72
t95 -51l110 -37q138 -45 138 -188q0 -59 -28.5 -104t-80.5 -69.5t-121 -24.5q-119 0 -186.5 63.5zM449 775l-50 -43l-121 94l-121 -94l-50 43l171 129z" />
    <glyph glyph-name="scircumflex" unicode="&#x15d;" horiz-adv-x="465" 
d="M90.5 34.5q-55.5 45.5 -55.5 122.5h85q0 -44 33 -71t87 -27q48 0 75.5 18t27.5 50q0 56 -70 63l-93 12q-135 17 -135 124q0 62 50.5 100.5t132.5 38.5q93 0 141 -39t48 -114h-84q0 41 -27.5 63.5t-78.5 22.5q-45 0 -71.5 -17.5t-26.5 -46.5q0 -28 19 -42.5t61 -20.5
l96 -13q61 -9 92.5 -41.5t31.5 -85.5q0 -65 -51.5 -103.5t-138.5 -38.5q-93 0 -148.5 45.5zM406 553l-46 -51l-129 109l-127 -108l-47 50l174 146z" />
    <glyph glyph-name="Scedilla" unicode="&#x15e;" horiz-adv-x="557" 
d="M101.5 47.5q-67.5 63.5 -67.5 175.5h90q0 -74 43.5 -117t119.5 -43q67 0 104 30t37 86q0 46 -26 75t-87 49l-117 40q-143 45 -143 182q0 56 28 99.5t78.5 67.5t115.5 24q103 0 165 -58t64 -156h-90q-1 65 -38 101t-104 36q-60 0 -94.5 -29.5t-34.5 -79.5q0 -43 30 -72
t95 -51l110 -37q138 -45 138 -188q0 -59 -28.5 -104t-80.5 -69.5t-121 -24.5q-119 0 -186.5 63.5z" />
    <glyph glyph-name="scedilla" unicode="&#x15f;" horiz-adv-x="465" 
d="M383 32q-46 -38 -125 -42v-61q6 9 20 14.5t28 5.5q33 0 58 -24t25 -63q0 -38 -26.5 -67t-73.5 -29q-29 0 -60.5 20t-37.5 68h52q4 -19 16 -30.5t30 -11.5q21 0 34 14t13 36q0 20 -13 33t-33 13q-28 0 -40 -26h-45v109q-79 8 -124.5 52.5t-45.5 113.5h85q0 -44 33 -71
t87 -27q48 0 75.5 18t27.5 50q0 56 -70 63l-93 12q-135 17 -135 124q0 62 50.5 100.5t132.5 38.5q93 0 141 -39t48 -114h-84q0 41 -27.5 63.5t-78.5 22.5q-45 0 -71.5 -17.5t-26.5 -46.5q0 -28 19 -42.5t61 -20.5l96 -13q61 -9 92.5 -41.5t31.5 -85.5q0 -61 -46 -99z" />
    <glyph glyph-name="Scaron" unicode="&#x160;" horiz-adv-x="557" 
d="M101.5 47.5q-67.5 63.5 -67.5 175.5h90q0 -74 43.5 -117t119.5 -43q67 0 104 30t37 86q0 46 -26 75t-87 49l-117 40q-143 45 -143 182q0 56 28 99.5t78.5 67.5t115.5 24q103 0 165 -58t64 -156h-90q-1 65 -38 101t-104 36q-60 0 -94.5 -29.5t-34.5 -79.5q0 -43 30 -72
t95 -51l110 -37q138 -45 138 -188q0 -59 -28.5 -104t-80.5 -69.5t-121 -24.5q-119 0 -186.5 63.5zM107 859l50 43l121 -94l121 94l50 -43l-171 -129z" />
    <glyph glyph-name="scaron" unicode="&#x161;" horiz-adv-x="465" 
d="M90.5 34.5q-55.5 45.5 -55.5 122.5h85q0 -44 33 -71t87 -27q48 0 75.5 18t27.5 50q0 56 -70 63l-93 12q-135 17 -135 124q0 62 50.5 100.5t132.5 38.5q93 0 141 -39t48 -114h-84q0 41 -27.5 63.5t-78.5 22.5q-45 0 -71.5 -17.5t-26.5 -46.5q0 -28 19 -42.5t61 -20.5
l96 -13q61 -9 92.5 -41.5t31.5 -85.5q0 -65 -51.5 -103.5t-138.5 -38.5q-93 0 -148.5 45.5zM57 647l47 50l127 -108l129 109l46 -51l-175 -146z" />
    <glyph glyph-name="uni0162" unicode="&#x162;" horiz-adv-x="521" 
d="M215 619h-209v81h508v-81h-210v-619h-89v619zM256.5 -214q-31.5 20 -37.5 68h52q4 -19 16 -30.5t30 -11.5q21 0 34 14t13 36q0 20 -13 33t-33 13q-28 0 -40 -26h-45v118h53v-71q6 9 20 14.5t28 5.5q33 0 58 -24t25 -63q0 -38 -26.5 -67t-73.5 -29q-29 0 -60.5 20z" />
    <glyph glyph-name="uni0163" unicode="&#x163;" horiz-adv-x="354" 
d="M363 -75q25 -24 25 -63q0 -38 -26.5 -67t-73.5 -29q-29 0 -60.5 20t-37.5 68h52q4 -19 16 -30.5t30 -11.5q21 0 34 14t13 36q0 20 -13 33t-33 13q-28 0 -40 -26h-45v115q-99 18 -99 156v228h-85v72h85v154h85v-154h118v-72h-118v-210q0 -61 18.5 -80.5t57.5 -19.5t58 6
v-76q-19 -5 -67 -7v-65q6 9 20 14.5t28 5.5q33 0 58 -24z" />
    <glyph glyph-name="Tcaron" unicode="&#x164;" horiz-adv-x="521" 
d="M215 619h-209v81h508v-81h-210v-619h-89v619zM89 859l50 43l121 -94l121 94l50 -43l-171 -129z" />
    <glyph glyph-name="tcaron" unicode="&#x165;" horiz-adv-x="354" 
d="M225 492v38q10 -2 28 -2t32 8t20 22q12 18 12 47q-11 -14 -35 -14q-25 0 -42 16.5t-17 43.5q0 28 17.5 45t46.5 17q30 0 54.5 -26.5t24.5 -74.5q0 -54 -29.5 -87.5t-82.5 -33.5q-21 0 -29 1zM146 24.5q-41 30.5 -41 128.5v228h-85v72h85v154h85v-154h118v-72h-118v-210
q0 -61 18.5 -80.5t57.5 -19.5t58 6v-76q-30 -7 -77 -7q-60 0 -101 30.5z" />
    <glyph glyph-name="Tbar" unicode="&#x166;" horiz-adv-x="521" 
d="M304 619v-162h149v-65h-149v-392h-89v392h-146v65h146v162h-209v81h508v-81h-210z" />
    <glyph glyph-name="tbar" unicode="&#x167;" horiz-adv-x="354" 
d="M324 77v-76q-30 -7 -77 -7q-60 0 -101 30.5t-41 128.5v64h-85v58h85v106h-85v72h85v154h85v-154h118v-72h-118v-106h118v-58h-118v-46q0 -61 18.5 -80.5t57.5 -19.5t58 6z" />
    <glyph glyph-name="Utilde" unicode="&#x168;" horiz-adv-x="623" 
d="M130 47.5q-67 63.5 -67 178.5v474h90v-469q0 -79 42.5 -122.5t116.5 -43.5q73 0 116 43.5t43 122.5v469h90v-474q0 -115 -67.5 -178.5t-181.5 -63.5q-115 0 -182 63.5zM343 747.5q-20 8.5 -47 25.5q-20 14 -35 21t-31 7q-21 0 -37 -9.5t-36 -36.5l-37 34q46 78 105 78
q23 0 43.5 -9t46.5 -25q25 -14 40 -21t31 -7q23 0 41.5 10t38.5 38l36 -38q-42 -76 -116 -76q-23 0 -43 8.5z" />
    <glyph glyph-name="utilde" unicode="&#x169;" horiz-adv-x="556" 
d="M115.5 34.5q-46.5 45.5 -46.5 139.5v279h85v-244q0 -73 26 -110t93 -37q62 0 92.5 43t30.5 106v242h85v-453h-85v83q-19 -43 -59 -68.5t-94 -25.5q-81 0 -127.5 45.5zM312.5 554q-19.5 8 -44.5 23q-24 13 -36.5 18.5t-25.5 5.5q-20 0 -35.5 -7.5t-33.5 -31.5l-33 46
q42 66 97 66q18 0 35.5 -7.5t41.5 -21.5q25 -13 40 -19.5t30 -6.5q20 0 37.5 9t35.5 32l32 -46q-21 -37 -47 -52.5t-53 -15.5q-21 0 -40.5 8z" />
    <glyph glyph-name="Umacron" unicode="&#x16a;" horiz-adv-x="623" 
d="M130 47.5q-67 63.5 -67 178.5v474h90v-469q0 -79 42.5 -122.5t116.5 -43.5q73 0 116 43.5t43 122.5v469h90v-474q0 -115 -67.5 -178.5t-181.5 -63.5q-115 0 -182 63.5zM118 836h386v-68h-386v68z" />
    <glyph glyph-name="umacron" unicode="&#x16b;" horiz-adv-x="556" 
d="M115.5 34.5q-46.5 45.5 -46.5 139.5v279h85v-244q0 -73 26 -110t93 -37q62 0 92.5 43t30.5 106v242h85v-453h-85v83q-19 -43 -59 -68.5t-94 -25.5q-81 0 -127.5 45.5zM105 634h347v-68h-347v68z" />
    <glyph glyph-name="Ubreve" unicode="&#x16c;" horiz-adv-x="623" 
d="M130 47.5q-67 63.5 -67 178.5v474h90v-469q0 -79 42.5 -122.5t116.5 -43.5q73 0 116 43.5t43 122.5v469h90v-474q0 -115 -67.5 -178.5t-181.5 -63.5q-115 0 -182 63.5zM190.5 770.5q-50.5 36.5 -60.5 98.5h73q7 -37 36 -55t72 -18q44 0 73 18t36 55h73q-10 -62 -61 -98.5
t-121 -36.5t-120.5 36.5z" />
    <glyph glyph-name="ubreve" unicode="&#x16d;" horiz-adv-x="556" 
d="M115.5 34.5q-46.5 45.5 -46.5 139.5v279h85v-244q0 -73 26 -110t93 -37q62 0 92.5 43t30.5 106v242h85v-453h-85v83q-19 -43 -59 -68.5t-94 -25.5q-81 0 -127.5 45.5zM158.5 559.5q-50.5 40.5 -60.5 109.5h73q7 -44 36 -65.5t72 -21.5q44 0 73 21.5t36 65.5h73
q-10 -70 -60.5 -110t-121.5 -40q-70 0 -120.5 40.5z" />
    <glyph glyph-name="Uring" unicode="&#x16e;" horiz-adv-x="623" 
d="M251.5 672.5q-28.5 16.5 -45 44t-16.5 60.5q0 51 36 86.5t88 35.5q34 0 63.5 -16.5t46.5 -44.5t17 -61q0 -32 -17 -60t-46.5 -44.5t-63.5 -16.5t-62.5 16.5zM363 729q20 20 20 49q0 30 -19.5 49.5t-50.5 19.5q-28 0 -48 -20.5t-20 -49.5q0 -28 20 -48t48 -20q30 0 50 20z
M130 47.5q-67 63.5 -67 178.5v474h90v-469q0 -79 42.5 -122.5t116.5 -43.5q73 0 116 43.5t43 122.5v469h90v-474q0 -115 -67.5 -178.5t-181.5 -63.5q-115 0 -182 63.5z" />
    <glyph glyph-name="uring" unicode="&#x16f;" horiz-adv-x="556" 
d="M115.5 34.5q-46.5 45.5 -46.5 139.5v279h85v-244q0 -73 26 -110t93 -37q62 0 92.5 43t30.5 106v242h85v-453h-85v83q-19 -43 -59 -68.5t-94 -25.5q-81 0 -127.5 45.5zM196 531.5q-34 34.5 -34 81.5q0 49 34 83t82 34q32 0 59 -16t43 -43t16 -58q0 -47 -34.5 -81.5
t-83.5 -34.5q-48 0 -82 34.5zM326.5 566q19.5 20 19.5 49q0 27 -19.5 47t-48.5 20q-28 0 -47.5 -20t-19.5 -49q0 -28 19.5 -47.5t47.5 -19.5q29 0 48.5 20z" />
    <glyph glyph-name="Uhungarumlaut" unicode="&#x170;" horiz-adv-x="623" 
d="M130 47.5q-67 63.5 -67 178.5v474h90v-469q0 -79 42.5 -122.5t116.5 -43.5q73 0 116 43.5t43 122.5v469h90v-474q0 -115 -67.5 -178.5t-181.5 -63.5q-115 0 -182 63.5zM154 756l127 132l77 -30l-156 -122zM333 756l127 132l76 -32l-156 -121z" />
    <glyph glyph-name="uhungarumlaut" unicode="&#x171;" horiz-adv-x="556" 
d="M115.5 34.5q-46.5 45.5 -46.5 139.5v279h85v-244q0 -73 26 -110t93 -37q62 0 92.5 43t30.5 106v242h85v-453h-85v83q-19 -43 -59 -68.5t-94 -25.5q-81 0 -127.5 45.5zM92 525l125 166l75 -37l-157 -152zM287 525l125 166l75 -37l-157 -152z" />
    <glyph glyph-name="Uogonek" unicode="&#x172;" horiz-adv-x="623" 
d="M561 700v-474q0 -104 -56.5 -166.5t-154.5 -73.5q-26 -14 -38.5 -33t-12.5 -41q0 -26 17 -42.5t44 -16.5q28 0 57 13l-1 -63q-39 -15 -79 -15q-53 0 -84.5 28t-31.5 70q0 27 15.5 52.5t45.5 46.5q-102 8 -160.5 71t-58.5 170v474h90v-469q0 -79 42.5 -122.5t116.5 -43.5
q73 0 116 43.5t43 122.5v469h90z" />
    <glyph glyph-name="uogonek" unicode="&#x173;" horiz-adv-x="556" 
d="M507 -134l-1 -63q-39 -15 -79 -15q-53 0 -84.5 28t-31.5 70q0 33 21.5 62t63.5 52v83q-19 -43 -59 -68.5t-94 -25.5q-81 0 -127.5 45.5t-46.5 139.5v279h85v-244q0 -73 26 -110t93 -37q62 0 92.5 43t30.5 106v242h85v-453q-48 -10 -70 -34.5t-22 -53.5q0 -26 17 -42.5
t44 -16.5q28 0 57 13z" />
    <glyph glyph-name="Wcircumflex" unicode="&#x174;" horiz-adv-x="964" 
d="M6 700h94l181 -553l167 553h68l167 -553l180 553h95l-240 -700h-66l-170 545l-170 -545h-67zM654 775l-50 -43l-121 94l-121 -94l-50 43l171 129z" />
    <glyph glyph-name="wcircumflex" unicode="&#x175;" horiz-adv-x="739" 
d="M8 453h94l113 -332l116 332h77l117 -332l113 332h94l-176 -453h-59l-127 360l-127 -360h-59zM544 553l-46 -51l-129 109l-127 -108l-47 50l174 146z" />
    <glyph glyph-name="Ycircumflex" unicode="&#x176;" horiz-adv-x="570" 
d="M240 284l-256 416h104l196 -329l198 329h104l-256 -415v-285h-90v284zM456 775l-50 -43l-121 94l-121 -94l-50 43l171 129z" />
    <glyph glyph-name="ycircumflex" unicode="&#x177;" horiz-adv-x="476" 
d="M10 -245v80q25 -7 55 -7q84 0 118 93l21 53l-199 479h92l152 -386l136 386h89l-207 -547q-33 -87 -82.5 -123t-118.5 -36q-28 0 -56 8zM412 553l-46 -51l-129 109l-127 -108l-47 50l174 146z" />
    <glyph glyph-name="Ydieresis" unicode="&#x178;" horiz-adv-x="570" 
d="M240 284l-256 416h104l196 -329l198 329h104l-256 -415v-285h-90v284zM119 767q-19 19 -19 47t19 47.5t47 19.5t47.5 -19.5t19.5 -47.5t-19.5 -47t-47.5 -19t-47 19zM356 767q-19 19 -19 47t19 47.5t47 19.5t47.5 -19.5t19.5 -47.5t-19.5 -47t-47.5 -19t-47 19z" />
    <glyph glyph-name="Zacute" unicode="&#x179;" horiz-adv-x="539" 
d="M381 619h-336v81h485l-370 -619h367v-81h-519zM142 789l217 105l39 -59l-218 -104z" />
    <glyph glyph-name="zacute" unicode="&#x17a;" horiz-adv-x="436" 
d="M284 381h-248v72h392l-268 -381h256v-72h-399zM52 573l273 115l29 -57l-273 -117z" />
    <glyph glyph-name="Zdotaccent" unicode="&#x17b;" horiz-adv-x="539" 
d="M381 619h-336v81h485l-370 -619h367v-81h-519zM219.5 762q-19.5 20 -19.5 49q0 30 19.5 50t49.5 20t50 -20t20 -50q0 -29 -20 -49t-50 -20t-49.5 20z" />
    <glyph glyph-name="zdotaccent" unicode="&#x17c;" horiz-adv-x="436" 
d="M284 381h-248v72h392l-268 -381h256v-72h-399zM168 571q-20 20 -20 50t19.5 49.5t50.5 19.5q30 0 50 -19.5t20 -49.5t-20 -50t-50 -20t-50 20z" />
    <glyph glyph-name="Zcaron" unicode="&#x17d;" horiz-adv-x="539" 
d="M381 619h-336v81h485l-370 -619h367v-81h-519zM99 859l50 43l121 -94l121 94l50 -43l-171 -129z" />
    <glyph glyph-name="zcaron" unicode="&#x17e;" horiz-adv-x="436" 
d="M284 381h-248v72h392l-268 -381h256v-72h-399zM43 647l47 50l127 -108l129 109l46 -51l-175 -146z" />
    <glyph glyph-name="florin" unicode="&#x192;" horiz-adv-x="425" 
d="M-62 -199l13 73q24 -8 50 -8q37 0 61 16t34 71l75 428h-98l13 72h98l14 70q18 107 70 140t114 33q36 0 60 -12l-12 -73q-24 8 -50 8q-37 0 -61.5 -16t-33.5 -71l-16 -79h131l-13 -72h-130l-74 -419q-19 -108 -70 -140.5t-114 -32.5q-35 0 -61 12z" />
    <glyph glyph-name="AEacute" unicode="&#x1fc;" horiz-adv-x="852" 
d="M479 619v-231h307v-81h-307v-226h307v-81h-397v108h-243l-52 -108h-97l352 700h437v-81h-307zM389 189v424l-204 -424h204zM457 789l217 105l39 -59l-218 -104z" />
    <glyph glyph-name="aeacute" unicode="&#x1fd;" horiz-adv-x="846" 
d="M806 203h-354q3 -68 40.5 -104t104.5 -36q45 0 75 18.5t44 53.5h87q-12 -65 -69.5 -106t-136.5 -41q-62 0 -109.5 23t-77.5 65q-55 -87 -197 -87q-75 0 -122 36t-47 96q0 73 56 111q29 20 70.5 27.5t111.5 7.5h88v3v35q0 41 -25.5 66.5t-79.5 25.5q-55 0 -85.5 -24.5
t-33.5 -66.5h-86q5 74 59 116.5t148 42.5q114 0 157 -71q30 34 73 52t96 18q63 0 112 -27t76 -75.5t27 -110.5q0 -27 -2 -48zM724 266q0 59 -35.5 94.5t-96.5 35.5q-62 0 -100.5 -35.5t-40.5 -94.5h273zM330.5 86q38.5 30 40.5 89q-3 14 -3 29h-118q-58 0 -88.5 -21
t-30.5 -56q0 -36 27.5 -53.5t76.5 -17.5q57 0 95.5 30zM296 573l273 115l29 -57l-273 -117z" />
    <glyph glyph-name="Oslashacute" unicode="&#x1fe;" horiz-adv-x="797" 
d="M711.5 542q48.5 -87 48.5 -192q0 -100 -44 -183.5t-126 -133t-191 -49.5q-62 0 -113 16l-35 -83l-61 26l35 81q-89 46 -138 133t-49 193q0 100 44 183.5t126 133t191 49.5q59 0 115 -16l34 80l61 -27l-33 -78q87 -46 135.5 -133zM164 205q33 -66 94 -103l223 522
q-39 11 -82 11q-82 0 -143 -38.5t-93 -103.5t-31 -143q-1 -79 32 -145zM541 103q60 38 92 102.5t32 142.5q0 80 -31.5 145.5t-91.5 102.5l-223 -520q39 -11 80 -11q82 0 142 38zM274 789l217 105l39 -59l-218 -104z" />
    <glyph glyph-name="oslashacute" unicode="&#x1ff;" horiz-adv-x="553" 
d="M486 348.5q30 -54.5 30 -121.5q0 -66 -29 -120.5t-83 -86t-127 -31.5q-36 0 -64 7l-31 -71l-50 23l29 67q-58 29 -90.5 85.5t-32.5 126.5q0 66 29 120.5t83 86t127 31.5q43 0 74 -10l32 73l50 -23l-31 -71q54 -31 84 -85.5zM141 145.5q18 -36.5 51 -57.5l128 295
q-22 5 -43 5q-71 0 -112.5 -45.5t-41.5 -115.5q0 -45 18 -81.5zM389.5 111q41.5 46 41.5 116q0 42 -16 76.5t-45 56.5l-126 -292q15 -3 33 -3q71 0 112.5 46zM111 573l273 115l29 -57l-273 -117z" />
    <glyph glyph-name="Scommaaccent" unicode="&#x218;" horiz-adv-x="557" 
d="M101.5 47.5q-67.5 63.5 -67.5 175.5h90q0 -74 43.5 -117t119.5 -43q67 0 104 30t37 86q0 46 -26 75t-87 49l-117 40q-143 45 -143 182q0 56 28 99.5t78.5 67.5t115.5 24q103 0 165 -58t64 -156h-90q-1 65 -38 101t-104 36q-60 0 -94.5 -29.5t-34.5 -79.5q0 -43 30 -72
t95 -51l110 -37q138 -45 138 -188q0 -59 -28.5 -104t-80.5 -69.5t-121 -24.5q-119 0 -186.5 63.5zM225 -205q23 0 38.5 7.5t22.5 20.5q12 18 10 39q-2 -4 -8 -6.5t-13 -2.5q-25 0 -41 16.5t-16 40.5t17 41.5t41 17.5q31 0 51 -24.5t20 -61.5q0 -122 -122 -124v36z" />
    <glyph glyph-name="scommaaccent" unicode="&#x219;" horiz-adv-x="465" 
d="M90.5 34.5q-55.5 45.5 -55.5 122.5h85q0 -44 33 -71t87 -27q48 0 75.5 18t27.5 50q0 56 -70 63l-93 12q-135 17 -135 124q0 62 50.5 100.5t132.5 38.5q93 0 141 -39t48 -114h-84q0 41 -27.5 63.5t-78.5 22.5q-45 0 -71.5 -17.5t-26.5 -46.5q0 -28 19 -42.5t61 -20.5
l96 -13q61 -9 92.5 -41.5t31.5 -85.5q0 -65 -51.5 -103.5t-138.5 -38.5q-93 0 -148.5 45.5zM176 -205q23 0 38.5 7.5t22.5 20.5q12 18 10 39q-2 -4 -8 -6.5t-13 -2.5q-25 0 -41 16.5t-16 40.5t17 41.5t41 17.5q31 0 51 -24.5t20 -61.5q0 -122 -122 -124v36z" />
    <glyph glyph-name="uni021A" unicode="&#x21a;" horiz-adv-x="521" 
d="M215 619h-209v81h508v-81h-210v-619h-89v619zM204 -205q23 0 38.5 7.5t22.5 20.5q12 18 10 39q-2 -4 -8 -6.5t-13 -2.5q-25 0 -41 16.5t-16 40.5t17 41.5t41 17.5q31 0 51 -24.5t20 -61.5q0 -122 -122 -124v36z" />
    <glyph glyph-name="uni021B" unicode="&#x21b;" horiz-adv-x="354" 
d="M146 24.5q-41 30.5 -41 128.5v228h-85v72h85v154h85v-154h118v-72h-118v-210q0 -61 18.5 -80.5t57.5 -19.5t58 6v-76q-30 -7 -77 -7q-60 0 -101 30.5zM175 -205q23 0 38.5 7.5t22.5 20.5q12 18 10 39q-2 -4 -8 -6.5t-13 -2.5q-25 0 -41 16.5t-16 40.5t17 41.5t41 17.5
q31 0 51 -24.5t20 -61.5q0 -122 -122 -124v36z" />
    <glyph glyph-name="uni0237" unicode="&#x237;" horiz-adv-x="235" 
d="M-20 -245v78q21 -8 47 -8q51 0 51 64v564h85v-588q0 -58 -31 -89.5t-89 -31.5q-42 0 -63 11z" />
    <glyph glyph-name="uni02B0" unicode="&#x2b0;" horiz-adv-x="382" 
d="M69 700h65v-173q11 23 34 37t54 14q48 0 72 -29q22 -27 22 -83v-151h-64v135q0 71 -56 71q-30 0 -46 -21.5t-16 -54.5v-130h-65v385z" />
    <glyph glyph-name="uni02B2" unicode="&#x2b2;" horiz-adv-x="222" 
d="M80.5 630q-13.5 13 -13.5 32t13.5 32.5t32.5 13.5t32.5 -13.5t13.5 -32.5t-13.5 -32t-32.5 -13t-32.5 13zM28 188v51q13 -4 25 -4q26 0 26 32v305h66v-310q0 -81 -66 -81q-32 0 -51 7z" />
    <glyph glyph-name="uni02B7" unicode="&#x2b7;" horiz-adv-x="484" 
d="M31 572h69l57 -171l53 171h62l54 -171l58 171h68l-96 -257h-54l-60 181l-61 -181h-53z" />
    <glyph glyph-name="uni02B8" unicode="&#x2b8;" horiz-adv-x="390" 
d="M96.5 209.5q-30.5 28.5 -31.5 79.5h65q3 -58 62 -58q32 0 47 17t15 57v58q-11 -24 -34 -38t-55 -14q-49 0 -74 30q-12 15 -16.5 34.5t-4.5 49.5v147h66v-134q0 -35 13 -54t44 -19q29 0 45 22t16 56v129h67v-264q0 -69 -31.5 -98t-102.5 -29q-60 0 -90.5 28.5z" />
    <glyph glyph-name="uni02BC" unicode="&#x2bc;" horiz-adv-x="261" 
d="M177 711q26 -28 26 -80q0 -59 -31.5 -95t-88.5 -36q-23 0 -31 2v40q11 -2 31 -2q19 0 33.5 9t21.5 24q13 21 13 50q-11 -15 -38 -15q-26 0 -44.5 18t-18.5 46q0 30 19 48.5t49 18.5q33 0 59 -28z" />
    <glyph glyph-name="circumflex" unicode="&#x2c6;" horiz-adv-x="600" 
d="M382 553l-46 -51l-129 109l-127 -108l-47 50l174 146z" />
    <glyph glyph-name="caron" unicode="&#x2c7;" horiz-adv-x="600" 
d="M33 647l47 50l127 -108l129 109l46 -51l-175 -146z" />
    <glyph glyph-name="breve" unicode="&#x2d8;" horiz-adv-x="600" 
d="M113.5 559.5q-50.5 40.5 -60.5 109.5h73q7 -44 36 -65.5t72 -21.5q44 0 73 21.5t36 65.5h73q-10 -70 -60.5 -110t-121.5 -40q-70 0 -120.5 40.5z" />
    <glyph glyph-name="dotaccent" unicode="&#x2d9;" horiz-adv-x="600" 
d="M61 571q-20 20 -20 50t19.5 49.5t50.5 19.5q30 0 50 -19.5t20 -49.5t-20 -50t-50 -20t-50 20z" />
    <glyph glyph-name="ring" unicode="&#x2da;" horiz-adv-x="600" 
d="M75 531.5q-34 34.5 -34 81.5q0 49 34 83t82 34q32 0 59 -16t43 -43t16 -58q0 -47 -34.5 -81.5t-83.5 -34.5q-48 0 -82 34.5zM205.5 566q19.5 20 19.5 49q0 27 -19.5 47t-48.5 20q-28 0 -47.5 -20t-19.5 -49q0 -28 19.5 -47.5t47.5 -19.5q29 0 48.5 20z" />
    <glyph glyph-name="ogonek" unicode="&#x2db;" horiz-adv-x="600" 
d="M66.5 -184q-31.5 28 -31.5 70q0 33 21.5 62t63.5 52h85q-48 -10 -70 -34.5t-22 -53.5q0 -26 17 -42.5t44 -16.5q28 0 57 13l-1 -63q-39 -15 -79 -15q-53 0 -84.5 28z" />
    <glyph glyph-name="tilde" unicode="&#x2dc;" horiz-adv-x="600" 
d="M249.5 554q-19.5 8 -44.5 23q-24 13 -36.5 18.5t-25.5 5.5q-20 0 -35.5 -7.5t-33.5 -31.5l-33 46q42 66 97 66q18 0 35.5 -7.5t41.5 -21.5q25 -13 40 -19.5t30 -6.5q20 0 37.5 9t35.5 32l32 -46q-21 -37 -47 -52.5t-53 -15.5q-21 0 -40.5 8z" />
    <glyph glyph-name="hungarumlaut" unicode="&#x2dd;" horiz-adv-x="600" 
d="M47 525l125 166l75 -37l-157 -152zM242 525l125 166l75 -37l-157 -152z" />
    <glyph glyph-name="uni02E3" unicode="&#x2e3;" horiz-adv-x="329" 
d="M126 445l-89 127h77l51 -82l51 82h77l-89 -127l90 -130h-76l-53 84l-52 -84h-77z" />
    <glyph glyph-name="gravecomb" unicode="&#x300;" 
d="M-351 631l29 57l273 -115l-29 -59z" />
    <glyph glyph-name="acutecomb" unicode="&#x301;" 
d="M-319 573l273 115l29 -57l-273 -117z" />
    <glyph glyph-name="uni0302" unicode="&#x302;" 
d="M-34 553l-46 -51l-129 109l-127 -108l-47 50l174 146z" />
    <glyph glyph-name="tildecomb" unicode="&#x303;" 
d="M-178.5 554q-19.5 8 -44.5 23q-24 13 -36.5 18.5t-25.5 5.5q-20 0 -35.5 -7.5t-33.5 -31.5l-33 46q42 66 97 66q18 0 35.5 -7.5t41.5 -21.5q25 -13 40 -19.5t30 -6.5q20 0 37.5 9t35.5 32l32 -46q-21 -37 -47 -52.5t-53 -15.5q-21 0 -40.5 8z" />
    <glyph glyph-name="uni0304" unicode="&#x304;" 
d="M-401 634h347v-68h-347v68z" />
    <glyph glyph-name="uni0306" unicode="&#x306;" 
d="M-355.5 559.5q-50.5 40.5 -60.5 109.5h73q7 -44 36 -65.5t72 -21.5q44 0 73 21.5t36 65.5h73q-10 -70 -60.5 -110t-121.5 -40q-70 0 -120.5 40.5z" />
    <glyph glyph-name="uni0307" unicode="&#x307;" 
d="M-160 571q-20 20 -20 50t19.5 49.5t50.5 19.5q30 0 50 -19.5t20 -49.5t-20 -50t-50 -20t-50 20z" />
    <glyph glyph-name="uni0308" unicode="&#x308;" 
d="M-385 564q-19 19 -19 47t19 47.5t47 19.5t47.5 -19.5t19.5 -47.5t-19.5 -47t-47.5 -19t-47 19zM-166 564q-19 19 -19 47t19 47.5t47 19.5t47.5 -19.5t19.5 -47.5t-19.5 -47t-47.5 -19t-47 19z" />
    <glyph glyph-name="uni030A" unicode="&#x30a;" 
d="M-240 531.5q-34 34.5 -34 81.5q0 49 34 83t82 34q32 0 59 -16t43 -43t16 -58q0 -47 -34.5 -81.5t-83.5 -34.5q-48 0 -82 34.5zM-109.5 566q19.5 20 19.5 49q0 27 -19.5 47t-48.5 20q-28 0 -47.5 -20t-19.5 -49q0 -28 19.5 -47.5t47.5 -19.5q29 0 48.5 20z" />
    <glyph glyph-name="uni030B" unicode="&#x30b;" 
d="M-421 525l125 166l75 -37l-157 -152zM-226 525l125 166l75 -37l-157 -152z" />
    <glyph glyph-name="uni030C" unicode="&#x30c;" 
d="M-383 647l47 50l127 -108l129 109l46 -51l-175 -146z" />
    <glyph glyph-name="uni0326" unicode="&#x326;" 
d="M-156 -205q23 0 38.5 7.5t22.5 20.5q12 18 10 39q-2 -4 -8 -6.5t-13 -2.5q-25 0 -41 16.5t-16 40.5t17 41.5t41 17.5q31 0 51 -24.5t20 -61.5q0 -122 -122 -124v36z" />
    <glyph glyph-name="uni0327" unicode="&#x327;" 
d="M-193.5 -214q-31.5 20 -37.5 68h52q4 -19 16 -30.5t30 -11.5q21 0 34 14t13 36q0 20 -13 33t-33 13q-28 0 -40 -26h-45v118h53v-71q6 9 20 14.5t28 5.5q33 0 58 -24t25 -63q0 -38 -26.5 -67t-73.5 -29q-29 0 -60.5 20z" />
    <glyph glyph-name="uni0328" unicode="&#x328;" 
d="M-209.5 -184q-31.5 28 -31.5 70q0 33 21.5 62t63.5 52h85q-48 -10 -70 -34.5t-22 -53.5q0 -26 17 -42.5t44 -16.5q28 0 57 13l-1 -63q-39 -15 -79 -15q-53 0 -84.5 28z" />
    <glyph glyph-name="uni0394" unicode="&#x394;" horiz-adv-x="558" 
d="M246 700h65l242 -700h-548zM429 81l-150 473l-150 -473h300z" />
    <glyph glyph-name="uni03A9" unicode="&#x3a9;" horiz-adv-x="718" 
d="M67 81h183v29q-93 31 -148.5 110t-55.5 179q0 85 38 156.5t109 114t166 42.5t166.5 -42.5t109.5 -114t38 -156.5q0 -100 -55.5 -179.5t-149.5 -110.5v-28h184v-81h-255v158q89 18 137.5 86t48.5 158q0 63 -26 115t-76.5 83t-121.5 31t-121 -30.5t-76 -83t-26 -115.5
q0 -90 48.5 -158t137.5 -86v-158h-255v81z" />
    <glyph glyph-name="uni03BC" unicode="&#x3bc;" horiz-adv-x="620" 
d="M101 453h85v-240q0 -68 28 -108t88 -40q63 0 97 45t34 110v233h85v-453h-85v82q-21 -43 -63 -68t-98 -25q-54 0 -86 29v-265h-85v700z" />
    <glyph glyph-name="pi" unicode="&#x3c0;" horiz-adv-x="620" 
d="M134 377h-62v76h476v-76h-62v-377h-85v377h-182v-377h-85v377z" />
    <glyph glyph-name="Wgrave" unicode="&#x1e80;" horiz-adv-x="964" 
d="M6 700h94l181 -553l167 553h68l167 -553l180 553h95l-240 -700h-66l-170 545l-170 -545h-67zM354 835l39 59l217 -105l-38 -58z" />
    <glyph glyph-name="wgrave" unicode="&#x1e81;" horiz-adv-x="739" 
d="M8 453h94l113 -332l116 332h77l117 -332l113 332h94l-176 -453h-59l-127 360l-127 -360h-59zM219 631l29 57l273 -115l-29 -59z" />
    <glyph glyph-name="Wacute" unicode="&#x1e82;" horiz-adv-x="964" 
d="M6 700h94l181 -553l167 553h68l167 -553l180 553h95l-240 -700h-66l-170 545l-170 -545h-67zM355 789l217 105l39 -59l-218 -104z" />
    <glyph glyph-name="wacute" unicode="&#x1e83;" horiz-adv-x="739" 
d="M8 453h94l113 -332l116 332h77l117 -332l113 332h94l-176 -453h-59l-127 360l-127 -360h-59zM204 573l273 115l29 -57l-273 -117z" />
    <glyph glyph-name="Wdieresis" unicode="&#x1e84;" horiz-adv-x="964" 
d="M6 700h94l181 -553l167 553h68l167 -553l180 553h95l-240 -700h-66l-170 545l-170 -545h-67zM317 767q-19 19 -19 47t19 47.5t47 19.5t47.5 -19.5t19.5 -47.5t-19.5 -47t-47.5 -19t-47 19zM554 767q-19 19 -19 47t19 47.5t47 19.5t47.5 -19.5t19.5 -47.5t-19.5 -47
t-47.5 -19t-47 19z" />
    <glyph glyph-name="wdieresis" unicode="&#x1e85;" horiz-adv-x="739" 
d="M8 453h94l113 -332l116 332h77l117 -332l113 332h94l-176 -453h-59l-127 360l-127 -360h-59zM213 564q-19 19 -19 47t19 47.5t47 19.5t47.5 -19.5t19.5 -47.5t-19.5 -47t-47.5 -19t-47 19zM432 564q-19 19 -19 47t19 47.5t47 19.5t47.5 -19.5t19.5 -47.5t-19.5 -47
t-47.5 -19t-47 19z" />
    <glyph glyph-name="Ygrave" unicode="&#x1ef2;" horiz-adv-x="570" 
d="M240 284l-256 416h104l196 -329l198 329h104l-256 -415v-285h-90v284zM156 835l39 59l217 -105l-38 -58z" />
    <glyph glyph-name="ygrave" unicode="&#x1ef3;" horiz-adv-x="476" 
d="M10 -245v80q25 -7 55 -7q84 0 118 93l21 53l-199 479h92l152 -386l136 386h89l-207 -547q-33 -87 -82.5 -123t-118.5 -36q-28 0 -56 8zM87 631l29 57l273 -115l-29 -59z" />
    <glyph glyph-name="endash" unicode="&#x2013;" horiz-adv-x="550" 
d="M23 319h505v-69h-505v69z" />
    <glyph glyph-name="emdash" unicode="&#x2014;" horiz-adv-x="736" 
d="M23 319h691v-69h-691v69z" />
    <glyph glyph-name="quoteleft" unicode="&#x2018;" horiz-adv-x="261" 
d="M77 528q-26 28 -26 80q0 59 31.5 95t88.5 36q23 0 31 -2v-40q-11 2 -31 2q-19 0 -33.5 -9t-21.5 -24q-13 -21 -13 -50q11 15 38 15q26 0 44.5 -18t18.5 -46q0 -30 -19 -48.5t-49 -18.5q-33 0 -59 28z" />
    <glyph glyph-name="quoteright" unicode="&#x2019;" horiz-adv-x="261" 
d="M184 711q26 -28 26 -80q0 -59 -31.5 -95t-88.5 -36q-23 0 -31 2v40q11 -2 31 -2q19 0 33.5 9t21.5 24q13 21 13 50q-11 -15 -38 -15q-26 0 -44.5 18t-18.5 46q0 30 19 48.5t49 18.5q33 0 59 -28z" />
    <glyph glyph-name="quotesinglbase" unicode="&#x201a;" horiz-adv-x="261" 
d="M184 94q26 -28 26 -80q0 -59 -31.5 -95t-88.5 -36q-23 0 -31 2v40q11 -2 31 -2q19 0 33.5 9t21.5 24q13 21 13 50q-11 -15 -38 -15q-26 0 -44.5 18t-18.5 46q0 30 19 48.5t49 18.5q33 0 59 -28z" />
    <glyph glyph-name="quotedblleft" unicode="&#x201c;" horiz-adv-x="444" 
d="M77 528q-26 28 -26 80q0 59 31.5 95t88.5 36q23 0 31 -2v-40q-11 2 -31 2q-19 0 -33.5 -9t-21.5 -24q-13 -21 -13 -50q11 15 38 15q26 0 44.5 -18t18.5 -46q0 -30 -19 -48.5t-49 -18.5q-33 0 -59 28zM259 528q-26 28 -26 80q0 59 31.5 95t88.5 36q23 0 31 -2v-40
q-11 2 -31 2q-19 0 -33.5 -9t-21.5 -24q-13 -21 -13 -50q11 15 38 15q26 0 44.5 -18t18.5 -46q0 -30 -19 -48.5t-49 -18.5q-33 0 -59 28z" />
    <glyph glyph-name="quotedblright" unicode="&#x201d;" horiz-adv-x="444" 
d="M184 711q26 -28 26 -80q0 -59 -31.5 -95t-88.5 -36q-23 0 -31 2v40q11 -2 31 -2q19 0 33.5 9t21.5 24q13 21 13 50q-11 -15 -38 -15q-26 0 -44.5 18t-18.5 46q0 30 19 48.5t49 18.5q33 0 59 -28zM367 711q26 -28 26 -80q0 -59 -31.5 -95t-88.5 -36q-23 0 -31 2v40
q11 -2 31 -2q19 0 33.5 9t21.5 24q13 21 13 50q-11 -15 -38 -15q-26 0 -44.5 18t-18.5 46q0 30 19 48.5t49 18.5q33 0 59 -28z" />
    <glyph glyph-name="quotedblbase" unicode="&#x201e;" horiz-adv-x="444" 
d="M184 94q26 -28 26 -80q0 -59 -31.5 -95t-88.5 -36q-23 0 -31 2v40q11 -2 31 -2q19 0 33.5 9t21.5 24q13 21 13 50q-11 -15 -38 -15q-26 0 -44.5 18t-18.5 46q0 30 19 48.5t49 18.5q33 0 59 -28zM367 94q26 -28 26 -80q0 -59 -31.5 -95t-88.5 -36q-23 0 -31 2v40
q11 -2 31 -2q19 0 33.5 9t21.5 24q13 21 13 50q-11 -15 -38 -15q-26 0 -44.5 18t-18.5 46q0 30 19 48.5t49 18.5q33 0 59 -28z" />
    <glyph glyph-name="dagger" unicode="&#x2020;" horiz-adv-x="437" 
d="M176 379h-125v77h125v261h85v-261h124v-77h-124v-561h-85v561z" />
    <glyph glyph-name="daggerdbl" unicode="&#x2021;" horiz-adv-x="437" 
d="M176 10h-125v74h125v297h-125v75h125v261h85v-261h124v-75h-124v-297h124v-74h-124v-192h-85v192z" />
    <glyph glyph-name="bullet" unicode="&#x2022;" horiz-adv-x="358" 
d="M97 230q-34 34 -34 82q0 49 34 83t82 34q49 0 83 -34t34 -83q0 -48 -34 -82t-83 -34q-48 0 -82 34z" />
    <glyph glyph-name="ellipsis" unicode="&#x2026;" horiz-adv-x="798" 
d="M84 14.5q-21 21.5 -21 51.5t21 51t51 21t51 -21.5t21 -50.5q0 -30 -21 -51.5t-51 -21.5t-51 21.5zM348 14.5q-21 21.5 -21 51.5t21 51t51 21t51 -21.5t21 -50.5q0 -30 -21 -51.5t-51 -21.5t-51 21.5zM612 14.5q-21 21.5 -21 51.5t21 51t51 21t51 -21.5t21 -50.5
q0 -30 -21 -51.5t-51 -21.5t-51 21.5z" />
    <glyph glyph-name="perthousand" unicode="&#x2030;" horiz-adv-x="1169" 
d="M125 18l472 682l63 -36l-472 -682zM108.5 369.5q-40.5 23.5 -62 62.5t-21.5 85t21.5 85t62 62.5t94.5 23.5q55 0 95.5 -23.5t62 -62.5t21.5 -85t-21.5 -85t-62 -62.5t-95.5 -23.5q-54 0 -94.5 23.5zM278.5 442.5q27.5 29.5 27.5 74.5q0 44 -27.5 74t-75.5 30t-76 -30
t-28 -74q0 -45 27.5 -74.5t76.5 -29.5q48 0 75.5 29.5zM493.5 18.5q-40.5 23.5 -62 62.5t-21.5 85t21.5 85t62 62.5t94.5 23.5q55 0 95.5 -23.5t62 -62.5t21.5 -85t-21.5 -85t-62 -62.5t-95.5 -23.5q-54 0 -94.5 23.5zM871.5 14.5q-40.5 23.5 -62 63t-21.5 85.5
q0 45 21.5 84t62 62.5t94.5 23.5q55 0 95.5 -23.5t62 -62.5t21.5 -84q0 -46 -21.5 -85.5t-62 -63t-95.5 -23.5q-54 0 -94.5 23.5zM663.5 91.5q27.5 29.5 27.5 74.5q0 44 -27.5 74t-75.5 30t-76 -30t-28 -74q0 -45 27.5 -74.5t76.5 -29.5q48 0 75.5 29.5zM1041.5 88
q27.5 30 27.5 75q0 43 -27.5 73.5t-75.5 30.5t-76 -30.5t-28 -73.5q0 -45 28 -75t76 -30t75.5 30z" />
    <glyph glyph-name="guilsinglleft" unicode="&#x2039;" horiz-adv-x="251" 
d="M-5 291l206 192l49 -50l-153 -142l153 -142l-49 -50z" />
    <glyph glyph-name="guilsinglright" unicode="&#x203a;" horiz-adv-x="251" 
d="M1 149l153 142l-153 142l49 50l206 -192l-206 -192z" />
    <glyph glyph-name="fraction" unicode="&#x2044;" horiz-adv-x="207" 
d="M-163 18l472 682l63 -36l-472 -682z" />
    <glyph glyph-name="uni2070" unicode="&#x2070;" horiz-adv-x="393" 
d="M94.5 346q-38.5 39 -38.5 95v136q0 55 39 93t101 38q63 0 102 -39t39 -95l-1 -136q0 -55 -39 -93t-101 -38q-63 0 -101.5 39zM246.5 388.5q19.5 21.5 19.5 52.5v133q0 31 -19.5 52.5t-50.5 21.5t-50.5 -21.5t-19.5 -52.5v-133q0 -31 19.5 -52.5t50.5 -21.5t50.5 21.5z
" />
    <glyph glyph-name="uni2074" unicode="&#x2074;" horiz-adv-x="384" 
d="M216 431h-152v269h70v-209h82v112h70v-112h53v-60h-53v-116h-70v116z" />
    <glyph glyph-name="uni2075" unicode="&#x2075;" horiz-adv-x="400" 
d="M100.5 347q-38.5 39 -38.5 95h69q0 -32 19.5 -54t52.5 -22q32 0 52 22.5t20 54.5t-20 54t-52 22q-44 0 -65 -41h-67v222h246v-56h-181v-111q11 19 34 29.5t49 10.5q58 0 91 -38t33 -92q0 -57 -38.5 -96t-101.5 -39q-64 0 -102.5 39z" />
    <glyph glyph-name="uni2076" unicode="&#x2076;" horiz-adv-x="379" 
d="M86.5 347.5q-38.5 38.5 -38.5 95.5q0 42 22 77l114 180h80l-84 -129q7 2 18.5 2h14.5q52 -6 84 -42.5t32 -87.5q0 -56 -38.5 -95t-101.5 -39q-64 0 -102.5 38.5zM240 389q20 22 20 54t-20 54t-52 22t-52 -22t-20 -54t20 -54t52 -22t52 22z" />
    <glyph glyph-name="uni2077" unicode="&#x2077;" horiz-adv-x="338" 
d="M212 641h-162v59h262l-170 -385h-75z" />
    <glyph glyph-name="uni2078" unicode="&#x2078;" horiz-adv-x="390" 
d="M93.5 341q-37.5 33 -37.5 82q0 32 18.5 58.5t48.5 33.5q-27 9 -42.5 32t-15.5 52q0 46 35 77t95 31t95 -31t35 -77q0 -29 -15.5 -52t-43.5 -32q31 -8 49.5 -34t18.5 -58q0 -49 -38 -82t-101 -33q-64 0 -101.5 33zM241 555.5q17 16.5 17 40.5q0 25 -17 41t-45 16
q-29 0 -46 -16t-17 -41q0 -24 17 -40.5t46 -16.5q28 0 45 16.5zM246 380q19 18 19 44t-19 44t-51 18t-51 -18t-19 -44q0 -27 19 -44.5t51 -17.5t51 18z" />
    <glyph glyph-name="uni2079" unicode="&#x2079;" horiz-adv-x="379" 
d="M199 443q-5 -5 -15 -5q-61 3 -97.5 40.5t-36.5 93.5q0 57 38.5 95.5t102.5 38.5q63 0 101.5 -39t38.5 -95q0 -42 -22 -77l-115 -180h-79zM242 518q20 22 20 54t-20 54t-52 22t-52 -22t-20 -54t20 -54t52 -22t52 22z" />
    <glyph glyph-name="uni207A" unicode="&#x207a;" horiz-adv-x="390" 
d="M166 444h-86v55h86v87h57v-87h86v-55h-86v-87h-57v87z" />
    <glyph glyph-name="uni207B" unicode="&#x207b;" horiz-adv-x="390" 
d="M79 499h232v-54h-232v54z" />
    <glyph glyph-name="uni207C" unicode="&#x207c;" horiz-adv-x="390" 
d="M311 521v-100h-232v100h232z" />
    <glyph glyph-name="uni207D" unicode="&#x207d;" horiz-adv-x="267" 
d="M145 206.5q-34 19.5 -52 52.5t-18 72v269q0 39 18 72t52 52.5t78 19.5v-60q-36 0 -57.5 -24t-21.5 -60v-269q0 -35 21.5 -59t57.5 -24v-61q-44 0 -78 19.5z" />
    <glyph glyph-name="uni207E" unicode="&#x207e;" horiz-adv-x="267" 
d="M45 248q36 0 57.5 24t21.5 59v269q0 36 -21.5 60t-57.5 24v60q44 0 78 -19.5t52 -52.5t18 -72v-269q0 -39 -18 -72t-52 -52.5t-78 -19.5v61z" />
    <glyph glyph-name="uni207F" unicode="&#x207f;" horiz-adv-x="386" 
d="M69 572h66v-45q11 23 34.5 37t55.5 14q50 0 74 -29q12 -15 16.5 -34t4.5 -48v-152h-66v135q0 33 -13.5 52t-42.5 19q-30 0 -46.5 -21.5t-16.5 -54.5v-130h-66v257z" />
    <glyph glyph-name="uni2080" unicode="&#x2080;" horiz-adv-x="393" 
d="M94.5 -169q-38.5 39 -38.5 95v136q0 55 39 93t101 38q63 0 102 -39t39 -95l-1 -136q0 -55 -39 -93t-101 -38q-63 0 -101.5 39zM246.5 -126.5q19.5 21.5 19.5 52.5v133q0 31 -19.5 52.5t-50.5 21.5t-50.5 -21.5t-19.5 -52.5v-133q0 -31 19.5 -52.5t50.5 -21.5t50.5 21.5z
" />
    <glyph glyph-name="uni2081" unicode="&#x2081;" horiz-adv-x="267" 
d="M125 68h-78v51q52 0 69.5 15t17.5 51h63v-385h-72v268z" />
    <glyph glyph-name="uni2082" unicode="&#x2082;" horiz-adv-x="370" 
d="M67.5 -103.5q12.5 36.5 34.5 58t60 41.5q44 23 64 40.5t20 47.5q0 26 -15.5 40t-42.5 14q-29 0 -45.5 -17.5t-16.5 -50.5h-70q0 54 35.5 88t96.5 34q57 0 92 -29t35 -84q0 -44 -28.5 -72t-72.5 -52q-47 -24 -63 -43.5t-16 -53.5h180v-58h-260q0 60 12.5 96.5z" />
    <glyph glyph-name="uni2083" unicode="&#x2083;" horiz-adv-x="381" 
d="M85.5 -171.5q-37.5 35.5 -37.5 94.5h70q0 -34 19.5 -53.5t51.5 -19.5q30 0 47 17.5t17 43.5q0 29 -17 45.5t-51 16.5h-33v56h33q62 0 62 56q0 26 -15.5 39.5t-42.5 13.5q-61 0 -61 -64h-70q0 52 33 85t97 33q55 0 92 -28t37 -78q0 -32 -17 -55t-45 -31q31 -8 49.5 -33
t18.5 -61q0 -52 -38.5 -82.5t-95.5 -30.5q-66 0 -103.5 35.5z" />
    <glyph glyph-name="uni2084" unicode="&#x2084;" horiz-adv-x="384" 
d="M216 -84h-152v269h70v-209h82v112h70v-112h53v-60h-53v-116h-70v116z" />
    <glyph glyph-name="uni2085" unicode="&#x2085;" horiz-adv-x="400" 
d="M100.5 -168q-38.5 39 -38.5 95h69q0 -32 19.5 -54t52.5 -22q32 0 52 22.5t20 54.5t-20 54t-52 22q-44 0 -65 -41h-67v222h246v-56h-181v-111q11 19 34 29.5t49 10.5q58 0 91 -38t33 -92q0 -57 -38.5 -96t-101.5 -39q-64 0 -102.5 39z" />
    <glyph glyph-name="uni2086" unicode="&#x2086;" horiz-adv-x="379" 
d="M86.5 -167.5q-38.5 38.5 -38.5 95.5q0 42 22 77l114 180h80l-84 -129q7 2 18.5 2h14.5q52 -6 84 -42.5t32 -87.5q0 -56 -38.5 -95t-101.5 -39q-64 0 -102.5 38.5zM240 -126q20 22 20 54t-20 54t-52 22t-52 -22t-20 -54t20 -54t52 -22t52 22z" />
    <glyph glyph-name="uni2087" unicode="&#x2087;" horiz-adv-x="338" 
d="M212 126h-162v59h262l-170 -385h-75z" />
    <glyph glyph-name="uni2088" unicode="&#x2088;" horiz-adv-x="390" 
d="M93.5 -174q-37.5 33 -37.5 82q0 32 18.5 58.5t48.5 33.5q-27 9 -42.5 32t-15.5 52q0 46 35 77t95 31t95 -31t35 -77q0 -29 -15.5 -52t-43.5 -32q31 -8 49.5 -34t18.5 -58q0 -49 -38 -82t-101 -33q-64 0 -101.5 33zM241 40.5q17 16.5 17 40.5q0 25 -17 41t-45 16
q-29 0 -46 -16t-17 -41q0 -24 17 -40.5t46 -16.5q28 0 45 16.5zM246 -135q19 18 19 44t-19 44t-51 18t-51 -18t-19 -44q0 -27 19 -44.5t51 -17.5t51 18z" />
    <glyph glyph-name="uni2089" unicode="&#x2089;" horiz-adv-x="379" 
d="M199 -72q-5 -5 -15 -5q-61 3 -97.5 40.5t-36.5 93.5q0 57 38.5 95.5t102.5 38.5q63 0 101.5 -39t38.5 -95q0 -42 -22 -77l-115 -180h-79zM242 3q20 22 20 54t-20 54t-52 22t-52 -22t-20 -54t20 -54t52 -22t52 22z" />
    <glyph glyph-name="uni208A" unicode="&#x208a;" horiz-adv-x="390" 
d="M166 -71h-86v55h86v87h57v-87h86v-55h-86v-87h-57v87z" />
    <glyph glyph-name="uni208B" unicode="&#x208b;" horiz-adv-x="390" 
d="M79 -16h232v-54h-232v54z" />
    <glyph glyph-name="uni208C" unicode="&#x208c;" horiz-adv-x="390" 
d="M311 6v-100h-232v100h232z" />
    <glyph glyph-name="uni208D" unicode="&#x208d;" horiz-adv-x="267" 
d="M145 -308.5q-34 19.5 -52 52.5t-18 72v269q0 39 18 72t52 52.5t78 19.5v-60q-36 0 -57.5 -24t-21.5 -60v-269q0 -35 21.5 -59t57.5 -24v-61q-44 0 -78 19.5z" />
    <glyph glyph-name="uni208E" unicode="&#x208e;" horiz-adv-x="267" 
d="M45 -267q36 0 57.5 24t21.5 59v269q0 36 -21.5 60t-57.5 24v60q44 0 78 -19.5t52 -52.5t18 -72v-269q0 -39 -18 -72t-52 -52.5t-78 -19.5v61z" />
    <glyph glyph-name="Euro" unicode="&#x20ac;" horiz-adv-x="571" 
d="M415.5 108.5q39.5 38.5 41.5 106.5h90q-3 -62 -32.5 -113.5t-82.5 -82t-121 -30.5q-71 0 -126 30.5t-85 84.5t-30 123v15h-63l16 61h47v73h-62l16 61h46v15q0 69 30.5 123.5t85 85t125.5 30.5q68 0 121.5 -28t83.5 -77t31 -110h-90q-1 62 -42 98t-104 36
q-68 0 -109.5 -42t-41.5 -116v-15h221l-16 -61h-205v-73h220l-16 -61h-204v-15q0 -74 40.5 -115.5t110.5 -41.5q65 0 104.5 38.5z" />
    <glyph glyph-name="uni2113" unicode="&#x2113;" horiz-adv-x="403" 
d="M193.5 -0.5q-33.5 10.5 -59.5 49.5t-26 117v8l-64 -53l-39 65l103 77v244q0 103 33.5 156.5t106.5 53.5q66 0 102.5 -47t36.5 -128t-53 -155.5t-152 -157.5v-68q0 -44 14 -65.5t33.5 -27t46.5 -5.5q24 0 44.5 5.5t33.5 13.5l5 -69q-17 -11 -38 -17.5t-55 -6.5
q-39 0 -72.5 10.5zM283 439.5q30 50.5 30 105.5q0 47 -15.5 75.5t-46.5 28.5q-35 0 -52 -34t-17 -93v-199q71 66 101 116.5z" />
    <glyph glyph-name="uni2116" unicode="&#x2116;" horiz-adv-x="1068" 
d="M732.5 346q-45.5 26 -70 70.5t-24.5 97.5t24.5 97.5t70 71t104.5 26.5q60 0 106 -26.5t70.5 -71t24.5 -97.5t-24.5 -97.5t-70.5 -70.5t-106 -26q-59 0 -104.5 26zM78 700h99l317 -544v544h90v-700h-99l-317 544v-544h-90v700zM920 429q32 35 32 85t-32 85t-83 35
t-82.5 -35t-31.5 -85t31.5 -85t82.5 -35t83 35zM638 293h400v-77h-400v77z" />
    <glyph glyph-name="trademark" unicode="&#x2122;" horiz-adv-x="811" 
d="M132 642h-99v58h263v-58h-99v-349h-65v349zM363 700h105l103 -296l102 296h105v-407h-64v334l-115 -334h-57l-115 334v-334h-64v407z" />
    <glyph glyph-name="uni2126" unicode="&#x2126;" horiz-adv-x="718" 
d="M67 81h183v29q-93 31 -148.5 110t-55.5 179q0 85 38 156.5t109 114t166 42.5t166.5 -42.5t109.5 -114t38 -156.5q0 -100 -55.5 -179.5t-149.5 -110.5v-28h184v-81h-255v158q89 18 137.5 86t48.5 158q0 63 -26 115t-76.5 83t-121.5 31t-121 -30.5t-76 -83t-26 -115.5
q0 -90 48.5 -158t137.5 -86v-158h-255v81z" />
    <glyph glyph-name="estimated" unicode="&#x212e;" horiz-adv-x="525" 
d="M145 22q-51 33 -76.5 87t-25.5 119q0 68 26.5 122t77 84.5t119.5 30.5q58 0 106 -27t76 -73.5t28 -103.5q0 -16 -1 -28h-332v-181q50 -41 126 -41q67 0 114.5 32.5t62.5 80.5h22q-15 -58 -68.5 -96.5t-130.5 -38.5q-73 0 -124 33zM380 255v152q-49 36 -113 36
q-73 0 -123 -39v-149h236z" />
    <glyph glyph-name="arrowleft" unicode="&#x2190;" horiz-adv-x="720" 
d="M10 350l237 216l47 -52l-145 -129h561v-71h-560l144 -128l-47 -52z" />
    <glyph glyph-name="arrowup" unicode="&#x2191;" horiz-adv-x="487" 
d="M207 559l-128 -143l-52 47l216 237l216 -237l-52 -47l-129 145v-561h-71v559z" />
    <glyph glyph-name="arrowright" unicode="&#x2192;" horiz-adv-x="720" 
d="M426 185l145 130h-561v70h559l-143 129l47 52l237 -216l-237 -216z" />
    <glyph glyph-name="arrowdown" unicode="&#x2193;" horiz-adv-x="487" 
d="M27 237l52 47l129 -145v561h71v-560l128 144l52 -47l-216 -237z" />
    <glyph glyph-name="uni2196" unicode="&#x2196;" horiz-adv-x="569" 
d="M99 473l11 -193l-71 -3l-14 320l320 -14l-3 -71l-194 11l397 -395l-51 -51z" />
    <glyph glyph-name="uni2197" unicode="&#x2197;" horiz-adv-x="569" 
d="M25 128l395 395l-192 -11l-3 71l320 14l-14 -320l-71 3l12 194l-397 -397z" />
    <glyph glyph-name="uni2198" unicode="&#x2198;" horiz-adv-x="569" 
d="M225 117l3 71l194 -11l-397 395l50 51l396 -396l-11 193l71 3l14 -320z" />
    <glyph glyph-name="uni2199" unicode="&#x2199;" horiz-adv-x="569" 
d="M39 423l71 -3l-11 -194l395 397l51 -51l-396 -395l193 11l3 -71l-320 -14z" />
    <glyph glyph-name="partialdiff" unicode="&#x2202;" horiz-adv-x="620" 
d="M180 14q-52 30 -80 82t-28 114t28.5 115t80.5 84.5t120 31.5q45 0 89.5 -19.5t71.5 -56.5v8q-3 105 -20.5 162t-49 79.5t-83.5 22.5q-66 0 -105 -47t-39 -119h-90q0 68 28.5 124t81.5 88.5t124 32.5q84 0 136 -37.5t77.5 -126.5t25.5 -243q0 -172 -64 -248.5t-184 -76.5
q-68 0 -120 30zM418 110.5q41 48.5 45 169.5q-53 83 -161 83q-43 0 -76.5 -20.5t-51.5 -55.5t-18 -77q0 -64 39.5 -106t104.5 -42q77 0 118 48.5z" />
    <glyph glyph-name="uni2206" unicode="&#x2206;" horiz-adv-x="558" 
d="M246 700h65l242 -700h-548zM429 81l-150 473l-150 -473h300z" />
    <glyph glyph-name="product" unicode="&#x220f;" horiz-adv-x="643" 
d="M75 714h-62v80h618v-80h-62v-961h-90v961h-314v-961h-90v961z" />
    <glyph glyph-name="summation" unicode="&#x2211;" horiz-adv-x="620" 
d="M50 -163l358 440l-358 441v76h520v-80h-406l357 -426l-358 -447h407v-88h-520v84z" />
    <glyph glyph-name="minus" unicode="&#x2212;" horiz-adv-x="620" 
d="M108 323h404v-76h-404v76z" />
    <glyph glyph-name="radical" unicode="&#x221a;" horiz-adv-x="686" 
d="M121 156h-118v76h181l107 -319l298 881h94l-360 -1028h-65z" />
    <glyph glyph-name="infinity" unicode="&#x221e;" horiz-adv-x="830" 
d="M118.5 115q-45.5 28 -69 74.5t-23.5 99.5t23.5 99.5t69 74.5t110.5 28q51 0 100 -30t86 -90q36 60 85 90t101 30q64 0 110 -27.5t69.5 -73.5t23.5 -101t-23.5 -101t-69.5 -73.5t-110 -27.5q-52 0 -101 30t-85 90q-37 -60 -85.5 -90t-100.5 -30q-65 0 -110.5 28z
M306.5 195.5q38.5 31.5 64.5 93.5q-27 62 -65 93.5t-77 31.5q-58 0 -90 -36t-32 -89t32 -89t90 -36q39 0 77.5 31.5zM690.5 200q32.5 36 32.5 89t-32.5 89t-90.5 36q-39 0 -77 -31.5t-64 -93.5q26 -62 64 -93.5t77 -31.5q58 0 90.5 36z" />
    <glyph glyph-name="integral" unicode="&#x222b;" horiz-adv-x="285" 
d="M3 -245v72q27 -8 45 -8q46 0 46 62v781q0 68 27.5 100t69.5 32q53 0 79 -12v-72q-27 9 -45 9q-46 0 -46 -62v-781q0 -68 -27.5 -100t-70.5 -32q-51 0 -78 11z" />
    <glyph glyph-name="approxequal" unicode="&#x2248;" horiz-adv-x="620" 
d="M370 266.5q-25 8.5 -60 26.5q-68 33 -119 33q-27 0 -54 -15t-49 -38v76q22 28 50.5 41t56.5 13q25 0 53 -8.5t65 -23.5l21 -9q62 -27 87 -27q52 0 110 54v-75q-23 -28 -52.5 -42t-58.5 -14q-25 0 -50 8.5zM371 104.5q-25 8.5 -60 26.5q-68 33 -119 33q-27 0 -54 -15
t-49 -38v75q22 29 50.5 42t56.5 13q25 0 53 -8.5t65 -23.5l21 -9q62 -27 87 -27q54 0 110 54v-75q-23 -28 -52.5 -42t-58.5 -14q-25 0 -50 8.5z" />
    <glyph glyph-name="notequal" unicode="&#x2260;" horiz-adv-x="620" 
d="M217 164h-109v77h143l40 85h-183v77h217l51 112h72l-51 -112h115v-77h-149l-41 -85h190v-77h-224l-51 -112h-71z" />
    <glyph glyph-name="lessequal" unicode="&#x2264;" horiz-adv-x="620" 
d="M111 399v62l399 144v-79l-276 -96l276 -97v-79zM111 102h399v-76h-399v76z" />
    <glyph glyph-name="greaterequal" unicode="&#x2265;" horiz-adv-x="620" 
d="M111 333l276 97l-276 96v79l399 -144v-62l-399 -145v79zM111 102h399v-76h-399v76z" />
    <glyph glyph-name="uni2460" unicode="&#x2460;" horiz-adv-x="799" 
d="M209 34q-82 51 -126.5 135.5t-44.5 180.5t44.5 180.5t126.5 135.5t191 51t191 -51t126.5 -135.5t44.5 -180.5t-44.5 -180.5t-126.5 -135.5t-191 -51t-191 51zM554.5 85.5q66.5 42.5 102.5 113t36 151.5t-36 151.5t-102.5 113t-154.5 42.5t-154.5 -42.5t-102.5 -113
t-36 -151.5t36 -151.5t102.5 -113t154.5 -42.5t154.5 42.5zM371 426h-78v51q52 0 69.5 15t17.5 51h63v-385h-72v268z" />
    <glyph glyph-name="uni2461" unicode="&#x2461;" horiz-adv-x="799" 
d="M209 34q-82 51 -126.5 135.5t-44.5 180.5t44.5 180.5t126.5 135.5t191 51t191 -51t126.5 -135.5t44.5 -180.5t-44.5 -180.5t-126.5 -135.5t-191 -51t-191 51zM554.5 85.5q66.5 42.5 102.5 113t36 151.5t-36 151.5t-102.5 113t-154.5 42.5t-154.5 -42.5t-102.5 -113
t-36 -151.5t36 -151.5t102.5 -113t154.5 -42.5t154.5 42.5zM281.5 254q12.5 37 35 58.5t59.5 40.5q45 24 64.5 41.5t19.5 47.5q0 25 -15.5 39.5t-42.5 14.5q-29 0 -45.5 -17.5t-16.5 -50.5h-70q0 53 35.5 87.5t96.5 34.5q57 0 92 -29t35 -84q0 -45 -28 -72.5t-73 -51.5
q-47 -25 -63 -44.5t-16 -52.5h180v-58h-260q0 59 12.5 96z" />
    <glyph glyph-name="uni2462" unicode="&#x2462;" horiz-adv-x="799" 
d="M209 34q-82 51 -126.5 135.5t-44.5 180.5t44.5 180.5t126.5 135.5t191 51t191 -51t126.5 -135.5t44.5 -180.5t-44.5 -180.5t-126.5 -135.5t-191 -51t-191 51zM554.5 85.5q66.5 42.5 102.5 113t36 151.5t-36 151.5t-102.5 113t-154.5 42.5t-154.5 -42.5t-102.5 -113
t-36 -151.5t36 -151.5t102.5 -113t154.5 -42.5t154.5 42.5zM296.5 186.5q-37.5 35.5 -37.5 94.5h70q0 -34 19.5 -53.5t51.5 -19.5q30 0 47 17.5t17 43.5q0 29 -17 45.5t-51 16.5h-33v56h33q62 0 62 56q0 26 -15.5 39.5t-42.5 13.5q-61 0 -61 -64h-70q0 52 33 85t97 33
q55 0 92 -28t37 -78q0 -32 -17 -55t-45 -31q31 -8 49.5 -33t18.5 -61q0 -52 -38.5 -82.5t-95.5 -30.5q-66 0 -103.5 35.5z" />
    <glyph glyph-name="uni2463" unicode="&#x2463;" horiz-adv-x="799" 
d="M209 34q-82 51 -126.5 135.5t-44.5 180.5t44.5 180.5t126.5 135.5t191 51t191 -51t126.5 -135.5t44.5 -180.5t-44.5 -180.5t-126.5 -135.5t-191 -51t-191 51zM554.5 85.5q66.5 42.5 102.5 113t36 151.5t-36 151.5t-102.5 113t-154.5 42.5t-154.5 -42.5t-102.5 -113
t-36 -151.5t36 -151.5t102.5 -113t154.5 -42.5t154.5 42.5zM410 272h-152v269h70v-210h82v113h70v-113h53v-59h-53v-116h-70v116z" />
    <glyph glyph-name="uni2464" unicode="&#x2464;" horiz-adv-x="799" 
d="M209 34q-82 51 -126.5 135.5t-44.5 180.5t44.5 180.5t126.5 135.5t191 51t191 -51t126.5 -135.5t44.5 -180.5t-44.5 -180.5t-126.5 -135.5t-191 -51t-191 51zM554.5 85.5q66.5 42.5 102.5 113t36 151.5t-36 151.5t-102.5 113t-154.5 42.5t-154.5 -42.5t-102.5 -113
t-36 -151.5t36 -151.5t102.5 -113t154.5 -42.5t154.5 42.5zM297.5 189.5q-38.5 38.5 -38.5 95.5h69q0 -32 19.5 -54t52.5 -22q32 0 52 22.5t20 54.5t-20 53.5t-52 21.5q-45 0 -65 -41h-67v223h246v-56h-181v-111q11 19 34 29.5t49 10.5q58 0 91 -38t33 -92q0 -57 -38.5 -96
t-101.5 -39q-64 0 -102.5 38.5z" />
    <glyph glyph-name="uni2465" unicode="&#x2465;" horiz-adv-x="799" 
d="M209 34q-82 51 -126.5 135.5t-44.5 180.5t44.5 180.5t126.5 135.5t191 51t191 -51t126.5 -135.5t44.5 -180.5t-44.5 -180.5t-126.5 -135.5t-191 -51t-191 51zM554.5 85.5q66.5 42.5 102.5 113t36 151.5t-36 151.5t-102.5 113t-154.5 42.5t-154.5 -42.5t-102.5 -113
t-36 -151.5t36 -151.5t102.5 -113t154.5 -42.5t154.5 42.5zM295.5 189.5q-38.5 38.5 -38.5 95.5q0 42 22 77l114 180h80l-84 -131q12 4 33 4q52 -6 84 -42.5t32 -87.5q0 -56 -38.5 -95t-101.5 -39q-64 0 -102.5 38.5zM450 231q20 22 20 54t-20 54t-52 22t-52 -22t-20 -54
t20 -54t52 -22t52 22z" />
    <glyph glyph-name="uni2466" unicode="&#x2466;" horiz-adv-x="799" 
d="M209 34q-82 51 -126.5 135.5t-44.5 180.5t44.5 180.5t126.5 135.5t191 51t191 -51t126.5 -135.5t44.5 -180.5t-44.5 -180.5t-126.5 -135.5t-191 -51t-191 51zM554.5 85.5q66.5 42.5 102.5 113t36 151.5t-36 151.5t-102.5 113t-154.5 42.5t-154.5 -42.5t-102.5 -113
t-36 -151.5t36 -151.5t102.5 -113t154.5 -42.5t154.5 42.5zM454 483h-162v59h262l-170 -385h-75z" />
    <glyph glyph-name="uni2467" unicode="&#x2467;" horiz-adv-x="799" 
d="M209 34q-82 51 -126.5 135.5t-44.5 180.5t44.5 180.5t126.5 135.5t191 51t191 -51t126.5 -135.5t44.5 -180.5t-44.5 -180.5t-126.5 -135.5t-191 -51t-191 51zM554.5 85.5q66.5 42.5 102.5 113t36 151.5t-36 151.5t-102.5 113t-154.5 42.5t-154.5 -42.5t-102.5 -113
t-36 -151.5t36 -151.5t102.5 -113t154.5 -42.5t154.5 42.5zM298.5 183.5q-37.5 32.5 -37.5 82.5q0 32 18.5 58.5t48.5 33.5q-27 9 -42.5 32t-15.5 52q0 46 35 77t95 31t95 -31t35 -77q0 -29 -15.5 -52t-43.5 -32q31 -8 49.5 -34t18.5 -58q0 -49 -38 -82t-101 -33
q-64 0 -101.5 32.5zM445 398.5q17 16.5 17 40.5t-17 40.5t-45 16.5q-29 0 -46 -16.5t-17 -40.5t17 -40.5t46 -16.5q28 0 45 16.5zM450 223q19 18 19 44t-19 44t-51 18t-51 -18t-19 -44q0 -27 19 -44.5t51 -17.5t51 18z" />
    <glyph glyph-name="uni2468" unicode="&#x2468;" horiz-adv-x="799" 
d="M209 34q-82 51 -126.5 135.5t-44.5 180.5t44.5 180.5t126.5 135.5t191 51t191 -51t126.5 -135.5t44.5 -180.5t-44.5 -180.5t-126.5 -135.5t-191 -51t-191 51zM554.5 85.5q66.5 42.5 102.5 113t36 151.5t-36 151.5t-102.5 113t-154.5 42.5t-154.5 -42.5t-102.5 -113
t-36 -151.5t36 -151.5t102.5 -113t154.5 -42.5t154.5 42.5zM408 288q-12 -4 -32 -4q-53 6 -85 42.5t-32 87.5q0 57 39 95.5t102 38.5t101.5 -38.5t38.5 -95.5q0 -44 -21 -77l-115 -180h-80zM452.5 360q19.5 22 19.5 54t-19.5 54t-52.5 22q-32 0 -52 -22t-20 -54t20 -54
t52 -22q33 0 52.5 22z" />
    <glyph glyph-name="lozenge" unicode="&#x25ca;" horiz-adv-x="474" 
d="M5 396l194 398h77l193 -398l-193 -396h-77zM381 396l-144 306l-144 -306l144 -305z" />
    <glyph glyph-name="uni2776" unicode="&#x2776;" horiz-adv-x="799" 
d="M209 34q-82 51 -126.5 135.5t-44.5 180.5t44.5 180.5t126.5 135.5t191 51t191 -51t126.5 -135.5t44.5 -180.5t-44.5 -180.5t-126.5 -135.5t-191 -51t-191 51zM443 158v385h-63q0 -36 -17.5 -51t-69.5 -15v-51h78v-268h72z" />
    <glyph glyph-name="uni2777" unicode="&#x2777;" horiz-adv-x="799" 
d="M209 34q-82 51 -126.5 135.5t-44.5 180.5t44.5 180.5t126.5 135.5t191 51t191 -51t126.5 -135.5t44.5 -180.5t-44.5 -180.5t-126.5 -135.5t-191 -51t-191 51zM529 158v58h-180q0 33 16 52.5t63 44.5q45 24 73 51.5t28 72.5q0 55 -35 84t-92 29q-61 0 -96.5 -34.5
t-35.5 -87.5h70q0 33 16.5 50.5t45.5 17.5q27 0 42.5 -14.5t15.5 -39.5q0 -30 -19.5 -47.5t-64.5 -41.5q-37 -19 -59.5 -40.5t-35 -58.5t-12.5 -96h260z" />
    <glyph glyph-name="uni2778" unicode="&#x2778;" horiz-adv-x="799" 
d="M209 34q-82 51 -126.5 135.5t-44.5 180.5t44.5 180.5t126.5 135.5t191 51t191 -51t126.5 -135.5t44.5 -180.5t-44.5 -180.5t-126.5 -135.5t-191 -51t-191 51zM495.5 181.5q38.5 30.5 38.5 82.5q0 36 -18.5 61t-49.5 33q28 8 45 31t17 55q0 50 -37 78t-92 28
q-64 0 -97 -33t-33 -85h70q0 64 61 64q27 0 42.5 -13.5t15.5 -39.5q0 -56 -62 -56h-33v-56h33q34 0 51 -16.5t17 -45.5q0 -26 -17 -43.5t-47 -17.5q-32 0 -51.5 19.5t-19.5 53.5h-70q0 -59 37.5 -94.5t103.5 -35.5q57 0 95.5 30.5z" />
    <glyph glyph-name="uni2779" unicode="&#x2779;" horiz-adv-x="799" 
d="M209 34q-82 51 -126.5 135.5t-44.5 180.5t44.5 180.5t126.5 135.5t191 51t191 -51t126.5 -135.5t44.5 -180.5t-44.5 -180.5t-126.5 -135.5t-191 -51t-191 51zM480 156v116h53v59h-53v113h-70v-113h-82v210h-70v-269h152v-116h70z" />
    <glyph glyph-name="uni277A" unicode="&#x277a;" horiz-adv-x="799" 
d="M209 34q-82 51 -126.5 135.5t-44.5 180.5t44.5 180.5t126.5 135.5t191 51t191 -51t126.5 -135.5t44.5 -180.5t-44.5 -180.5t-126.5 -135.5t-191 -51t-191 51zM501.5 190q38.5 39 38.5 96q0 54 -33 92t-91 38q-26 0 -49 -10.5t-34 -29.5v111h181v56h-246v-223h67
q20 41 65 41q32 0 52 -21.5t20 -53.5t-20 -54.5t-52 -22.5q-33 0 -52.5 22t-19.5 54h-69q0 -57 38.5 -95.5t102.5 -38.5q63 0 101.5 39z" />
    <glyph glyph-name="uni277B" unicode="&#x277b;" horiz-adv-x="799" 
d="M209 34q-82 51 -126.5 135.5t-44.5 180.5t44.5 180.5t126.5 135.5t191 51t191 -51t126.5 -135.5t44.5 -180.5t-44.5 -180.5t-126.5 -135.5t-191 -51t-191 51zM499.5 190q38.5 39 38.5 95q0 51 -32 87.5t-84 42.5q-21 0 -33 -4l84 131h-80l-114 -180q-22 -35 -22 -77
q0 -57 38.5 -95.5t102.5 -38.5q63 0 101.5 39zM346 231q-20 22 -20 54t20 54t52 22t52 -22t20 -54t-20 -54t-52 -22t-52 22z" />
    <glyph glyph-name="uni277C" unicode="&#x277c;" horiz-adv-x="799" 
d="M209 34q-82 51 -126.5 135.5t-44.5 180.5t44.5 180.5t126.5 135.5t191 51t191 -51t126.5 -135.5t44.5 -180.5t-44.5 -180.5t-126.5 -135.5t-191 -51t-191 51zM384 157l170 385h-262v-59h162l-145 -326h75z" />
    <glyph glyph-name="uni277D" unicode="&#x277d;" horiz-adv-x="799" 
d="M209 34q-82 51 -126.5 135.5t-44.5 180.5t44.5 180.5t126.5 135.5t191 51t191 -51t126.5 -135.5t44.5 -180.5t-44.5 -180.5t-126.5 -135.5t-191 -51t-191 51zM501 184q38 33 38 82q0 32 -18.5 58t-49.5 34q28 9 43.5 32t15.5 52q0 46 -35 77t-95 31t-95 -31t-35 -77
q0 -29 15.5 -52t42.5 -32q-30 -7 -48.5 -33.5t-18.5 -58.5q0 -50 37.5 -82.5t101.5 -32.5q63 0 101 33zM354 398.5q-17 16.5 -17 40.5t17 40.5t46 16.5q28 0 45 -16.5t17 -40.5t-17 -40.5t-45 -16.5q-29 0 -46 16.5zM348 222.5q-19 17.5 -19 44.5q0 26 19 44t51 18t51 -18
t19 -44t-19 -44t-51 -18t-51 17.5z" />
    <glyph glyph-name="uni277E" unicode="&#x277e;" horiz-adv-x="799" 
d="M209 34q-82 51 -126.5 135.5t-44.5 180.5t44.5 180.5t126.5 135.5t191 51t191 -51t126.5 -135.5t44.5 -180.5t-44.5 -180.5t-126.5 -135.5t-191 -51t-191 51zM404 157l115 180q21 33 21 77q0 57 -38.5 95.5t-101.5 38.5t-102 -38.5t-39 -95.5q0 -51 32 -87.5t85 -42.5
q20 0 32 4l-84 -131h80zM348 360q-20 22 -20 54t20 54t52 22q33 0 52.5 -22t19.5 -54t-19.5 -54t-52.5 -22q-32 0 -52 22z" />
    <glyph glyph-name="uniF6E9" unicode="&#xf6e9;" horiz-adv-x="402" 
d="M86.5 347q-35.5 38 -35.5 96t35.5 96.5t91.5 38.5q29 0 53 -14.5t35 -36.5v45h66v-257h-66v44q-11 -22 -35 -36t-53 -14q-56 0 -91.5 38zM244.5 388.5q20.5 22.5 20.5 54.5t-20.5 55t-53.5 23q-32 0 -53 -23t-21 -55t21 -54.5t53 -22.5q33 0 53.5 22.5z" />
    <glyph glyph-name="uniF6EA" unicode="&#xf6ea;" horiz-adv-x="403" 
d="M170 323q-24 14 -35 36v-44h-66v385h66v-173q11 22 35 36.5t53 14.5q56 0 91.5 -38.5t35.5 -96.5t-35.5 -96t-91.5 -38q-29 0 -53 14zM263.5 388.5q20.5 22.5 20.5 54.5t-20.5 55t-52.5 23q-33 0 -54 -23t-21 -55t21 -54.5t54 -22.5q32 0 52.5 22.5z" />
    <glyph glyph-name="uniF6EB" unicode="&#xf6eb;" horiz-adv-x="402" 
d="M86.5 347q-35.5 38 -35.5 96t35.5 96.5t91.5 38.5q29 0 53 -14.5t35 -36.5v173h66v-385h-66v44q-11 -22 -35 -36t-53 -14q-56 0 -91.5 38zM244.5 388.5q20.5 22.5 20.5 54.5t-20.5 55t-53.5 23q-32 0 -53 -23t-21 -55t21 -54.5t53 -22.5q33 0 53.5 22.5z" />
    <glyph glyph-name="uniF6EC" unicode="&#xf6ec;" horiz-adv-x="368" 
d="M87 347.5q-36 38.5 -36 95.5q0 59 35.5 97t98.5 38q56 0 92.5 -34t36.5 -82q0 -13 -3 -34h-193q0 -31 16.5 -51t51.5 -20q44 0 59 37h65q-6 -37 -39 -61t-84 -24q-64 0 -100 38.5zM248 468q0 28 -17.5 45t-45.5 17q-29 0 -47 -16.5t-19 -45.5h129z" />
    <glyph glyph-name="uniF6ED" unicode="&#xf6ed;" horiz-adv-x="221" 
d="M78.5 630q-13.5 13 -13.5 32t13.5 32.5t32.5 13.5t32.5 -13.5t13.5 -32.5t-13.5 -32t-32.5 -13t-32.5 13zM77 572h66v-257h-66v257z" />
    <glyph glyph-name="uniF6EE" unicode="&#xf6ee;" horiz-adv-x="205" 
d="M69 700h66v-385h-66v385z" />
    <glyph glyph-name="uniF6EF" unicode="&#xf6ef;" horiz-adv-x="530" 
d="M69 572h65v-45q8 22 28.5 36.5t48.5 14.5q64 0 79 -53q9 23 31.5 38t52.5 15q90 0 90 -104v-159h-64v143q0 63 -48 63q-25 0 -39 -19.5t-14 -57.5v-129h-65v140q0 66 -46 66q-25 0 -39.5 -19.5t-14.5 -57.5v-129h-65v257z" />
    <glyph glyph-name="uniF6F0" unicode="&#xf6f0;" horiz-adv-x="381" 
d="M88.5 347.5q-38.5 38.5 -38.5 95.5t38.5 96t102.5 39q63 0 101.5 -39t38.5 -96q0 -56 -38.5 -95t-101.5 -39q-64 0 -102.5 38.5zM243.5 388.5q20.5 22.5 20.5 54.5q0 33 -20.5 55.5t-53.5 22.5t-53.5 -22.5t-20.5 -55.5q0 -32 20.5 -54.5t53.5 -22.5t53.5 22.5z" />
    <glyph glyph-name="uniF6F1" unicode="&#xf6f1;" horiz-adv-x="277" 
d="M69 572h66v-50q10 24 33 39t51 15q16 0 25 -4v-61q-15 4 -28 4q-39 0 -60 -24.5t-21 -70.5v-105h-66v257z" />
    <glyph glyph-name="uniF6F2" unicode="&#xf6f2;" horiz-adv-x="330" 
d="M81 333q-31 24 -31 69h65q0 -25 14.5 -36.5t38.5 -11.5q21 0 32.5 8t11.5 24t-14.5 23t-59.5 19q-42 13 -61.5 26.5t-19.5 46.5q0 38 29 57.5t79 19.5q52 0 80 -23t28 -62h-65q0 19 -12 30t-33 11q-18 0 -29.5 -8t-11.5 -23q0 -14 12 -20.5t32 -12t27 -7.5q30 -9 46 -16
t27 -21t11 -37q0 -41 -30 -60.5t-81 -19.5q-54 0 -85 24z" />
    <glyph glyph-name="uniF6F3" unicode="&#xf6f3;" horiz-adv-x="260" 
d="M109 328q-24 17 -24 73v120h-45v51h45v84h66v-84h65v-51h-65v-105q0 -31 10.5 -41t29.5 -10q16 0 32 2v-52q-24 -4 -51 -4q-39 0 -63 17z" />
    <glyph glyph-name="zeroslash" horiz-adv-x="617" 
d="M511 592.5q58 -98.5 58 -252.5t-58 -252.5t-202 -98.5t-202.5 98.5t-58.5 252.5t58.5 252.5t202.5 98.5t202 -98.5zM176 134l201 468q-33 13 -69 13q-97 0 -136 -75t-39 -200q0 -138 43 -206zM445 140q39 75 39 200q0 156 -55 223l-206 -477q37 -21 85 -21q98 0 137 75z
" />
    <glyph glyph-name="zeroslash.tf" horiz-adv-x="620" 
d="M432.5 660q54.5 -31 85.5 -85.5t31 -121.5v-227q0 -67 -31 -121.5t-85.5 -85.5t-122.5 -31t-122.5 31t-85.5 85.5t-31 121.5v227q0 67 31 121.5t85.5 85.5t122.5 31t122.5 -31zM161 226q0 -50 23 -88l196 456q-32 16 -70 16q-65 0 -107 -45t-42 -112v-227zM460 453
q0 56 -30 97l-198 -460q36 -21 78 -21q66 0 108 45t42 112v227z" />
    <glyph glyph-name="zero.tf" horiz-adv-x="620" 
d="M187.5 19q-54.5 31 -85.5 85.5t-31 121.5v227q0 67 31 121.5t85.5 85.5t122.5 31t122.5 -31t85.5 -85.5t31 -121.5v-227q0 -67 -31 -121.5t-85.5 -85.5t-122.5 -31t-122.5 31zM418 114q42 45 42 112v227q0 67 -42 112t-108 45q-65 0 -107 -45t-42 -112v-227
q0 -67 42 -112t107 -45q66 0 108 45z" />
    <glyph glyph-name="one.tf" horiz-adv-x="620" 
d="M556 81v-81h-472v81h189v416h-185v72h49q68 0 103 28.5t41 87.5h85v-604h190z" />
    <glyph glyph-name="two.tf" horiz-adv-x="620" 
d="M107.5 184.5q38.5 68.5 130.5 115.5l103 54q96 50 96 144q0 51 -33.5 83t-86.5 32q-66 0 -103 -42t-37 -116h-93q0 71 29 124.5t81.5 82.5t122.5 29q101 0 158 -50t57 -139q0 -65 -34.5 -118t-100.5 -88l-101 -55q-45 -24 -69.5 -45t-36 -47.5t-15.5 -67.5h357v-81h-463
q0 116 38.5 184.5z" />
    <glyph glyph-name="three.tf" horiz-adv-x="620" 
d="M128.5 48.5q-64.5 59.5 -64.5 164.5h91q0 -70 40.5 -109t111.5 -39q62 0 101 34.5t39 89.5q0 61 -37.5 93.5t-107.5 32.5h-50v78h51q62 0 95 29.5t33 84.5q0 49 -34.5 79t-90.5 30q-63 0 -100 -34.5t-37 -93.5h-92q0 61 28 107t80 71t120 25q65 0 114 -23t76 -64.5
t27 -96.5q0 -57 -32.5 -96t-91.5 -55q63 -11 101 -56t38 -110q0 -59 -29 -105t-81.5 -71t-119.5 -25q-114 0 -178.5 59.5z" />
    <glyph glyph-name="four.tf" horiz-adv-x="620" 
d="M362 221h-271v459h89v-378h182v201h89v-201h106v-81h-106v-221h-89v221z" />
    <glyph glyph-name="five.tf" horiz-adv-x="620" 
d="M140.5 43.5q-63.5 54.5 -68.5 146.5h90q3 -55 42.5 -88t102.5 -33q65 0 105.5 43.5t40.5 113.5q0 68 -39 109t-105 41q-52 0 -87.5 -21.5t-51.5 -62.5h-85v388h413v-80h-332v-220q53 73 161 73q64 0 113 -28t76 -79.5t27 -119.5t-30 -122t-84 -84.5t-122 -30.5
q-103 0 -166.5 54.5z" />
    <glyph glyph-name="six.tf" horiz-adv-x="620" 
d="M431.5 434.5q55.5 -30.5 87 -84.5t31.5 -123t-31.5 -123t-87 -84.5t-126.5 -30.5q-70 0 -125 30.5t-86 84.5t-31 123q0 73 36 131l2 3l9 13l207 294h106l-145 -204q9 1 27 1q71 0 126.5 -30.5zM418 112q42 43 42 115t-42 115t-112 43q-69 0 -111 -43.5t-42 -114.5
t42 -114.5t111 -43.5q70 0 112 43z" />
    <glyph glyph-name="seven.tf" horiz-adv-x="620" 
d="M431 599h-337v81h467l-353 -680h-95z" />
    <glyph glyph-name="eight.tf" horiz-adv-x="620" 
d="M184 13q-54 24 -83.5 69t-29.5 104q0 64 34 108.5t94 61.5q-50 15 -80.5 56t-30.5 96q0 53 28.5 95t79 65t114.5 23t114.5 -23t78.5 -65t28 -95q0 -55 -30 -96t-81 -56q60 -17 94.5 -62t34.5 -108q0 -59 -29.5 -104t-83.5 -69t-126 -24t-126 24zM404 422.5
q35 30.5 35 81.5t-35.5 82.5t-93.5 31.5t-94 -31.5t-36 -82.5t35.5 -81.5t94.5 -30.5t94 30.5zM417 100q40 35 40 94q0 57 -40 92t-107 35t-107.5 -35t-40.5 -92q0 -59 40.5 -94t107.5 -35t107 35z" />
    <glyph glyph-name="nine.tf" horiz-adv-x="620" 
d="M506 319l-9 -13l-207 -294h-106l145 204q-9 -1 -27 -1q-71 0 -126.5 30.5t-87 84.5t-31.5 123t31.5 123t87 84.5t126.5 30.5q70 0 125 -30.5t86 -84.5t31 -123q0 -73 -36 -131zM412 338.5q42 43.5 42 114.5t-42 114.5t-111 43.5q-70 0 -112 -43t-42 -115t42 -115t112 -43
q69 0 111 43.5z" />
    <glyph glyph-name="csuperior" horiz-adv-x="368" 
d="M87 348q-36 39 -36 95q0 57 36 96.5t99 39.5q60 0 92.5 -30.5t36.5 -75.5h-66q-2 22 -17.5 35.5t-44.5 13.5q-34 0 -52 -22.5t-18 -56.5t18.5 -55.5t54.5 -21.5q47 0 59 43h67q-6 -45 -39 -72.5t-91 -27.5q-63 0 -99 39z" />
    <glyph glyph-name="fsuperior" horiz-adv-x="260" 
d="M90 521h-50v51h50v35q0 60 26 79t66 19q25 0 42 -7v-49q-12 4 -28 4q-18 0 -28.5 -8t-10.5 -34v-39h67v-51h-67v-206h-67v206z" />
    <glyph glyph-name="gsuperior" horiz-adv-x="400" 
d="M89.5 210.5q-33.5 29.5 -35.5 78.5h67q2 -25 19.5 -41.5t49.5 -16.5q76 0 76 75v54q-11 -22 -35 -35.5t-52 -13.5q-57 0 -92.5 37.5t-35.5 94.5q0 58 35 96.5t91 38.5q29 0 53 -13.5t36 -36.5v44h66v-262q0 -69 -34.5 -99t-107.5 -30q-67 0 -100.5 29.5zM244.5 388.5
q20.5 22.5 20.5 54.5t-20.5 55t-53.5 23q-32 0 -53 -23t-21 -55t21 -54.5t53 -22.5q33 0 53.5 22.5z" />
    <glyph glyph-name="ksuperior" horiz-adv-x="345" 
d="M69 700h66v-241l94 113h81l-110 -129l110 -128h-81l-94 112v-112h-66v385z" />
    <glyph glyph-name="psuperior" horiz-adv-x="403" 
d="M69 572h66v-44q11 22 35 36t53 14q56 0 91.5 -38.5t35.5 -96.5t-35.5 -96t-91.5 -38q-29 0 -53 14.5t-35 36.5v-173h-66v385zM263.5 388.5q20.5 22.5 20.5 54.5t-20.5 55t-52.5 23q-33 0 -54 -23t-21 -55t21 -54.5t54 -22.5q32 0 52.5 22.5z" />
    <glyph glyph-name="qsuperior" horiz-adv-x="403" 
d="M267 360q-11 -22 -35 -36.5t-53 -14.5q-56 0 -91.5 38t-35.5 96t35.5 96.5t91.5 38.5q29 0 53 -14t35 -36v44h66v-385h-66v173zM245.5 388.5q20.5 22.5 20.5 54.5t-20.5 55t-53.5 23q-32 0 -53 -23t-21 -55t21 -54.5t53 -22.5q33 0 53.5 22.5z" />
    <glyph glyph-name="usuperior" horiz-adv-x="385" 
d="M86 338q-12 14 -16.5 34t-4.5 49v151h66v-135q0 -33 13.5 -52.5t42.5 -19.5q30 0 46.5 22t16.5 56v129h66v-257h-66v45q-11 -23 -34.5 -37t-55.5 -14q-48 0 -74 29z" />
    <glyph glyph-name="vsuperior" horiz-adv-x="348" 
d="M31 572h70l73 -178l73 178h70l-117 -257h-53z" />
    <glyph glyph-name="zsuperior" horiz-adv-x="316" 
d="M171 515h-122v57h226l-128 -200h126v-57h-231z" />
    <glyph glyph-name="a.comp2" horiz-adv-x="597" 
d="M229 13.5q-44 24.5 -66 66.5v-80h-85v453h85v-79q22 41 67.5 66t100.5 25q65 0 115 -30t78 -84t28 -124q0 -69 -29 -123t-80.5 -84.5t-116.5 -30.5q-53 0 -97 24.5zM424 110.5q43 45.5 43 116.5q0 70 -43 115.5t-110 45.5q-68 0 -111.5 -45t-43.5 -116t43.5 -116.5
t111.5 -45.5q67 0 110 45.5z" />
    <glyph glyph-name="percent.circle" horiz-adv-x="437" 
d="M123.5 18.5q-40.5 23.5 -62 62.5t-21.5 85t21.5 85t62 62.5t94.5 23.5q55 0 95.5 -23.5t62 -62.5t21.5 -85t-21.5 -85t-62 -62.5t-95.5 -23.5q-54 0 -94.5 23.5zM293.5 91.5q27.5 29.5 27.5 74.5q0 44 -27.5 74t-75.5 30t-76 -30t-28 -74q0 -45 27.5 -74.5t76.5 -29.5
q48 0 75.5 29.5z" />
    <glyph glyph-name="a.comp" horiz-adv-x="597" 
d="M150 20.5q-51 31.5 -78.5 86t-27.5 120.5t28.5 120.5t80.5 86t119 31.5q54 0 97 -24.5t64 -66.5v79h85v-453h-85v80q-21 -42 -66 -66.5t-97 -24.5q-69 0 -120 31.5zM366 87q35 22 53.5 58.5t18.5 81.5q0 44 -18.5 81t-54 58.5t-82.5 21.5q-69 0 -111 -46t-42 -115
q0 -70 42 -116t111 -46q48 0 83 22z" />
    <glyph glyph-name="uni0308.I" 
d="M-316.5 778q-17.5 18 -17.5 43q0 26 17.5 44t43.5 18t43.5 -18t17.5 -44q0 -25 -18 -43t-43 -18q-26 0 -43.5 18zM-179.5 778q-17.5 18 -17.5 43q0 26 17.5 44t43.5 18t43.5 -18t17.5 -44t-17.5 -43.5t-43.5 -17.5t-43.5 18z" />
    <glyph glyph-name="gravecomb.I" 
d="M-634 827l39 58l149 -88l-39 -59z" />
    <glyph glyph-name="acutecomb.I" 
d="M-512 808l161 99l39 -56l-161 -99z" />
    <glyph glyph-name="uni0302.I" 
d="M-412 798l-73 -61l-47 50l120 100l121 -100l-46 -51z" />
    <glyph glyph-name="uni0306.I" 
d="M-481.5 767q-32.5 30 -33.5 99h66q1 -34 15 -50.5t36 -16.5q21 0 35 16.5t15 50.5h66q0 -69 -33 -99t-83 -30q-51 0 -83.5 30z" />
    <glyph glyph-name="tildecomb.I" 
d="M-180 758q-10 7 -22 20q-10 11 -17.5 16.5t-16.5 5.5q-12 0 -20.5 -6.5t-18.5 -26.5l-21 44q12 33 29.5 47.5t35.5 14.5q16 0 27 -7.5t27 -21.5q21 -21 33 -21q11 0 19 6t16 23l20 -45q-9 -31 -27 -43.5t-39 -12.5q-15 0 -25 7z" />
    <glyph glyph-name="uni0304.I" 
d="M-314 836h201v-68h-201v68z" />
    <glyph glyph-name="uni0308.case" 
d="M-392 767q-19 19 -19 47t19 47.5t47 19.5t47.5 -19.5t19.5 -47.5t-19.5 -47t-47.5 -19t-47 19zM-155 767q-19 19 -19 47t19 47.5t47 19.5t47.5 -19.5t19.5 -47.5t-19.5 -47t-47.5 -19t-47 19z" />
    <glyph glyph-name="uni0307.case" 
d="M-142.5 762q-19.5 20 -19.5 49q0 30 19.5 50t49.5 20t50 -20t20 -50q0 -29 -20 -49t-50 -20t-49.5 20z" />
    <glyph glyph-name="gravecomb.case" 
d="M-198 835l39 59l217 -105l-38 -58z" />
    <glyph glyph-name="acutecomb.case" 
d="M-322 789l217 105l39 -59l-218 -104z" />
    <glyph glyph-name="uni030B.case" 
d="M-414 756l127 132l77 -30l-156 -122zM-235 756l127 132l76 -32l-156 -121z" />
    <glyph glyph-name="uni0302.case" 
d="M-18 775l-50 -43l-121 94l-121 -94l-50 43l171 129z" />
    <glyph glyph-name="uni030C.case" 
d="M-362 859l50 43l121 -94l121 94l50 -43l-171 -129z" />
    <glyph glyph-name="uni0306.case" 
d="M-322.5 770.5q-50.5 36.5 -60.5 98.5h73q7 -37 36 -55t72 -18q44 0 73 18t36 55h73q-10 -62 -61 -98.5t-121 -36.5t-120.5 36.5z" />
    <glyph glyph-name="uni030A.case" 
d="M-211.5 672.5q-28.5 16.5 -45 44t-16.5 60.5q0 51 36 86.5t88 35.5q34 0 63.5 -16.5t46.5 -44.5t17 -61q0 -32 -17 -60t-46.5 -44.5t-63.5 -16.5t-62.5 16.5zM-99 729q20 20 20 49q0 30 -20 49.5t-50 19.5q-28 0 -48 -20.5t-20 -49.5q0 -28 20 -48t48 -20q30 0 50 20z
" />
    <glyph glyph-name="tildecomb.case" 
d="M-219 747.5q-20 8.5 -47 25.5q-20 14 -35 21t-31 7q-21 0 -37 -9.5t-36 -36.5l-37 34q46 78 105 78q23 0 43.5 -9t46.5 -25q25 -14 40 -21t31 -7q23 0 41.5 10t38.5 38l36 -38q-42 -76 -116 -76q-23 0 -43 8.5z" />
    <glyph glyph-name="uni0304.case" 
d="M-453 836h386v-68h-386v68z" />
    <glyph glyph-name="uni0308.i" 
d="M-312.5 557.5q-16.5 16.5 -16.5 39.5q0 24 16.5 40.5t39.5 16.5q24 0 41 -16.5t17 -40.5q0 -23 -17 -39.5t-41 -16.5q-23 0 -39.5 16.5zM-180.5 557.5q-16.5 16.5 -16.5 39.5q0 24 16.5 40.5t39.5 16.5q25 0 41.5 -16.5t16.5 -40.5q0 -23 -16.5 -39.5t-41.5 -16.5
q-23 0 -39.5 16.5z" />
    <glyph glyph-name="gravecomb.i" 
d="M-478 615l39 59l151 -99l-40 -59z" />
    <glyph glyph-name="acutecomb.i" 
d="M-498 575l150 99l40 -59l-151 -99z" />
    <glyph glyph-name="uni0302.i" 
d="M-513 567l120 111l121 -111l-46 -50l-75 72l-73 -71z" />
    <glyph glyph-name="uni0306.i" 
d="M-443 566.5q-31 30.5 -32 97.5h59q1 -36 15 -54.5t35 -18.5t35 18.5t16 54.5h59q-1 -67 -32 -97.5t-78 -30.5q-46 0 -77 30.5z" />
    <glyph glyph-name="tildecomb.i" 
d="M-186.5 540.5q-10.5 7.5 -22.5 20.5q-18 22 -33 22q-13 0 -21 -6.5t-18 -26.5l-21 44q12 32 29.5 47t34.5 15q16 0 28.5 -8t26.5 -22q2 -2 9.5 -8t13 -9t10.5 -3q11 0 18.5 6t16.5 23l20 -45q-10 -31 -28 -44t-38 -13q-15 0 -25.5 7.5z" />
    <glyph glyph-name="uni0304.i" 
d="M-263 621h197v-68h-197v68z" />
    <glyph glyph-name="acendcaroncomb" horiz-adv-x="261" 
d="M53 547v40q11 -2 30 -2t34 9t22 24q13 21 13 50q-12 -15 -38 -15q-27 0 -45 17.5t-18 46.5q0 30 19 48.5t49 18.5q33 0 59 -28t26 -80q0 -58 -32 -94.5t-88 -36.5q-23 0 -31 2z" />
    <glyph glyph-name="commaturncomb" horiz-adv-x="209" 
d="M163 685q-23 0 -38.5 -7.5t-22.5 -20.5q-12 -18 -10 -39q2 4 8 6.5t13 2.5q25 0 41 -16.5t16 -40.5t-17 -41.5t-41 -17.5q-31 0 -51 24.5t-20 61.5q0 122 122 124v-36z" />
    </font>
</defs>
</svg>
